{
  "header": {
    "PPQ": 192,
    "timeSignature": [
      6,
      4
    ],
    "bpm": 210.00021000021,
    "name": "Christmas Bells"
  },
  "startTime": 0,
  "duration": 186.85695600000074,
  "tracks": [
    {
      "startTime": 0,
      "duration": 0,
      "length": 0,
      "notes": [],
      "controlChanges": {},
      "id": 0,
      "name": "Christmas Bells"
    },
    {
      "startTime": 22.285692,
      "duration": 178.71410699999987,
      "length": 67,
      "notes": [
        {
          "name": "C#3",
          "midi": 49,
          "time": 22.285692,
          "velocity": 0.9212598425196851,
          "duration": 1.4285700000000006
        },
        {
          "name": "C#3",
          "midi": 49,
          "time": 29.142828,
          "velocity": 0.9212598425196851,
          "duration": 1.4285700000000006
        },
        {
          "name": "C#3",
          "midi": 49,
          "time": 34.28568,
          "velocity": 0.9212598425196851,
          "duration": 1.4285700000000006
        },
        {
          "name": "C#3",
          "midi": 49,
          "time": 35.999964,
          "velocity": 0.9212598425196851,
          "duration": 1.4285700000000006
        },
        {
          "name": "C#3",
          "midi": 49,
          "time": 41.142815999999996,
          "velocity": 0.7952755905511811,
          "duration": 0.2857139999999916
        },
        {
          "name": "C#3",
          "midi": 49,
          "time": 41.71424399999997,
          "velocity": 0.2992125984251969,
          "duration": 0.2857139999999845
        },
        {
          "name": "C#3",
          "midi": 49,
          "time": 41.99995799999996,
          "velocity": 0.2992125984251969,
          "duration": 0.2857139999999845
        },
        {
          "name": "C#3",
          "midi": 49,
          "time": 42.28567199999994,
          "velocity": 0.2992125984251969,
          "duration": 0.14285699999999224
        },
        {
          "name": "C#3",
          "midi": 49,
          "time": 42.42852899999993,
          "velocity": 0.2992125984251969,
          "duration": 0.14285699999999224
        },
        {
          "name": "C#3",
          "midi": 49,
          "time": 42.571385999999926,
          "velocity": 0.2992125984251969,
          "duration": 0.14285699999999224
        },
        {
          "name": "C#3",
          "midi": 49,
          "time": 42.71424299999992,
          "velocity": 0.2992125984251969,
          "duration": 0.14285699999999224
        },
        {
          "name": "C#3",
          "midi": 49,
          "time": 42.85709999999991,
          "velocity": 0.7952755905511811,
          "duration": 1.4285700000000006
        },
        {
          "name": "C#3",
          "midi": 49,
          "time": 49.714235999999914,
          "velocity": 0.7952755905511811,
          "duration": 1.4285700000000006
        },
        {
          "name": "C#3",
          "midi": 49,
          "time": 70.28564399999992,
          "velocity": 0.6692913385826772,
          "duration": 1.4285699999999935
        },
        {
          "name": "C#3",
          "midi": 49,
          "time": 73.71421199999992,
          "velocity": 0.6692913385826772,
          "duration": 0.42857100000000514
        },
        {
          "name": "C#3",
          "midi": 49,
          "time": 74.57135399999993,
          "velocity": 0.6692913385826772,
          "duration": 0.42857100000000514
        },
        {
          "name": "C#3",
          "midi": 49,
          "time": 75.42849599999994,
          "velocity": 0.6692913385826772,
          "duration": 0.42857100000000514
        },
        {
          "name": "C#3",
          "midi": 49,
          "time": 76.28563799999995,
          "velocity": 0.6692913385826772,
          "duration": 0.5714279999999974
        },
        {
          "name": "C#3",
          "midi": 49,
          "time": 76.85706599999995,
          "velocity": 0.6692913385826772,
          "duration": 0.2857139999999987
        },
        {
          "name": "C#3",
          "midi": 49,
          "time": 90.85705199999995,
          "velocity": 0.7952755905511811,
          "duration": 0.42857100000000514
        },
        {
          "name": "C#3",
          "midi": 49,
          "time": 91.71419399999996,
          "velocity": 0.7952755905511811,
          "duration": 0.5714279999999974
        },
        {
          "name": "C#3",
          "midi": 49,
          "time": 92.28562199999996,
          "velocity": 0.7952755905511811,
          "duration": 0.2857139999999987
        },
        {
          "name": "C#3",
          "midi": 49,
          "time": 97.71418799999996,
          "velocity": 0.7952755905511811,
          "duration": 1.4285699999999935
        },
        {
          "name": "C#3",
          "midi": 49,
          "time": 104.57132399999996,
          "velocity": 0.6692913385826772,
          "duration": 0.42857100000000514
        },
        {
          "name": "C#3",
          "midi": 49,
          "time": 105.42846599999997,
          "velocity": 0.6692913385826772,
          "duration": 0.5714279999999974
        },
        {
          "name": "C#3",
          "midi": 49,
          "time": 105.99989399999997,
          "velocity": 0.6692913385826772,
          "duration": 0.2857139999999987
        },
        {
          "name": "C#3",
          "midi": 49,
          "time": 106.28560799999997,
          "velocity": 0.6692913385826772,
          "duration": 0.42857100000000514
        },
        {
          "name": "C#3",
          "midi": 49,
          "time": 107.14274999999998,
          "velocity": 0.6692913385826772,
          "duration": 0.5714279999999974
        },
        {
          "name": "C#3",
          "midi": 49,
          "time": 107.71417799999998,
          "velocity": 0.6692913385826772,
          "duration": 0.2857139999999987
        },
        {
          "name": "C#3",
          "midi": 49,
          "time": 109.71417599999998,
          "velocity": 0.9212598425196851,
          "duration": 0.2857139999999845
        },
        {
          "name": "C#3",
          "midi": 49,
          "time": 110.28560399999995,
          "velocity": 0.4251968503937008,
          "duration": 0.2857139999999845
        },
        {
          "name": "C#3",
          "midi": 49,
          "time": 110.57131799999993,
          "velocity": 0.4251968503937008,
          "duration": 0.2857139999999845
        },
        {
          "name": "C#3",
          "midi": 49,
          "time": 110.85703199999992,
          "velocity": 0.4251968503937008,
          "duration": 0.14285699999999224
        },
        {
          "name": "C#3",
          "midi": 49,
          "time": 110.99988899999991,
          "velocity": 0.4251968503937008,
          "duration": 0.14285699999999224
        },
        {
          "name": "C#3",
          "midi": 49,
          "time": 111.1427459999999,
          "velocity": 0.4251968503937008,
          "duration": 0.14285699999999224
        },
        {
          "name": "C#3",
          "midi": 49,
          "time": 111.2856029999999,
          "velocity": 0.4251968503937008,
          "duration": 0.14285699999999224
        },
        {
          "name": "C#3",
          "midi": 49,
          "time": 111.42845999999989,
          "velocity": 0.9212598425196851,
          "duration": 1.4285699999999935
        },
        {
          "name": "C#3",
          "midi": 49,
          "time": 123.42844799999989,
          "velocity": 0.9212598425196851,
          "duration": 0.2857139999999845
        },
        {
          "name": "C#3",
          "midi": 49,
          "time": 123.99987599999986,
          "velocity": 0.4251968503937008,
          "duration": 0.2857139999999845
        },
        {
          "name": "C#3",
          "midi": 49,
          "time": 124.28558999999984,
          "velocity": 0.4251968503937008,
          "duration": 0.2857139999999845
        },
        {
          "name": "C#3",
          "midi": 49,
          "time": 124.57130399999983,
          "velocity": 0.4251968503937008,
          "duration": 0.14285699999999224
        },
        {
          "name": "C#3",
          "midi": 49,
          "time": 124.71416099999982,
          "velocity": 0.4251968503937008,
          "duration": 0.14285699999999224
        },
        {
          "name": "C#3",
          "midi": 49,
          "time": 124.85701799999981,
          "velocity": 0.4251968503937008,
          "duration": 0.14285699999999224
        },
        {
          "name": "C#3",
          "midi": 49,
          "time": 124.9998749999998,
          "velocity": 0.4251968503937008,
          "duration": 0.14285699999999224
        },
        {
          "name": "C#3",
          "midi": 49,
          "time": 125.1427319999998,
          "velocity": 0.6692913385826772,
          "duration": 1.4285699999999935
        },
        {
          "name": "C#3",
          "midi": 49,
          "time": 133.71415199999979,
          "velocity": 0.5433070866141733,
          "duration": 1.4285700000000077
        },
        {
          "name": "C#3",
          "midi": 49,
          "time": 145.7141399999998,
          "velocity": 0.6692913385826772,
          "duration": 0.42857100000000514
        },
        {
          "name": "C#3",
          "midi": 49,
          "time": 146.5712819999998,
          "velocity": 0.6692913385826772,
          "duration": 0.5714279999999974
        },
        {
          "name": "C#3",
          "midi": 49,
          "time": 147.1427099999998,
          "velocity": 0.6692913385826772,
          "duration": 0.2857140000000129
        },
        {
          "name": "C#3",
          "midi": 49,
          "time": 147.4284239999998,
          "velocity": 0.6692913385826772,
          "duration": 0.42857100000000514
        },
        {
          "name": "C#3",
          "midi": 49,
          "time": 148.28556599999982,
          "velocity": 0.6692913385826772,
          "duration": 0.5714279999999974
        },
        {
          "name": "C#3",
          "midi": 49,
          "time": 148.85699399999982,
          "velocity": 0.6692913385826772,
          "duration": 0.2857140000000129
        },
        {
          "name": "C#3",
          "midi": 49,
          "time": 149.14270799999983,
          "velocity": 0.6692913385826772,
          "duration": 0.42857100000000514
        },
        {
          "name": "C#3",
          "midi": 49,
          "time": 149.99984999999984,
          "velocity": 0.6692913385826772,
          "duration": 0.5714279999999974
        },
        {
          "name": "C#3",
          "midi": 49,
          "time": 150.57127799999984,
          "velocity": 0.6692913385826772,
          "duration": 0.2857140000000129
        },
        {
          "name": "C#3",
          "midi": 49,
          "time": 150.85699199999985,
          "velocity": 0.6692913385826772,
          "duration": 0.42857100000000514
        },
        {
          "name": "C#3",
          "midi": 49,
          "time": 151.71413399999986,
          "velocity": 0.6692913385826772,
          "duration": 0.5714279999999974
        },
        {
          "name": "C#3",
          "midi": 49,
          "time": 152.28556199999986,
          "velocity": 0.6692913385826772,
          "duration": 0.2857140000000129
        },
        {
          "name": "C#3",
          "midi": 49,
          "time": 152.57127599999987,
          "velocity": 0.6692913385826772,
          "duration": 0.42857100000000514
        },
        {
          "name": "C#3",
          "midi": 49,
          "time": 153.42841799999988,
          "velocity": 0.6692913385826772,
          "duration": 0.5714279999999974
        },
        {
          "name": "C#3",
          "midi": 49,
          "time": 153.99984599999988,
          "velocity": 0.6692913385826772,
          "duration": 0.2857140000000129
        },
        {
          "name": "C#3",
          "midi": 49,
          "time": 166.2855479999999,
          "velocity": 0.9212598425196851,
          "duration": 0.42857100000000514
        },
        {
          "name": "C#3",
          "midi": 49,
          "time": 167.99983199999988,
          "velocity": 0.9212598425196851,
          "duration": 0.42857100000000514
        },
        {
          "name": "C#3",
          "midi": 49,
          "time": 173.1426839999999,
          "velocity": 0.9212598425196851,
          "duration": 0.42857100000000514
        },
        {
          "name": "C#3",
          "midi": 49,
          "time": 174.85696799999988,
          "velocity": 0.9212598425196851,
          "duration": 0.42857100000000514
        },
        {
          "name": "C#3",
          "midi": 49,
          "time": 176.57125199999987,
          "velocity": 0.9212598425196851,
          "duration": 0.42857100000000514
        },
        {
          "name": "C#3",
          "midi": 49,
          "time": 178.28553599999987,
          "velocity": 0.9212598425196851,
          "duration": 0.42857100000000514
        }
      ],
      "controlChanges": {
        "1": [
          {
            "number": 1,
            "time": 180.05339137499988,
            "value": 0
          }
        ],
        "7": [
          {
            "number": 7,
            "time": 0,
            "value": 0.7874015748031497
          },
          {
            "number": 7,
            "time": 41.142815999999996,
            "value": 0.6299212598425197
          },
          {
            "number": 7,
            "time": 41.2142445,
            "value": 0.6377952755905512
          },
          {
            "number": 7,
            "time": 41.24995875,
            "value": 0.6456692913385826
          },
          {
            "number": 7,
            "time": 41.285672999999996,
            "value": 0.6535433070866141
          },
          {
            "number": 7,
            "time": 41.321387249999994,
            "value": 0.6614173228346457
          },
          {
            "number": 7,
            "time": 41.35710149999999,
            "value": 0.6692913385826772
          },
          {
            "number": 7,
            "time": 41.39281574999999,
            "value": 0.6771653543307087
          },
          {
            "number": 7,
            "time": 41.42852999999999,
            "value": 0.6850393700787402
          },
          {
            "number": 7,
            "time": 41.464244249999986,
            "value": 0.6929133858267716
          },
          {
            "number": 7,
            "time": 41.499958499999984,
            "value": 0.7007874015748031
          },
          {
            "number": 7,
            "time": 41.53567274999998,
            "value": 0.7086614173228346
          },
          {
            "number": 7,
            "time": 41.57138699999998,
            "value": 0.7165354330708661
          },
          {
            "number": 7,
            "time": 41.60710124999998,
            "value": 0.7244094488188977
          },
          {
            "number": 7,
            "time": 41.642815499999976,
            "value": 0.7322834645669292
          },
          {
            "number": 7,
            "time": 41.678529749999974,
            "value": 0.7401574803149606
          },
          {
            "number": 7,
            "time": 41.71424399999997,
            "value": 0.7480314960629921
          },
          {
            "number": 7,
            "time": 41.74995824999997,
            "value": 0.7559055118110236
          },
          {
            "number": 7,
            "time": 41.78567249999997,
            "value": 0.7637795275590551
          },
          {
            "number": 7,
            "time": 41.82138674999997,
            "value": 0.7716535433070866
          },
          {
            "number": 7,
            "time": 41.857100999999965,
            "value": 0.7795275590551181
          },
          {
            "number": 7,
            "time": 41.89281524999996,
            "value": 0.7874015748031497
          },
          {
            "number": 7,
            "time": 41.92852949999996,
            "value": 0.7952755905511811
          },
          {
            "number": 7,
            "time": 41.96424374999996,
            "value": 0.8031496062992126
          },
          {
            "number": 7,
            "time": 41.99995799999996,
            "value": 0.8110236220472441
          },
          {
            "number": 7,
            "time": 42.035672249999955,
            "value": 0.8188976377952756
          },
          {
            "number": 7,
            "time": 42.07138649999995,
            "value": 0.8267716535433071
          },
          {
            "number": 7,
            "time": 42.10710074999995,
            "value": 0.8346456692913385
          },
          {
            "number": 7,
            "time": 42.14281499999995,
            "value": 0.84251968503937
          },
          {
            "number": 7,
            "time": 42.17852924999995,
            "value": 0.8503937007874016
          },
          {
            "number": 7,
            "time": 42.214243499999945,
            "value": 0.8582677165354331
          },
          {
            "number": 7,
            "time": 42.24995774999994,
            "value": 0.8661417322834646
          },
          {
            "number": 7,
            "time": 42.28567199999994,
            "value": 0.8740157480314961
          },
          {
            "number": 7,
            "time": 42.32138624999994,
            "value": 0.8818897637795275
          },
          {
            "number": 7,
            "time": 42.35710049999994,
            "value": 0.889763779527559
          },
          {
            "number": 7,
            "time": 42.392814749999935,
            "value": 0.8976377952755905
          },
          {
            "number": 7,
            "time": 42.42852899999993,
            "value": 0.905511811023622
          },
          {
            "number": 7,
            "time": 42.46424324999993,
            "value": 0.9133858267716536
          },
          {
            "number": 7,
            "time": 42.49995749999993,
            "value": 0.9212598425196851
          },
          {
            "number": 7,
            "time": 42.53567174999993,
            "value": 0.9291338582677166
          },
          {
            "number": 7,
            "time": 42.571385999999926,
            "value": 0.937007874015748
          },
          {
            "number": 7,
            "time": 42.607100249999924,
            "value": 0.9448818897637795
          },
          {
            "number": 7,
            "time": 42.64281449999992,
            "value": 0.952755905511811
          },
          {
            "number": 7,
            "time": 42.67852874999992,
            "value": 0.9606299212598425
          },
          {
            "number": 7,
            "time": 42.71424299999992,
            "value": 0.968503937007874
          },
          {
            "number": 7,
            "time": 42.749957249999916,
            "value": 0.9763779527559056
          },
          {
            "number": 7,
            "time": 42.785671499999914,
            "value": 0.984251968503937
          },
          {
            "number": 7,
            "time": 42.82138574999991,
            "value": 0.9921259842519685
          },
          {
            "number": 7,
            "time": 42.85561190624991,
            "value": 1
          },
          {
            "number": 7,
            "time": 109.71417599999998,
            "value": 0.6299212598425197
          },
          {
            "number": 7,
            "time": 109.78560449999998,
            "value": 0.6377952755905512
          },
          {
            "number": 7,
            "time": 109.82131874999997,
            "value": 0.6456692913385826
          },
          {
            "number": 7,
            "time": 109.85703299999997,
            "value": 0.6535433070866141
          },
          {
            "number": 7,
            "time": 109.89274724999997,
            "value": 0.6614173228346457
          },
          {
            "number": 7,
            "time": 109.92846149999997,
            "value": 0.6692913385826772
          },
          {
            "number": 7,
            "time": 109.96417574999997,
            "value": 0.6771653543307087
          },
          {
            "number": 7,
            "time": 109.99988999999997,
            "value": 0.6850393700787402
          },
          {
            "number": 7,
            "time": 110.03560424999996,
            "value": 0.6929133858267716
          },
          {
            "number": 7,
            "time": 110.07131849999996,
            "value": 0.7007874015748031
          },
          {
            "number": 7,
            "time": 110.10703274999996,
            "value": 0.7086614173228346
          },
          {
            "number": 7,
            "time": 110.14274699999996,
            "value": 0.7165354330708661
          },
          {
            "number": 7,
            "time": 110.17846124999996,
            "value": 0.7244094488188977
          },
          {
            "number": 7,
            "time": 110.21417549999995,
            "value": 0.7322834645669292
          },
          {
            "number": 7,
            "time": 110.24988974999995,
            "value": 0.7401574803149606
          },
          {
            "number": 7,
            "time": 110.28560399999995,
            "value": 0.7480314960629921
          },
          {
            "number": 7,
            "time": 110.32131824999995,
            "value": 0.7559055118110236
          },
          {
            "number": 7,
            "time": 110.35703249999995,
            "value": 0.7637795275590551
          },
          {
            "number": 7,
            "time": 110.39274674999994,
            "value": 0.7716535433070866
          },
          {
            "number": 7,
            "time": 110.42846099999994,
            "value": 0.7795275590551181
          },
          {
            "number": 7,
            "time": 110.46417524999994,
            "value": 0.7874015748031497
          },
          {
            "number": 7,
            "time": 110.49988949999994,
            "value": 0.7952755905511811
          },
          {
            "number": 7,
            "time": 110.53560374999994,
            "value": 0.8031496062992126
          },
          {
            "number": 7,
            "time": 110.57131799999993,
            "value": 0.8110236220472441
          },
          {
            "number": 7,
            "time": 110.60703224999993,
            "value": 0.8188976377952756
          },
          {
            "number": 7,
            "time": 110.64274649999993,
            "value": 0.8267716535433071
          },
          {
            "number": 7,
            "time": 110.67846074999993,
            "value": 0.8346456692913385
          },
          {
            "number": 7,
            "time": 110.71417499999993,
            "value": 0.84251968503937
          },
          {
            "number": 7,
            "time": 110.74988924999992,
            "value": 0.8503937007874016
          },
          {
            "number": 7,
            "time": 110.78560349999992,
            "value": 0.8582677165354331
          },
          {
            "number": 7,
            "time": 110.82131774999992,
            "value": 0.8661417322834646
          },
          {
            "number": 7,
            "time": 110.85703199999992,
            "value": 0.8740157480314961
          },
          {
            "number": 7,
            "time": 110.89274624999992,
            "value": 0.8818897637795275
          },
          {
            "number": 7,
            "time": 110.92846049999991,
            "value": 0.889763779527559
          },
          {
            "number": 7,
            "time": 110.96417474999991,
            "value": 0.8976377952755905
          },
          {
            "number": 7,
            "time": 110.99988899999991,
            "value": 0.905511811023622
          },
          {
            "number": 7,
            "time": 111.03560324999991,
            "value": 0.9133858267716536
          },
          {
            "number": 7,
            "time": 111.0713174999999,
            "value": 0.9212598425196851
          },
          {
            "number": 7,
            "time": 111.1070317499999,
            "value": 0.9291338582677166
          },
          {
            "number": 7,
            "time": 111.1427459999999,
            "value": 0.937007874015748
          },
          {
            "number": 7,
            "time": 111.1784602499999,
            "value": 0.9448818897637795
          },
          {
            "number": 7,
            "time": 111.2141744999999,
            "value": 0.952755905511811
          },
          {
            "number": 7,
            "time": 111.2498887499999,
            "value": 0.9606299212598425
          },
          {
            "number": 7,
            "time": 111.2856029999999,
            "value": 0.968503937007874
          },
          {
            "number": 7,
            "time": 111.3213172499999,
            "value": 0.9763779527559056
          },
          {
            "number": 7,
            "time": 111.35703149999989,
            "value": 0.984251968503937
          },
          {
            "number": 7,
            "time": 111.39274574999989,
            "value": 0.9921259842519685
          },
          {
            "number": 7,
            "time": 111.42697190624989,
            "value": 1
          },
          {
            "number": 7,
            "time": 123.42844799999989,
            "value": 0.6299212598425197
          },
          {
            "number": 7,
            "time": 123.49987649999989,
            "value": 0.6377952755905512
          },
          {
            "number": 7,
            "time": 123.53559074999988,
            "value": 0.6456692913385826
          },
          {
            "number": 7,
            "time": 123.57130499999988,
            "value": 0.6535433070866141
          },
          {
            "number": 7,
            "time": 123.60701924999988,
            "value": 0.6614173228346457
          },
          {
            "number": 7,
            "time": 123.64273349999988,
            "value": 0.6692913385826772
          },
          {
            "number": 7,
            "time": 123.67844774999988,
            "value": 0.6771653543307087
          },
          {
            "number": 7,
            "time": 123.71416199999987,
            "value": 0.6850393700787402
          },
          {
            "number": 7,
            "time": 123.74987624999987,
            "value": 0.6929133858267716
          },
          {
            "number": 7,
            "time": 123.78559049999987,
            "value": 0.7007874015748031
          },
          {
            "number": 7,
            "time": 123.82130474999987,
            "value": 0.7086614173228346
          },
          {
            "number": 7,
            "time": 123.85701899999987,
            "value": 0.7165354330708661
          },
          {
            "number": 7,
            "time": 123.89273324999986,
            "value": 0.7244094488188977
          },
          {
            "number": 7,
            "time": 123.92844749999986,
            "value": 0.7322834645669292
          },
          {
            "number": 7,
            "time": 123.96416174999986,
            "value": 0.7401574803149606
          },
          {
            "number": 7,
            "time": 123.99987599999986,
            "value": 0.7480314960629921
          },
          {
            "number": 7,
            "time": 124.03559024999986,
            "value": 0.7559055118110236
          },
          {
            "number": 7,
            "time": 124.07130449999985,
            "value": 0.7637795275590551
          },
          {
            "number": 7,
            "time": 124.10701874999985,
            "value": 0.7716535433070866
          },
          {
            "number": 7,
            "time": 124.14273299999985,
            "value": 0.7795275590551181
          },
          {
            "number": 7,
            "time": 124.17844724999985,
            "value": 0.7874015748031497
          },
          {
            "number": 7,
            "time": 124.21416149999985,
            "value": 0.7952755905511811
          },
          {
            "number": 7,
            "time": 124.24987574999984,
            "value": 0.8031496062992126
          },
          {
            "number": 7,
            "time": 124.28558999999984,
            "value": 0.8110236220472441
          },
          {
            "number": 7,
            "time": 124.32130424999984,
            "value": 0.8188976377952756
          },
          {
            "number": 7,
            "time": 124.35701849999984,
            "value": 0.8267716535433071
          },
          {
            "number": 7,
            "time": 124.39273274999984,
            "value": 0.8346456692913385
          },
          {
            "number": 7,
            "time": 124.42844699999984,
            "value": 0.84251968503937
          },
          {
            "number": 7,
            "time": 124.46416124999983,
            "value": 0.8503937007874016
          },
          {
            "number": 7,
            "time": 124.49987549999983,
            "value": 0.8582677165354331
          },
          {
            "number": 7,
            "time": 124.53558974999983,
            "value": 0.8661417322834646
          },
          {
            "number": 7,
            "time": 124.57130399999983,
            "value": 0.8740157480314961
          },
          {
            "number": 7,
            "time": 124.60701824999983,
            "value": 0.8818897637795275
          },
          {
            "number": 7,
            "time": 124.64273249999982,
            "value": 0.889763779527559
          },
          {
            "number": 7,
            "time": 124.67844674999982,
            "value": 0.8976377952755905
          },
          {
            "number": 7,
            "time": 124.71416099999982,
            "value": 0.905511811023622
          },
          {
            "number": 7,
            "time": 124.74987524999982,
            "value": 0.9133858267716536
          },
          {
            "number": 7,
            "time": 124.78558949999982,
            "value": 0.9212598425196851
          },
          {
            "number": 7,
            "time": 124.82130374999981,
            "value": 0.9291338582677166
          },
          {
            "number": 7,
            "time": 124.85701799999981,
            "value": 0.937007874015748
          },
          {
            "number": 7,
            "time": 124.89273224999981,
            "value": 0.9448818897637795
          },
          {
            "number": 7,
            "time": 124.92844649999981,
            "value": 0.952755905511811
          },
          {
            "number": 7,
            "time": 124.9641607499998,
            "value": 0.9606299212598425
          },
          {
            "number": 7,
            "time": 124.9998749999998,
            "value": 0.968503937007874
          },
          {
            "number": 7,
            "time": 125.0355892499998,
            "value": 0.9763779527559056
          },
          {
            "number": 7,
            "time": 125.0713034999998,
            "value": 0.984251968503937
          },
          {
            "number": 7,
            "time": 125.1070177499998,
            "value": 0.9921259842519685
          },
          {
            "number": 7,
            "time": 125.1412439062498,
            "value": 1
          },
          {
            "number": 7,
            "time": 180.19624837499987,
            "value": 0.7874015748031497
          }
        ],
        "10": [
          {
            "number": 10,
            "time": 0,
            "value": 0.5039370078740157
          },
          {
            "number": 10,
            "time": 180.28553399999987,
            "value": 0.5039370078740157
          }
        ],
        "91": [
          {
            "number": 91,
            "time": 0.0714285,
            "value": 0.5039370078740157
          },
          {
            "number": 91,
            "time": 180.37481962499987,
            "value": 0.31496062992125984
          }
        ],
        "93": [
          {
            "number": 93,
            "time": 0,
            "value": 0
          },
          {
            "number": 93,
            "time": 180.51767662499986,
            "value": 0
          }
        ]
      },
      "id": 1,
      "instrumentNumber": 0,
      "instrument": "standard kit",
      "instrumentFamily": "drums",
      "channelNumber": 9,
      "isPercussion": true
    },
    {
      "startTime": 23.142834,
      "duration": 165.9998339999995,
      "length": 84,
      "notes": [
        {
          "name": "F#3",
          "midi": 54,
          "time": 23.142834,
          "velocity": 0.41732283464566927,
          "duration": 0.5714280000000009
        },
        {
          "name": "F#3",
          "midi": 54,
          "time": 24.857118,
          "velocity": 0.41732283464566927,
          "duration": 0.5714280000000009
        },
        {
          "name": "F#3",
          "midi": 54,
          "time": 26.571402,
          "velocity": 0.41732283464566927,
          "duration": 0.5714280000000009
        },
        {
          "name": "F#3",
          "midi": 54,
          "time": 28.285686,
          "velocity": 0.41732283464566927,
          "duration": 0.5714280000000009
        },
        {
          "name": "F#3",
          "midi": 54,
          "time": 29.999969999999998,
          "velocity": 0.41732283464566927,
          "duration": 0.5714280000000009
        },
        {
          "name": "F#3",
          "midi": 54,
          "time": 31.714253999999997,
          "velocity": 0.41732283464566927,
          "duration": 0.5714279999999974
        },
        {
          "name": "F#3",
          "midi": 54,
          "time": 33.428537999999996,
          "velocity": 0.41732283464566927,
          "duration": 0.5714279999999974
        },
        {
          "name": "F#3",
          "midi": 54,
          "time": 35.142821999999995,
          "velocity": 0.41732283464566927,
          "duration": 0.5714279999999974
        },
        {
          "name": "F#3",
          "midi": 54,
          "time": 36.857105999999995,
          "velocity": 0.41732283464566927,
          "duration": 0.5714279999999974
        },
        {
          "name": "F#3",
          "midi": 54,
          "time": 38.571389999999994,
          "velocity": 0.41732283464566927,
          "duration": 0.5714279999999974
        },
        {
          "name": "F#3",
          "midi": 54,
          "time": 40.28567399999999,
          "velocity": 0.41732283464566927,
          "duration": 0.5714279999999974
        },
        {
          "name": "F#3",
          "midi": 54,
          "time": 41.99995799999999,
          "velocity": 0.41732283464566927,
          "duration": 0.5714279999999974
        },
        {
          "name": "F#3",
          "midi": 54,
          "time": 43.71424199999999,
          "velocity": 0.41732283464566927,
          "duration": 0.5714279999999974
        },
        {
          "name": "F#3",
          "midi": 54,
          "time": 45.42852599999999,
          "velocity": 0.41732283464566927,
          "duration": 0.5714279999999974
        },
        {
          "name": "F#3",
          "midi": 54,
          "time": 47.14280999999999,
          "velocity": 0.41732283464566927,
          "duration": 0.5714279999999974
        },
        {
          "name": "F#3",
          "midi": 54,
          "time": 48.85709399999999,
          "velocity": 0.41732283464566927,
          "duration": 0.5714279999999974
        },
        {
          "name": "F#3",
          "midi": 54,
          "time": 50.57137799999999,
          "velocity": 0.41732283464566927,
          "duration": 0.5714279999999974
        },
        {
          "name": "F#3",
          "midi": 54,
          "time": 52.28566199999999,
          "velocity": 0.41732283464566927,
          "duration": 0.5714279999999974
        },
        {
          "name": "F#3",
          "midi": 54,
          "time": 53.99994599999999,
          "velocity": 0.41732283464566927,
          "duration": 0.5714279999999974
        },
        {
          "name": "F#3",
          "midi": 54,
          "time": 55.714229999999986,
          "velocity": 0.41732283464566927,
          "duration": 0.5714279999999974
        },
        {
          "name": "F#3",
          "midi": 54,
          "time": 57.428513999999986,
          "velocity": 0.41732283464566927,
          "duration": 0.5714279999999974
        },
        {
          "name": "F#3",
          "midi": 54,
          "time": 59.142797999999985,
          "velocity": 0.41732283464566927,
          "duration": 0.5714279999999974
        },
        {
          "name": "F#3",
          "midi": 54,
          "time": 60.857081999999984,
          "velocity": 0.41732283464566927,
          "duration": 0.5714279999999974
        },
        {
          "name": "F#3",
          "midi": 54,
          "time": 62.57136599999998,
          "velocity": 0.41732283464566927,
          "duration": 0.5714279999999974
        },
        {
          "name": "F#3",
          "midi": 54,
          "time": 64.28564999999998,
          "velocity": 0.41732283464566927,
          "duration": 0.5714279999999974
        },
        {
          "name": "F#3",
          "midi": 54,
          "time": 65.99993399999997,
          "velocity": 0.41732283464566927,
          "duration": 0.5714279999999974
        },
        {
          "name": "F#3",
          "midi": 54,
          "time": 67.71421799999996,
          "velocity": 0.41732283464566927,
          "duration": 0.5714279999999974
        },
        {
          "name": "F#3",
          "midi": 54,
          "time": 69.42850199999995,
          "velocity": 0.41732283464566927,
          "duration": 0.5714279999999974
        },
        {
          "name": "F#3",
          "midi": 54,
          "time": 71.14278599999994,
          "velocity": 0.41732283464566927,
          "duration": 0.5714279999999974
        },
        {
          "name": "F#3",
          "midi": 54,
          "time": 72.85706999999994,
          "velocity": 0.41732283464566927,
          "duration": 0.5714279999999974
        },
        {
          "name": "F#3",
          "midi": 54,
          "time": 74.57135399999993,
          "velocity": 0.41732283464566927,
          "duration": 0.5714279999999974
        },
        {
          "name": "F#3",
          "midi": 54,
          "time": 76.28563799999992,
          "velocity": 0.41732283464566927,
          "duration": 0.5714279999999974
        },
        {
          "name": "F#3",
          "midi": 54,
          "time": 77.99992199999991,
          "velocity": 0.41732283464566927,
          "duration": 0.5714279999999974
        },
        {
          "name": "F#3",
          "midi": 54,
          "time": 79.7142059999999,
          "velocity": 0.41732283464566927,
          "duration": 0.5714279999999974
        },
        {
          "name": "F#3",
          "midi": 54,
          "time": 81.4284899999999,
          "velocity": 0.41732283464566927,
          "duration": 0.5714279999999974
        },
        {
          "name": "F#3",
          "midi": 54,
          "time": 83.14277399999989,
          "velocity": 0.41732283464566927,
          "duration": 0.5714279999999974
        },
        {
          "name": "F#3",
          "midi": 54,
          "time": 84.85705799999988,
          "velocity": 0.41732283464566927,
          "duration": 0.5714279999999974
        },
        {
          "name": "F#3",
          "midi": 54,
          "time": 86.57134199999987,
          "velocity": 0.41732283464566927,
          "duration": 0.5714279999999974
        },
        {
          "name": "F#3",
          "midi": 54,
          "time": 88.28562599999987,
          "velocity": 0.41732283464566927,
          "duration": 0.5714279999999974
        },
        {
          "name": "F#3",
          "midi": 54,
          "time": 89.99990999999986,
          "velocity": 0.41732283464566927,
          "duration": 0.5714279999999974
        },
        {
          "name": "F#3",
          "midi": 54,
          "time": 91.71419399999985,
          "velocity": 0.41732283464566927,
          "duration": 0.5714279999999974
        },
        {
          "name": "F#3",
          "midi": 54,
          "time": 93.42847799999984,
          "velocity": 0.41732283464566927,
          "duration": 0.5714279999999974
        },
        {
          "name": "F#3",
          "midi": 54,
          "time": 95.14276199999983,
          "velocity": 0.41732283464566927,
          "duration": 0.5714279999999974
        },
        {
          "name": "F#3",
          "midi": 54,
          "time": 96.85704599999983,
          "velocity": 0.41732283464566927,
          "duration": 0.5714279999999974
        },
        {
          "name": "F#3",
          "midi": 54,
          "time": 98.57132999999982,
          "velocity": 0.41732283464566927,
          "duration": 0.5714279999999974
        },
        {
          "name": "F#3",
          "midi": 54,
          "time": 100.28561399999981,
          "velocity": 0.41732283464566927,
          "duration": 0.5714279999999974
        },
        {
          "name": "F#3",
          "midi": 54,
          "time": 101.9998979999998,
          "velocity": 0.41732283464566927,
          "duration": 0.5714279999999974
        },
        {
          "name": "F#3",
          "midi": 54,
          "time": 103.7141819999998,
          "velocity": 0.41732283464566927,
          "duration": 0.5714279999999974
        },
        {
          "name": "F#3",
          "midi": 54,
          "time": 105.42846599999979,
          "velocity": 0.41732283464566927,
          "duration": 0.5714279999999974
        },
        {
          "name": "F#3",
          "midi": 54,
          "time": 107.14274999999978,
          "velocity": 0.41732283464566927,
          "duration": 0.5714279999999974
        },
        {
          "name": "F#3",
          "midi": 54,
          "time": 108.85703399999977,
          "velocity": 0.41732283464566927,
          "duration": 0.5714279999999974
        },
        {
          "name": "F#3",
          "midi": 54,
          "time": 110.57131799999976,
          "velocity": 0.41732283464566927,
          "duration": 0.5714279999999974
        },
        {
          "name": "F#3",
          "midi": 54,
          "time": 112.28560199999976,
          "velocity": 0.41732283464566927,
          "duration": 0.5714279999999974
        },
        {
          "name": "F#3",
          "midi": 54,
          "time": 113.99988599999975,
          "velocity": 0.41732283464566927,
          "duration": 0.5714279999999974
        },
        {
          "name": "F#3",
          "midi": 54,
          "time": 115.71416999999974,
          "velocity": 0.41732283464566927,
          "duration": 0.5714279999999974
        },
        {
          "name": "F#3",
          "midi": 54,
          "time": 117.42845399999973,
          "velocity": 0.41732283464566927,
          "duration": 0.5714279999999974
        },
        {
          "name": "F#3",
          "midi": 54,
          "time": 119.14273799999972,
          "velocity": 0.41732283464566927,
          "duration": 0.5714279999999974
        },
        {
          "name": "F#3",
          "midi": 54,
          "time": 120.85702199999972,
          "velocity": 0.41732283464566927,
          "duration": 0.5714279999999974
        },
        {
          "name": "F#3",
          "midi": 54,
          "time": 122.57130599999971,
          "velocity": 0.41732283464566927,
          "duration": 0.5714279999999974
        },
        {
          "name": "F#3",
          "midi": 54,
          "time": 124.2855899999997,
          "velocity": 0.41732283464566927,
          "duration": 0.5714279999999974
        },
        {
          "name": "F#3",
          "midi": 54,
          "time": 125.99987399999969,
          "velocity": 0.41732283464566927,
          "duration": 0.5714279999999974
        },
        {
          "name": "F#3",
          "midi": 54,
          "time": 127.71415799999968,
          "velocity": 0.41732283464566927,
          "duration": 0.5714279999999974
        },
        {
          "name": "F#3",
          "midi": 54,
          "time": 129.42844199999968,
          "velocity": 0.41732283464566927,
          "duration": 0.5714279999999974
        },
        {
          "name": "F#3",
          "midi": 54,
          "time": 131.14272599999967,
          "velocity": 0.41732283464566927,
          "duration": 0.5714279999999974
        },
        {
          "name": "F#3",
          "midi": 54,
          "time": 132.85700999999966,
          "velocity": 0.41732283464566927,
          "duration": 0.5714279999999974
        },
        {
          "name": "F#3",
          "midi": 54,
          "time": 134.57129399999965,
          "velocity": 0.41732283464566927,
          "duration": 0.5714279999999974
        },
        {
          "name": "F#3",
          "midi": 54,
          "time": 136.28557799999965,
          "velocity": 0.41732283464566927,
          "duration": 0.5714279999999974
        },
        {
          "name": "F#3",
          "midi": 54,
          "time": 137.99986199999964,
          "velocity": 0.41732283464566927,
          "duration": 0.5714279999999974
        },
        {
          "name": "F#3",
          "midi": 54,
          "time": 139.71414599999963,
          "velocity": 0.41732283464566927,
          "duration": 0.5714279999999974
        },
        {
          "name": "F#3",
          "midi": 54,
          "time": 141.42842999999962,
          "velocity": 0.41732283464566927,
          "duration": 0.5714279999999974
        },
        {
          "name": "F#3",
          "midi": 54,
          "time": 143.14271399999961,
          "velocity": 0.41732283464566927,
          "duration": 0.5714279999999974
        },
        {
          "name": "F#3",
          "midi": 54,
          "time": 144.8569979999996,
          "velocity": 0.41732283464566927,
          "duration": 0.5714279999999974
        },
        {
          "name": "F#3",
          "midi": 54,
          "time": 146.5712819999996,
          "velocity": 0.41732283464566927,
          "duration": 0.5714279999999974
        },
        {
          "name": "F#3",
          "midi": 54,
          "time": 148.2855659999996,
          "velocity": 0.41732283464566927,
          "duration": 0.5714279999999974
        },
        {
          "name": "F#3",
          "midi": 54,
          "time": 149.99984999999958,
          "velocity": 0.41732283464566927,
          "duration": 0.5714279999999974
        },
        {
          "name": "F#3",
          "midi": 54,
          "time": 151.71413399999958,
          "velocity": 0.41732283464566927,
          "duration": 0.5714279999999974
        },
        {
          "name": "F#3",
          "midi": 54,
          "time": 153.42841799999957,
          "velocity": 0.41732283464566927,
          "duration": 0.5714279999999974
        },
        {
          "name": "F#3",
          "midi": 54,
          "time": 155.14270199999956,
          "velocity": 0.41732283464566927,
          "duration": 0.5714279999999974
        },
        {
          "name": "F#3",
          "midi": 54,
          "time": 156.85698599999955,
          "velocity": 0.41732283464566927,
          "duration": 0.5714279999999974
        },
        {
          "name": "F#3",
          "midi": 54,
          "time": 158.57126999999954,
          "velocity": 0.41732283464566927,
          "duration": 0.5714279999999974
        },
        {
          "name": "F#3",
          "midi": 54,
          "time": 160.28555399999954,
          "velocity": 0.41732283464566927,
          "duration": 0.5714279999999974
        },
        {
          "name": "F#3",
          "midi": 54,
          "time": 161.99983799999953,
          "velocity": 0.41732283464566927,
          "duration": 0.5714279999999974
        },
        {
          "name": "F#3",
          "midi": 54,
          "time": 163.71412199999952,
          "velocity": 0.41732283464566927,
          "duration": 0.5714279999999974
        },
        {
          "name": "F#3",
          "midi": 54,
          "time": 165.4284059999995,
          "velocity": 0.41732283464566927,
          "duration": 0.5714279999999974
        }
      ],
      "controlChanges": {
        "7": [
          {
            "number": 7,
            "time": 0,
            "value": 0.7874015748031497
          }
        ],
        "10": [
          {
            "number": 10,
            "time": 0,
            "value": 0.5039370078740157
          }
        ]
      },
      "id": 2,
      "instrumentNumber": 0,
      "instrument": "standard kit",
      "instrumentFamily": "drums",
      "channelNumber": 9,
      "isPercussion": true
    },
    {
      "startTime": 49.71423600000001,
      "duration": 166.57126200000118,
      "length": 545,
      "notes": [
        {
          "name": "A5",
          "midi": 81,
          "time": 49.71423600000001,
          "velocity": 0.25196850393700787,
          "duration": 0.2857139999999987
        },
        {
          "name": "A5",
          "midi": 81,
          "time": 49.999950000000005,
          "velocity": 0.25196850393700787,
          "duration": 0.14285699999999935
        },
        {
          "name": "A5",
          "midi": 81,
          "time": 50.142807000000005,
          "velocity": 0.25196850393700787,
          "duration": 0.14285699999999935
        },
        {
          "name": "A5",
          "midi": 81,
          "time": 50.285664000000004,
          "velocity": 0.25196850393700787,
          "duration": 0.2857139999999987
        },
        {
          "name": "A5",
          "midi": 81,
          "time": 50.571378,
          "velocity": 0.25196850393700787,
          "duration": 0.2857139999999987
        },
        {
          "name": "A5",
          "midi": 81,
          "time": 50.857092,
          "velocity": 0.25196850393700787,
          "duration": 0.14285699999999935
        },
        {
          "name": "A5",
          "midi": 81,
          "time": 50.999949,
          "velocity": 0.25196850393700787,
          "duration": 0.14285699999999935
        },
        {
          "name": "A5",
          "midi": 81,
          "time": 51.142806,
          "velocity": 0.25196850393700787,
          "duration": 0.2857139999999987
        },
        {
          "name": "A5",
          "midi": 81,
          "time": 51.42852,
          "velocity": 0.25196850393700787,
          "duration": 0.2857139999999987
        },
        {
          "name": "A5",
          "midi": 81,
          "time": 51.714234,
          "velocity": 0.25196850393700787,
          "duration": 0.14285699999999935
        },
        {
          "name": "A5",
          "midi": 81,
          "time": 51.857091,
          "velocity": 0.25196850393700787,
          "duration": 0.14285699999999935
        },
        {
          "name": "A5",
          "midi": 81,
          "time": 51.999947999999996,
          "velocity": 0.25196850393700787,
          "duration": 0.2857139999999987
        },
        {
          "name": "A5",
          "midi": 81,
          "time": 52.285661999999995,
          "velocity": 0.25196850393700787,
          "duration": 0.2857139999999987
        },
        {
          "name": "A5",
          "midi": 81,
          "time": 52.571375999999994,
          "velocity": 0.25196850393700787,
          "duration": 0.14285699999999935
        },
        {
          "name": "A5",
          "midi": 81,
          "time": 52.71423299999999,
          "velocity": 0.25196850393700787,
          "duration": 0.14285699999999935
        },
        {
          "name": "A5",
          "midi": 81,
          "time": 52.85708999999999,
          "velocity": 0.25196850393700787,
          "duration": 0.2857139999999987
        },
        {
          "name": "A5",
          "midi": 81,
          "time": 53.14280399999999,
          "velocity": 0.25196850393700787,
          "duration": 0.2857139999999987
        },
        {
          "name": "A5",
          "midi": 81,
          "time": 53.42851799999999,
          "velocity": 0.25196850393700787,
          "duration": 0.14285699999999935
        },
        {
          "name": "A5",
          "midi": 81,
          "time": 53.57137499999999,
          "velocity": 0.25196850393700787,
          "duration": 0.14285699999999935
        },
        {
          "name": "A5",
          "midi": 81,
          "time": 53.71423199999999,
          "velocity": 0.25196850393700787,
          "duration": 0.2857139999999987
        },
        {
          "name": "A5",
          "midi": 81,
          "time": 53.99994599999999,
          "velocity": 0.25196850393700787,
          "duration": 0.2857139999999987
        },
        {
          "name": "A5",
          "midi": 81,
          "time": 54.285659999999986,
          "velocity": 0.25196850393700787,
          "duration": 0.14285699999999935
        },
        {
          "name": "A5",
          "midi": 81,
          "time": 54.428516999999985,
          "velocity": 0.25196850393700787,
          "duration": 0.14285699999999935
        },
        {
          "name": "A5",
          "midi": 81,
          "time": 54.571373999999985,
          "velocity": 0.25196850393700787,
          "duration": 0.2857139999999987
        },
        {
          "name": "A5",
          "midi": 81,
          "time": 54.85708799999998,
          "velocity": 0.25196850393700787,
          "duration": 0.2857139999999987
        },
        {
          "name": "A5",
          "midi": 81,
          "time": 55.14280199999998,
          "velocity": 0.25196850393700787,
          "duration": 0.14285699999999935
        },
        {
          "name": "A5",
          "midi": 81,
          "time": 55.28565899999998,
          "velocity": 0.25196850393700787,
          "duration": 0.14285699999999935
        },
        {
          "name": "A5",
          "midi": 81,
          "time": 55.42851599999998,
          "velocity": 0.25196850393700787,
          "duration": 0.2857139999999987
        },
        {
          "name": "A5",
          "midi": 81,
          "time": 55.71422999999998,
          "velocity": 0.25196850393700787,
          "duration": 0.2857139999999987
        },
        {
          "name": "A5",
          "midi": 81,
          "time": 55.99994399999998,
          "velocity": 0.25196850393700787,
          "duration": 0.14285699999999935
        },
        {
          "name": "A5",
          "midi": 81,
          "time": 56.14280099999998,
          "velocity": 0.25196850393700787,
          "duration": 0.14285699999999935
        },
        {
          "name": "A5",
          "midi": 81,
          "time": 56.28565799999998,
          "velocity": 0.25196850393700787,
          "duration": 0.2857139999999987
        },
        {
          "name": "A5",
          "midi": 81,
          "time": 56.571371999999975,
          "velocity": 0.25196850393700787,
          "duration": 0.2857139999999987
        },
        {
          "name": "A5",
          "midi": 81,
          "time": 56.857085999999974,
          "velocity": 0.25196850393700787,
          "duration": 0.14285699999999935
        },
        {
          "name": "A5",
          "midi": 81,
          "time": 56.99994299999997,
          "velocity": 0.25196850393700787,
          "duration": 0.14285699999999935
        },
        {
          "name": "A5",
          "midi": 81,
          "time": 57.14279999999997,
          "velocity": 0.25196850393700787,
          "duration": 0.2857139999999987
        },
        {
          "name": "A5",
          "midi": 81,
          "time": 57.42851399999997,
          "velocity": 0.25196850393700787,
          "duration": 0.2857139999999987
        },
        {
          "name": "A5",
          "midi": 81,
          "time": 57.71422799999997,
          "velocity": 0.25196850393700787,
          "duration": 0.14285699999999935
        },
        {
          "name": "A5",
          "midi": 81,
          "time": 57.85708499999997,
          "velocity": 0.25196850393700787,
          "duration": 0.14285699999999935
        },
        {
          "name": "A5",
          "midi": 81,
          "time": 57.99994199999997,
          "velocity": 0.25196850393700787,
          "duration": 0.2857139999999987
        },
        {
          "name": "A5",
          "midi": 81,
          "time": 58.28565599999997,
          "velocity": 0.25196850393700787,
          "duration": 0.2857139999999987
        },
        {
          "name": "A5",
          "midi": 81,
          "time": 58.571369999999966,
          "velocity": 0.25196850393700787,
          "duration": 0.14285699999999935
        },
        {
          "name": "A5",
          "midi": 81,
          "time": 58.714226999999966,
          "velocity": 0.25196850393700787,
          "duration": 0.14285699999999935
        },
        {
          "name": "A5",
          "midi": 81,
          "time": 58.857083999999965,
          "velocity": 0.25196850393700787,
          "duration": 0.2857139999999987
        },
        {
          "name": "A5",
          "midi": 81,
          "time": 59.142797999999964,
          "velocity": 0.25196850393700787,
          "duration": 0.2857139999999987
        },
        {
          "name": "A5",
          "midi": 81,
          "time": 59.42851199999996,
          "velocity": 0.25196850393700787,
          "duration": 0.14285699999999935
        },
        {
          "name": "A5",
          "midi": 81,
          "time": 59.57136899999996,
          "velocity": 0.25196850393700787,
          "duration": 0.14285699999999935
        },
        {
          "name": "A5",
          "midi": 81,
          "time": 59.71422599999996,
          "velocity": 0.25196850393700787,
          "duration": 0.2857139999999987
        },
        {
          "name": "A5",
          "midi": 81,
          "time": 59.99993999999996,
          "velocity": 0.25196850393700787,
          "duration": 0.2857139999999987
        },
        {
          "name": "A5",
          "midi": 81,
          "time": 60.28565399999996,
          "velocity": 0.25196850393700787,
          "duration": 0.14285699999999935
        },
        {
          "name": "A5",
          "midi": 81,
          "time": 60.42851099999996,
          "velocity": 0.25196850393700787,
          "duration": 0.14285699999999935
        },
        {
          "name": "A5",
          "midi": 81,
          "time": 60.57136799999996,
          "velocity": 0.25196850393700787,
          "duration": 0.2857139999999987
        },
        {
          "name": "A5",
          "midi": 81,
          "time": 60.857081999999956,
          "velocity": 0.25196850393700787,
          "duration": 0.2857139999999987
        },
        {
          "name": "A5",
          "midi": 81,
          "time": 61.142795999999954,
          "velocity": 0.25196850393700787,
          "duration": 0.14285699999999935
        },
        {
          "name": "A5",
          "midi": 81,
          "time": 61.285652999999954,
          "velocity": 0.25196850393700787,
          "duration": 0.14285699999999935
        },
        {
          "name": "A5",
          "midi": 81,
          "time": 61.42850999999995,
          "velocity": 0.25196850393700787,
          "duration": 0.2857139999999987
        },
        {
          "name": "A5",
          "midi": 81,
          "time": 61.71422399999995,
          "velocity": 0.25196850393700787,
          "duration": 0.2857139999999987
        },
        {
          "name": "A5",
          "midi": 81,
          "time": 61.99993799999995,
          "velocity": 0.25196850393700787,
          "duration": 0.14285699999999935
        },
        {
          "name": "A5",
          "midi": 81,
          "time": 62.14279499999995,
          "velocity": 0.25196850393700787,
          "duration": 0.14285699999999935
        },
        {
          "name": "A5",
          "midi": 81,
          "time": 62.28565199999995,
          "velocity": 0.25196850393700787,
          "duration": 0.2857139999999987
        },
        {
          "name": "A5",
          "midi": 81,
          "time": 62.57136599999995,
          "velocity": 0.25196850393700787,
          "duration": 0.2857139999999987
        },
        {
          "name": "A5",
          "midi": 81,
          "time": 62.85707999999995,
          "velocity": 0.25196850393700787,
          "duration": 0.14285699999999935
        },
        {
          "name": "A5",
          "midi": 81,
          "time": 62.999936999999946,
          "velocity": 0.25196850393700787,
          "duration": 0.14285699999999935
        },
        {
          "name": "A5",
          "midi": 81,
          "time": 63.142793999999945,
          "velocity": 0.25196850393700787,
          "duration": 0.2857139999999987
        },
        {
          "name": "A5",
          "midi": 81,
          "time": 63.428507999999944,
          "velocity": 0.25196850393700787,
          "duration": 0.2857139999999987
        },
        {
          "name": "A5",
          "midi": 81,
          "time": 63.71422199999994,
          "velocity": 0.25196850393700787,
          "duration": 0.14285699999999935
        },
        {
          "name": "A5",
          "midi": 81,
          "time": 63.85707899999994,
          "velocity": 0.25196850393700787,
          "duration": 0.14285699999999935
        },
        {
          "name": "A5",
          "midi": 81,
          "time": 63.99993599999994,
          "velocity": 0.25196850393700787,
          "duration": 0.2857140000000058
        },
        {
          "name": "A5",
          "midi": 81,
          "time": 64.28564999999995,
          "velocity": 0.25196850393700787,
          "duration": 0.2857139999999987
        },
        {
          "name": "A5",
          "midi": 81,
          "time": 64.57136399999995,
          "velocity": 0.25196850393700787,
          "duration": 0.14285700000000645
        },
        {
          "name": "A5",
          "midi": 81,
          "time": 64.71422099999995,
          "velocity": 0.25196850393700787,
          "duration": 0.14285700000000645
        },
        {
          "name": "A5",
          "midi": 81,
          "time": 64.85707799999996,
          "velocity": 0.25196850393700787,
          "duration": 0.2857139999999987
        },
        {
          "name": "A5",
          "midi": 81,
          "time": 65.14279199999996,
          "velocity": 0.25196850393700787,
          "duration": 0.2857139999999987
        },
        {
          "name": "A5",
          "midi": 81,
          "time": 65.42850599999996,
          "velocity": 0.25196850393700787,
          "duration": 0.14285700000000645
        },
        {
          "name": "A5",
          "midi": 81,
          "time": 65.57136299999996,
          "velocity": 0.25196850393700787,
          "duration": 0.14285700000000645
        },
        {
          "name": "A5",
          "midi": 81,
          "time": 65.71421999999997,
          "velocity": 0.25196850393700787,
          "duration": 0.2857139999999987
        },
        {
          "name": "A5",
          "midi": 81,
          "time": 65.99993399999997,
          "velocity": 0.25196850393700787,
          "duration": 0.2857139999999987
        },
        {
          "name": "A5",
          "midi": 81,
          "time": 66.28564799999997,
          "velocity": 0.25196850393700787,
          "duration": 0.14285700000000645
        },
        {
          "name": "A5",
          "midi": 81,
          "time": 66.42850499999997,
          "velocity": 0.25196850393700787,
          "duration": 0.14285700000000645
        },
        {
          "name": "A5",
          "midi": 81,
          "time": 66.57136199999998,
          "velocity": 0.25196850393700787,
          "duration": 0.2857139999999987
        },
        {
          "name": "A5",
          "midi": 81,
          "time": 66.85707599999998,
          "velocity": 0.25196850393700787,
          "duration": 0.2857139999999987
        },
        {
          "name": "A5",
          "midi": 81,
          "time": 67.14278999999998,
          "velocity": 0.25196850393700787,
          "duration": 0.14285700000000645
        },
        {
          "name": "A5",
          "midi": 81,
          "time": 67.28564699999998,
          "velocity": 0.25196850393700787,
          "duration": 0.14285700000000645
        },
        {
          "name": "A5",
          "midi": 81,
          "time": 67.42850399999999,
          "velocity": 0.25196850393700787,
          "duration": 0.2857139999999987
        },
        {
          "name": "A5",
          "midi": 81,
          "time": 67.71421799999999,
          "velocity": 0.25196850393700787,
          "duration": 0.2857139999999987
        },
        {
          "name": "A5",
          "midi": 81,
          "time": 67.99993199999999,
          "velocity": 0.25196850393700787,
          "duration": 0.14285700000000645
        },
        {
          "name": "A5",
          "midi": 81,
          "time": 68.142789,
          "velocity": 0.25196850393700787,
          "duration": 0.14285700000000645
        },
        {
          "name": "A5",
          "midi": 81,
          "time": 68.285646,
          "velocity": 0.25196850393700787,
          "duration": 0.2857139999999987
        },
        {
          "name": "A5",
          "midi": 81,
          "time": 68.57136,
          "velocity": 0.25196850393700787,
          "duration": 0.2857139999999987
        },
        {
          "name": "A5",
          "midi": 81,
          "time": 68.857074,
          "velocity": 0.25196850393700787,
          "duration": 0.14285700000000645
        },
        {
          "name": "A5",
          "midi": 81,
          "time": 68.999931,
          "velocity": 0.25196850393700787,
          "duration": 0.14285700000000645
        },
        {
          "name": "A5",
          "midi": 81,
          "time": 69.14278800000001,
          "velocity": 0.25196850393700787,
          "duration": 0.2857139999999987
        },
        {
          "name": "A5",
          "midi": 81,
          "time": 69.42850200000001,
          "velocity": 0.25196850393700787,
          "duration": 0.2857139999999987
        },
        {
          "name": "A5",
          "midi": 81,
          "time": 69.71421600000001,
          "velocity": 0.25196850393700787,
          "duration": 0.14285700000000645
        },
        {
          "name": "A5",
          "midi": 81,
          "time": 69.85707300000001,
          "velocity": 0.25196850393700787,
          "duration": 0.14285700000000645
        },
        {
          "name": "A5",
          "midi": 81,
          "time": 69.99993000000002,
          "velocity": 0.25196850393700787,
          "duration": 0.2857139999999987
        },
        {
          "name": "A5",
          "midi": 81,
          "time": 70.28564400000002,
          "velocity": 0.25196850393700787,
          "duration": 0.2857139999999987
        },
        {
          "name": "A5",
          "midi": 81,
          "time": 70.57135800000002,
          "velocity": 0.25196850393700787,
          "duration": 0.14285700000000645
        },
        {
          "name": "A5",
          "midi": 81,
          "time": 70.71421500000002,
          "velocity": 0.25196850393700787,
          "duration": 0.14285700000000645
        },
        {
          "name": "A5",
          "midi": 81,
          "time": 70.85707200000003,
          "velocity": 0.25196850393700787,
          "duration": 0.2857139999999987
        },
        {
          "name": "A5",
          "midi": 81,
          "time": 71.14278600000003,
          "velocity": 0.25196850393700787,
          "duration": 0.2857139999999987
        },
        {
          "name": "A5",
          "midi": 81,
          "time": 71.42850000000003,
          "velocity": 0.25196850393700787,
          "duration": 0.14285700000000645
        },
        {
          "name": "A5",
          "midi": 81,
          "time": 71.57135700000003,
          "velocity": 0.25196850393700787,
          "duration": 0.14285700000000645
        },
        {
          "name": "A5",
          "midi": 81,
          "time": 71.71421400000004,
          "velocity": 0.25196850393700787,
          "duration": 0.2857139999999987
        },
        {
          "name": "A5",
          "midi": 81,
          "time": 71.99992800000004,
          "velocity": 0.25196850393700787,
          "duration": 0.2857139999999987
        },
        {
          "name": "A5",
          "midi": 81,
          "time": 72.28564200000004,
          "velocity": 0.25196850393700787,
          "duration": 0.14285700000000645
        },
        {
          "name": "A5",
          "midi": 81,
          "time": 72.42849900000004,
          "velocity": 0.25196850393700787,
          "duration": 0.14285700000000645
        },
        {
          "name": "A5",
          "midi": 81,
          "time": 72.57135600000005,
          "velocity": 0.25196850393700787,
          "duration": 0.2857139999999987
        },
        {
          "name": "A5",
          "midi": 81,
          "time": 72.85707000000005,
          "velocity": 0.25196850393700787,
          "duration": 0.2857139999999987
        },
        {
          "name": "A5",
          "midi": 81,
          "time": 73.14278400000005,
          "velocity": 0.25196850393700787,
          "duration": 0.14285700000000645
        },
        {
          "name": "A5",
          "midi": 81,
          "time": 73.28564100000006,
          "velocity": 0.25196850393700787,
          "duration": 0.14285700000000645
        },
        {
          "name": "A5",
          "midi": 81,
          "time": 73.42849800000006,
          "velocity": 0.25196850393700787,
          "duration": 0.2857139999999987
        },
        {
          "name": "A5",
          "midi": 81,
          "time": 73.71421200000006,
          "velocity": 0.25196850393700787,
          "duration": 0.2857139999999987
        },
        {
          "name": "A5",
          "midi": 81,
          "time": 73.99992600000006,
          "velocity": 0.25196850393700787,
          "duration": 0.14285700000000645
        },
        {
          "name": "A5",
          "midi": 81,
          "time": 74.14278300000007,
          "velocity": 0.25196850393700787,
          "duration": 0.14285700000000645
        },
        {
          "name": "A5",
          "midi": 81,
          "time": 74.28564000000007,
          "velocity": 0.25196850393700787,
          "duration": 0.2857139999999987
        },
        {
          "name": "A5",
          "midi": 81,
          "time": 74.57135400000007,
          "velocity": 0.25196850393700787,
          "duration": 0.2857139999999987
        },
        {
          "name": "A5",
          "midi": 81,
          "time": 74.85706800000007,
          "velocity": 0.25196850393700787,
          "duration": 0.14285700000000645
        },
        {
          "name": "A5",
          "midi": 81,
          "time": 74.99992500000008,
          "velocity": 0.25196850393700787,
          "duration": 0.14285700000000645
        },
        {
          "name": "A5",
          "midi": 81,
          "time": 75.14278200000008,
          "velocity": 0.25196850393700787,
          "duration": 0.2857139999999987
        },
        {
          "name": "A5",
          "midi": 81,
          "time": 75.42849600000008,
          "velocity": 0.25196850393700787,
          "duration": 0.2857139999999987
        },
        {
          "name": "A5",
          "midi": 81,
          "time": 75.71421000000008,
          "velocity": 0.25196850393700787,
          "duration": 0.14285700000000645
        },
        {
          "name": "A5",
          "midi": 81,
          "time": 75.85706700000009,
          "velocity": 0.25196850393700787,
          "duration": 0.14285700000000645
        },
        {
          "name": "A5",
          "midi": 81,
          "time": 75.99992400000009,
          "velocity": 0.25196850393700787,
          "duration": 0.2857139999999987
        },
        {
          "name": "A5",
          "midi": 81,
          "time": 76.28563800000009,
          "velocity": 0.25196850393700787,
          "duration": 0.2857139999999987
        },
        {
          "name": "A5",
          "midi": 81,
          "time": 76.57135200000009,
          "velocity": 0.25196850393700787,
          "duration": 0.14285700000000645
        },
        {
          "name": "A5",
          "midi": 81,
          "time": 76.7142090000001,
          "velocity": 0.25196850393700787,
          "duration": 0.14285700000000645
        },
        {
          "name": "A5",
          "midi": 81,
          "time": 76.8570660000001,
          "velocity": 0.25196850393700787,
          "duration": 0.2857139999999987
        },
        {
          "name": "A5",
          "midi": 81,
          "time": 77.1427800000001,
          "velocity": 0.25196850393700787,
          "duration": 0.2857139999999987
        },
        {
          "name": "A5",
          "midi": 81,
          "time": 77.4284940000001,
          "velocity": 0.25196850393700787,
          "duration": 0.14285700000000645
        },
        {
          "name": "A5",
          "midi": 81,
          "time": 77.5713510000001,
          "velocity": 0.25196850393700787,
          "duration": 0.14285700000000645
        },
        {
          "name": "A5",
          "midi": 81,
          "time": 77.71420800000011,
          "velocity": 0.25196850393700787,
          "duration": 0.2857139999999987
        },
        {
          "name": "A5",
          "midi": 81,
          "time": 77.99992200000011,
          "velocity": 0.25196850393700787,
          "duration": 0.2857139999999987
        },
        {
          "name": "A5",
          "midi": 81,
          "time": 78.28563600000011,
          "velocity": 0.25196850393700787,
          "duration": 0.14285700000000645
        },
        {
          "name": "A5",
          "midi": 81,
          "time": 78.42849300000012,
          "velocity": 0.25196850393700787,
          "duration": 0.14285700000000645
        },
        {
          "name": "A5",
          "midi": 81,
          "time": 78.57135000000012,
          "velocity": 0.25196850393700787,
          "duration": 0.2857139999999987
        },
        {
          "name": "A5",
          "midi": 81,
          "time": 78.85706400000012,
          "velocity": 0.25196850393700787,
          "duration": 0.2857139999999987
        },
        {
          "name": "A5",
          "midi": 81,
          "time": 79.14277800000012,
          "velocity": 0.25196850393700787,
          "duration": 0.14285700000000645
        },
        {
          "name": "A5",
          "midi": 81,
          "time": 79.28563500000013,
          "velocity": 0.25196850393700787,
          "duration": 0.14285700000000645
        },
        {
          "name": "A5",
          "midi": 81,
          "time": 79.42849200000013,
          "velocity": 0.25196850393700787,
          "duration": 0.2857139999999987
        },
        {
          "name": "A5",
          "midi": 81,
          "time": 79.71420600000013,
          "velocity": 0.25196850393700787,
          "duration": 0.2857139999999987
        },
        {
          "name": "A5",
          "midi": 81,
          "time": 79.99992000000013,
          "velocity": 0.25196850393700787,
          "duration": 0.14285700000000645
        },
        {
          "name": "A5",
          "midi": 81,
          "time": 80.14277700000014,
          "velocity": 0.25196850393700787,
          "duration": 0.14285700000000645
        },
        {
          "name": "A5",
          "midi": 81,
          "time": 80.28563400000014,
          "velocity": 0.25196850393700787,
          "duration": 0.2857139999999987
        },
        {
          "name": "A5",
          "midi": 81,
          "time": 80.57134800000014,
          "velocity": 0.25196850393700787,
          "duration": 0.2857139999999987
        },
        {
          "name": "A5",
          "midi": 81,
          "time": 80.85706200000014,
          "velocity": 0.25196850393700787,
          "duration": 0.14285700000000645
        },
        {
          "name": "A5",
          "midi": 81,
          "time": 80.99991900000015,
          "velocity": 0.25196850393700787,
          "duration": 0.14285700000000645
        },
        {
          "name": "A5",
          "midi": 81,
          "time": 81.14277600000015,
          "velocity": 0.25196850393700787,
          "duration": 0.2857139999999987
        },
        {
          "name": "A5",
          "midi": 81,
          "time": 81.42849000000015,
          "velocity": 0.25196850393700787,
          "duration": 0.2857139999999987
        },
        {
          "name": "A5",
          "midi": 81,
          "time": 81.71420400000015,
          "velocity": 0.25196850393700787,
          "duration": 0.14285700000000645
        },
        {
          "name": "A5",
          "midi": 81,
          "time": 81.85706100000016,
          "velocity": 0.25196850393700787,
          "duration": 0.14285700000000645
        },
        {
          "name": "A5",
          "midi": 81,
          "time": 81.99991800000016,
          "velocity": 0.25196850393700787,
          "duration": 0.2857139999999987
        },
        {
          "name": "A5",
          "midi": 81,
          "time": 82.28563200000016,
          "velocity": 0.25196850393700787,
          "duration": 0.2857139999999987
        },
        {
          "name": "A5",
          "midi": 81,
          "time": 82.57134600000016,
          "velocity": 0.25196850393700787,
          "duration": 0.14285700000000645
        },
        {
          "name": "A5",
          "midi": 81,
          "time": 82.71420300000017,
          "velocity": 0.25196850393700787,
          "duration": 0.14285700000000645
        },
        {
          "name": "A5",
          "midi": 81,
          "time": 82.85706000000017,
          "velocity": 0.25196850393700787,
          "duration": 0.2857139999999987
        },
        {
          "name": "A5",
          "midi": 81,
          "time": 83.14277400000017,
          "velocity": 0.25196850393700787,
          "duration": 0.2857139999999987
        },
        {
          "name": "A5",
          "midi": 81,
          "time": 83.42848800000017,
          "velocity": 0.25196850393700787,
          "duration": 0.14285700000000645
        },
        {
          "name": "A5",
          "midi": 81,
          "time": 83.57134500000018,
          "velocity": 0.25196850393700787,
          "duration": 0.14285700000000645
        },
        {
          "name": "A5",
          "midi": 81,
          "time": 83.71420200000018,
          "velocity": 0.25196850393700787,
          "duration": 0.2857139999999987
        },
        {
          "name": "A5",
          "midi": 81,
          "time": 83.99991600000018,
          "velocity": 0.25196850393700787,
          "duration": 0.2857139999999987
        },
        {
          "name": "A5",
          "midi": 81,
          "time": 84.28563000000018,
          "velocity": 0.25196850393700787,
          "duration": 0.14285700000000645
        },
        {
          "name": "A5",
          "midi": 81,
          "time": 84.42848700000019,
          "velocity": 0.25196850393700787,
          "duration": 0.14285700000000645
        },
        {
          "name": "A5",
          "midi": 81,
          "time": 84.5713440000002,
          "velocity": 0.25196850393700787,
          "duration": 0.2857139999999987
        },
        {
          "name": "A5",
          "midi": 81,
          "time": 84.8570580000002,
          "velocity": 0.25196850393700787,
          "duration": 0.2857139999999987
        },
        {
          "name": "A5",
          "midi": 81,
          "time": 85.14277200000019,
          "velocity": 0.25196850393700787,
          "duration": 0.14285700000000645
        },
        {
          "name": "A5",
          "midi": 81,
          "time": 85.2856290000002,
          "velocity": 0.25196850393700787,
          "duration": 0.14285700000000645
        },
        {
          "name": "A5",
          "midi": 81,
          "time": 85.4284860000002,
          "velocity": 0.25196850393700787,
          "duration": 0.2857139999999987
        },
        {
          "name": "A5",
          "midi": 81,
          "time": 85.7142000000002,
          "velocity": 0.25196850393700787,
          "duration": 0.2857139999999987
        },
        {
          "name": "A5",
          "midi": 81,
          "time": 85.9999140000002,
          "velocity": 0.25196850393700787,
          "duration": 0.14285700000000645
        },
        {
          "name": "A5",
          "midi": 81,
          "time": 86.14277100000021,
          "velocity": 0.25196850393700787,
          "duration": 0.14285700000000645
        },
        {
          "name": "A5",
          "midi": 81,
          "time": 86.28562800000022,
          "velocity": 0.25196850393700787,
          "duration": 0.2857139999999987
        },
        {
          "name": "A5",
          "midi": 81,
          "time": 86.57134200000021,
          "velocity": 0.25196850393700787,
          "duration": 0.2857139999999987
        },
        {
          "name": "A5",
          "midi": 81,
          "time": 86.85705600000021,
          "velocity": 0.25196850393700787,
          "duration": 0.14285700000000645
        },
        {
          "name": "A5",
          "midi": 81,
          "time": 86.99991300000022,
          "velocity": 0.25196850393700787,
          "duration": 0.14285700000000645
        },
        {
          "name": "A5",
          "midi": 81,
          "time": 87.14277000000023,
          "velocity": 0.25196850393700787,
          "duration": 0.2857139999999987
        },
        {
          "name": "A5",
          "midi": 81,
          "time": 87.42848400000022,
          "velocity": 0.25196850393700787,
          "duration": 0.2857139999999987
        },
        {
          "name": "A5",
          "midi": 81,
          "time": 87.71419800000022,
          "velocity": 0.25196850393700787,
          "duration": 0.14285700000000645
        },
        {
          "name": "A5",
          "midi": 81,
          "time": 87.85705500000023,
          "velocity": 0.25196850393700787,
          "duration": 0.14285700000000645
        },
        {
          "name": "A5",
          "midi": 81,
          "time": 87.99991200000024,
          "velocity": 0.25196850393700787,
          "duration": 0.2857139999999987
        },
        {
          "name": "A5",
          "midi": 81,
          "time": 88.28562600000024,
          "velocity": 0.25196850393700787,
          "duration": 0.2857139999999987
        },
        {
          "name": "A5",
          "midi": 81,
          "time": 88.57134000000023,
          "velocity": 0.25196850393700787,
          "duration": 0.14285700000000645
        },
        {
          "name": "A5",
          "midi": 81,
          "time": 88.71419700000024,
          "velocity": 0.25196850393700787,
          "duration": 0.14285700000000645
        },
        {
          "name": "A5",
          "midi": 81,
          "time": 88.85705400000025,
          "velocity": 0.25196850393700787,
          "duration": 0.2857139999999987
        },
        {
          "name": "A5",
          "midi": 81,
          "time": 89.14276800000025,
          "velocity": 0.25196850393700787,
          "duration": 0.2857139999999987
        },
        {
          "name": "A5",
          "midi": 81,
          "time": 89.42848200000024,
          "velocity": 0.25196850393700787,
          "duration": 0.14285700000000645
        },
        {
          "name": "A5",
          "midi": 81,
          "time": 89.57133900000025,
          "velocity": 0.25196850393700787,
          "duration": 0.14285700000000645
        },
        {
          "name": "A5",
          "midi": 81,
          "time": 89.71419600000026,
          "velocity": 0.25196850393700787,
          "duration": 0.2857139999999987
        },
        {
          "name": "A5",
          "midi": 81,
          "time": 89.99991000000026,
          "velocity": 0.25196850393700787,
          "duration": 0.2857139999999987
        },
        {
          "name": "A5",
          "midi": 81,
          "time": 90.28562400000025,
          "velocity": 0.25196850393700787,
          "duration": 0.14285700000000645
        },
        {
          "name": "A5",
          "midi": 81,
          "time": 90.42848100000026,
          "velocity": 0.25196850393700787,
          "duration": 0.14285700000000645
        },
        {
          "name": "A5",
          "midi": 81,
          "time": 90.57133800000027,
          "velocity": 0.25196850393700787,
          "duration": 0.2857139999999987
        },
        {
          "name": "A5",
          "midi": 81,
          "time": 90.85705200000027,
          "velocity": 0.25196850393700787,
          "duration": 0.2857139999999987
        },
        {
          "name": "A5",
          "midi": 81,
          "time": 91.14276600000026,
          "velocity": 0.25196850393700787,
          "duration": 0.14285700000000645
        },
        {
          "name": "A5",
          "midi": 81,
          "time": 91.28562300000027,
          "velocity": 0.25196850393700787,
          "duration": 0.14285700000000645
        },
        {
          "name": "A5",
          "midi": 81,
          "time": 91.42848000000028,
          "velocity": 0.25196850393700787,
          "duration": 0.2857139999999987
        },
        {
          "name": "A5",
          "midi": 81,
          "time": 91.71419400000028,
          "velocity": 0.25196850393700787,
          "duration": 0.2857139999999987
        },
        {
          "name": "A5",
          "midi": 81,
          "time": 91.99990800000027,
          "velocity": 0.25196850393700787,
          "duration": 0.14285700000000645
        },
        {
          "name": "A5",
          "midi": 81,
          "time": 92.14276500000028,
          "velocity": 0.25196850393700787,
          "duration": 0.14285700000000645
        },
        {
          "name": "A5",
          "midi": 81,
          "time": 92.28562200000029,
          "velocity": 0.25196850393700787,
          "duration": 0.2857139999999987
        },
        {
          "name": "A5",
          "midi": 81,
          "time": 92.57133600000029,
          "velocity": 0.25196850393700787,
          "duration": 0.2857139999999987
        },
        {
          "name": "A5",
          "midi": 81,
          "time": 92.85705000000029,
          "velocity": 0.25196850393700787,
          "duration": 0.14285700000000645
        },
        {
          "name": "A5",
          "midi": 81,
          "time": 92.99990700000029,
          "velocity": 0.25196850393700787,
          "duration": 0.14285700000000645
        },
        {
          "name": "A5",
          "midi": 81,
          "time": 93.1427640000003,
          "velocity": 0.25196850393700787,
          "duration": 0.2857139999999987
        },
        {
          "name": "A5",
          "midi": 81,
          "time": 93.4284780000003,
          "velocity": 0.25196850393700787,
          "duration": 0.2857139999999987
        },
        {
          "name": "A5",
          "midi": 81,
          "time": 93.7141920000003,
          "velocity": 0.25196850393700787,
          "duration": 0.14285700000000645
        },
        {
          "name": "A5",
          "midi": 81,
          "time": 93.8570490000003,
          "velocity": 0.25196850393700787,
          "duration": 0.14285700000000645
        },
        {
          "name": "A5",
          "midi": 81,
          "time": 93.99990600000031,
          "velocity": 0.25196850393700787,
          "duration": 0.2857139999999987
        },
        {
          "name": "A5",
          "midi": 81,
          "time": 94.2856200000003,
          "velocity": 0.25196850393700787,
          "duration": 0.2857139999999987
        },
        {
          "name": "A5",
          "midi": 81,
          "time": 94.5713340000003,
          "velocity": 0.25196850393700787,
          "duration": 0.14285700000000645
        },
        {
          "name": "A5",
          "midi": 81,
          "time": 94.71419100000031,
          "velocity": 0.25196850393700787,
          "duration": 0.14285700000000645
        },
        {
          "name": "A5",
          "midi": 81,
          "time": 94.85704800000032,
          "velocity": 0.25196850393700787,
          "duration": 0.2857139999999987
        },
        {
          "name": "A5",
          "midi": 81,
          "time": 95.14276200000032,
          "velocity": 0.25196850393700787,
          "duration": 0.2857139999999987
        },
        {
          "name": "A5",
          "midi": 81,
          "time": 95.42847600000032,
          "velocity": 0.25196850393700787,
          "duration": 0.14285700000000645
        },
        {
          "name": "A5",
          "midi": 81,
          "time": 95.57133300000032,
          "velocity": 0.25196850393700787,
          "duration": 0.14285700000000645
        },
        {
          "name": "A5",
          "midi": 81,
          "time": 95.71419000000033,
          "velocity": 0.25196850393700787,
          "duration": 0.2857139999999987
        },
        {
          "name": "A5",
          "midi": 81,
          "time": 95.99990400000033,
          "velocity": 0.25196850393700787,
          "duration": 0.2857139999999987
        },
        {
          "name": "A5",
          "midi": 81,
          "time": 96.28561800000033,
          "velocity": 0.25196850393700787,
          "duration": 0.14285700000000645
        },
        {
          "name": "A5",
          "midi": 81,
          "time": 96.42847500000033,
          "velocity": 0.25196850393700787,
          "duration": 0.14285700000000645
        },
        {
          "name": "A5",
          "midi": 81,
          "time": 96.57133200000034,
          "velocity": 0.25196850393700787,
          "duration": 0.2857139999999987
        },
        {
          "name": "A5",
          "midi": 81,
          "time": 96.85704600000034,
          "velocity": 0.25196850393700787,
          "duration": 0.2857139999999987
        },
        {
          "name": "A5",
          "midi": 81,
          "time": 97.14276000000034,
          "velocity": 0.25196850393700787,
          "duration": 0.14285700000000645
        },
        {
          "name": "A5",
          "midi": 81,
          "time": 97.28561700000034,
          "velocity": 0.25196850393700787,
          "duration": 0.14285700000000645
        },
        {
          "name": "A5",
          "midi": 81,
          "time": 97.42847400000035,
          "velocity": 0.25196850393700787,
          "duration": 0.2857139999999987
        },
        {
          "name": "A5",
          "midi": 81,
          "time": 97.71418800000035,
          "velocity": 0.25196850393700787,
          "duration": 0.2857139999999987
        },
        {
          "name": "A5",
          "midi": 81,
          "time": 97.99990200000035,
          "velocity": 0.25196850393700787,
          "duration": 0.14285700000000645
        },
        {
          "name": "A5",
          "midi": 81,
          "time": 98.14275900000035,
          "velocity": 0.25196850393700787,
          "duration": 0.14285700000000645
        },
        {
          "name": "A5",
          "midi": 81,
          "time": 98.28561600000036,
          "velocity": 0.25196850393700787,
          "duration": 0.2857139999999987
        },
        {
          "name": "A5",
          "midi": 81,
          "time": 98.57133000000036,
          "velocity": 0.25196850393700787,
          "duration": 0.2857139999999987
        },
        {
          "name": "A5",
          "midi": 81,
          "time": 98.85704400000036,
          "velocity": 0.25196850393700787,
          "duration": 0.14285700000000645
        },
        {
          "name": "A5",
          "midi": 81,
          "time": 98.99990100000036,
          "velocity": 0.25196850393700787,
          "duration": 0.14285700000000645
        },
        {
          "name": "A5",
          "midi": 81,
          "time": 99.14275800000037,
          "velocity": 0.25196850393700787,
          "duration": 0.2857139999999987
        },
        {
          "name": "A5",
          "midi": 81,
          "time": 99.42847200000037,
          "velocity": 0.25196850393700787,
          "duration": 0.2857139999999987
        },
        {
          "name": "A5",
          "midi": 81,
          "time": 99.71418600000037,
          "velocity": 0.25196850393700787,
          "duration": 0.14285700000000645
        },
        {
          "name": "A5",
          "midi": 81,
          "time": 99.85704300000037,
          "velocity": 0.25196850393700787,
          "duration": 0.14285700000000645
        },
        {
          "name": "A5",
          "midi": 81,
          "time": 99.99990000000038,
          "velocity": 0.25196850393700787,
          "duration": 0.2857139999999987
        },
        {
          "name": "A5",
          "midi": 81,
          "time": 100.28561400000038,
          "velocity": 0.25196850393700787,
          "duration": 0.2857139999999987
        },
        {
          "name": "A5",
          "midi": 81,
          "time": 100.57132800000038,
          "velocity": 0.25196850393700787,
          "duration": 0.14285700000000645
        },
        {
          "name": "A5",
          "midi": 81,
          "time": 100.71418500000038,
          "velocity": 0.25196850393700787,
          "duration": 0.14285700000000645
        },
        {
          "name": "A5",
          "midi": 81,
          "time": 100.85704200000039,
          "velocity": 0.25196850393700787,
          "duration": 0.2857139999999987
        },
        {
          "name": "A5",
          "midi": 81,
          "time": 101.14275600000039,
          "velocity": 0.25196850393700787,
          "duration": 0.2857139999999987
        },
        {
          "name": "A5",
          "midi": 81,
          "time": 101.42847000000039,
          "velocity": 0.25196850393700787,
          "duration": 0.14285700000000645
        },
        {
          "name": "A5",
          "midi": 81,
          "time": 101.5713270000004,
          "velocity": 0.25196850393700787,
          "duration": 0.14285700000000645
        },
        {
          "name": "A5",
          "midi": 81,
          "time": 101.7141840000004,
          "velocity": 0.25196850393700787,
          "duration": 0.2857139999999987
        },
        {
          "name": "A5",
          "midi": 81,
          "time": 101.9998980000004,
          "velocity": 0.25196850393700787,
          "duration": 0.2857139999999987
        },
        {
          "name": "A5",
          "midi": 81,
          "time": 102.2856120000004,
          "velocity": 0.25196850393700787,
          "duration": 0.14285700000000645
        },
        {
          "name": "A5",
          "midi": 81,
          "time": 102.4284690000004,
          "velocity": 0.25196850393700787,
          "duration": 0.14285700000000645
        },
        {
          "name": "A5",
          "midi": 81,
          "time": 102.57132600000041,
          "velocity": 0.25196850393700787,
          "duration": 0.2857139999999987
        },
        {
          "name": "A5",
          "midi": 81,
          "time": 102.85704000000041,
          "velocity": 0.25196850393700787,
          "duration": 0.2857139999999987
        },
        {
          "name": "A5",
          "midi": 81,
          "time": 103.14275400000041,
          "velocity": 0.25196850393700787,
          "duration": 0.14285700000000645
        },
        {
          "name": "A5",
          "midi": 81,
          "time": 103.28561100000042,
          "velocity": 0.25196850393700787,
          "duration": 0.14285700000000645
        },
        {
          "name": "A5",
          "midi": 81,
          "time": 103.42846800000042,
          "velocity": 0.25196850393700787,
          "duration": 0.2857139999999987
        },
        {
          "name": "A5",
          "midi": 81,
          "time": 103.71418200000042,
          "velocity": 0.25196850393700787,
          "duration": 0.2857139999999987
        },
        {
          "name": "A5",
          "midi": 81,
          "time": 103.99989600000042,
          "velocity": 0.25196850393700787,
          "duration": 0.14285700000000645
        },
        {
          "name": "A5",
          "midi": 81,
          "time": 104.14275300000043,
          "velocity": 0.25196850393700787,
          "duration": 0.14285700000000645
        },
        {
          "name": "A5",
          "midi": 81,
          "time": 104.28561000000043,
          "velocity": 0.25196850393700787,
          "duration": 0.2857139999999987
        },
        {
          "name": "A5",
          "midi": 81,
          "time": 104.57132400000043,
          "velocity": 0.25196850393700787,
          "duration": 0.2857139999999987
        },
        {
          "name": "A5",
          "midi": 81,
          "time": 104.85703800000043,
          "velocity": 0.25196850393700787,
          "duration": 0.14285700000000645
        },
        {
          "name": "A5",
          "midi": 81,
          "time": 104.99989500000044,
          "velocity": 0.25196850393700787,
          "duration": 0.14285700000000645
        },
        {
          "name": "A5",
          "midi": 81,
          "time": 105.14275200000044,
          "velocity": 0.25196850393700787,
          "duration": 0.2857139999999987
        },
        {
          "name": "A5",
          "midi": 81,
          "time": 105.42846600000044,
          "velocity": 0.25196850393700787,
          "duration": 0.2857139999999987
        },
        {
          "name": "A5",
          "midi": 81,
          "time": 105.71418000000044,
          "velocity": 0.25196850393700787,
          "duration": 0.14285700000000645
        },
        {
          "name": "A5",
          "midi": 81,
          "time": 105.85703700000045,
          "velocity": 0.25196850393700787,
          "duration": 0.14285700000000645
        },
        {
          "name": "A5",
          "midi": 81,
          "time": 105.99989400000045,
          "velocity": 0.25196850393700787,
          "duration": 0.2857139999999987
        },
        {
          "name": "A5",
          "midi": 81,
          "time": 106.28560800000045,
          "velocity": 0.25196850393700787,
          "duration": 0.2857139999999987
        },
        {
          "name": "A5",
          "midi": 81,
          "time": 106.57132200000045,
          "velocity": 0.25196850393700787,
          "duration": 0.14285700000000645
        },
        {
          "name": "A5",
          "midi": 81,
          "time": 106.71417900000046,
          "velocity": 0.25196850393700787,
          "duration": 0.14285700000000645
        },
        {
          "name": "A5",
          "midi": 81,
          "time": 106.85703600000046,
          "velocity": 0.25196850393700787,
          "duration": 0.2857139999999987
        },
        {
          "name": "A5",
          "midi": 81,
          "time": 107.14275000000046,
          "velocity": 0.25196850393700787,
          "duration": 0.2857139999999987
        },
        {
          "name": "A5",
          "midi": 81,
          "time": 107.42846400000046,
          "velocity": 0.25196850393700787,
          "duration": 0.14285700000000645
        },
        {
          "name": "A5",
          "midi": 81,
          "time": 107.57132100000047,
          "velocity": 0.25196850393700787,
          "duration": 0.14285700000000645
        },
        {
          "name": "A5",
          "midi": 81,
          "time": 107.71417800000047,
          "velocity": 0.25196850393700787,
          "duration": 0.2857139999999987
        },
        {
          "name": "A5",
          "midi": 81,
          "time": 107.99989200000047,
          "velocity": 0.25196850393700787,
          "duration": 0.2857139999999987
        },
        {
          "name": "A5",
          "midi": 81,
          "time": 108.28560600000047,
          "velocity": 0.25196850393700787,
          "duration": 0.14285700000000645
        },
        {
          "name": "A5",
          "midi": 81,
          "time": 108.42846300000048,
          "velocity": 0.25196850393700787,
          "duration": 0.14285700000000645
        },
        {
          "name": "A5",
          "midi": 81,
          "time": 108.57132000000048,
          "velocity": 0.25196850393700787,
          "duration": 0.2857139999999987
        },
        {
          "name": "A5",
          "midi": 81,
          "time": 108.85703400000048,
          "velocity": 0.25196850393700787,
          "duration": 0.2857139999999987
        },
        {
          "name": "A5",
          "midi": 81,
          "time": 109.14274800000048,
          "velocity": 0.25196850393700787,
          "duration": 0.14285700000000645
        },
        {
          "name": "A5",
          "midi": 81,
          "time": 109.28560500000049,
          "velocity": 0.25196850393700787,
          "duration": 0.14285700000000645
        },
        {
          "name": "A5",
          "midi": 81,
          "time": 109.4284620000005,
          "velocity": 0.25196850393700787,
          "duration": 0.2857139999999987
        },
        {
          "name": "A5",
          "midi": 81,
          "time": 109.71417600000049,
          "velocity": 0.25196850393700787,
          "duration": 0.2857139999999987
        },
        {
          "name": "A5",
          "midi": 81,
          "time": 109.99989000000049,
          "velocity": 0.25196850393700787,
          "duration": 0.14285700000000645
        },
        {
          "name": "A5",
          "midi": 81,
          "time": 110.1427470000005,
          "velocity": 0.25196850393700787,
          "duration": 0.14285700000000645
        },
        {
          "name": "A5",
          "midi": 81,
          "time": 110.2856040000005,
          "velocity": 0.25196850393700787,
          "duration": 0.2857139999999987
        },
        {
          "name": "A5",
          "midi": 81,
          "time": 110.5713180000005,
          "velocity": 0.25196850393700787,
          "duration": 0.2857139999999987
        },
        {
          "name": "A5",
          "midi": 81,
          "time": 110.8570320000005,
          "velocity": 0.25196850393700787,
          "duration": 0.14285700000000645
        },
        {
          "name": "A5",
          "midi": 81,
          "time": 110.99988900000051,
          "velocity": 0.25196850393700787,
          "duration": 0.14285700000000645
        },
        {
          "name": "A5",
          "midi": 81,
          "time": 111.14274600000051,
          "velocity": 0.25196850393700787,
          "duration": 0.2857139999999987
        },
        {
          "name": "A5",
          "midi": 81,
          "time": 111.42846000000051,
          "velocity": 0.25196850393700787,
          "duration": 0.2857139999999987
        },
        {
          "name": "A5",
          "midi": 81,
          "time": 111.71417400000051,
          "velocity": 0.25196850393700787,
          "duration": 0.14285700000000645
        },
        {
          "name": "A5",
          "midi": 81,
          "time": 111.85703100000052,
          "velocity": 0.25196850393700787,
          "duration": 0.14285700000000645
        },
        {
          "name": "A5",
          "midi": 81,
          "time": 111.99988800000052,
          "velocity": 0.25196850393700787,
          "duration": 0.2857139999999987
        },
        {
          "name": "A5",
          "midi": 81,
          "time": 112.28560200000052,
          "velocity": 0.25196850393700787,
          "duration": 0.2857139999999987
        },
        {
          "name": "A5",
          "midi": 81,
          "time": 112.57131600000052,
          "velocity": 0.25196850393700787,
          "duration": 0.14285700000000645
        },
        {
          "name": "A5",
          "midi": 81,
          "time": 112.71417300000053,
          "velocity": 0.25196850393700787,
          "duration": 0.14285700000000645
        },
        {
          "name": "A5",
          "midi": 81,
          "time": 112.85703000000053,
          "velocity": 0.25196850393700787,
          "duration": 0.2857139999999987
        },
        {
          "name": "A5",
          "midi": 81,
          "time": 113.14274400000053,
          "velocity": 0.25196850393700787,
          "duration": 0.2857139999999987
        },
        {
          "name": "A5",
          "midi": 81,
          "time": 113.42845800000053,
          "velocity": 0.25196850393700787,
          "duration": 0.14285700000000645
        },
        {
          "name": "A5",
          "midi": 81,
          "time": 113.57131500000054,
          "velocity": 0.25196850393700787,
          "duration": 0.14285700000000645
        },
        {
          "name": "A5",
          "midi": 81,
          "time": 113.71417200000054,
          "velocity": 0.25196850393700787,
          "duration": 0.2857139999999987
        },
        {
          "name": "A5",
          "midi": 81,
          "time": 113.99988600000054,
          "velocity": 0.25196850393700787,
          "duration": 0.2857139999999987
        },
        {
          "name": "A5",
          "midi": 81,
          "time": 114.28560000000054,
          "velocity": 0.25196850393700787,
          "duration": 0.14285700000000645
        },
        {
          "name": "A5",
          "midi": 81,
          "time": 114.42845700000055,
          "velocity": 0.25196850393700787,
          "duration": 0.14285700000000645
        },
        {
          "name": "A5",
          "midi": 81,
          "time": 114.57131400000056,
          "velocity": 0.25196850393700787,
          "duration": 0.2857139999999987
        },
        {
          "name": "A5",
          "midi": 81,
          "time": 114.85702800000055,
          "velocity": 0.25196850393700787,
          "duration": 0.2857139999999987
        },
        {
          "name": "A5",
          "midi": 81,
          "time": 115.14274200000055,
          "velocity": 0.25196850393700787,
          "duration": 0.14285700000000645
        },
        {
          "name": "A5",
          "midi": 81,
          "time": 115.28559900000056,
          "velocity": 0.25196850393700787,
          "duration": 0.14285700000000645
        },
        {
          "name": "A5",
          "midi": 81,
          "time": 115.42845600000057,
          "velocity": 0.25196850393700787,
          "duration": 0.2857139999999987
        },
        {
          "name": "A5",
          "midi": 81,
          "time": 115.71417000000056,
          "velocity": 0.25196850393700787,
          "duration": 0.2857139999999987
        },
        {
          "name": "A5",
          "midi": 81,
          "time": 115.99988400000056,
          "velocity": 0.25196850393700787,
          "duration": 0.14285700000000645
        },
        {
          "name": "A5",
          "midi": 81,
          "time": 116.14274100000057,
          "velocity": 0.25196850393700787,
          "duration": 0.14285700000000645
        },
        {
          "name": "A5",
          "midi": 81,
          "time": 116.28559800000058,
          "velocity": 0.25196850393700787,
          "duration": 0.2857139999999987
        },
        {
          "name": "A5",
          "midi": 81,
          "time": 116.57131200000057,
          "velocity": 0.25196850393700787,
          "duration": 0.2857139999999987
        },
        {
          "name": "A5",
          "midi": 81,
          "time": 116.85702600000057,
          "velocity": 0.25196850393700787,
          "duration": 0.14285700000000645
        },
        {
          "name": "A5",
          "midi": 81,
          "time": 116.99988300000058,
          "velocity": 0.25196850393700787,
          "duration": 0.14285700000000645
        },
        {
          "name": "A5",
          "midi": 81,
          "time": 117.14274000000059,
          "velocity": 0.25196850393700787,
          "duration": 0.2857139999999987
        },
        {
          "name": "A5",
          "midi": 81,
          "time": 117.42845400000058,
          "velocity": 0.25196850393700787,
          "duration": 0.2857139999999987
        },
        {
          "name": "A5",
          "midi": 81,
          "time": 117.71416800000058,
          "velocity": 0.25196850393700787,
          "duration": 0.14285700000000645
        },
        {
          "name": "A5",
          "midi": 81,
          "time": 117.85702500000059,
          "velocity": 0.25196850393700787,
          "duration": 0.14285700000000645
        },
        {
          "name": "A5",
          "midi": 81,
          "time": 117.9998820000006,
          "velocity": 0.25196850393700787,
          "duration": 0.2857139999999987
        },
        {
          "name": "A5",
          "midi": 81,
          "time": 118.2855960000006,
          "velocity": 0.25196850393700787,
          "duration": 0.2857139999999987
        },
        {
          "name": "A5",
          "midi": 81,
          "time": 118.5713100000006,
          "velocity": 0.25196850393700787,
          "duration": 0.14285700000000645
        },
        {
          "name": "A5",
          "midi": 81,
          "time": 118.7141670000006,
          "velocity": 0.25196850393700787,
          "duration": 0.14285700000000645
        },
        {
          "name": "A5",
          "midi": 81,
          "time": 118.8570240000006,
          "velocity": 0.25196850393700787,
          "duration": 0.2857139999999987
        },
        {
          "name": "A5",
          "midi": 81,
          "time": 119.1427380000006,
          "velocity": 0.25196850393700787,
          "duration": 0.2857139999999987
        },
        {
          "name": "A5",
          "midi": 81,
          "time": 119.4284520000006,
          "velocity": 0.25196850393700787,
          "duration": 0.14285700000000645
        },
        {
          "name": "A5",
          "midi": 81,
          "time": 119.57130900000061,
          "velocity": 0.25196850393700787,
          "duration": 0.14285700000000645
        },
        {
          "name": "A5",
          "midi": 81,
          "time": 119.71416600000062,
          "velocity": 0.25196850393700787,
          "duration": 0.2857139999999987
        },
        {
          "name": "A5",
          "midi": 81,
          "time": 119.99988000000062,
          "velocity": 0.25196850393700787,
          "duration": 0.2857139999999987
        },
        {
          "name": "A5",
          "midi": 81,
          "time": 120.28559400000061,
          "velocity": 0.25196850393700787,
          "duration": 0.14285700000000645
        },
        {
          "name": "A5",
          "midi": 81,
          "time": 120.42845100000062,
          "velocity": 0.25196850393700787,
          "duration": 0.14285700000000645
        },
        {
          "name": "A5",
          "midi": 81,
          "time": 120.57130800000063,
          "velocity": 0.25196850393700787,
          "duration": 0.2857139999999987
        },
        {
          "name": "A5",
          "midi": 81,
          "time": 120.85702200000063,
          "velocity": 0.25196850393700787,
          "duration": 0.2857139999999987
        },
        {
          "name": "A5",
          "midi": 81,
          "time": 121.14273600000062,
          "velocity": 0.25196850393700787,
          "duration": 0.14285700000000645
        },
        {
          "name": "A5",
          "midi": 81,
          "time": 121.28559300000063,
          "velocity": 0.25196850393700787,
          "duration": 0.14285700000000645
        },
        {
          "name": "A5",
          "midi": 81,
          "time": 121.42845000000064,
          "velocity": 0.25196850393700787,
          "duration": 0.2857139999999987
        },
        {
          "name": "A5",
          "midi": 81,
          "time": 121.71416400000064,
          "velocity": 0.25196850393700787,
          "duration": 0.2857139999999987
        },
        {
          "name": "A5",
          "midi": 81,
          "time": 121.99987800000063,
          "velocity": 0.25196850393700787,
          "duration": 0.14285700000000645
        },
        {
          "name": "A5",
          "midi": 81,
          "time": 122.14273500000064,
          "velocity": 0.25196850393700787,
          "duration": 0.14285700000000645
        },
        {
          "name": "A5",
          "midi": 81,
          "time": 122.28559200000065,
          "velocity": 0.25196850393700787,
          "duration": 0.2857139999999987
        },
        {
          "name": "A5",
          "midi": 81,
          "time": 122.57130600000065,
          "velocity": 0.25196850393700787,
          "duration": 0.2857139999999987
        },
        {
          "name": "A5",
          "midi": 81,
          "time": 122.85702000000065,
          "velocity": 0.25196850393700787,
          "duration": 0.14285700000000645
        },
        {
          "name": "A5",
          "midi": 81,
          "time": 122.99987700000065,
          "velocity": 0.25196850393700787,
          "duration": 0.14285700000000645
        },
        {
          "name": "A5",
          "midi": 81,
          "time": 123.14273400000066,
          "velocity": 0.25196850393700787,
          "duration": 0.2857139999999987
        },
        {
          "name": "A5",
          "midi": 81,
          "time": 123.42844800000066,
          "velocity": 0.25196850393700787,
          "duration": 0.2857139999999987
        },
        {
          "name": "A5",
          "midi": 81,
          "time": 123.71416200000066,
          "velocity": 0.25196850393700787,
          "duration": 0.14285700000000645
        },
        {
          "name": "A5",
          "midi": 81,
          "time": 123.85701900000066,
          "velocity": 0.25196850393700787,
          "duration": 0.14285700000000645
        },
        {
          "name": "A5",
          "midi": 81,
          "time": 123.99987600000067,
          "velocity": 0.25196850393700787,
          "duration": 0.2857139999999987
        },
        {
          "name": "A5",
          "midi": 81,
          "time": 124.28559000000067,
          "velocity": 0.25196850393700787,
          "duration": 0.2857139999999987
        },
        {
          "name": "A5",
          "midi": 81,
          "time": 124.57130400000067,
          "velocity": 0.25196850393700787,
          "duration": 0.14285700000000645
        },
        {
          "name": "A5",
          "midi": 81,
          "time": 124.71416100000067,
          "velocity": 0.25196850393700787,
          "duration": 0.14285700000000645
        },
        {
          "name": "A5",
          "midi": 81,
          "time": 124.85701800000068,
          "velocity": 0.25196850393700787,
          "duration": 0.2857139999999987
        },
        {
          "name": "A5",
          "midi": 81,
          "time": 125.14273200000068,
          "velocity": 0.25196850393700787,
          "duration": 0.2857139999999987
        },
        {
          "name": "A5",
          "midi": 81,
          "time": 125.42844600000068,
          "velocity": 0.25196850393700787,
          "duration": 0.14285700000000645
        },
        {
          "name": "A5",
          "midi": 81,
          "time": 125.57130300000068,
          "velocity": 0.25196850393700787,
          "duration": 0.14285700000000645
        },
        {
          "name": "A5",
          "midi": 81,
          "time": 125.71416000000069,
          "velocity": 0.25196850393700787,
          "duration": 0.2857139999999987
        },
        {
          "name": "A5",
          "midi": 81,
          "time": 125.99987400000069,
          "velocity": 0.25196850393700787,
          "duration": 0.2857139999999987
        },
        {
          "name": "A5",
          "midi": 81,
          "time": 126.28558800000069,
          "velocity": 0.25196850393700787,
          "duration": 0.14285700000000645
        },
        {
          "name": "A5",
          "midi": 81,
          "time": 126.42844500000069,
          "velocity": 0.25196850393700787,
          "duration": 0.14285700000000645
        },
        {
          "name": "A5",
          "midi": 81,
          "time": 126.5713020000007,
          "velocity": 0.25196850393700787,
          "duration": 0.2857139999999987
        },
        {
          "name": "A5",
          "midi": 81,
          "time": 126.8570160000007,
          "velocity": 0.25196850393700787,
          "duration": 0.2857139999999987
        },
        {
          "name": "A5",
          "midi": 81,
          "time": 127.1427300000007,
          "velocity": 0.25196850393700787,
          "duration": 0.14285700000000645
        },
        {
          "name": "A5",
          "midi": 81,
          "time": 127.2855870000007,
          "velocity": 0.25196850393700787,
          "duration": 0.14285700000000645
        },
        {
          "name": "A5",
          "midi": 81,
          "time": 127.42844400000071,
          "velocity": 0.25196850393700787,
          "duration": 0.2857139999999987
        },
        {
          "name": "A5",
          "midi": 81,
          "time": 127.71415800000071,
          "velocity": 0.25196850393700787,
          "duration": 0.2857139999999987
        },
        {
          "name": "A5",
          "midi": 81,
          "time": 127.9998720000007,
          "velocity": 0.25196850393700787,
          "duration": 0.14285700000000645
        },
        {
          "name": "A5",
          "midi": 81,
          "time": 128.1427290000007,
          "velocity": 0.25196850393700787,
          "duration": 0.14285699999999224
        },
        {
          "name": "A5",
          "midi": 81,
          "time": 128.2855860000007,
          "velocity": 0.25196850393700787,
          "duration": 0.2857140000000129
        },
        {
          "name": "A5",
          "midi": 81,
          "time": 128.57130000000072,
          "velocity": 0.25196850393700787,
          "duration": 0.2857140000000129
        },
        {
          "name": "A5",
          "midi": 81,
          "time": 128.85701400000073,
          "velocity": 0.25196850393700787,
          "duration": 0.14285699999999224
        },
        {
          "name": "A5",
          "midi": 81,
          "time": 128.99987100000072,
          "velocity": 0.25196850393700787,
          "duration": 0.14285699999999224
        },
        {
          "name": "A5",
          "midi": 81,
          "time": 129.14272800000072,
          "velocity": 0.25196850393700787,
          "duration": 0.2857140000000129
        },
        {
          "name": "A5",
          "midi": 81,
          "time": 129.42844200000073,
          "velocity": 0.25196850393700787,
          "duration": 0.2857140000000129
        },
        {
          "name": "A5",
          "midi": 81,
          "time": 129.71415600000074,
          "velocity": 0.25196850393700787,
          "duration": 0.14285699999999224
        },
        {
          "name": "A5",
          "midi": 81,
          "time": 129.85701300000073,
          "velocity": 0.25196850393700787,
          "duration": 0.14285699999999224
        },
        {
          "name": "A5",
          "midi": 81,
          "time": 129.99987000000073,
          "velocity": 0.25196850393700787,
          "duration": 0.2857140000000129
        },
        {
          "name": "A5",
          "midi": 81,
          "time": 130.28558400000074,
          "velocity": 0.25196850393700787,
          "duration": 0.2857140000000129
        },
        {
          "name": "A5",
          "midi": 81,
          "time": 130.57129800000075,
          "velocity": 0.25196850393700787,
          "duration": 0.14285699999999224
        },
        {
          "name": "A5",
          "midi": 81,
          "time": 130.71415500000074,
          "velocity": 0.25196850393700787,
          "duration": 0.14285699999999224
        },
        {
          "name": "A5",
          "midi": 81,
          "time": 130.85701200000074,
          "velocity": 0.25196850393700787,
          "duration": 0.2857140000000129
        },
        {
          "name": "A5",
          "midi": 81,
          "time": 131.14272600000075,
          "velocity": 0.25196850393700787,
          "duration": 0.2857140000000129
        },
        {
          "name": "A5",
          "midi": 81,
          "time": 131.42844000000076,
          "velocity": 0.25196850393700787,
          "duration": 0.14285699999999224
        },
        {
          "name": "A5",
          "midi": 81,
          "time": 131.57129700000075,
          "velocity": 0.25196850393700787,
          "duration": 0.14285699999999224
        },
        {
          "name": "A5",
          "midi": 81,
          "time": 131.71415400000075,
          "velocity": 0.25196850393700787,
          "duration": 0.2857140000000129
        },
        {
          "name": "A5",
          "midi": 81,
          "time": 131.99986800000076,
          "velocity": 0.25196850393700787,
          "duration": 0.2857140000000129
        },
        {
          "name": "A5",
          "midi": 81,
          "time": 132.28558200000077,
          "velocity": 0.25196850393700787,
          "duration": 0.14285699999999224
        },
        {
          "name": "A5",
          "midi": 81,
          "time": 132.42843900000076,
          "velocity": 0.25196850393700787,
          "duration": 0.14285699999999224
        },
        {
          "name": "A5",
          "midi": 81,
          "time": 132.57129600000076,
          "velocity": 0.25196850393700787,
          "duration": 0.2857140000000129
        },
        {
          "name": "A5",
          "midi": 81,
          "time": 132.85701000000077,
          "velocity": 0.25196850393700787,
          "duration": 0.2857140000000129
        },
        {
          "name": "A5",
          "midi": 81,
          "time": 133.14272400000078,
          "velocity": 0.25196850393700787,
          "duration": 0.14285699999999224
        },
        {
          "name": "A5",
          "midi": 81,
          "time": 133.28558100000078,
          "velocity": 0.25196850393700787,
          "duration": 0.14285699999999224
        },
        {
          "name": "A5",
          "midi": 81,
          "time": 133.42843800000077,
          "velocity": 0.25196850393700787,
          "duration": 0.2857140000000129
        },
        {
          "name": "A5",
          "midi": 81,
          "time": 133.71415200000078,
          "velocity": 0.25196850393700787,
          "duration": 0.2857140000000129
        },
        {
          "name": "A5",
          "midi": 81,
          "time": 133.9998660000008,
          "velocity": 0.25196850393700787,
          "duration": 0.14285699999999224
        },
        {
          "name": "A5",
          "midi": 81,
          "time": 134.14272300000079,
          "velocity": 0.25196850393700787,
          "duration": 0.14285699999999224
        },
        {
          "name": "A5",
          "midi": 81,
          "time": 134.28558000000078,
          "velocity": 0.25196850393700787,
          "duration": 0.2857140000000129
        },
        {
          "name": "A5",
          "midi": 81,
          "time": 134.5712940000008,
          "velocity": 0.25196850393700787,
          "duration": 0.2857140000000129
        },
        {
          "name": "A5",
          "midi": 81,
          "time": 134.8570080000008,
          "velocity": 0.25196850393700787,
          "duration": 0.14285699999999224
        },
        {
          "name": "A5",
          "midi": 81,
          "time": 134.9998650000008,
          "velocity": 0.25196850393700787,
          "duration": 0.14285699999999224
        },
        {
          "name": "A5",
          "midi": 81,
          "time": 135.1427220000008,
          "velocity": 0.25196850393700787,
          "duration": 0.2857140000000129
        },
        {
          "name": "A5",
          "midi": 81,
          "time": 135.4284360000008,
          "velocity": 0.25196850393700787,
          "duration": 0.2857140000000129
        },
        {
          "name": "A5",
          "midi": 81,
          "time": 135.7141500000008,
          "velocity": 0.25196850393700787,
          "duration": 0.14285699999999224
        },
        {
          "name": "A5",
          "midi": 81,
          "time": 135.8570070000008,
          "velocity": 0.25196850393700787,
          "duration": 0.14285699999999224
        },
        {
          "name": "A5",
          "midi": 81,
          "time": 135.9998640000008,
          "velocity": 0.25196850393700787,
          "duration": 0.2857140000000129
        },
        {
          "name": "A5",
          "midi": 81,
          "time": 136.2855780000008,
          "velocity": 0.25196850393700787,
          "duration": 0.2857140000000129
        },
        {
          "name": "A5",
          "midi": 81,
          "time": 136.57129200000082,
          "velocity": 0.25196850393700787,
          "duration": 0.14285699999999224
        },
        {
          "name": "A5",
          "midi": 81,
          "time": 136.71414900000082,
          "velocity": 0.25196850393700787,
          "duration": 0.14285699999999224
        },
        {
          "name": "A5",
          "midi": 81,
          "time": 136.8570060000008,
          "velocity": 0.25196850393700787,
          "duration": 0.2857140000000129
        },
        {
          "name": "A5",
          "midi": 81,
          "time": 137.14272000000082,
          "velocity": 0.25196850393700787,
          "duration": 0.2857140000000129
        },
        {
          "name": "A5",
          "midi": 81,
          "time": 137.42843400000083,
          "velocity": 0.25196850393700787,
          "duration": 0.14285699999999224
        },
        {
          "name": "A5",
          "midi": 81,
          "time": 137.57129100000083,
          "velocity": 0.25196850393700787,
          "duration": 0.14285699999999224
        },
        {
          "name": "A5",
          "midi": 81,
          "time": 137.71414800000082,
          "velocity": 0.25196850393700787,
          "duration": 0.2857140000000129
        },
        {
          "name": "A5",
          "midi": 81,
          "time": 137.99986200000083,
          "velocity": 0.25196850393700787,
          "duration": 0.2857140000000129
        },
        {
          "name": "A5",
          "midi": 81,
          "time": 138.28557600000084,
          "velocity": 0.25196850393700787,
          "duration": 0.14285699999999224
        },
        {
          "name": "A5",
          "midi": 81,
          "time": 138.42843300000084,
          "velocity": 0.25196850393700787,
          "duration": 0.14285699999999224
        },
        {
          "name": "A5",
          "midi": 81,
          "time": 138.57129000000083,
          "velocity": 0.25196850393700787,
          "duration": 0.2857140000000129
        },
        {
          "name": "A5",
          "midi": 81,
          "time": 138.85700400000084,
          "velocity": 0.25196850393700787,
          "duration": 0.2857140000000129
        },
        {
          "name": "A5",
          "midi": 81,
          "time": 139.14271800000085,
          "velocity": 0.25196850393700787,
          "duration": 0.14285699999999224
        },
        {
          "name": "A5",
          "midi": 81,
          "time": 139.28557500000085,
          "velocity": 0.25196850393700787,
          "duration": 0.14285699999999224
        },
        {
          "name": "A5",
          "midi": 81,
          "time": 139.42843200000084,
          "velocity": 0.25196850393700787,
          "duration": 0.2857140000000129
        },
        {
          "name": "A5",
          "midi": 81,
          "time": 139.71414600000085,
          "velocity": 0.25196850393700787,
          "duration": 0.2857140000000129
        },
        {
          "name": "A5",
          "midi": 81,
          "time": 139.99986000000087,
          "velocity": 0.25196850393700787,
          "duration": 0.14285699999999224
        },
        {
          "name": "A5",
          "midi": 81,
          "time": 140.14271700000086,
          "velocity": 0.25196850393700787,
          "duration": 0.14285699999999224
        },
        {
          "name": "A5",
          "midi": 81,
          "time": 140.28557400000085,
          "velocity": 0.25196850393700787,
          "duration": 0.2857140000000129
        },
        {
          "name": "A5",
          "midi": 81,
          "time": 140.57128800000086,
          "velocity": 0.25196850393700787,
          "duration": 0.2857140000000129
        },
        {
          "name": "A5",
          "midi": 81,
          "time": 140.85700200000088,
          "velocity": 0.25196850393700787,
          "duration": 0.14285699999999224
        },
        {
          "name": "A5",
          "midi": 81,
          "time": 140.99985900000087,
          "velocity": 0.25196850393700787,
          "duration": 0.14285699999999224
        },
        {
          "name": "A5",
          "midi": 81,
          "time": 141.14271600000086,
          "velocity": 0.25196850393700787,
          "duration": 0.2857140000000129
        },
        {
          "name": "A5",
          "midi": 81,
          "time": 141.42843000000087,
          "velocity": 0.25196850393700787,
          "duration": 0.2857140000000129
        },
        {
          "name": "A5",
          "midi": 81,
          "time": 141.71414400000089,
          "velocity": 0.25196850393700787,
          "duration": 0.14285699999999224
        },
        {
          "name": "A5",
          "midi": 81,
          "time": 141.85700100000088,
          "velocity": 0.25196850393700787,
          "duration": 0.14285699999999224
        },
        {
          "name": "A5",
          "midi": 81,
          "time": 141.99985800000087,
          "velocity": 0.25196850393700787,
          "duration": 0.2857140000000129
        },
        {
          "name": "A5",
          "midi": 81,
          "time": 142.28557200000088,
          "velocity": 0.25196850393700787,
          "duration": 0.2857140000000129
        },
        {
          "name": "A5",
          "midi": 81,
          "time": 142.5712860000009,
          "velocity": 0.25196850393700787,
          "duration": 0.14285699999999224
        },
        {
          "name": "A5",
          "midi": 81,
          "time": 142.7141430000009,
          "velocity": 0.25196850393700787,
          "duration": 0.14285699999999224
        },
        {
          "name": "A5",
          "midi": 81,
          "time": 142.85700000000088,
          "velocity": 0.25196850393700787,
          "duration": 0.2857140000000129
        },
        {
          "name": "A5",
          "midi": 81,
          "time": 143.1427140000009,
          "velocity": 0.25196850393700787,
          "duration": 0.2857140000000129
        },
        {
          "name": "A5",
          "midi": 81,
          "time": 143.4284280000009,
          "velocity": 0.25196850393700787,
          "duration": 0.14285699999999224
        },
        {
          "name": "A5",
          "midi": 81,
          "time": 143.5712850000009,
          "velocity": 0.25196850393700787,
          "duration": 0.14285699999999224
        },
        {
          "name": "A5",
          "midi": 81,
          "time": 143.7141420000009,
          "velocity": 0.25196850393700787,
          "duration": 0.2857140000000129
        },
        {
          "name": "A5",
          "midi": 81,
          "time": 143.9998560000009,
          "velocity": 0.25196850393700787,
          "duration": 0.2857140000000129
        },
        {
          "name": "A5",
          "midi": 81,
          "time": 144.28557000000092,
          "velocity": 0.25196850393700787,
          "duration": 0.14285699999999224
        },
        {
          "name": "A5",
          "midi": 81,
          "time": 144.4284270000009,
          "velocity": 0.25196850393700787,
          "duration": 0.14285699999999224
        },
        {
          "name": "A5",
          "midi": 81,
          "time": 144.5712840000009,
          "velocity": 0.25196850393700787,
          "duration": 0.2857140000000129
        },
        {
          "name": "A5",
          "midi": 81,
          "time": 144.8569980000009,
          "velocity": 0.25196850393700787,
          "duration": 0.2857140000000129
        },
        {
          "name": "A5",
          "midi": 81,
          "time": 145.14271200000093,
          "velocity": 0.25196850393700787,
          "duration": 0.14285699999999224
        },
        {
          "name": "A5",
          "midi": 81,
          "time": 145.28556900000092,
          "velocity": 0.25196850393700787,
          "duration": 0.14285699999999224
        },
        {
          "name": "A5",
          "midi": 81,
          "time": 145.4284260000009,
          "velocity": 0.25196850393700787,
          "duration": 0.2857140000000129
        },
        {
          "name": "A5",
          "midi": 81,
          "time": 145.71414000000092,
          "velocity": 0.25196850393700787,
          "duration": 0.2857140000000129
        },
        {
          "name": "A5",
          "midi": 81,
          "time": 145.99985400000094,
          "velocity": 0.25196850393700787,
          "duration": 0.14285699999999224
        },
        {
          "name": "A5",
          "midi": 81,
          "time": 146.14271100000093,
          "velocity": 0.25196850393700787,
          "duration": 0.14285699999999224
        },
        {
          "name": "A5",
          "midi": 81,
          "time": 146.28556800000092,
          "velocity": 0.25196850393700787,
          "duration": 0.2857140000000129
        },
        {
          "name": "A5",
          "midi": 81,
          "time": 146.57128200000093,
          "velocity": 0.25196850393700787,
          "duration": 0.2857140000000129
        },
        {
          "name": "A5",
          "midi": 81,
          "time": 146.85699600000095,
          "velocity": 0.25196850393700787,
          "duration": 0.14285699999999224
        },
        {
          "name": "A5",
          "midi": 81,
          "time": 146.99985300000094,
          "velocity": 0.25196850393700787,
          "duration": 0.14285699999999224
        },
        {
          "name": "A5",
          "midi": 81,
          "time": 147.14271000000093,
          "velocity": 0.25196850393700787,
          "duration": 0.2857140000000129
        },
        {
          "name": "A5",
          "midi": 81,
          "time": 147.42842400000094,
          "velocity": 0.25196850393700787,
          "duration": 0.2857140000000129
        },
        {
          "name": "A5",
          "midi": 81,
          "time": 147.71413800000096,
          "velocity": 0.25196850393700787,
          "duration": 0.14285699999999224
        },
        {
          "name": "A5",
          "midi": 81,
          "time": 147.85699500000095,
          "velocity": 0.25196850393700787,
          "duration": 0.14285699999999224
        },
        {
          "name": "A5",
          "midi": 81,
          "time": 147.99985200000094,
          "velocity": 0.25196850393700787,
          "duration": 0.2857140000000129
        },
        {
          "name": "A5",
          "midi": 81,
          "time": 148.28556600000096,
          "velocity": 0.25196850393700787,
          "duration": 0.2857140000000129
        },
        {
          "name": "A5",
          "midi": 81,
          "time": 148.57128000000097,
          "velocity": 0.25196850393700787,
          "duration": 0.14285699999999224
        },
        {
          "name": "A5",
          "midi": 81,
          "time": 148.71413700000096,
          "velocity": 0.25196850393700787,
          "duration": 0.14285699999999224
        },
        {
          "name": "A5",
          "midi": 81,
          "time": 148.85699400000095,
          "velocity": 0.25196850393700787,
          "duration": 0.2857140000000129
        },
        {
          "name": "A5",
          "midi": 81,
          "time": 149.14270800000097,
          "velocity": 0.25196850393700787,
          "duration": 0.2857140000000129
        },
        {
          "name": "A5",
          "midi": 81,
          "time": 149.42842200000098,
          "velocity": 0.25196850393700787,
          "duration": 0.14285699999999224
        },
        {
          "name": "A5",
          "midi": 81,
          "time": 149.57127900000097,
          "velocity": 0.25196850393700787,
          "duration": 0.14285699999999224
        },
        {
          "name": "A5",
          "midi": 81,
          "time": 149.71413600000096,
          "velocity": 0.25196850393700787,
          "duration": 0.2857140000000129
        },
        {
          "name": "A5",
          "midi": 81,
          "time": 149.99985000000098,
          "velocity": 0.25196850393700787,
          "duration": 0.2857140000000129
        },
        {
          "name": "A5",
          "midi": 81,
          "time": 150.285564000001,
          "velocity": 0.25196850393700787,
          "duration": 0.14285699999999224
        },
        {
          "name": "A5",
          "midi": 81,
          "time": 150.42842100000098,
          "velocity": 0.25196850393700787,
          "duration": 0.14285699999999224
        },
        {
          "name": "A5",
          "midi": 81,
          "time": 150.57127800000097,
          "velocity": 0.25196850393700787,
          "duration": 0.2857140000000129
        },
        {
          "name": "A5",
          "midi": 81,
          "time": 150.856992000001,
          "velocity": 0.25196850393700787,
          "duration": 0.2857140000000129
        },
        {
          "name": "A5",
          "midi": 81,
          "time": 151.142706000001,
          "velocity": 0.25196850393700787,
          "duration": 0.14285699999999224
        },
        {
          "name": "A5",
          "midi": 81,
          "time": 151.285563000001,
          "velocity": 0.25196850393700787,
          "duration": 0.14285699999999224
        },
        {
          "name": "A5",
          "midi": 81,
          "time": 151.42842000000098,
          "velocity": 0.25196850393700787,
          "duration": 0.2857140000000129
        },
        {
          "name": "A5",
          "midi": 81,
          "time": 151.714134000001,
          "velocity": 0.25196850393700787,
          "duration": 0.2857140000000129
        },
        {
          "name": "A5",
          "midi": 81,
          "time": 151.999848000001,
          "velocity": 0.25196850393700787,
          "duration": 0.14285699999999224
        },
        {
          "name": "A5",
          "midi": 81,
          "time": 152.142705000001,
          "velocity": 0.25196850393700787,
          "duration": 0.14285699999999224
        },
        {
          "name": "A5",
          "midi": 81,
          "time": 152.285562000001,
          "velocity": 0.25196850393700787,
          "duration": 0.2857140000000129
        },
        {
          "name": "A5",
          "midi": 81,
          "time": 152.571276000001,
          "velocity": 0.25196850393700787,
          "duration": 0.2857140000000129
        },
        {
          "name": "A5",
          "midi": 81,
          "time": 152.85699000000102,
          "velocity": 0.25196850393700787,
          "duration": 0.14285699999999224
        },
        {
          "name": "A5",
          "midi": 81,
          "time": 152.999847000001,
          "velocity": 0.25196850393700787,
          "duration": 0.14285699999999224
        },
        {
          "name": "A5",
          "midi": 81,
          "time": 153.142704000001,
          "velocity": 0.25196850393700787,
          "duration": 0.2857140000000129
        },
        {
          "name": "A5",
          "midi": 81,
          "time": 153.42841800000102,
          "velocity": 0.25196850393700787,
          "duration": 0.2857140000000129
        },
        {
          "name": "A5",
          "midi": 81,
          "time": 153.71413200000103,
          "velocity": 0.25196850393700787,
          "duration": 0.14285699999999224
        },
        {
          "name": "A5",
          "midi": 81,
          "time": 153.85698900000102,
          "velocity": 0.25196850393700787,
          "duration": 0.14285699999999224
        },
        {
          "name": "A5",
          "midi": 81,
          "time": 153.999846000001,
          "velocity": 0.25196850393700787,
          "duration": 0.2857140000000129
        },
        {
          "name": "A5",
          "midi": 81,
          "time": 154.28556000000103,
          "velocity": 0.25196850393700787,
          "duration": 0.2857140000000129
        },
        {
          "name": "A5",
          "midi": 81,
          "time": 154.57127400000104,
          "velocity": 0.25196850393700787,
          "duration": 0.14285699999999224
        },
        {
          "name": "A5",
          "midi": 81,
          "time": 154.71413100000103,
          "velocity": 0.25196850393700787,
          "duration": 0.14285699999999224
        },
        {
          "name": "A5",
          "midi": 81,
          "time": 154.85698800000102,
          "velocity": 0.25196850393700787,
          "duration": 0.2857140000000129
        },
        {
          "name": "A5",
          "midi": 81,
          "time": 155.14270200000104,
          "velocity": 0.25196850393700787,
          "duration": 0.2857140000000129
        },
        {
          "name": "A5",
          "midi": 81,
          "time": 155.42841600000105,
          "velocity": 0.25196850393700787,
          "duration": 0.14285699999999224
        },
        {
          "name": "A5",
          "midi": 81,
          "time": 155.57127300000104,
          "velocity": 0.25196850393700787,
          "duration": 0.14285699999999224
        },
        {
          "name": "A5",
          "midi": 81,
          "time": 155.71413000000103,
          "velocity": 0.25196850393700787,
          "duration": 0.2857140000000129
        },
        {
          "name": "A5",
          "midi": 81,
          "time": 155.99984400000105,
          "velocity": 0.25196850393700787,
          "duration": 0.2857140000000129
        },
        {
          "name": "A5",
          "midi": 81,
          "time": 156.28555800000106,
          "velocity": 0.25196850393700787,
          "duration": 0.14285699999999224
        },
        {
          "name": "A5",
          "midi": 81,
          "time": 156.42841500000105,
          "velocity": 0.25196850393700787,
          "duration": 0.14285699999999224
        },
        {
          "name": "A5",
          "midi": 81,
          "time": 156.57127200000104,
          "velocity": 0.25196850393700787,
          "duration": 0.2857140000000129
        },
        {
          "name": "A5",
          "midi": 81,
          "time": 156.85698600000106,
          "velocity": 0.25196850393700787,
          "duration": 0.2857140000000129
        },
        {
          "name": "A5",
          "midi": 81,
          "time": 157.14270000000107,
          "velocity": 0.25196850393700787,
          "duration": 0.14285699999999224
        },
        {
          "name": "A5",
          "midi": 81,
          "time": 157.28555700000106,
          "velocity": 0.25196850393700787,
          "duration": 0.14285699999999224
        },
        {
          "name": "A5",
          "midi": 81,
          "time": 157.42841400000106,
          "velocity": 0.25196850393700787,
          "duration": 0.2857140000000129
        },
        {
          "name": "A5",
          "midi": 81,
          "time": 157.71412800000107,
          "velocity": 0.25196850393700787,
          "duration": 0.2857140000000129
        },
        {
          "name": "A5",
          "midi": 81,
          "time": 157.99984200000108,
          "velocity": 0.25196850393700787,
          "duration": 0.14285699999999224
        },
        {
          "name": "A5",
          "midi": 81,
          "time": 158.14269900000107,
          "velocity": 0.25196850393700787,
          "duration": 0.14285699999999224
        },
        {
          "name": "A5",
          "midi": 81,
          "time": 158.28555600000107,
          "velocity": 0.25196850393700787,
          "duration": 0.2857140000000129
        },
        {
          "name": "A5",
          "midi": 81,
          "time": 158.57127000000108,
          "velocity": 0.25196850393700787,
          "duration": 0.2857140000000129
        },
        {
          "name": "A5",
          "midi": 81,
          "time": 158.8569840000011,
          "velocity": 0.25196850393700787,
          "duration": 0.14285699999999224
        },
        {
          "name": "A5",
          "midi": 81,
          "time": 158.99984100000108,
          "velocity": 0.25196850393700787,
          "duration": 0.14285699999999224
        },
        {
          "name": "A5",
          "midi": 81,
          "time": 159.14269800000108,
          "velocity": 0.25196850393700787,
          "duration": 0.2857140000000129
        },
        {
          "name": "A5",
          "midi": 81,
          "time": 159.4284120000011,
          "velocity": 0.25196850393700787,
          "duration": 0.2857140000000129
        },
        {
          "name": "A5",
          "midi": 81,
          "time": 159.7141260000011,
          "velocity": 0.25196850393700787,
          "duration": 0.14285699999999224
        },
        {
          "name": "A5",
          "midi": 81,
          "time": 159.8569830000011,
          "velocity": 0.25196850393700787,
          "duration": 0.14285699999999224
        },
        {
          "name": "A5",
          "midi": 81,
          "time": 159.9998400000011,
          "velocity": 0.25196850393700787,
          "duration": 0.2857140000000129
        },
        {
          "name": "A5",
          "midi": 81,
          "time": 160.2855540000011,
          "velocity": 0.25196850393700787,
          "duration": 0.2857140000000129
        },
        {
          "name": "A5",
          "midi": 81,
          "time": 160.5712680000011,
          "velocity": 0.25196850393700787,
          "duration": 0.14285699999999224
        },
        {
          "name": "A5",
          "midi": 81,
          "time": 160.7141250000011,
          "velocity": 0.25196850393700787,
          "duration": 0.14285699999999224
        },
        {
          "name": "A5",
          "midi": 81,
          "time": 160.8569820000011,
          "velocity": 0.25196850393700787,
          "duration": 0.2857140000000129
        },
        {
          "name": "A5",
          "midi": 81,
          "time": 161.1426960000011,
          "velocity": 0.25196850393700787,
          "duration": 0.2857140000000129
        },
        {
          "name": "A5",
          "midi": 81,
          "time": 161.42841000000112,
          "velocity": 0.25196850393700787,
          "duration": 0.14285699999999224
        },
        {
          "name": "A5",
          "midi": 81,
          "time": 161.57126700000111,
          "velocity": 0.25196850393700787,
          "duration": 0.14285699999999224
        },
        {
          "name": "A5",
          "midi": 81,
          "time": 161.7141240000011,
          "velocity": 0.25196850393700787,
          "duration": 0.2857140000000129
        },
        {
          "name": "A5",
          "midi": 81,
          "time": 161.99983800000112,
          "velocity": 0.25196850393700787,
          "duration": 0.2857140000000129
        },
        {
          "name": "A5",
          "midi": 81,
          "time": 162.28555200000113,
          "velocity": 0.25196850393700787,
          "duration": 0.14285699999999224
        },
        {
          "name": "A5",
          "midi": 81,
          "time": 162.42840900000112,
          "velocity": 0.25196850393700787,
          "duration": 0.14285699999999224
        },
        {
          "name": "A5",
          "midi": 81,
          "time": 162.57126600000112,
          "velocity": 0.25196850393700787,
          "duration": 0.2857140000000129
        },
        {
          "name": "A5",
          "midi": 81,
          "time": 162.85698000000113,
          "velocity": 0.25196850393700787,
          "duration": 0.2857140000000129
        },
        {
          "name": "A5",
          "midi": 81,
          "time": 163.14269400000114,
          "velocity": 0.25196850393700787,
          "duration": 0.14285699999999224
        },
        {
          "name": "A5",
          "midi": 81,
          "time": 163.28555100000113,
          "velocity": 0.25196850393700787,
          "duration": 0.14285699999999224
        },
        {
          "name": "A5",
          "midi": 81,
          "time": 163.42840800000113,
          "velocity": 0.25196850393700787,
          "duration": 0.2857140000000129
        },
        {
          "name": "A5",
          "midi": 81,
          "time": 163.71412200000114,
          "velocity": 0.25196850393700787,
          "duration": 0.2857140000000129
        },
        {
          "name": "A5",
          "midi": 81,
          "time": 163.99983600000115,
          "velocity": 0.25196850393700787,
          "duration": 0.14285699999999224
        },
        {
          "name": "A5",
          "midi": 81,
          "time": 164.14269300000115,
          "velocity": 0.25196850393700787,
          "duration": 0.14285699999999224
        },
        {
          "name": "A5",
          "midi": 81,
          "time": 164.28555000000114,
          "velocity": 0.25196850393700787,
          "duration": 0.2857140000000129
        },
        {
          "name": "A5",
          "midi": 81,
          "time": 164.57126400000115,
          "velocity": 0.25196850393700787,
          "duration": 0.2857140000000129
        },
        {
          "name": "A5",
          "midi": 81,
          "time": 164.85697800000116,
          "velocity": 0.25196850393700787,
          "duration": 0.14285699999999224
        },
        {
          "name": "A5",
          "midi": 81,
          "time": 164.99983500000116,
          "velocity": 0.25196850393700787,
          "duration": 0.14285699999999224
        },
        {
          "name": "A5",
          "midi": 81,
          "time": 165.14269200000115,
          "velocity": 0.25196850393700787,
          "duration": 0.2857140000000129
        },
        {
          "name": "A5",
          "midi": 81,
          "time": 165.42840600000116,
          "velocity": 0.25196850393700787,
          "duration": 0.2857140000000129
        },
        {
          "name": "A5",
          "midi": 81,
          "time": 165.71412000000117,
          "velocity": 0.25196850393700787,
          "duration": 0.14285699999999224
        },
        {
          "name": "A5",
          "midi": 81,
          "time": 165.85697700000117,
          "velocity": 0.25196850393700787,
          "duration": 0.14285699999999224
        },
        {
          "name": "A5",
          "midi": 81,
          "time": 165.99983400000116,
          "velocity": 0.25196850393700787,
          "duration": 0.2857140000000129
        },
        {
          "name": "A5",
          "midi": 81,
          "time": 166.28554800000117,
          "velocity": 0.25196850393700787,
          "duration": 0.2857140000000129
        }
      ],
      "controlChanges": {
        "7": [
          {
            "number": 7,
            "time": 0,
            "value": 0.7874015748031497
          }
        ],
        "10": [
          {
            "number": 10,
            "time": 0,
            "value": 0.5039370078740157
          }
        ]
      },
      "id": 3,
      "instrumentNumber": 0,
      "instrument": "standard kit",
      "instrumentFamily": "drums",
      "channelNumber": 9,
      "isPercussion": true
    },
    {
      "startTime": 90.85705200000001,
      "duration": 167.28554700000024,
      "length": 230,
      "notes": [
        {
          "name": "D#5",
          "midi": 75,
          "time": 90.85705200000001,
          "velocity": 0.6062992125984252,
          "duration": 0.14285700000000645
        },
        {
          "name": "D#5",
          "midi": 75,
          "time": 90.99990900000002,
          "velocity": 0.6062992125984252,
          "duration": 0.14285700000000645
        },
        {
          "name": "D#5",
          "midi": 75,
          "time": 91.14276600000002,
          "velocity": 0.6062992125984252,
          "duration": 0.2857139999999987
        },
        {
          "name": "D#5",
          "midi": 75,
          "time": 91.42848000000002,
          "velocity": 0.6062992125984252,
          "duration": 0.14285700000000645
        },
        {
          "name": "D#5",
          "midi": 75,
          "time": 91.57133700000003,
          "velocity": 0.6062992125984252,
          "duration": 0.14285700000000645
        },
        {
          "name": "D#5",
          "midi": 75,
          "time": 91.71419400000003,
          "velocity": 0.6062992125984252,
          "duration": 0.2857139999999987
        },
        {
          "name": "D#5",
          "midi": 75,
          "time": 91.99990800000003,
          "velocity": 0.6062992125984252,
          "duration": 0.2857139999999987
        },
        {
          "name": "D#5",
          "midi": 75,
          "time": 92.28562200000003,
          "velocity": 0.6062992125984252,
          "duration": 0.14285700000000645
        },
        {
          "name": "D#5",
          "midi": 75,
          "time": 92.42847900000004,
          "velocity": 0.6062992125984252,
          "duration": 0.14285700000000645
        },
        {
          "name": "D#5",
          "midi": 75,
          "time": 92.57133600000004,
          "velocity": 0.6062992125984252,
          "duration": 0.2857139999999987
        },
        {
          "name": "D#5",
          "midi": 75,
          "time": 92.85705000000004,
          "velocity": 0.6062992125984252,
          "duration": 0.2857139999999987
        },
        {
          "name": "D#5",
          "midi": 75,
          "time": 93.14276400000004,
          "velocity": 0.6062992125984252,
          "duration": 0.2857139999999987
        },
        {
          "name": "D#5",
          "midi": 75,
          "time": 93.42847800000004,
          "velocity": 0.6062992125984252,
          "duration": 0.2857139999999987
        },
        {
          "name": "D#5",
          "midi": 75,
          "time": 93.71419200000004,
          "velocity": 0.6062992125984252,
          "duration": 0.42857100000000514
        },
        {
          "name": "D#5",
          "midi": 75,
          "time": 94.14276300000004,
          "velocity": 0.6062992125984252,
          "duration": 0.14285700000000645
        },
        {
          "name": "D#5",
          "midi": 75,
          "time": 94.28562000000005,
          "velocity": 0.6062992125984252,
          "duration": 0.42857100000000514
        },
        {
          "name": "D#5",
          "midi": 75,
          "time": 94.71419100000006,
          "velocity": 0.6062992125984252,
          "duration": 0.14285700000000645
        },
        {
          "name": "D#5",
          "midi": 75,
          "time": 94.85704800000006,
          "velocity": 0.6062992125984252,
          "duration": 0.2857139999999987
        },
        {
          "name": "D#5",
          "midi": 75,
          "time": 95.14276200000006,
          "velocity": 0.6062992125984252,
          "duration": 1.8571409999999986
        },
        {
          "name": "D#5",
          "midi": 75,
          "time": 96.99990300000006,
          "velocity": 0.6062992125984252,
          "duration": 0.14285700000000645
        },
        {
          "name": "D#5",
          "midi": 75,
          "time": 97.14276000000007,
          "velocity": 0.6062992125984252,
          "duration": 0.14285700000000645
        },
        {
          "name": "D#5",
          "midi": 75,
          "time": 97.28561700000007,
          "velocity": 0.6062992125984252,
          "duration": 0.14285700000000645
        },
        {
          "name": "D#5",
          "midi": 75,
          "time": 97.42847400000008,
          "velocity": 0.6062992125984252,
          "duration": 0.2857139999999987
        },
        {
          "name": "D#5",
          "midi": 75,
          "time": 97.71418800000008,
          "velocity": 0.6062992125984252,
          "duration": 0.14285700000000645
        },
        {
          "name": "D#5",
          "midi": 75,
          "time": 97.85704500000008,
          "velocity": 0.6062992125984252,
          "duration": 0.14285700000000645
        },
        {
          "name": "D#5",
          "midi": 75,
          "time": 97.99990200000009,
          "velocity": 0.6062992125984252,
          "duration": 0.2857139999999987
        },
        {
          "name": "D#5",
          "midi": 75,
          "time": 98.28561600000009,
          "velocity": 0.6062992125984252,
          "duration": 0.14285700000000645
        },
        {
          "name": "D#5",
          "midi": 75,
          "time": 98.4284730000001,
          "velocity": 0.6062992125984252,
          "duration": 0.14285700000000645
        },
        {
          "name": "D#5",
          "midi": 75,
          "time": 98.5713300000001,
          "velocity": 0.6062992125984252,
          "duration": 0.2857139999999987
        },
        {
          "name": "D#5",
          "midi": 75,
          "time": 98.8570440000001,
          "velocity": 0.6062992125984252,
          "duration": 0.2857139999999987
        },
        {
          "name": "D#5",
          "midi": 75,
          "time": 99.1427580000001,
          "velocity": 0.6062992125984252,
          "duration": 0.14285700000000645
        },
        {
          "name": "D#5",
          "midi": 75,
          "time": 99.2856150000001,
          "velocity": 0.6062992125984252,
          "duration": 0.14285700000000645
        },
        {
          "name": "D#5",
          "midi": 75,
          "time": 99.42847200000011,
          "velocity": 0.6062992125984252,
          "duration": 0.2857139999999987
        },
        {
          "name": "D#5",
          "midi": 75,
          "time": 99.71418600000011,
          "velocity": 0.6062992125984252,
          "duration": 0.2857139999999987
        },
        {
          "name": "D#5",
          "midi": 75,
          "time": 99.99990000000011,
          "velocity": 0.6062992125984252,
          "duration": 0.2857139999999987
        },
        {
          "name": "D#5",
          "midi": 75,
          "time": 100.28561400000011,
          "velocity": 0.6062992125984252,
          "duration": 0.2857139999999987
        },
        {
          "name": "D#5",
          "midi": 75,
          "time": 100.57132800000011,
          "velocity": 0.6062992125984252,
          "duration": 0.42857100000000514
        },
        {
          "name": "D#5",
          "midi": 75,
          "time": 100.99989900000011,
          "velocity": 0.6062992125984252,
          "duration": 0.14285700000000645
        },
        {
          "name": "D#5",
          "midi": 75,
          "time": 101.14275600000012,
          "velocity": 0.6062992125984252,
          "duration": 0.42857100000000514
        },
        {
          "name": "D#5",
          "midi": 75,
          "time": 101.57132700000012,
          "velocity": 0.6062992125984252,
          "duration": 0.14285700000000645
        },
        {
          "name": "D#5",
          "midi": 75,
          "time": 101.71418400000013,
          "velocity": 0.6062992125984252,
          "duration": 0.2857139999999987
        },
        {
          "name": "D#5",
          "midi": 75,
          "time": 101.99989800000013,
          "velocity": 0.6062992125984252,
          "duration": 1.8571409999999986
        },
        {
          "name": "D#5",
          "midi": 75,
          "time": 103.85703900000013,
          "velocity": 0.6062992125984252,
          "duration": 0.14285700000000645
        },
        {
          "name": "D#5",
          "midi": 75,
          "time": 103.99989600000013,
          "velocity": 0.6062992125984252,
          "duration": 0.14285700000000645
        },
        {
          "name": "D#5",
          "midi": 75,
          "time": 104.14275300000014,
          "velocity": 0.6062992125984252,
          "duration": 0.14285700000000645
        },
        {
          "name": "D#5",
          "midi": 75,
          "time": 104.28561000000015,
          "velocity": 0.6062992125984252,
          "duration": 0.2857139999999987
        },
        {
          "name": "D#5",
          "midi": 75,
          "time": 104.57132400000015,
          "velocity": 0.6062992125984252,
          "duration": 0.14285700000000645
        },
        {
          "name": "D#5",
          "midi": 75,
          "time": 104.71418100000015,
          "velocity": 0.6062992125984252,
          "duration": 0.14285700000000645
        },
        {
          "name": "D#5",
          "midi": 75,
          "time": 104.85703800000016,
          "velocity": 0.6062992125984252,
          "duration": 0.2857139999999987
        },
        {
          "name": "D#5",
          "midi": 75,
          "time": 105.14275200000016,
          "velocity": 0.6062992125984252,
          "duration": 0.14285700000000645
        },
        {
          "name": "D#5",
          "midi": 75,
          "time": 105.28560900000016,
          "velocity": 0.6062992125984252,
          "duration": 0.14285700000000645
        },
        {
          "name": "D#5",
          "midi": 75,
          "time": 105.42846600000017,
          "velocity": 0.6062992125984252,
          "duration": 0.2857139999999987
        },
        {
          "name": "D#5",
          "midi": 75,
          "time": 105.71418000000017,
          "velocity": 0.6062992125984252,
          "duration": 0.2857139999999987
        },
        {
          "name": "D#5",
          "midi": 75,
          "time": 105.99989400000017,
          "velocity": 0.6062992125984252,
          "duration": 0.14285700000000645
        },
        {
          "name": "D#5",
          "midi": 75,
          "time": 106.14275100000017,
          "velocity": 0.6062992125984252,
          "duration": 0.14285700000000645
        },
        {
          "name": "D#5",
          "midi": 75,
          "time": 106.28560800000018,
          "velocity": 0.6062992125984252,
          "duration": 0.2857139999999987
        },
        {
          "name": "D#5",
          "midi": 75,
          "time": 106.57132200000018,
          "velocity": 0.6062992125984252,
          "duration": 0.2857139999999987
        },
        {
          "name": "D#5",
          "midi": 75,
          "time": 106.85703600000018,
          "velocity": 0.6062992125984252,
          "duration": 0.2857139999999987
        },
        {
          "name": "D#5",
          "midi": 75,
          "time": 107.14275000000018,
          "velocity": 0.6062992125984252,
          "duration": 0.2857139999999987
        },
        {
          "name": "D#5",
          "midi": 75,
          "time": 107.42846400000018,
          "velocity": 0.6062992125984252,
          "duration": 0.42857100000000514
        },
        {
          "name": "D#5",
          "midi": 75,
          "time": 107.85703500000018,
          "velocity": 0.6062992125984252,
          "duration": 0.14285700000000645
        },
        {
          "name": "D#5",
          "midi": 75,
          "time": 107.99989200000019,
          "velocity": 0.6062992125984252,
          "duration": 0.42857100000000514
        },
        {
          "name": "D#5",
          "midi": 75,
          "time": 108.42846300000019,
          "velocity": 0.6062992125984252,
          "duration": 0.14285700000000645
        },
        {
          "name": "D#5",
          "midi": 75,
          "time": 108.5713200000002,
          "velocity": 0.6062992125984252,
          "duration": 0.2857139999999987
        },
        {
          "name": "D#5",
          "midi": 75,
          "time": 108.8570340000002,
          "velocity": 0.6062992125984252,
          "duration": 1.8571409999999986
        },
        {
          "name": "D#5",
          "midi": 75,
          "time": 110.7141750000002,
          "velocity": 0.6062992125984252,
          "duration": 0.14285700000000645
        },
        {
          "name": "D#5",
          "midi": 75,
          "time": 110.8570320000002,
          "velocity": 0.6062992125984252,
          "duration": 0.14285700000000645
        },
        {
          "name": "D#5",
          "midi": 75,
          "time": 110.99988900000021,
          "velocity": 0.6062992125984252,
          "duration": 0.14285700000000645
        },
        {
          "name": "D#5",
          "midi": 75,
          "time": 111.14274600000022,
          "velocity": 0.6062992125984252,
          "duration": 0.2857139999999987
        },
        {
          "name": "D#5",
          "midi": 75,
          "time": 111.42846000000021,
          "velocity": 0.6062992125984252,
          "duration": 0.9999990000000025
        },
        {
          "name": "D#5",
          "midi": 75,
          "time": 112.42845900000022,
          "velocity": 0.6062992125984252,
          "duration": 0.14285700000000645
        },
        {
          "name": "D#5",
          "midi": 75,
          "time": 112.57131600000022,
          "velocity": 0.6062992125984252,
          "duration": 0.14285700000000645
        },
        {
          "name": "D#5",
          "midi": 75,
          "time": 112.71417300000023,
          "velocity": 0.6062992125984252,
          "duration": 0.14285700000000645
        },
        {
          "name": "D#5",
          "midi": 75,
          "time": 112.85703000000024,
          "velocity": 0.6062992125984252,
          "duration": 0.2857139999999987
        },
        {
          "name": "D#5",
          "midi": 75,
          "time": 113.14274400000023,
          "velocity": 0.6062992125984252,
          "duration": 0.9999990000000025
        },
        {
          "name": "D#5",
          "midi": 75,
          "time": 114.14274300000024,
          "velocity": 0.6062992125984252,
          "duration": 0.14285700000000645
        },
        {
          "name": "D#5",
          "midi": 75,
          "time": 114.28560000000024,
          "velocity": 0.6062992125984252,
          "duration": 0.14285700000000645
        },
        {
          "name": "D#5",
          "midi": 75,
          "time": 114.42845700000025,
          "velocity": 0.6062992125984252,
          "duration": 0.14285700000000645
        },
        {
          "name": "D#5",
          "midi": 75,
          "time": 114.57131400000026,
          "velocity": 0.6062992125984252,
          "duration": 0.2857139999999987
        },
        {
          "name": "D#5",
          "midi": 75,
          "time": 114.85702800000026,
          "velocity": 0.6062992125984252,
          "duration": 0.9999990000000025
        },
        {
          "name": "D#5",
          "midi": 75,
          "time": 115.85702700000026,
          "velocity": 0.6062992125984252,
          "duration": 0.14285700000000645
        },
        {
          "name": "D#5",
          "midi": 75,
          "time": 115.99988400000026,
          "velocity": 0.6062992125984252,
          "duration": 0.14285700000000645
        },
        {
          "name": "D#5",
          "midi": 75,
          "time": 116.14274100000027,
          "velocity": 0.6062992125984252,
          "duration": 0.14285700000000645
        },
        {
          "name": "D#5",
          "midi": 75,
          "time": 116.28559800000028,
          "velocity": 0.6062992125984252,
          "duration": 0.2857139999999987
        },
        {
          "name": "D#5",
          "midi": 75,
          "time": 116.57131200000028,
          "velocity": 0.6062992125984252,
          "duration": 0.9999990000000025
        },
        {
          "name": "D#5",
          "midi": 75,
          "time": 117.57131100000028,
          "velocity": 0.6062992125984252,
          "duration": 0.14285700000000645
        },
        {
          "name": "D#5",
          "midi": 75,
          "time": 117.71416800000029,
          "velocity": 0.6062992125984252,
          "duration": 0.14285700000000645
        },
        {
          "name": "D#5",
          "midi": 75,
          "time": 117.85702500000029,
          "velocity": 0.6062992125984252,
          "duration": 0.14285700000000645
        },
        {
          "name": "D#5",
          "midi": 75,
          "time": 117.9998820000003,
          "velocity": 0.6062992125984252,
          "duration": 0.2857139999999987
        },
        {
          "name": "D#5",
          "midi": 75,
          "time": 118.2855960000003,
          "velocity": 0.6062992125984252,
          "duration": 0.9999990000000025
        },
        {
          "name": "D#5",
          "midi": 75,
          "time": 119.2855950000003,
          "velocity": 0.6062992125984252,
          "duration": 0.14285700000000645
        },
        {
          "name": "D#5",
          "midi": 75,
          "time": 119.4284520000003,
          "velocity": 0.6062992125984252,
          "duration": 0.14285700000000645
        },
        {
          "name": "D#5",
          "midi": 75,
          "time": 119.57130900000031,
          "velocity": 0.6062992125984252,
          "duration": 0.14285700000000645
        },
        {
          "name": "D#5",
          "midi": 75,
          "time": 119.71416600000032,
          "velocity": 0.6062992125984252,
          "duration": 0.2857139999999987
        },
        {
          "name": "D#5",
          "midi": 75,
          "time": 119.99988000000032,
          "velocity": 0.6062992125984252,
          "duration": 0.9999990000000025
        },
        {
          "name": "D#5",
          "midi": 75,
          "time": 120.99987900000032,
          "velocity": 0.6062992125984252,
          "duration": 0.14285700000000645
        },
        {
          "name": "D#5",
          "midi": 75,
          "time": 121.14273600000033,
          "velocity": 0.6062992125984252,
          "duration": 0.14285700000000645
        },
        {
          "name": "D#5",
          "midi": 75,
          "time": 121.28559300000033,
          "velocity": 0.6062992125984252,
          "duration": 0.14285700000000645
        },
        {
          "name": "D#5",
          "midi": 75,
          "time": 121.42845000000034,
          "velocity": 0.6062992125984252,
          "duration": 0.2857139999999987
        },
        {
          "name": "D#5",
          "midi": 75,
          "time": 121.71416400000034,
          "velocity": 0.6062992125984252,
          "duration": 0.9999990000000025
        },
        {
          "name": "D#5",
          "midi": 75,
          "time": 122.71416300000034,
          "velocity": 0.6062992125984252,
          "duration": 0.14285700000000645
        },
        {
          "name": "D#5",
          "midi": 75,
          "time": 122.85702000000035,
          "velocity": 0.6062992125984252,
          "duration": 0.14285700000000645
        },
        {
          "name": "D#5",
          "midi": 75,
          "time": 122.99987700000035,
          "velocity": 0.6062992125984252,
          "duration": 0.14285700000000645
        },
        {
          "name": "D#5",
          "midi": 75,
          "time": 123.14273400000036,
          "velocity": 0.6062992125984252,
          "duration": 0.2857139999999987
        },
        {
          "name": "D#5",
          "midi": 75,
          "time": 123.42844800000036,
          "velocity": 0.6062992125984252,
          "duration": 0.9999990000000025
        },
        {
          "name": "D#5",
          "midi": 75,
          "time": 124.42844700000036,
          "velocity": 0.6062992125984252,
          "duration": 0.14285700000000645
        },
        {
          "name": "D#5",
          "midi": 75,
          "time": 124.57130400000037,
          "velocity": 0.6062992125984252,
          "duration": 0.14285700000000645
        },
        {
          "name": "D#5",
          "midi": 75,
          "time": 124.71416100000037,
          "velocity": 0.6062992125984252,
          "duration": 0.14285700000000645
        },
        {
          "name": "D#5",
          "midi": 75,
          "time": 124.85701800000038,
          "velocity": 0.6062992125984252,
          "duration": 0.2857139999999987
        },
        {
          "name": "D#5",
          "midi": 75,
          "time": 125.14273200000038,
          "velocity": 0.6062992125984252,
          "duration": 0.9999990000000025
        },
        {
          "name": "D#5",
          "midi": 75,
          "time": 126.14273100000038,
          "velocity": 0.6062992125984252,
          "duration": 0.14285700000000645
        },
        {
          "name": "D#5",
          "midi": 75,
          "time": 126.28558800000039,
          "velocity": 0.6062992125984252,
          "duration": 0.14285700000000645
        },
        {
          "name": "D#5",
          "midi": 75,
          "time": 126.4284450000004,
          "velocity": 0.6062992125984252,
          "duration": 0.14285700000000645
        },
        {
          "name": "D#5",
          "midi": 75,
          "time": 126.5713020000004,
          "velocity": 0.6062992125984252,
          "duration": 0.2857139999999987
        },
        {
          "name": "D#5",
          "midi": 75,
          "time": 126.8570160000004,
          "velocity": 0.6062992125984252,
          "duration": 0.9999990000000025
        },
        {
          "name": "D#5",
          "midi": 75,
          "time": 127.8570150000004,
          "velocity": 0.6062992125984252,
          "duration": 0.14285700000000645
        },
        {
          "name": "D#5",
          "midi": 75,
          "time": 127.99987200000041,
          "velocity": 0.6062992125984252,
          "duration": 0.14285699999999224
        },
        {
          "name": "D#5",
          "midi": 75,
          "time": 128.1427290000004,
          "velocity": 0.6062992125984252,
          "duration": 0.14285699999999224
        },
        {
          "name": "D#5",
          "midi": 75,
          "time": 128.2855860000004,
          "velocity": 0.6062992125984252,
          "duration": 0.2857140000000129
        },
        {
          "name": "D#5",
          "midi": 75,
          "time": 128.5713000000004,
          "velocity": 0.6062992125984252,
          "duration": 0.9999990000000025
        },
        {
          "name": "D#5",
          "midi": 75,
          "time": 129.5712990000004,
          "velocity": 0.6062992125984252,
          "duration": 0.14285699999999224
        },
        {
          "name": "D#5",
          "midi": 75,
          "time": 129.7141560000004,
          "velocity": 0.6062992125984252,
          "duration": 0.14285699999999224
        },
        {
          "name": "D#5",
          "midi": 75,
          "time": 129.8570130000004,
          "velocity": 0.6062992125984252,
          "duration": 0.14285699999999224
        },
        {
          "name": "D#5",
          "midi": 75,
          "time": 129.99987000000039,
          "velocity": 0.6062992125984252,
          "duration": 0.2857140000000129
        },
        {
          "name": "D#5",
          "midi": 75,
          "time": 130.2855840000004,
          "velocity": 0.6062992125984252,
          "duration": 0.9999990000000025
        },
        {
          "name": "D#5",
          "midi": 75,
          "time": 131.2855830000004,
          "velocity": 0.6062992125984252,
          "duration": 0.14285699999999224
        },
        {
          "name": "D#5",
          "midi": 75,
          "time": 131.4284400000004,
          "velocity": 0.6062992125984252,
          "duration": 0.14285699999999224
        },
        {
          "name": "D#5",
          "midi": 75,
          "time": 131.57129700000038,
          "velocity": 0.6062992125984252,
          "duration": 0.14285699999999224
        },
        {
          "name": "D#5",
          "midi": 75,
          "time": 131.71415400000038,
          "velocity": 0.6062992125984252,
          "duration": 0.2857140000000129
        },
        {
          "name": "D#5",
          "midi": 75,
          "time": 131.9998680000004,
          "velocity": 0.6062992125984252,
          "duration": 0.9999990000000025
        },
        {
          "name": "D#5",
          "midi": 75,
          "time": 132.9998670000004,
          "velocity": 0.6062992125984252,
          "duration": 0.14285699999999224
        },
        {
          "name": "D#5",
          "midi": 75,
          "time": 133.14272400000038,
          "velocity": 0.6062992125984252,
          "duration": 0.14285699999999224
        },
        {
          "name": "D#5",
          "midi": 75,
          "time": 133.28558100000038,
          "velocity": 0.6062992125984252,
          "duration": 0.14285699999999224
        },
        {
          "name": "D#5",
          "midi": 75,
          "time": 133.42843800000037,
          "velocity": 0.6062992125984252,
          "duration": 0.2857140000000129
        },
        {
          "name": "D#5",
          "midi": 75,
          "time": 133.71415200000038,
          "velocity": 0.6062992125984252,
          "duration": 0.9999990000000025
        },
        {
          "name": "D#5",
          "midi": 75,
          "time": 134.71415100000038,
          "velocity": 0.6062992125984252,
          "duration": 0.14285699999999224
        },
        {
          "name": "D#5",
          "midi": 75,
          "time": 134.85700800000038,
          "velocity": 0.6062992125984252,
          "duration": 0.14285699999999224
        },
        {
          "name": "D#5",
          "midi": 75,
          "time": 134.99986500000037,
          "velocity": 0.6062992125984252,
          "duration": 0.14285699999999224
        },
        {
          "name": "D#5",
          "midi": 75,
          "time": 135.14272200000036,
          "velocity": 0.6062992125984252,
          "duration": 0.2857140000000129
        },
        {
          "name": "D#5",
          "midi": 75,
          "time": 135.42843600000037,
          "velocity": 0.6062992125984252,
          "duration": 0.9999990000000025
        },
        {
          "name": "D#5",
          "midi": 75,
          "time": 136.42843500000038,
          "velocity": 0.6062992125984252,
          "duration": 0.14285699999999224
        },
        {
          "name": "D#5",
          "midi": 75,
          "time": 136.57129200000037,
          "velocity": 0.6062992125984252,
          "duration": 0.14285699999999224
        },
        {
          "name": "D#5",
          "midi": 75,
          "time": 136.71414900000036,
          "velocity": 0.6062992125984252,
          "duration": 0.14285699999999224
        },
        {
          "name": "D#5",
          "midi": 75,
          "time": 136.85700600000035,
          "velocity": 0.6062992125984252,
          "duration": 0.2857140000000129
        },
        {
          "name": "D#5",
          "midi": 75,
          "time": 137.14272000000037,
          "velocity": 0.6062992125984252,
          "duration": 0.9999990000000025
        },
        {
          "name": "D#5",
          "midi": 75,
          "time": 138.14271900000037,
          "velocity": 0.6062992125984252,
          "duration": 0.14285699999999224
        },
        {
          "name": "D#5",
          "midi": 75,
          "time": 138.28557600000036,
          "velocity": 0.6062992125984252,
          "duration": 0.14285699999999224
        },
        {
          "name": "D#5",
          "midi": 75,
          "time": 138.42843300000035,
          "velocity": 0.6062992125984252,
          "duration": 0.14285699999999224
        },
        {
          "name": "D#5",
          "midi": 75,
          "time": 138.57129000000035,
          "velocity": 0.6062992125984252,
          "duration": 0.2857140000000129
        },
        {
          "name": "D#5",
          "midi": 75,
          "time": 138.85700400000036,
          "velocity": 0.6062992125984252,
          "duration": 0.9999990000000025
        },
        {
          "name": "D#5",
          "midi": 75,
          "time": 139.85700300000036,
          "velocity": 0.6062992125984252,
          "duration": 0.14285699999999224
        },
        {
          "name": "D#5",
          "midi": 75,
          "time": 139.99986000000035,
          "velocity": 0.6062992125984252,
          "duration": 0.14285699999999224
        },
        {
          "name": "D#5",
          "midi": 75,
          "time": 140.14271700000035,
          "velocity": 0.6062992125984252,
          "duration": 0.14285699999999224
        },
        {
          "name": "D#5",
          "midi": 75,
          "time": 140.28557400000034,
          "velocity": 0.6062992125984252,
          "duration": 0.2857140000000129
        },
        {
          "name": "D#5",
          "midi": 75,
          "time": 140.57128800000035,
          "velocity": 0.6062992125984252,
          "duration": 0.9999990000000025
        },
        {
          "name": "D#5",
          "midi": 75,
          "time": 141.57128700000035,
          "velocity": 0.6062992125984252,
          "duration": 0.14285699999999224
        },
        {
          "name": "D#5",
          "midi": 75,
          "time": 141.71414400000035,
          "velocity": 0.6062992125984252,
          "duration": 0.14285699999999224
        },
        {
          "name": "D#5",
          "midi": 75,
          "time": 141.85700100000034,
          "velocity": 0.6062992125984252,
          "duration": 0.14285699999999224
        },
        {
          "name": "D#5",
          "midi": 75,
          "time": 141.99985800000033,
          "velocity": 0.6062992125984252,
          "duration": 0.2857140000000129
        },
        {
          "name": "D#5",
          "midi": 75,
          "time": 142.28557200000034,
          "velocity": 0.6062992125984252,
          "duration": 0.9999990000000025
        },
        {
          "name": "D#5",
          "midi": 75,
          "time": 143.28557100000035,
          "velocity": 0.6062992125984252,
          "duration": 0.14285699999999224
        },
        {
          "name": "D#5",
          "midi": 75,
          "time": 143.42842800000034,
          "velocity": 0.6062992125984252,
          "duration": 0.14285699999999224
        },
        {
          "name": "D#5",
          "midi": 75,
          "time": 143.57128500000033,
          "velocity": 0.6062992125984252,
          "duration": 0.14285699999999224
        },
        {
          "name": "D#5",
          "midi": 75,
          "time": 143.71414200000032,
          "velocity": 0.6062992125984252,
          "duration": 0.2857140000000129
        },
        {
          "name": "D#5",
          "midi": 75,
          "time": 143.99985600000034,
          "velocity": 0.6062992125984252,
          "duration": 0.9999990000000025
        },
        {
          "name": "D#5",
          "midi": 75,
          "time": 144.99985500000034,
          "velocity": 0.6062992125984252,
          "duration": 0.14285699999999224
        },
        {
          "name": "D#5",
          "midi": 75,
          "time": 145.14271200000033,
          "velocity": 0.6062992125984252,
          "duration": 0.14285699999999224
        },
        {
          "name": "D#5",
          "midi": 75,
          "time": 145.28556900000032,
          "velocity": 0.6062992125984252,
          "duration": 0.14285699999999224
        },
        {
          "name": "D#5",
          "midi": 75,
          "time": 145.42842600000031,
          "velocity": 0.6062992125984252,
          "duration": 0.2857140000000129
        },
        {
          "name": "D#5",
          "midi": 75,
          "time": 145.71414000000033,
          "velocity": 0.6062992125984252,
          "duration": 0.9999990000000025
        },
        {
          "name": "D#5",
          "midi": 75,
          "time": 146.71413900000033,
          "velocity": 0.6062992125984252,
          "duration": 0.14285699999999224
        },
        {
          "name": "D#5",
          "midi": 75,
          "time": 146.85699600000032,
          "velocity": 0.6062992125984252,
          "duration": 0.14285699999999224
        },
        {
          "name": "D#5",
          "midi": 75,
          "time": 146.99985300000031,
          "velocity": 0.6062992125984252,
          "duration": 0.14285699999999224
        },
        {
          "name": "D#5",
          "midi": 75,
          "time": 147.1427100000003,
          "velocity": 0.6062992125984252,
          "duration": 0.2857140000000129
        },
        {
          "name": "D#5",
          "midi": 75,
          "time": 147.42842400000032,
          "velocity": 0.6062992125984252,
          "duration": 0.9999990000000025
        },
        {
          "name": "D#5",
          "midi": 75,
          "time": 148.42842300000032,
          "velocity": 0.6062992125984252,
          "duration": 0.14285699999999224
        },
        {
          "name": "D#5",
          "midi": 75,
          "time": 148.5712800000003,
          "velocity": 0.6062992125984252,
          "duration": 0.14285699999999224
        },
        {
          "name": "D#5",
          "midi": 75,
          "time": 148.7141370000003,
          "velocity": 0.6062992125984252,
          "duration": 0.14285699999999224
        },
        {
          "name": "D#5",
          "midi": 75,
          "time": 148.8569940000003,
          "velocity": 0.6062992125984252,
          "duration": 0.2857140000000129
        },
        {
          "name": "D#5",
          "midi": 75,
          "time": 149.1427080000003,
          "velocity": 0.6062992125984252,
          "duration": 0.9999990000000025
        },
        {
          "name": "D#5",
          "midi": 75,
          "time": 150.1427070000003,
          "velocity": 0.6062992125984252,
          "duration": 0.14285699999999224
        },
        {
          "name": "D#5",
          "midi": 75,
          "time": 150.2855640000003,
          "velocity": 0.6062992125984252,
          "duration": 0.14285699999999224
        },
        {
          "name": "D#5",
          "midi": 75,
          "time": 150.4284210000003,
          "velocity": 0.6062992125984252,
          "duration": 0.14285699999999224
        },
        {
          "name": "D#5",
          "midi": 75,
          "time": 150.5712780000003,
          "velocity": 0.6062992125984252,
          "duration": 0.2857140000000129
        },
        {
          "name": "D#5",
          "midi": 75,
          "time": 150.8569920000003,
          "velocity": 0.6062992125984252,
          "duration": 0.9999990000000025
        },
        {
          "name": "D#5",
          "midi": 75,
          "time": 151.8569910000003,
          "velocity": 0.6062992125984252,
          "duration": 0.14285699999999224
        },
        {
          "name": "D#5",
          "midi": 75,
          "time": 151.9998480000003,
          "velocity": 0.6062992125984252,
          "duration": 0.14285699999999224
        },
        {
          "name": "D#5",
          "midi": 75,
          "time": 152.1427050000003,
          "velocity": 0.6062992125984252,
          "duration": 0.14285699999999224
        },
        {
          "name": "D#5",
          "midi": 75,
          "time": 152.28556200000028,
          "velocity": 0.6062992125984252,
          "duration": 0.2857140000000129
        },
        {
          "name": "D#5",
          "midi": 75,
          "time": 152.5712760000003,
          "velocity": 0.6062992125984252,
          "duration": 0.9999990000000025
        },
        {
          "name": "D#5",
          "midi": 75,
          "time": 153.5712750000003,
          "velocity": 0.6062992125984252,
          "duration": 0.14285699999999224
        },
        {
          "name": "D#5",
          "midi": 75,
          "time": 153.7141320000003,
          "velocity": 0.6062992125984252,
          "duration": 0.14285699999999224
        },
        {
          "name": "D#5",
          "midi": 75,
          "time": 153.85698900000028,
          "velocity": 0.6062992125984252,
          "duration": 0.14285699999999224
        },
        {
          "name": "D#5",
          "midi": 75,
          "time": 153.99984600000028,
          "velocity": 0.6062992125984252,
          "duration": 0.2857140000000129
        },
        {
          "name": "D#5",
          "midi": 75,
          "time": 154.2855600000003,
          "velocity": 0.6062992125984252,
          "duration": 0.9999990000000025
        },
        {
          "name": "D#5",
          "midi": 75,
          "time": 155.2855590000003,
          "velocity": 0.6062992125984252,
          "duration": 0.14285699999999224
        },
        {
          "name": "D#5",
          "midi": 75,
          "time": 155.42841600000028,
          "velocity": 0.6062992125984252,
          "duration": 0.14285699999999224
        },
        {
          "name": "D#5",
          "midi": 75,
          "time": 155.57127300000028,
          "velocity": 0.6062992125984252,
          "duration": 0.14285699999999224
        },
        {
          "name": "D#5",
          "midi": 75,
          "time": 155.71413000000027,
          "velocity": 0.6062992125984252,
          "duration": 0.2857140000000129
        },
        {
          "name": "D#5",
          "midi": 75,
          "time": 155.99984400000028,
          "velocity": 0.6062992125984252,
          "duration": 0.9999990000000025
        },
        {
          "name": "D#5",
          "midi": 75,
          "time": 156.99984300000028,
          "velocity": 0.6062992125984252,
          "duration": 0.14285699999999224
        },
        {
          "name": "D#5",
          "midi": 75,
          "time": 157.14270000000027,
          "velocity": 0.6062992125984252,
          "duration": 0.14285699999999224
        },
        {
          "name": "D#5",
          "midi": 75,
          "time": 157.28555700000027,
          "velocity": 0.6062992125984252,
          "duration": 0.14285699999999224
        },
        {
          "name": "D#5",
          "midi": 75,
          "time": 157.42841400000026,
          "velocity": 0.6062992125984252,
          "duration": 0.2857140000000129
        },
        {
          "name": "D#5",
          "midi": 75,
          "time": 157.71412800000027,
          "velocity": 0.6062992125984252,
          "duration": 0.9999990000000025
        },
        {
          "name": "D#5",
          "midi": 75,
          "time": 158.71412700000027,
          "velocity": 0.6062992125984252,
          "duration": 0.14285699999999224
        },
        {
          "name": "D#5",
          "midi": 75,
          "time": 158.85698400000027,
          "velocity": 0.6062992125984252,
          "duration": 0.14285699999999224
        },
        {
          "name": "D#5",
          "midi": 75,
          "time": 158.99984100000026,
          "velocity": 0.6062992125984252,
          "duration": 0.14285699999999224
        },
        {
          "name": "D#5",
          "midi": 75,
          "time": 159.14269800000025,
          "velocity": 0.6062992125984252,
          "duration": 0.2857140000000129
        },
        {
          "name": "D#5",
          "midi": 75,
          "time": 159.42841200000026,
          "velocity": 0.6062992125984252,
          "duration": 0.9999990000000025
        },
        {
          "name": "D#5",
          "midi": 75,
          "time": 160.42841100000027,
          "velocity": 0.6062992125984252,
          "duration": 0.14285699999999224
        },
        {
          "name": "D#5",
          "midi": 75,
          "time": 160.57126800000026,
          "velocity": 0.6062992125984252,
          "duration": 0.14285699999999224
        },
        {
          "name": "D#5",
          "midi": 75,
          "time": 160.71412500000025,
          "velocity": 0.6062992125984252,
          "duration": 0.14285699999999224
        },
        {
          "name": "D#5",
          "midi": 75,
          "time": 160.85698200000024,
          "velocity": 0.6062992125984252,
          "duration": 0.2857140000000129
        },
        {
          "name": "D#5",
          "midi": 75,
          "time": 161.14269600000026,
          "velocity": 0.6062992125984252,
          "duration": 0.9999990000000025
        },
        {
          "name": "D#5",
          "midi": 75,
          "time": 162.14269500000026,
          "velocity": 0.6062992125984252,
          "duration": 0.14285699999999224
        },
        {
          "name": "D#5",
          "midi": 75,
          "time": 162.28555200000025,
          "velocity": 0.6062992125984252,
          "duration": 0.14285699999999224
        },
        {
          "name": "D#5",
          "midi": 75,
          "time": 162.42840900000024,
          "velocity": 0.6062992125984252,
          "duration": 0.14285699999999224
        },
        {
          "name": "D#5",
          "midi": 75,
          "time": 162.57126600000024,
          "velocity": 0.6062992125984252,
          "duration": 0.2857140000000129
        },
        {
          "name": "D#5",
          "midi": 75,
          "time": 162.85698000000025,
          "velocity": 0.6062992125984252,
          "duration": 0.9999990000000025
        },
        {
          "name": "D#5",
          "midi": 75,
          "time": 163.85697900000025,
          "velocity": 0.6062992125984252,
          "duration": 0.14285699999999224
        },
        {
          "name": "D#5",
          "midi": 75,
          "time": 163.99983600000024,
          "velocity": 0.6062992125984252,
          "duration": 0.14285699999999224
        },
        {
          "name": "D#5",
          "midi": 75,
          "time": 164.14269300000024,
          "velocity": 0.6062992125984252,
          "duration": 0.14285699999999224
        },
        {
          "name": "D#5",
          "midi": 75,
          "time": 164.28555000000023,
          "velocity": 0.6062992125984252,
          "duration": 0.2857140000000129
        },
        {
          "name": "D#5",
          "midi": 75,
          "time": 164.57126400000024,
          "velocity": 0.6062992125984252,
          "duration": 0.9999990000000025
        },
        {
          "name": "D#5",
          "midi": 75,
          "time": 165.57126300000024,
          "velocity": 0.6062992125984252,
          "duration": 0.14285699999999224
        },
        {
          "name": "D#5",
          "midi": 75,
          "time": 165.71412000000024,
          "velocity": 0.6062992125984252,
          "duration": 0.14285699999999224
        },
        {
          "name": "D#5",
          "midi": 75,
          "time": 165.85697700000023,
          "velocity": 0.6062992125984252,
          "duration": 0.14285699999999224
        },
        {
          "name": "D#5",
          "midi": 75,
          "time": 165.99983400000022,
          "velocity": 0.6062992125984252,
          "duration": 0.2857140000000129
        },
        {
          "name": "D#5",
          "midi": 75,
          "time": 166.28554800000023,
          "velocity": 0.6062992125984252,
          "duration": 0.9999990000000025
        }
      ],
      "controlChanges": {
        "7": [
          {
            "number": 7,
            "time": 0,
            "value": 0.7874015748031497
          }
        ],
        "10": [
          {
            "number": 10,
            "time": 0,
            "value": 0.5039370078740157
          }
        ]
      },
      "id": 4,
      "instrumentNumber": 0,
      "instrument": "standard kit",
      "instrumentFamily": "drums",
      "channelNumber": 9,
      "isPercussion": true
    },
    {
      "startTime": 111.42846000000002,
      "duration": 167.99983199999994,
      "length": 50,
      "notes": [
        {
          "name": "B5",
          "midi": 83,
          "time": 111.42846000000002,
          "velocity": 0.6062992125984252,
          "duration": 0.42857100000000514
        },
        {
          "name": "B5",
          "midi": 83,
          "time": 111.85703100000002,
          "velocity": 0.6062992125984252,
          "duration": 0.2857139999999987
        },
        {
          "name": "B5",
          "midi": 83,
          "time": 112.14274500000002,
          "velocity": 0.6062992125984252,
          "duration": 0.14285700000000645
        },
        {
          "name": "B5",
          "midi": 83,
          "time": 112.28560200000003,
          "velocity": 0.6062992125984252,
          "duration": 0.42857100000000514
        },
        {
          "name": "B5",
          "midi": 83,
          "time": 112.71417300000003,
          "velocity": 0.6062992125984252,
          "duration": 0.2857139999999987
        },
        {
          "name": "B5",
          "midi": 83,
          "time": 112.99988700000003,
          "velocity": 0.6062992125984252,
          "duration": 0.14285700000000645
        },
        {
          "name": "B5",
          "midi": 83,
          "time": 113.14274400000004,
          "velocity": 0.6062992125984252,
          "duration": 0.42857100000000514
        },
        {
          "name": "B5",
          "midi": 83,
          "time": 113.57131500000004,
          "velocity": 0.6062992125984252,
          "duration": 0.2857139999999987
        },
        {
          "name": "B5",
          "midi": 83,
          "time": 113.85702900000004,
          "velocity": 0.6062992125984252,
          "duration": 0.14285700000000645
        },
        {
          "name": "B5",
          "midi": 83,
          "time": 113.99988600000005,
          "velocity": 0.6062992125984252,
          "duration": 0.42857100000000514
        },
        {
          "name": "B5",
          "midi": 83,
          "time": 114.42845700000005,
          "velocity": 0.6062992125984252,
          "duration": 0.42857100000000514
        },
        {
          "name": "B5",
          "midi": 83,
          "time": 114.85702800000006,
          "velocity": 0.6062992125984252,
          "duration": 0.42857100000000514
        },
        {
          "name": "B5",
          "midi": 83,
          "time": 115.28559900000006,
          "velocity": 0.6062992125984252,
          "duration": 0.2857139999999987
        },
        {
          "name": "B5",
          "midi": 83,
          "time": 115.57131300000006,
          "velocity": 0.6062992125984252,
          "duration": 0.14285700000000645
        },
        {
          "name": "B5",
          "midi": 83,
          "time": 115.71417000000007,
          "velocity": 0.6062992125984252,
          "duration": 0.42857100000000514
        },
        {
          "name": "B5",
          "midi": 83,
          "time": 116.14274100000007,
          "velocity": 0.6062992125984252,
          "duration": 0.2857139999999987
        },
        {
          "name": "B5",
          "midi": 83,
          "time": 116.42845500000007,
          "velocity": 0.6062992125984252,
          "duration": 0.14285700000000645
        },
        {
          "name": "B5",
          "midi": 83,
          "time": 116.57131200000008,
          "velocity": 0.6062992125984252,
          "duration": 0.42857100000000514
        },
        {
          "name": "B5",
          "midi": 83,
          "time": 116.99988300000008,
          "velocity": 0.6062992125984252,
          "duration": 0.2857139999999987
        },
        {
          "name": "B5",
          "midi": 83,
          "time": 117.28559700000008,
          "velocity": 0.6062992125984252,
          "duration": 0.14285700000000645
        },
        {
          "name": "B5",
          "midi": 83,
          "time": 117.42845400000009,
          "velocity": 0.6062992125984252,
          "duration": 0.8571419999999961
        },
        {
          "name": "B5",
          "midi": 83,
          "time": 118.28559600000008,
          "velocity": 0.6062992125984252,
          "duration": 1.7142840000000064
        },
        {
          "name": "B5",
          "midi": 83,
          "time": 119.99988000000009,
          "velocity": 0.6062992125984252,
          "duration": 1.7142840000000064
        },
        {
          "name": "B5",
          "midi": 83,
          "time": 121.7141640000001,
          "velocity": 0.6062992125984252,
          "duration": 1.7142840000000064
        },
        {
          "name": "B5",
          "midi": 83,
          "time": 123.4284480000001,
          "velocity": 0.6062992125984252,
          "duration": 1.7142840000000064
        },
        {
          "name": "B5",
          "midi": 83,
          "time": 125.14273200000011,
          "velocity": 0.6062992125984252,
          "duration": 1.7142840000000064
        },
        {
          "name": "B5",
          "midi": 83,
          "time": 126.85701600000012,
          "velocity": 0.6062992125984252,
          "duration": 1.7142840000000064
        },
        {
          "name": "B5",
          "midi": 83,
          "time": 128.57130000000012,
          "velocity": 0.6062992125984252,
          "duration": 1.7142839999999921
        },
        {
          "name": "B5",
          "midi": 83,
          "time": 130.2855840000001,
          "velocity": 0.6062992125984252,
          "duration": 1.7142839999999921
        },
        {
          "name": "B5",
          "midi": 83,
          "time": 131.9998680000001,
          "velocity": 0.6062992125984252,
          "duration": 1.7142839999999921
        },
        {
          "name": "B5",
          "midi": 83,
          "time": 133.7141520000001,
          "velocity": 0.6062992125984252,
          "duration": 1.7142839999999921
        },
        {
          "name": "B5",
          "midi": 83,
          "time": 135.4284360000001,
          "velocity": 0.6062992125984252,
          "duration": 1.7142839999999921
        },
        {
          "name": "B5",
          "midi": 83,
          "time": 137.14272000000008,
          "velocity": 0.6062992125984252,
          "duration": 1.7142839999999921
        },
        {
          "name": "B5",
          "midi": 83,
          "time": 138.85700400000007,
          "velocity": 0.6062992125984252,
          "duration": 1.7142839999999921
        },
        {
          "name": "B5",
          "midi": 83,
          "time": 140.57128800000007,
          "velocity": 0.6062992125984252,
          "duration": 1.7142839999999921
        },
        {
          "name": "B5",
          "midi": 83,
          "time": 142.28557200000006,
          "velocity": 0.6062992125984252,
          "duration": 1.7142839999999921
        },
        {
          "name": "B5",
          "midi": 83,
          "time": 143.99985600000005,
          "velocity": 0.6062992125984252,
          "duration": 1.7142839999999921
        },
        {
          "name": "B5",
          "midi": 83,
          "time": 145.71414000000004,
          "velocity": 0.6062992125984252,
          "duration": 1.7142839999999921
        },
        {
          "name": "B5",
          "midi": 83,
          "time": 147.42842400000004,
          "velocity": 0.6062992125984252,
          "duration": 1.7142839999999921
        },
        {
          "name": "B5",
          "midi": 83,
          "time": 149.14270800000003,
          "velocity": 0.6062992125984252,
          "duration": 1.7142839999999921
        },
        {
          "name": "B5",
          "midi": 83,
          "time": 150.85699200000002,
          "velocity": 0.6062992125984252,
          "duration": 1.7142839999999921
        },
        {
          "name": "B5",
          "midi": 83,
          "time": 152.571276,
          "velocity": 0.6062992125984252,
          "duration": 1.7142839999999921
        },
        {
          "name": "B5",
          "midi": 83,
          "time": 154.28556,
          "velocity": 0.6062992125984252,
          "duration": 1.7142839999999921
        },
        {
          "name": "B5",
          "midi": 83,
          "time": 155.999844,
          "velocity": 0.6062992125984252,
          "duration": 1.7142839999999921
        },
        {
          "name": "B5",
          "midi": 83,
          "time": 157.714128,
          "velocity": 0.6062992125984252,
          "duration": 1.7142839999999921
        },
        {
          "name": "B5",
          "midi": 83,
          "time": 159.42841199999998,
          "velocity": 0.6062992125984252,
          "duration": 1.7142839999999921
        },
        {
          "name": "B5",
          "midi": 83,
          "time": 161.14269599999997,
          "velocity": 0.6062992125984252,
          "duration": 1.7142839999999921
        },
        {
          "name": "B5",
          "midi": 83,
          "time": 162.85697999999996,
          "velocity": 0.6062992125984252,
          "duration": 1.7142839999999921
        },
        {
          "name": "B5",
          "midi": 83,
          "time": 164.57126399999996,
          "velocity": 0.6062992125984252,
          "duration": 1.7142839999999921
        },
        {
          "name": "B5",
          "midi": 83,
          "time": 166.28554799999995,
          "velocity": 0.6062992125984252,
          "duration": 1.7142839999999921
        }
      ],
      "controlChanges": {
        "7": [
          {
            "number": 7,
            "time": 0,
            "value": 0.7874015748031497
          }
        ],
        "10": [
          {
            "number": 10,
            "time": 0,
            "value": 0.5039370078740157
          }
        ]
      },
      "id": 5,
      "instrumentNumber": 0,
      "instrument": "standard kit",
      "instrumentFamily": "drums",
      "channelNumber": 9,
      "isPercussion": true
    },
    {
      "startTime": 154.28556,
      "duration": 166.57126200000056,
      "length": 29,
      "notes": [
        {
          "name": "C2",
          "midi": 36,
          "time": 154.28556,
          "velocity": 1,
          "duration": 0.2857140000000129
        },
        {
          "name": "C2",
          "midi": 36,
          "time": 154.85698800000003,
          "velocity": 1,
          "duration": 0.2857140000000129
        },
        {
          "name": "C2",
          "midi": 36,
          "time": 155.42841600000006,
          "velocity": 1,
          "duration": 0.2857140000000129
        },
        {
          "name": "C2",
          "midi": 36,
          "time": 155.71413000000007,
          "velocity": 1,
          "duration": 0.2857140000000129
        },
        {
          "name": "C2",
          "midi": 36,
          "time": 155.99984400000008,
          "velocity": 1,
          "duration": 0.2857140000000129
        },
        {
          "name": "C2",
          "midi": 36,
          "time": 156.5712720000001,
          "velocity": 1,
          "duration": 0.2857140000000129
        },
        {
          "name": "C2",
          "midi": 36,
          "time": 157.14270000000013,
          "velocity": 1,
          "duration": 0.2857140000000129
        },
        {
          "name": "C2",
          "midi": 36,
          "time": 157.42841400000015,
          "velocity": 1,
          "duration": 0.2857140000000129
        },
        {
          "name": "C2",
          "midi": 36,
          "time": 157.71412800000016,
          "velocity": 1,
          "duration": 0.2857140000000129
        },
        {
          "name": "C2",
          "midi": 36,
          "time": 158.28555600000018,
          "velocity": 1,
          "duration": 0.2857140000000129
        },
        {
          "name": "C2",
          "midi": 36,
          "time": 158.8569840000002,
          "velocity": 1,
          "duration": 0.2857140000000129
        },
        {
          "name": "C2",
          "midi": 36,
          "time": 159.14269800000022,
          "velocity": 1,
          "duration": 0.2857140000000129
        },
        {
          "name": "C2",
          "midi": 36,
          "time": 159.42841200000024,
          "velocity": 1,
          "duration": 0.2857140000000129
        },
        {
          "name": "C2",
          "midi": 36,
          "time": 159.99984000000026,
          "velocity": 1,
          "duration": 0.2857140000000129
        },
        {
          "name": "C2",
          "midi": 36,
          "time": 160.5712680000003,
          "velocity": 1,
          "duration": 0.2857140000000129
        },
        {
          "name": "C2",
          "midi": 36,
          "time": 160.8569820000003,
          "velocity": 1,
          "duration": 0.2857140000000129
        },
        {
          "name": "C2",
          "midi": 36,
          "time": 161.1426960000003,
          "velocity": 1,
          "duration": 0.2857140000000129
        },
        {
          "name": "C2",
          "midi": 36,
          "time": 161.71412400000034,
          "velocity": 1,
          "duration": 0.2857140000000129
        },
        {
          "name": "C2",
          "midi": 36,
          "time": 162.28555200000037,
          "velocity": 1,
          "duration": 0.2857140000000129
        },
        {
          "name": "C2",
          "midi": 36,
          "time": 162.57126600000038,
          "velocity": 1,
          "duration": 0.2857140000000129
        },
        {
          "name": "C2",
          "midi": 36,
          "time": 162.8569800000004,
          "velocity": 1,
          "duration": 0.2857140000000129
        },
        {
          "name": "C2",
          "midi": 36,
          "time": 163.42840800000042,
          "velocity": 1,
          "duration": 0.2857140000000129
        },
        {
          "name": "C2",
          "midi": 36,
          "time": 163.99983600000044,
          "velocity": 1,
          "duration": 0.2857140000000129
        },
        {
          "name": "C2",
          "midi": 36,
          "time": 164.28555000000046,
          "velocity": 1,
          "duration": 0.2857140000000129
        },
        {
          "name": "C2",
          "midi": 36,
          "time": 164.57126400000047,
          "velocity": 1,
          "duration": 0.2857140000000129
        },
        {
          "name": "C2",
          "midi": 36,
          "time": 165.1426920000005,
          "velocity": 1,
          "duration": 0.2857140000000129
        },
        {
          "name": "C2",
          "midi": 36,
          "time": 165.71412000000052,
          "velocity": 1,
          "duration": 0.2857140000000129
        },
        {
          "name": "C2",
          "midi": 36,
          "time": 165.99983400000053,
          "velocity": 1,
          "duration": 0.2857140000000129
        },
        {
          "name": "C2",
          "midi": 36,
          "time": 166.28554800000055,
          "velocity": 1,
          "duration": 0.2857140000000129
        }
      ],
      "controlChanges": {
        "7": [
          {
            "number": 7,
            "time": 0,
            "value": 0.7874015748031497
          }
        ],
        "10": [
          {
            "number": 10,
            "time": 0,
            "value": 0.5039370078740157
          }
        ]
      },
      "id": 6,
      "instrumentNumber": 0,
      "instrument": "standard kit",
      "instrumentFamily": "drums",
      "channelNumber": 9,
      "isPercussion": true
    },
    {
      "startTime": 5.142852000000003,
      "duration": 174.85696800000036,
      "length": 904,
      "notes": [
        {
          "name": "G4",
          "midi": 67,
          "time": 5.142852000000003,
          "velocity": 0.8818897637795275,
          "duration": 0.28571400000000047
        },
        {
          "name": "G5",
          "midi": 79,
          "time": 5.142852000000003,
          "velocity": 0.8818897637795275,
          "duration": 0.28571400000000047
        },
        {
          "name": "F#4",
          "midi": 66,
          "time": 5.4285660000000036,
          "velocity": 0.8818897637795275,
          "duration": 0.28571400000000047
        },
        {
          "name": "F#5",
          "midi": 78,
          "time": 5.4285660000000036,
          "velocity": 0.8818897637795275,
          "duration": 0.28571400000000047
        },
        {
          "name": "E4",
          "midi": 64,
          "time": 5.714280000000004,
          "velocity": 0.8818897637795275,
          "duration": 0.2857139999999996
        },
        {
          "name": "E5",
          "midi": 76,
          "time": 5.714280000000004,
          "velocity": 0.8818897637795275,
          "duration": 0.2857139999999996
        },
        {
          "name": "G4",
          "midi": 67,
          "time": 5.999994000000004,
          "velocity": 0.8818897637795275,
          "duration": 0.28571400000000047
        },
        {
          "name": "G5",
          "midi": 79,
          "time": 5.999994000000004,
          "velocity": 0.8818897637795275,
          "duration": 0.28571400000000047
        },
        {
          "name": "F#4",
          "midi": 66,
          "time": 6.285708000000004,
          "velocity": 0.8818897637795275,
          "duration": 0.28571400000000047
        },
        {
          "name": "F#5",
          "midi": 78,
          "time": 6.285708000000004,
          "velocity": 0.8818897637795275,
          "duration": 0.28571400000000047
        },
        {
          "name": "E4",
          "midi": 64,
          "time": 6.5714220000000045,
          "velocity": 0.8818897637795275,
          "duration": 0.2857139999999996
        },
        {
          "name": "E5",
          "midi": 76,
          "time": 6.5714220000000045,
          "velocity": 0.8818897637795275,
          "duration": 0.2857139999999996
        },
        {
          "name": "G4",
          "midi": 67,
          "time": 6.857136000000004,
          "velocity": 0.8818897637795275,
          "duration": 0.2857139999999987
        },
        {
          "name": "G5",
          "midi": 79,
          "time": 6.857136000000004,
          "velocity": 0.8818897637795275,
          "duration": 0.2857139999999987
        },
        {
          "name": "F#4",
          "midi": 66,
          "time": 7.142850000000003,
          "velocity": 0.8818897637795275,
          "duration": 0.2857139999999996
        },
        {
          "name": "F#5",
          "midi": 78,
          "time": 7.142850000000003,
          "velocity": 0.8818897637795275,
          "duration": 0.2857139999999996
        },
        {
          "name": "E4",
          "midi": 64,
          "time": 7.428564000000002,
          "velocity": 0.8818897637795275,
          "duration": 0.28571400000000047
        },
        {
          "name": "E5",
          "midi": 76,
          "time": 7.428564000000002,
          "velocity": 0.8818897637795275,
          "duration": 0.28571400000000047
        },
        {
          "name": "G4",
          "midi": 67,
          "time": 7.714278000000003,
          "velocity": 0.8818897637795275,
          "duration": 0.28571400000000047
        },
        {
          "name": "G5",
          "midi": 79,
          "time": 7.714278000000003,
          "velocity": 0.8818897637795275,
          "duration": 0.28571400000000047
        },
        {
          "name": "F#4",
          "midi": 66,
          "time": 7.999992000000003,
          "velocity": 0.8818897637795275,
          "duration": 0.2857139999999996
        },
        {
          "name": "F#5",
          "midi": 78,
          "time": 7.999992000000003,
          "velocity": 0.8818897637795275,
          "duration": 0.2857139999999996
        },
        {
          "name": "E4",
          "midi": 64,
          "time": 8.285706000000003,
          "velocity": 0.8818897637795275,
          "duration": 0.2857139999999987
        },
        {
          "name": "E5",
          "midi": 76,
          "time": 8.285706000000003,
          "velocity": 0.8818897637795275,
          "duration": 0.2857139999999987
        },
        {
          "name": "G4",
          "midi": 67,
          "time": 8.571420000000002,
          "velocity": 0.8818897637795275,
          "duration": 0.2857139999999987
        },
        {
          "name": "G5",
          "midi": 79,
          "time": 8.571420000000002,
          "velocity": 0.8818897637795275,
          "duration": 0.2857139999999987
        },
        {
          "name": "F#4",
          "midi": 66,
          "time": 8.857134,
          "velocity": 0.8818897637795275,
          "duration": 0.2857139999999987
        },
        {
          "name": "F#5",
          "midi": 78,
          "time": 8.857134,
          "velocity": 0.8818897637795275,
          "duration": 0.2857139999999987
        },
        {
          "name": "E4",
          "midi": 64,
          "time": 9.142847999999999,
          "velocity": 0.8818897637795275,
          "duration": 0.2857139999999987
        },
        {
          "name": "E5",
          "midi": 76,
          "time": 9.142847999999999,
          "velocity": 0.8818897637795275,
          "duration": 0.2857139999999987
        },
        {
          "name": "G4",
          "midi": 67,
          "time": 9.428561999999998,
          "velocity": 0.8818897637795275,
          "duration": 0.2857139999999987
        },
        {
          "name": "G5",
          "midi": 79,
          "time": 9.428561999999998,
          "velocity": 0.8818897637795275,
          "duration": 0.2857139999999987
        },
        {
          "name": "F#4",
          "midi": 66,
          "time": 9.714275999999996,
          "velocity": 0.8818897637795275,
          "duration": 0.2857139999999987
        },
        {
          "name": "F#5",
          "midi": 78,
          "time": 9.714275999999996,
          "velocity": 0.8818897637795275,
          "duration": 0.2857139999999987
        },
        {
          "name": "E4",
          "midi": 64,
          "time": 9.999989999999995,
          "velocity": 0.8818897637795275,
          "duration": 0.2857139999999987
        },
        {
          "name": "E5",
          "midi": 76,
          "time": 9.999989999999995,
          "velocity": 0.8818897637795275,
          "duration": 0.2857139999999987
        },
        {
          "name": "G4",
          "midi": 67,
          "time": 10.285703999999994,
          "velocity": 0.8818897637795275,
          "duration": 0.2857139999999987
        },
        {
          "name": "G5",
          "midi": 79,
          "time": 10.285703999999994,
          "velocity": 0.8818897637795275,
          "duration": 0.2857139999999987
        },
        {
          "name": "F#4",
          "midi": 66,
          "time": 10.571417999999992,
          "velocity": 0.8818897637795275,
          "duration": 0.2857139999999987
        },
        {
          "name": "F#5",
          "midi": 78,
          "time": 10.571417999999992,
          "velocity": 0.8818897637795275,
          "duration": 0.2857139999999987
        },
        {
          "name": "E4",
          "midi": 64,
          "time": 10.857131999999991,
          "velocity": 0.8818897637795275,
          "duration": 0.2857139999999987
        },
        {
          "name": "E5",
          "midi": 76,
          "time": 10.857131999999991,
          "velocity": 0.8818897637795275,
          "duration": 0.2857139999999987
        },
        {
          "name": "G4",
          "midi": 67,
          "time": 11.14284599999999,
          "velocity": 0.8818897637795275,
          "duration": 0.2857139999999987
        },
        {
          "name": "G5",
          "midi": 79,
          "time": 11.14284599999999,
          "velocity": 0.8818897637795275,
          "duration": 0.2857139999999987
        },
        {
          "name": "F#4",
          "midi": 66,
          "time": 11.428559999999989,
          "velocity": 0.8818897637795275,
          "duration": 0.2857139999999987
        },
        {
          "name": "F#5",
          "midi": 78,
          "time": 11.428559999999989,
          "velocity": 0.8818897637795275,
          "duration": 0.2857139999999987
        },
        {
          "name": "E4",
          "midi": 64,
          "time": 11.714273999999987,
          "velocity": 0.8818897637795275,
          "duration": 0.2857139999999987
        },
        {
          "name": "E5",
          "midi": 76,
          "time": 11.714273999999987,
          "velocity": 0.8818897637795275,
          "duration": 0.2857139999999987
        },
        {
          "name": "G4",
          "midi": 67,
          "time": 11.999987999999986,
          "velocity": 0.8818897637795275,
          "duration": 0.2857139999999987
        },
        {
          "name": "G5",
          "midi": 79,
          "time": 11.999987999999986,
          "velocity": 0.8818897637795275,
          "duration": 0.2857139999999987
        },
        {
          "name": "F#4",
          "midi": 66,
          "time": 12.285701999999985,
          "velocity": 0.8818897637795275,
          "duration": 0.2857139999999987
        },
        {
          "name": "F#5",
          "midi": 78,
          "time": 12.285701999999985,
          "velocity": 0.8818897637795275,
          "duration": 0.2857139999999987
        },
        {
          "name": "E4",
          "midi": 64,
          "time": 12.571415999999983,
          "velocity": 0.8818897637795275,
          "duration": 0.2857139999999987
        },
        {
          "name": "E5",
          "midi": 76,
          "time": 12.571415999999983,
          "velocity": 0.8818897637795275,
          "duration": 0.2857139999999987
        },
        {
          "name": "G4",
          "midi": 67,
          "time": 12.857129999999982,
          "velocity": 0.8818897637795275,
          "duration": 0.2857139999999987
        },
        {
          "name": "G5",
          "midi": 79,
          "time": 12.857129999999982,
          "velocity": 0.8818897637795275,
          "duration": 0.2857139999999987
        },
        {
          "name": "F#4",
          "midi": 66,
          "time": 13.14284399999998,
          "velocity": 0.8818897637795275,
          "duration": 0.2857139999999987
        },
        {
          "name": "F#5",
          "midi": 78,
          "time": 13.14284399999998,
          "velocity": 0.8818897637795275,
          "duration": 0.2857139999999987
        },
        {
          "name": "E4",
          "midi": 64,
          "time": 13.42855799999998,
          "velocity": 0.8818897637795275,
          "duration": 0.2857139999999987
        },
        {
          "name": "E5",
          "midi": 76,
          "time": 13.42855799999998,
          "velocity": 0.8818897637795275,
          "duration": 0.2857139999999987
        },
        {
          "name": "G4",
          "midi": 67,
          "time": 13.714271999999978,
          "velocity": 0.8818897637795275,
          "duration": 0.2857139999999987
        },
        {
          "name": "G5",
          "midi": 79,
          "time": 13.714271999999978,
          "velocity": 0.8818897637795275,
          "duration": 0.2857139999999987
        },
        {
          "name": "F#4",
          "midi": 66,
          "time": 13.999985999999977,
          "velocity": 0.8818897637795275,
          "duration": 0.2857139999999987
        },
        {
          "name": "F#5",
          "midi": 78,
          "time": 13.999985999999977,
          "velocity": 0.8818897637795275,
          "duration": 0.2857139999999987
        },
        {
          "name": "E4",
          "midi": 64,
          "time": 14.285699999999975,
          "velocity": 0.8818897637795275,
          "duration": 0.2857139999999987
        },
        {
          "name": "E5",
          "midi": 76,
          "time": 14.285699999999975,
          "velocity": 0.8818897637795275,
          "duration": 0.2857139999999987
        },
        {
          "name": "G4",
          "midi": 67,
          "time": 14.571413999999974,
          "velocity": 0.8818897637795275,
          "duration": 0.2857139999999987
        },
        {
          "name": "G5",
          "midi": 79,
          "time": 14.571413999999974,
          "velocity": 0.8818897637795275,
          "duration": 0.2857139999999987
        },
        {
          "name": "F#4",
          "midi": 66,
          "time": 14.857127999999973,
          "velocity": 0.8818897637795275,
          "duration": 0.2857139999999987
        },
        {
          "name": "F#5",
          "midi": 78,
          "time": 14.857127999999973,
          "velocity": 0.8818897637795275,
          "duration": 0.2857139999999987
        },
        {
          "name": "E4",
          "midi": 64,
          "time": 15.142841999999971,
          "velocity": 0.8818897637795275,
          "duration": 0.2857139999999987
        },
        {
          "name": "E5",
          "midi": 76,
          "time": 15.142841999999971,
          "velocity": 0.8818897637795275,
          "duration": 0.2857139999999987
        },
        {
          "name": "G4",
          "midi": 67,
          "time": 15.42855599999997,
          "velocity": 0.8818897637795275,
          "duration": 0.2857139999999987
        },
        {
          "name": "G5",
          "midi": 79,
          "time": 15.42855599999997,
          "velocity": 0.8818897637795275,
          "duration": 0.2857139999999987
        },
        {
          "name": "F#4",
          "midi": 66,
          "time": 15.714269999999969,
          "velocity": 0.8818897637795275,
          "duration": 0.2857139999999987
        },
        {
          "name": "F#5",
          "midi": 78,
          "time": 15.714269999999969,
          "velocity": 0.8818897637795275,
          "duration": 0.2857139999999987
        },
        {
          "name": "E4",
          "midi": 64,
          "time": 15.999983999999968,
          "velocity": 0.8818897637795275,
          "duration": 0.28571400000000047
        },
        {
          "name": "E5",
          "midi": 76,
          "time": 15.999983999999968,
          "velocity": 0.8818897637795275,
          "duration": 0.28571400000000047
        },
        {
          "name": "G4",
          "midi": 67,
          "time": 16.285697999999968,
          "velocity": 0.8818897637795275,
          "duration": 0.28571400000000224
        },
        {
          "name": "G5",
          "midi": 79,
          "time": 16.285697999999968,
          "velocity": 0.8818897637795275,
          "duration": 0.28571400000000224
        },
        {
          "name": "F#4",
          "midi": 66,
          "time": 16.57141199999997,
          "velocity": 0.8818897637795275,
          "duration": 0.28571400000000224
        },
        {
          "name": "F#5",
          "midi": 78,
          "time": 16.57141199999997,
          "velocity": 0.8818897637795275,
          "duration": 0.28571400000000224
        },
        {
          "name": "E4",
          "midi": 64,
          "time": 16.857125999999973,
          "velocity": 0.8818897637795275,
          "duration": 0.2857140000000058
        },
        {
          "name": "E5",
          "midi": 76,
          "time": 16.857125999999973,
          "velocity": 0.8818897637795275,
          "duration": 0.2857140000000058
        },
        {
          "name": "G4",
          "midi": 67,
          "time": 17.14283999999998,
          "velocity": 0.8818897637795275,
          "duration": 0.28571400000000224
        },
        {
          "name": "G5",
          "midi": 79,
          "time": 17.14283999999998,
          "velocity": 0.8818897637795275,
          "duration": 0.28571400000000224
        },
        {
          "name": "F#4",
          "midi": 66,
          "time": 17.42855399999998,
          "velocity": 0.8818897637795275,
          "duration": 0.28571400000000224
        },
        {
          "name": "F#5",
          "midi": 78,
          "time": 17.42855399999998,
          "velocity": 0.8818897637795275,
          "duration": 0.28571400000000224
        },
        {
          "name": "E4",
          "midi": 64,
          "time": 17.714267999999983,
          "velocity": 0.8818897637795275,
          "duration": 0.28571400000000224
        },
        {
          "name": "E5",
          "midi": 76,
          "time": 17.714267999999983,
          "velocity": 0.8818897637795275,
          "duration": 0.28571400000000224
        },
        {
          "name": "G4",
          "midi": 67,
          "time": 17.999981999999985,
          "velocity": 0.8818897637795275,
          "duration": 0.2857140000000058
        },
        {
          "name": "G5",
          "midi": 79,
          "time": 17.999981999999985,
          "velocity": 0.8818897637795275,
          "duration": 0.2857140000000058
        },
        {
          "name": "F#4",
          "midi": 66,
          "time": 18.28569599999999,
          "velocity": 0.8818897637795275,
          "duration": 0.28571400000000224
        },
        {
          "name": "F#5",
          "midi": 78,
          "time": 18.28569599999999,
          "velocity": 0.8818897637795275,
          "duration": 0.28571400000000224
        },
        {
          "name": "E4",
          "midi": 64,
          "time": 18.571409999999993,
          "velocity": 0.8818897637795275,
          "duration": 0.28571400000000224
        },
        {
          "name": "E5",
          "midi": 76,
          "time": 18.571409999999993,
          "velocity": 0.8818897637795275,
          "duration": 0.28571400000000224
        },
        {
          "name": "G4",
          "midi": 67,
          "time": 18.857123999999995,
          "velocity": 0.8818897637795275,
          "duration": 0.2857140000000058
        },
        {
          "name": "G5",
          "midi": 79,
          "time": 18.857123999999995,
          "velocity": 0.8818897637795275,
          "duration": 0.2857140000000058
        },
        {
          "name": "F#4",
          "midi": 66,
          "time": 19.142838,
          "velocity": 0.8818897637795275,
          "duration": 0.28571400000000224
        },
        {
          "name": "F#5",
          "midi": 78,
          "time": 19.142838,
          "velocity": 0.8818897637795275,
          "duration": 0.28571400000000224
        },
        {
          "name": "E4",
          "midi": 64,
          "time": 19.428552000000003,
          "velocity": 0.8818897637795275,
          "duration": 0.28571400000000224
        },
        {
          "name": "E5",
          "midi": 76,
          "time": 19.428552000000003,
          "velocity": 0.8818897637795275,
          "duration": 0.28571400000000224
        },
        {
          "name": "G4",
          "midi": 67,
          "time": 19.714266000000006,
          "velocity": 0.8818897637795275,
          "duration": 0.2857140000000058
        },
        {
          "name": "G5",
          "midi": 79,
          "time": 19.714266000000006,
          "velocity": 0.8818897637795275,
          "duration": 0.2857140000000058
        },
        {
          "name": "F#4",
          "midi": 66,
          "time": 19.99998000000001,
          "velocity": 0.8818897637795275,
          "duration": 0.28571400000000224
        },
        {
          "name": "F#5",
          "midi": 78,
          "time": 19.99998000000001,
          "velocity": 0.8818897637795275,
          "duration": 0.28571400000000224
        },
        {
          "name": "E4",
          "midi": 64,
          "time": 20.285694000000014,
          "velocity": 0.8818897637795275,
          "duration": 0.2857140000000058
        },
        {
          "name": "E5",
          "midi": 76,
          "time": 20.285694000000014,
          "velocity": 0.8818897637795275,
          "duration": 0.2857140000000058
        },
        {
          "name": "G4",
          "midi": 67,
          "time": 20.57140800000002,
          "velocity": 0.8818897637795275,
          "duration": 0.28571400000000224
        },
        {
          "name": "G5",
          "midi": 79,
          "time": 20.57140800000002,
          "velocity": 0.8818897637795275,
          "duration": 0.28571400000000224
        },
        {
          "name": "F#4",
          "midi": 66,
          "time": 20.85712200000002,
          "velocity": 0.8818897637795275,
          "duration": 0.28571400000000224
        },
        {
          "name": "F#5",
          "midi": 78,
          "time": 20.85712200000002,
          "velocity": 0.8818897637795275,
          "duration": 0.28571400000000224
        },
        {
          "name": "E4",
          "midi": 64,
          "time": 21.142836000000024,
          "velocity": 0.8818897637795275,
          "duration": 0.2857140000000058
        },
        {
          "name": "E5",
          "midi": 76,
          "time": 21.142836000000024,
          "velocity": 0.8818897637795275,
          "duration": 0.2857140000000058
        },
        {
          "name": "G4",
          "midi": 67,
          "time": 21.42855000000003,
          "velocity": 0.8818897637795275,
          "duration": 0.2857139999999987
        },
        {
          "name": "G5",
          "midi": 79,
          "time": 21.42855000000003,
          "velocity": 0.8818897637795275,
          "duration": 0.2857139999999987
        },
        {
          "name": "F#4",
          "midi": 66,
          "time": 21.71426400000003,
          "velocity": 0.8818897637795275,
          "duration": 0.2857140000000058
        },
        {
          "name": "F#5",
          "midi": 78,
          "time": 21.71426400000003,
          "velocity": 0.8818897637795275,
          "duration": 0.2857140000000058
        },
        {
          "name": "E4",
          "midi": 64,
          "time": 21.999978000000034,
          "velocity": 0.8818897637795275,
          "duration": 0.28571400000000224
        },
        {
          "name": "E5",
          "midi": 76,
          "time": 21.999978000000034,
          "velocity": 0.8818897637795275,
          "duration": 0.28571400000000224
        },
        {
          "name": "G4",
          "midi": 67,
          "time": 22.285692000000036,
          "velocity": 0.8818897637795275,
          "duration": 0.2857139999999987
        },
        {
          "name": "G5",
          "midi": 79,
          "time": 22.285692000000036,
          "velocity": 0.8818897637795275,
          "duration": 0.2857139999999987
        },
        {
          "name": "F#4",
          "midi": 66,
          "time": 22.571406000000035,
          "velocity": 0.8818897637795275,
          "duration": 0.28571400000000224
        },
        {
          "name": "F#5",
          "midi": 78,
          "time": 22.571406000000035,
          "velocity": 0.8818897637795275,
          "duration": 0.28571400000000224
        },
        {
          "name": "E4",
          "midi": 64,
          "time": 22.857120000000037,
          "velocity": 0.8818897637795275,
          "duration": 0.28571400000000224
        },
        {
          "name": "E5",
          "midi": 76,
          "time": 22.857120000000037,
          "velocity": 0.8818897637795275,
          "duration": 0.28571400000000224
        },
        {
          "name": "G4",
          "midi": 67,
          "time": 23.14283400000004,
          "velocity": 0.8818897637795275,
          "duration": 0.28571400000000224
        },
        {
          "name": "G5",
          "midi": 79,
          "time": 23.14283400000004,
          "velocity": 0.8818897637795275,
          "duration": 0.28571400000000224
        },
        {
          "name": "F#4",
          "midi": 66,
          "time": 23.428548000000042,
          "velocity": 0.8818897637795275,
          "duration": 0.28571400000000224
        },
        {
          "name": "F#5",
          "midi": 78,
          "time": 23.428548000000042,
          "velocity": 0.8818897637795275,
          "duration": 0.28571400000000224
        },
        {
          "name": "E4",
          "midi": 64,
          "time": 23.714262000000044,
          "velocity": 0.8818897637795275,
          "duration": 0.28571400000000224
        },
        {
          "name": "E5",
          "midi": 76,
          "time": 23.714262000000044,
          "velocity": 0.8818897637795275,
          "duration": 0.28571400000000224
        },
        {
          "name": "G4",
          "midi": 67,
          "time": 23.999976000000046,
          "velocity": 0.8818897637795275,
          "duration": 0.28571400000000224
        },
        {
          "name": "G5",
          "midi": 79,
          "time": 23.999976000000046,
          "velocity": 0.8818897637795275,
          "duration": 0.28571400000000224
        },
        {
          "name": "F#4",
          "midi": 66,
          "time": 24.28569000000005,
          "velocity": 0.8818897637795275,
          "duration": 0.28571400000000224
        },
        {
          "name": "F#5",
          "midi": 78,
          "time": 24.28569000000005,
          "velocity": 0.8818897637795275,
          "duration": 0.28571400000000224
        },
        {
          "name": "E4",
          "midi": 64,
          "time": 24.57140400000005,
          "velocity": 0.8818897637795275,
          "duration": 0.28571400000000224
        },
        {
          "name": "E5",
          "midi": 76,
          "time": 24.57140400000005,
          "velocity": 0.8818897637795275,
          "duration": 0.28571400000000224
        },
        {
          "name": "G4",
          "midi": 67,
          "time": 24.857118000000053,
          "velocity": 0.8818897637795275,
          "duration": 0.28571400000000224
        },
        {
          "name": "G5",
          "midi": 79,
          "time": 24.857118000000053,
          "velocity": 0.8818897637795275,
          "duration": 0.28571400000000224
        },
        {
          "name": "F#4",
          "midi": 66,
          "time": 25.142832000000055,
          "velocity": 0.8818897637795275,
          "duration": 0.28571400000000224
        },
        {
          "name": "F#5",
          "midi": 78,
          "time": 25.142832000000055,
          "velocity": 0.8818897637795275,
          "duration": 0.28571400000000224
        },
        {
          "name": "E4",
          "midi": 64,
          "time": 25.428546000000058,
          "velocity": 0.8818897637795275,
          "duration": 0.28571400000000224
        },
        {
          "name": "E5",
          "midi": 76,
          "time": 25.428546000000058,
          "velocity": 0.8818897637795275,
          "duration": 0.28571400000000224
        },
        {
          "name": "G4",
          "midi": 67,
          "time": 25.71426000000006,
          "velocity": 0.8818897637795275,
          "duration": 0.28571400000000224
        },
        {
          "name": "G5",
          "midi": 79,
          "time": 25.71426000000006,
          "velocity": 0.8818897637795275,
          "duration": 0.28571400000000224
        },
        {
          "name": "F#4",
          "midi": 66,
          "time": 25.999974000000062,
          "velocity": 0.8818897637795275,
          "duration": 0.28571400000000224
        },
        {
          "name": "F#5",
          "midi": 78,
          "time": 25.999974000000062,
          "velocity": 0.8818897637795275,
          "duration": 0.28571400000000224
        },
        {
          "name": "E4",
          "midi": 64,
          "time": 26.285688000000064,
          "velocity": 0.8818897637795275,
          "duration": 0.2857139999999987
        },
        {
          "name": "E5",
          "midi": 76,
          "time": 26.285688000000064,
          "velocity": 0.8818897637795275,
          "duration": 0.2857139999999987
        },
        {
          "name": "G4",
          "midi": 67,
          "time": 26.571402000000063,
          "velocity": 0.8818897637795275,
          "duration": 0.2857139999999987
        },
        {
          "name": "G5",
          "midi": 79,
          "time": 26.571402000000063,
          "velocity": 0.8818897637795275,
          "duration": 0.2857139999999987
        },
        {
          "name": "F#4",
          "midi": 66,
          "time": 26.85711600000006,
          "velocity": 0.8818897637795275,
          "duration": 0.2857139999999987
        },
        {
          "name": "F#5",
          "midi": 78,
          "time": 26.85711600000006,
          "velocity": 0.8818897637795275,
          "duration": 0.2857139999999987
        },
        {
          "name": "E4",
          "midi": 64,
          "time": 27.14283000000006,
          "velocity": 0.8818897637795275,
          "duration": 0.2857139999999987
        },
        {
          "name": "E5",
          "midi": 76,
          "time": 27.14283000000006,
          "velocity": 0.8818897637795275,
          "duration": 0.2857139999999987
        },
        {
          "name": "G4",
          "midi": 67,
          "time": 27.42854400000006,
          "velocity": 0.8818897637795275,
          "duration": 0.2857139999999987
        },
        {
          "name": "G5",
          "midi": 79,
          "time": 27.42854400000006,
          "velocity": 0.8818897637795275,
          "duration": 0.2857139999999987
        },
        {
          "name": "F#4",
          "midi": 66,
          "time": 27.714258000000058,
          "velocity": 0.8818897637795275,
          "duration": 0.2857139999999987
        },
        {
          "name": "F#5",
          "midi": 78,
          "time": 27.714258000000058,
          "velocity": 0.8818897637795275,
          "duration": 0.2857139999999987
        },
        {
          "name": "E4",
          "midi": 64,
          "time": 27.999972000000056,
          "velocity": 0.8818897637795275,
          "duration": 0.2857139999999987
        },
        {
          "name": "E5",
          "midi": 76,
          "time": 27.999972000000056,
          "velocity": 0.8818897637795275,
          "duration": 0.2857139999999987
        },
        {
          "name": "G4",
          "midi": 67,
          "time": 28.285686000000055,
          "velocity": 0.8818897637795275,
          "duration": 0.2857139999999987
        },
        {
          "name": "G5",
          "midi": 79,
          "time": 28.285686000000055,
          "velocity": 0.8818897637795275,
          "duration": 0.2857139999999987
        },
        {
          "name": "F#4",
          "midi": 66,
          "time": 28.571400000000054,
          "velocity": 0.8818897637795275,
          "duration": 0.28571400000000224
        },
        {
          "name": "F#5",
          "midi": 78,
          "time": 28.571400000000054,
          "velocity": 0.8818897637795275,
          "duration": 0.28571400000000224
        },
        {
          "name": "E4",
          "midi": 64,
          "time": 28.857114000000056,
          "velocity": 0.8818897637795275,
          "duration": 0.28571400000000224
        },
        {
          "name": "E5",
          "midi": 76,
          "time": 28.857114000000056,
          "velocity": 0.8818897637795275,
          "duration": 0.28571400000000224
        },
        {
          "name": "G4",
          "midi": 67,
          "time": 29.14282800000006,
          "velocity": 0.8818897637795275,
          "duration": 0.28571400000000224
        },
        {
          "name": "G5",
          "midi": 79,
          "time": 29.14282800000006,
          "velocity": 0.8818897637795275,
          "duration": 0.28571400000000224
        },
        {
          "name": "F#4",
          "midi": 66,
          "time": 29.42854200000006,
          "velocity": 0.8818897637795275,
          "duration": 0.28571400000000224
        },
        {
          "name": "F#5",
          "midi": 78,
          "time": 29.42854200000006,
          "velocity": 0.8818897637795275,
          "duration": 0.28571400000000224
        },
        {
          "name": "E4",
          "midi": 64,
          "time": 29.714256000000063,
          "velocity": 0.8818897637795275,
          "duration": 0.28571400000000224
        },
        {
          "name": "E5",
          "midi": 76,
          "time": 29.714256000000063,
          "velocity": 0.8818897637795275,
          "duration": 0.28571400000000224
        },
        {
          "name": "G4",
          "midi": 67,
          "time": 29.999970000000065,
          "velocity": 0.8818897637795275,
          "duration": 0.28571400000000224
        },
        {
          "name": "G5",
          "midi": 79,
          "time": 29.999970000000065,
          "velocity": 0.8818897637795275,
          "duration": 0.28571400000000224
        },
        {
          "name": "F#4",
          "midi": 66,
          "time": 30.285684000000067,
          "velocity": 0.8818897637795275,
          "duration": 0.28571400000000224
        },
        {
          "name": "F#5",
          "midi": 78,
          "time": 30.285684000000067,
          "velocity": 0.8818897637795275,
          "duration": 0.28571400000000224
        },
        {
          "name": "E4",
          "midi": 64,
          "time": 30.57139800000007,
          "velocity": 0.8818897637795275,
          "duration": 0.28571400000000224
        },
        {
          "name": "E5",
          "midi": 76,
          "time": 30.57139800000007,
          "velocity": 0.8818897637795275,
          "duration": 0.28571400000000224
        },
        {
          "name": "G4",
          "midi": 67,
          "time": 30.857112000000072,
          "velocity": 0.8818897637795275,
          "duration": 0.2857139999999987
        },
        {
          "name": "G5",
          "midi": 79,
          "time": 30.857112000000072,
          "velocity": 0.8818897637795275,
          "duration": 0.2857139999999987
        },
        {
          "name": "F#4",
          "midi": 66,
          "time": 31.14282600000007,
          "velocity": 0.8818897637795275,
          "duration": 0.2857139999999987
        },
        {
          "name": "F#5",
          "midi": 78,
          "time": 31.14282600000007,
          "velocity": 0.8818897637795275,
          "duration": 0.2857139999999987
        },
        {
          "name": "E4",
          "midi": 64,
          "time": 31.42854000000007,
          "velocity": 0.8818897637795275,
          "duration": 0.2857139999999987
        },
        {
          "name": "E5",
          "midi": 76,
          "time": 31.42854000000007,
          "velocity": 0.8818897637795275,
          "duration": 0.2857139999999987
        },
        {
          "name": "G4",
          "midi": 67,
          "time": 31.714254000000068,
          "velocity": 0.8818897637795275,
          "duration": 0.2857139999999987
        },
        {
          "name": "G5",
          "midi": 79,
          "time": 31.714254000000068,
          "velocity": 0.8818897637795275,
          "duration": 0.2857139999999987
        },
        {
          "name": "F#4",
          "midi": 66,
          "time": 31.999968000000067,
          "velocity": 0.8818897637795275,
          "duration": 0.2857140000000058
        },
        {
          "name": "F#5",
          "midi": 78,
          "time": 31.999968000000067,
          "velocity": 0.8818897637795275,
          "duration": 0.2857140000000058
        },
        {
          "name": "E4",
          "midi": 64,
          "time": 32.28568200000007,
          "velocity": 0.8818897637795275,
          "duration": 0.2857140000000058
        },
        {
          "name": "E5",
          "midi": 76,
          "time": 32.28568200000007,
          "velocity": 0.8818897637795275,
          "duration": 0.2857140000000058
        },
        {
          "name": "G5",
          "midi": 79,
          "time": 32.57139600000008,
          "velocity": 0.8818897637795275,
          "duration": 0.2857139999999987
        },
        {
          "name": "G6",
          "midi": 91,
          "time": 32.57139600000008,
          "velocity": 0.8818897637795275,
          "duration": 0.2857139999999987
        },
        {
          "name": "F#5",
          "midi": 78,
          "time": 32.85711000000008,
          "velocity": 0.8818897637795275,
          "duration": 0.2857140000000058
        },
        {
          "name": "F#6",
          "midi": 90,
          "time": 32.85711000000008,
          "velocity": 0.8818897637795275,
          "duration": 0.2857140000000058
        },
        {
          "name": "E5",
          "midi": 76,
          "time": 33.14282400000008,
          "velocity": 0.8818897637795275,
          "duration": 0.2857139999999987
        },
        {
          "name": "E6",
          "midi": 88,
          "time": 33.14282400000008,
          "velocity": 0.8818897637795275,
          "duration": 0.2857139999999987
        },
        {
          "name": "G5",
          "midi": 79,
          "time": 33.42853800000008,
          "velocity": 0.8818897637795275,
          "duration": 0.2857139999999987
        },
        {
          "name": "G6",
          "midi": 91,
          "time": 33.42853800000008,
          "velocity": 0.8818897637795275,
          "duration": 0.2857139999999987
        },
        {
          "name": "F#5",
          "midi": 78,
          "time": 33.71425200000008,
          "velocity": 0.8818897637795275,
          "duration": 0.2857139999999987
        },
        {
          "name": "F#6",
          "midi": 90,
          "time": 33.71425200000008,
          "velocity": 0.8818897637795275,
          "duration": 0.2857139999999987
        },
        {
          "name": "E5",
          "midi": 76,
          "time": 33.99996600000008,
          "velocity": 0.8818897637795275,
          "duration": 0.2857139999999987
        },
        {
          "name": "E6",
          "midi": 88,
          "time": 33.99996600000008,
          "velocity": 0.8818897637795275,
          "duration": 0.2857139999999987
        },
        {
          "name": "G5",
          "midi": 79,
          "time": 34.28568000000008,
          "velocity": 0.8818897637795275,
          "duration": 0.2857139999999987
        },
        {
          "name": "G6",
          "midi": 91,
          "time": 34.28568000000008,
          "velocity": 0.8818897637795275,
          "duration": 0.2857139999999987
        },
        {
          "name": "F#5",
          "midi": 78,
          "time": 34.571394000000076,
          "velocity": 0.8818897637795275,
          "duration": 0.2857139999999987
        },
        {
          "name": "F#6",
          "midi": 90,
          "time": 34.571394000000076,
          "velocity": 0.8818897637795275,
          "duration": 0.2857139999999987
        },
        {
          "name": "E5",
          "midi": 76,
          "time": 34.857108000000075,
          "velocity": 0.8818897637795275,
          "duration": 0.2857139999999987
        },
        {
          "name": "E6",
          "midi": 88,
          "time": 34.857108000000075,
          "velocity": 0.8818897637795275,
          "duration": 0.2857139999999987
        },
        {
          "name": "G5",
          "midi": 79,
          "time": 35.14282200000007,
          "velocity": 0.8818897637795275,
          "duration": 0.2857139999999987
        },
        {
          "name": "G6",
          "midi": 91,
          "time": 35.14282200000007,
          "velocity": 0.8818897637795275,
          "duration": 0.2857139999999987
        },
        {
          "name": "F#5",
          "midi": 78,
          "time": 35.42853600000007,
          "velocity": 0.8818897637795275,
          "duration": 0.2857139999999987
        },
        {
          "name": "F#6",
          "midi": 90,
          "time": 35.42853600000007,
          "velocity": 0.8818897637795275,
          "duration": 0.2857139999999987
        },
        {
          "name": "E5",
          "midi": 76,
          "time": 35.71425000000007,
          "velocity": 0.8818897637795275,
          "duration": 0.2857140000000058
        },
        {
          "name": "E6",
          "midi": 88,
          "time": 35.71425000000007,
          "velocity": 0.8818897637795275,
          "duration": 0.2857140000000058
        },
        {
          "name": "G4",
          "midi": 67,
          "time": 35.99996400000008,
          "velocity": 0.8818897637795275,
          "duration": 0.2857140000000058
        },
        {
          "name": "G5",
          "midi": 79,
          "time": 35.99996400000008,
          "velocity": 0.8818897637795275,
          "duration": 0.2857140000000058
        },
        {
          "name": "F#4",
          "midi": 66,
          "time": 36.28567800000008,
          "velocity": 0.8818897637795275,
          "duration": 0.2857139999999987
        },
        {
          "name": "F#5",
          "midi": 78,
          "time": 36.28567800000008,
          "velocity": 0.8818897637795275,
          "duration": 0.2857139999999987
        },
        {
          "name": "E4",
          "midi": 64,
          "time": 36.57139200000008,
          "velocity": 0.8818897637795275,
          "duration": 0.2857140000000058
        },
        {
          "name": "E5",
          "midi": 76,
          "time": 36.57139200000008,
          "velocity": 0.8818897637795275,
          "duration": 0.2857140000000058
        },
        {
          "name": "G4",
          "midi": 67,
          "time": 36.85710600000009,
          "velocity": 0.8818897637795275,
          "duration": 0.2857140000000058
        },
        {
          "name": "G5",
          "midi": 79,
          "time": 36.85710600000009,
          "velocity": 0.8818897637795275,
          "duration": 0.2857140000000058
        },
        {
          "name": "F#4",
          "midi": 66,
          "time": 37.14282000000009,
          "velocity": 0.8818897637795275,
          "duration": 0.2857139999999987
        },
        {
          "name": "F#5",
          "midi": 78,
          "time": 37.14282000000009,
          "velocity": 0.8818897637795275,
          "duration": 0.2857139999999987
        },
        {
          "name": "E4",
          "midi": 64,
          "time": 37.42853400000009,
          "velocity": 0.8818897637795275,
          "duration": 0.2857140000000058
        },
        {
          "name": "E5",
          "midi": 76,
          "time": 37.42853400000009,
          "velocity": 0.8818897637795275,
          "duration": 0.2857140000000058
        },
        {
          "name": "G4",
          "midi": 67,
          "time": 37.7142480000001,
          "velocity": 0.8818897637795275,
          "duration": 0.2857139999999987
        },
        {
          "name": "E3",
          "midi": 52,
          "time": 37.7142480000001,
          "velocity": 0.8818897637795275,
          "duration": 0.5714279999999974
        },
        {
          "name": "G5",
          "midi": 79,
          "time": 37.7142480000001,
          "velocity": 0.8818897637795275,
          "duration": 0.2857139999999987
        },
        {
          "name": "E4",
          "midi": 64,
          "time": 37.7142480000001,
          "velocity": 0.8818897637795275,
          "duration": 0.5714279999999974
        },
        {
          "name": "F#4",
          "midi": 66,
          "time": 37.999962000000096,
          "velocity": 0.8818897637795275,
          "duration": 0.2857139999999987
        },
        {
          "name": "F#5",
          "midi": 78,
          "time": 37.999962000000096,
          "velocity": 0.8818897637795275,
          "duration": 0.2857139999999987
        },
        {
          "name": "E4",
          "midi": 64,
          "time": 38.285676000000095,
          "velocity": 0.8818897637795275,
          "duration": 0.2857139999999987
        },
        {
          "name": "E5",
          "midi": 76,
          "time": 38.285676000000095,
          "velocity": 0.8818897637795275,
          "duration": 0.2857139999999987
        },
        {
          "name": "G4",
          "midi": 67,
          "time": 38.57139000000009,
          "velocity": 0.8818897637795275,
          "duration": 0.2857139999999987
        },
        {
          "name": "G5",
          "midi": 79,
          "time": 38.57139000000009,
          "velocity": 0.8818897637795275,
          "duration": 0.2857139999999987
        },
        {
          "name": "F#4",
          "midi": 66,
          "time": 38.85710400000009,
          "velocity": 0.8818897637795275,
          "duration": 0.2857139999999987
        },
        {
          "name": "F#5",
          "midi": 78,
          "time": 38.85710400000009,
          "velocity": 0.8818897637795275,
          "duration": 0.2857139999999987
        },
        {
          "name": "E4",
          "midi": 64,
          "time": 39.14281800000009,
          "velocity": 0.8818897637795275,
          "duration": 0.2857139999999987
        },
        {
          "name": "E5",
          "midi": 76,
          "time": 39.14281800000009,
          "velocity": 0.8818897637795275,
          "duration": 0.2857139999999987
        },
        {
          "name": "G4",
          "midi": 67,
          "time": 39.42853200000009,
          "velocity": 0.8818897637795275,
          "duration": 0.2857139999999987
        },
        {
          "name": "E3",
          "midi": 52,
          "time": 39.42853200000009,
          "velocity": 0.8818897637795275,
          "duration": 0.5714279999999974
        },
        {
          "name": "G5",
          "midi": 79,
          "time": 39.42853200000009,
          "velocity": 0.8818897637795275,
          "duration": 0.2857139999999987
        },
        {
          "name": "E4",
          "midi": 64,
          "time": 39.42853200000009,
          "velocity": 0.8818897637795275,
          "duration": 0.5714279999999974
        },
        {
          "name": "F#4",
          "midi": 66,
          "time": 39.71424600000009,
          "velocity": 0.8818897637795275,
          "duration": 0.2857139999999987
        },
        {
          "name": "F#5",
          "midi": 78,
          "time": 39.71424600000009,
          "velocity": 0.8818897637795275,
          "duration": 0.2857139999999987
        },
        {
          "name": "E4",
          "midi": 64,
          "time": 39.99996000000009,
          "velocity": 0.8818897637795275,
          "duration": 0.2857139999999987
        },
        {
          "name": "E5",
          "midi": 76,
          "time": 39.99996000000009,
          "velocity": 0.8818897637795275,
          "duration": 0.2857139999999987
        },
        {
          "name": "G4",
          "midi": 67,
          "time": 40.285674000000085,
          "velocity": 0.8818897637795275,
          "duration": 0.2857139999999987
        },
        {
          "name": "G5",
          "midi": 79,
          "time": 40.285674000000085,
          "velocity": 0.8818897637795275,
          "duration": 0.2857139999999987
        },
        {
          "name": "F#4",
          "midi": 66,
          "time": 40.571388000000084,
          "velocity": 0.8818897637795275,
          "duration": 0.2857139999999987
        },
        {
          "name": "F#5",
          "midi": 78,
          "time": 40.571388000000084,
          "velocity": 0.8818897637795275,
          "duration": 0.2857139999999987
        },
        {
          "name": "E4",
          "midi": 64,
          "time": 40.85710200000008,
          "velocity": 0.8818897637795275,
          "duration": 0.2857139999999987
        },
        {
          "name": "E5",
          "midi": 76,
          "time": 40.85710200000008,
          "velocity": 0.8818897637795275,
          "duration": 0.2857139999999987
        },
        {
          "name": "G4",
          "midi": 67,
          "time": 41.14281600000008,
          "velocity": 0.8818897637795275,
          "duration": 0.2857139999999987
        },
        {
          "name": "E3",
          "midi": 52,
          "time": 41.14281600000008,
          "velocity": 0.8818897637795275,
          "duration": 0.5714279999999974
        },
        {
          "name": "G5",
          "midi": 79,
          "time": 41.14281600000008,
          "velocity": 0.8818897637795275,
          "duration": 0.2857139999999987
        },
        {
          "name": "E4",
          "midi": 64,
          "time": 41.14281600000008,
          "velocity": 0.8818897637795275,
          "duration": 0.5714279999999974
        },
        {
          "name": "F#4",
          "midi": 66,
          "time": 41.42853000000008,
          "velocity": 0.8818897637795275,
          "duration": 0.2857139999999987
        },
        {
          "name": "F#5",
          "midi": 78,
          "time": 41.42853000000008,
          "velocity": 0.8818897637795275,
          "duration": 0.2857139999999987
        },
        {
          "name": "E4",
          "midi": 64,
          "time": 41.71424400000008,
          "velocity": 0.8818897637795275,
          "duration": 0.2857139999999987
        },
        {
          "name": "E5",
          "midi": 76,
          "time": 41.71424400000008,
          "velocity": 0.8818897637795275,
          "duration": 0.2857139999999987
        },
        {
          "name": "G4",
          "midi": 67,
          "time": 41.99995800000008,
          "velocity": 0.8818897637795275,
          "duration": 0.2857139999999987
        },
        {
          "name": "G5",
          "midi": 79,
          "time": 41.99995800000008,
          "velocity": 0.8818897637795275,
          "duration": 0.2857139999999987
        },
        {
          "name": "F#4",
          "midi": 66,
          "time": 42.285672000000076,
          "velocity": 0.8818897637795275,
          "duration": 0.2857139999999987
        },
        {
          "name": "F#5",
          "midi": 78,
          "time": 42.285672000000076,
          "velocity": 0.8818897637795275,
          "duration": 0.2857139999999987
        },
        {
          "name": "E4",
          "midi": 64,
          "time": 42.571386000000075,
          "velocity": 0.8818897637795275,
          "duration": 0.2857139999999987
        },
        {
          "name": "E5",
          "midi": 76,
          "time": 42.571386000000075,
          "velocity": 0.8818897637795275,
          "duration": 0.2857139999999987
        },
        {
          "name": "E6",
          "midi": 88,
          "time": 42.857100000000074,
          "velocity": 0.8818897637795275,
          "duration": 1.7142839999999993
        },
        {
          "name": "E7",
          "midi": 100,
          "time": 42.857100000000074,
          "velocity": 0.8818897637795275,
          "duration": 1.7142839999999993
        },
        {
          "name": "E6",
          "midi": 88,
          "time": 44.57138400000007,
          "velocity": 0.8818897637795275,
          "duration": 1.7142839999999993
        },
        {
          "name": "E7",
          "midi": 100,
          "time": 44.57138400000007,
          "velocity": 0.8818897637795275,
          "duration": 1.7142839999999993
        },
        {
          "name": "E6",
          "midi": 88,
          "time": 46.28566800000007,
          "velocity": 0.8818897637795275,
          "duration": 1.7142839999999993
        },
        {
          "name": "E7",
          "midi": 100,
          "time": 46.28566800000007,
          "velocity": 0.8818897637795275,
          "duration": 1.7142839999999993
        },
        {
          "name": "E6",
          "midi": 88,
          "time": 47.99995200000007,
          "velocity": 0.8818897637795275,
          "duration": 1.7142839999999993
        },
        {
          "name": "E7",
          "midi": 100,
          "time": 47.99995200000007,
          "velocity": 0.8818897637795275,
          "duration": 1.7142839999999993
        },
        {
          "name": "G4",
          "midi": 67,
          "time": 49.71423600000007,
          "velocity": 0.8818897637795275,
          "duration": 0.2857139999999987
        },
        {
          "name": "G5",
          "midi": 79,
          "time": 49.71423600000007,
          "velocity": 0.8818897637795275,
          "duration": 0.2857139999999987
        },
        {
          "name": "F#4",
          "midi": 66,
          "time": 49.99995000000007,
          "velocity": 0.8818897637795275,
          "duration": 0.14285699999999935
        },
        {
          "name": "F#5",
          "midi": 78,
          "time": 49.99995000000007,
          "velocity": 0.8818897637795275,
          "duration": 0.14285699999999935
        },
        {
          "name": "G4",
          "midi": 67,
          "time": 50.14280700000007,
          "velocity": 0.8818897637795275,
          "duration": 0.14285699999999935
        },
        {
          "name": "G5",
          "midi": 79,
          "time": 50.14280700000007,
          "velocity": 0.8818897637795275,
          "duration": 0.14285699999999935
        },
        {
          "name": "E4",
          "midi": 64,
          "time": 50.28566400000007,
          "velocity": 0.8818897637795275,
          "duration": 0.2857139999999987
        },
        {
          "name": "E5",
          "midi": 76,
          "time": 50.28566400000007,
          "velocity": 0.8818897637795275,
          "duration": 0.2857139999999987
        },
        {
          "name": "G4",
          "midi": 67,
          "time": 50.57137800000007,
          "velocity": 0.8818897637795275,
          "duration": 0.2857139999999987
        },
        {
          "name": "G5",
          "midi": 79,
          "time": 50.57137800000007,
          "velocity": 0.8818897637795275,
          "duration": 0.2857139999999987
        },
        {
          "name": "F#4",
          "midi": 66,
          "time": 50.857092000000065,
          "velocity": 0.8818897637795275,
          "duration": 0.14285699999999935
        },
        {
          "name": "F#5",
          "midi": 78,
          "time": 50.857092000000065,
          "velocity": 0.8818897637795275,
          "duration": 0.14285699999999935
        },
        {
          "name": "G4",
          "midi": 67,
          "time": 50.999949000000065,
          "velocity": 0.8818897637795275,
          "duration": 0.14285699999999935
        },
        {
          "name": "G5",
          "midi": 79,
          "time": 50.999949000000065,
          "velocity": 0.8818897637795275,
          "duration": 0.14285699999999935
        },
        {
          "name": "E4",
          "midi": 64,
          "time": 51.142806000000064,
          "velocity": 0.8818897637795275,
          "duration": 0.2857139999999987
        },
        {
          "name": "E5",
          "midi": 76,
          "time": 51.142806000000064,
          "velocity": 0.8818897637795275,
          "duration": 0.2857139999999987
        },
        {
          "name": "G4",
          "midi": 67,
          "time": 51.42852000000006,
          "velocity": 0.8818897637795275,
          "duration": 0.2857139999999987
        },
        {
          "name": "G5",
          "midi": 79,
          "time": 51.42852000000006,
          "velocity": 0.8818897637795275,
          "duration": 0.2857139999999987
        },
        {
          "name": "F#4",
          "midi": 66,
          "time": 51.71423400000006,
          "velocity": 0.8818897637795275,
          "duration": 0.14285699999999935
        },
        {
          "name": "F#5",
          "midi": 78,
          "time": 51.71423400000006,
          "velocity": 0.8818897637795275,
          "duration": 0.14285699999999935
        },
        {
          "name": "G4",
          "midi": 67,
          "time": 51.85709100000006,
          "velocity": 0.8818897637795275,
          "duration": 0.14285699999999935
        },
        {
          "name": "G5",
          "midi": 79,
          "time": 51.85709100000006,
          "velocity": 0.8818897637795275,
          "duration": 0.14285699999999935
        },
        {
          "name": "E4",
          "midi": 64,
          "time": 51.99994800000006,
          "velocity": 0.8818897637795275,
          "duration": 0.2857139999999987
        },
        {
          "name": "E5",
          "midi": 76,
          "time": 51.99994800000006,
          "velocity": 0.8818897637795275,
          "duration": 0.2857139999999987
        },
        {
          "name": "G4",
          "midi": 67,
          "time": 52.28566200000006,
          "velocity": 0.8818897637795275,
          "duration": 0.2857139999999987
        },
        {
          "name": "G5",
          "midi": 79,
          "time": 52.28566200000006,
          "velocity": 0.8818897637795275,
          "duration": 0.2857139999999987
        },
        {
          "name": "F#4",
          "midi": 66,
          "time": 52.57137600000006,
          "velocity": 0.8818897637795275,
          "duration": 0.14285699999999935
        },
        {
          "name": "F#5",
          "midi": 78,
          "time": 52.57137600000006,
          "velocity": 0.8818897637795275,
          "duration": 0.14285699999999935
        },
        {
          "name": "G4",
          "midi": 67,
          "time": 52.71423300000006,
          "velocity": 0.8818897637795275,
          "duration": 0.14285699999999935
        },
        {
          "name": "G5",
          "midi": 79,
          "time": 52.71423300000006,
          "velocity": 0.8818897637795275,
          "duration": 0.14285699999999935
        },
        {
          "name": "E4",
          "midi": 64,
          "time": 52.857090000000056,
          "velocity": 0.8818897637795275,
          "duration": 0.2857139999999987
        },
        {
          "name": "E5",
          "midi": 76,
          "time": 52.857090000000056,
          "velocity": 0.8818897637795275,
          "duration": 0.2857139999999987
        },
        {
          "name": "B3",
          "midi": 59,
          "time": 53.142804000000055,
          "velocity": 0.8818897637795275,
          "duration": 0.14285699999999935
        },
        {
          "name": "B4",
          "midi": 71,
          "time": 53.142804000000055,
          "velocity": 0.8818897637795275,
          "duration": 0.14285699999999935
        },
        {
          "name": "C#4",
          "midi": 61,
          "time": 53.285661000000054,
          "velocity": 0.8818897637795275,
          "duration": 0.14285699999999935
        },
        {
          "name": "C#5",
          "midi": 73,
          "time": 53.285661000000054,
          "velocity": 0.8818897637795275,
          "duration": 0.14285699999999935
        },
        {
          "name": "D#4",
          "midi": 63,
          "time": 53.428518000000054,
          "velocity": 0.8818897637795275,
          "duration": 0.14285699999999935
        },
        {
          "name": "D#5",
          "midi": 75,
          "time": 53.428518000000054,
          "velocity": 0.8818897637795275,
          "duration": 0.14285699999999935
        },
        {
          "name": "E4",
          "midi": 64,
          "time": 53.57137500000005,
          "velocity": 0.8818897637795275,
          "duration": 0.14285699999999935
        },
        {
          "name": "E5",
          "midi": 76,
          "time": 53.57137500000005,
          "velocity": 0.8818897637795275,
          "duration": 0.14285699999999935
        },
        {
          "name": "F#4",
          "midi": 66,
          "time": 53.71423200000005,
          "velocity": 0.8818897637795275,
          "duration": 0.14285699999999935
        },
        {
          "name": "F#5",
          "midi": 78,
          "time": 53.71423200000005,
          "velocity": 0.8818897637795275,
          "duration": 0.14285699999999935
        },
        {
          "name": "G4",
          "midi": 67,
          "time": 53.85708900000005,
          "velocity": 0.8818897637795275,
          "duration": 0.14285699999999935
        },
        {
          "name": "G5",
          "midi": 79,
          "time": 53.85708900000005,
          "velocity": 0.8818897637795275,
          "duration": 0.14285699999999935
        },
        {
          "name": "A4",
          "midi": 69,
          "time": 53.99994600000005,
          "velocity": 0.8818897637795275,
          "duration": 0.14285699999999935
        },
        {
          "name": "A5",
          "midi": 81,
          "time": 53.99994600000005,
          "velocity": 0.8818897637795275,
          "duration": 0.14285699999999935
        },
        {
          "name": "B4",
          "midi": 71,
          "time": 54.14280300000005,
          "velocity": 0.8818897637795275,
          "duration": 0.14285699999999935
        },
        {
          "name": "B5",
          "midi": 83,
          "time": 54.14280300000005,
          "velocity": 0.8818897637795275,
          "duration": 0.14285699999999935
        },
        {
          "name": "A4",
          "midi": 69,
          "time": 54.28566000000005,
          "velocity": 0.8818897637795275,
          "duration": 0.2857139999999987
        },
        {
          "name": "A5",
          "midi": 81,
          "time": 54.28566000000005,
          "velocity": 0.8818897637795275,
          "duration": 0.2857139999999987
        },
        {
          "name": "G4",
          "midi": 67,
          "time": 54.57137400000005,
          "velocity": 0.8818897637795275,
          "duration": 0.2857139999999987
        },
        {
          "name": "G5",
          "midi": 79,
          "time": 54.57137400000005,
          "velocity": 0.8818897637795275,
          "duration": 0.2857139999999987
        },
        {
          "name": "B3",
          "midi": 59,
          "time": 54.85708800000005,
          "velocity": 0.8818897637795275,
          "duration": 0.14285699999999935
        },
        {
          "name": "B4",
          "midi": 71,
          "time": 54.85708800000005,
          "velocity": 0.8818897637795275,
          "duration": 0.14285699999999935
        },
        {
          "name": "C#4",
          "midi": 61,
          "time": 54.99994500000005,
          "velocity": 0.8818897637795275,
          "duration": 0.14285699999999935
        },
        {
          "name": "C#5",
          "midi": 73,
          "time": 54.99994500000005,
          "velocity": 0.8818897637795275,
          "duration": 0.14285699999999935
        },
        {
          "name": "D#4",
          "midi": 63,
          "time": 55.142802000000046,
          "velocity": 0.8818897637795275,
          "duration": 0.14285699999999935
        },
        {
          "name": "D#5",
          "midi": 75,
          "time": 55.142802000000046,
          "velocity": 0.8818897637795275,
          "duration": 0.14285699999999935
        },
        {
          "name": "E4",
          "midi": 64,
          "time": 55.285659000000045,
          "velocity": 0.8818897637795275,
          "duration": 0.14285699999999935
        },
        {
          "name": "E5",
          "midi": 76,
          "time": 55.285659000000045,
          "velocity": 0.8818897637795275,
          "duration": 0.14285699999999935
        },
        {
          "name": "F#4",
          "midi": 66,
          "time": 55.428516000000045,
          "velocity": 0.8818897637795275,
          "duration": 0.14285699999999935
        },
        {
          "name": "F#5",
          "midi": 78,
          "time": 55.428516000000045,
          "velocity": 0.8818897637795275,
          "duration": 0.14285699999999935
        },
        {
          "name": "G4",
          "midi": 67,
          "time": 55.571373000000044,
          "velocity": 0.8818897637795275,
          "duration": 0.14285699999999935
        },
        {
          "name": "G5",
          "midi": 79,
          "time": 55.571373000000044,
          "velocity": 0.8818897637795275,
          "duration": 0.14285699999999935
        },
        {
          "name": "A4",
          "midi": 69,
          "time": 55.71423000000004,
          "velocity": 0.8818897637795275,
          "duration": 0.14285699999999935
        },
        {
          "name": "A5",
          "midi": 81,
          "time": 55.71423000000004,
          "velocity": 0.8818897637795275,
          "duration": 0.14285699999999935
        },
        {
          "name": "B4",
          "midi": 71,
          "time": 55.85708700000004,
          "velocity": 0.8818897637795275,
          "duration": 0.14285699999999935
        },
        {
          "name": "B5",
          "midi": 83,
          "time": 55.85708700000004,
          "velocity": 0.8818897637795275,
          "duration": 0.14285699999999935
        },
        {
          "name": "A4",
          "midi": 69,
          "time": 55.99994400000004,
          "velocity": 0.8818897637795275,
          "duration": 0.2857139999999987
        },
        {
          "name": "A5",
          "midi": 81,
          "time": 55.99994400000004,
          "velocity": 0.8818897637795275,
          "duration": 0.2857139999999987
        },
        {
          "name": "F#4",
          "midi": 66,
          "time": 56.28565800000004,
          "velocity": 0.8818897637795275,
          "duration": 0.14285699999999935
        },
        {
          "name": "F#5",
          "midi": 78,
          "time": 56.28565800000004,
          "velocity": 0.8818897637795275,
          "duration": 0.14285699999999935
        },
        {
          "name": "G4",
          "midi": 67,
          "time": 56.42851500000004,
          "velocity": 0.8818897637795275,
          "duration": 0.14285699999999935
        },
        {
          "name": "G5",
          "midi": 79,
          "time": 56.42851500000004,
          "velocity": 0.8818897637795275,
          "duration": 0.14285699999999935
        },
        {
          "name": "A4",
          "midi": 69,
          "time": 56.57137200000004,
          "velocity": 0.8818897637795275,
          "duration": 0.14285699999999935
        },
        {
          "name": "A5",
          "midi": 81,
          "time": 56.57137200000004,
          "velocity": 0.8818897637795275,
          "duration": 0.14285699999999935
        },
        {
          "name": "B4",
          "midi": 71,
          "time": 56.71422900000004,
          "velocity": 0.8818897637795275,
          "duration": 0.14285699999999935
        },
        {
          "name": "B5",
          "midi": 83,
          "time": 56.71422900000004,
          "velocity": 0.8818897637795275,
          "duration": 0.14285699999999935
        },
        {
          "name": "C5",
          "midi": 72,
          "time": 56.85708600000004,
          "velocity": 0.8818897637795275,
          "duration": 0.14285699999999935
        },
        {
          "name": "C6",
          "midi": 84,
          "time": 56.85708600000004,
          "velocity": 0.8818897637795275,
          "duration": 0.14285699999999935
        },
        {
          "name": "B4",
          "midi": 71,
          "time": 56.99994300000004,
          "velocity": 0.8818897637795275,
          "duration": 0.14285699999999935
        },
        {
          "name": "B5",
          "midi": 83,
          "time": 56.99994300000004,
          "velocity": 0.8818897637795275,
          "duration": 0.14285699999999935
        },
        {
          "name": "A4",
          "midi": 69,
          "time": 57.14280000000004,
          "velocity": 0.8818897637795275,
          "duration": 0.14285699999999935
        },
        {
          "name": "A5",
          "midi": 81,
          "time": 57.14280000000004,
          "velocity": 0.8818897637795275,
          "duration": 0.14285699999999935
        },
        {
          "name": "B4",
          "midi": 71,
          "time": 57.285657000000036,
          "velocity": 0.8818897637795275,
          "duration": 0.14285699999999935
        },
        {
          "name": "B5",
          "midi": 83,
          "time": 57.285657000000036,
          "velocity": 0.8818897637795275,
          "duration": 0.14285699999999935
        },
        {
          "name": "G4",
          "midi": 67,
          "time": 57.428514000000035,
          "velocity": 0.8818897637795275,
          "duration": 0.14285699999999935
        },
        {
          "name": "G5",
          "midi": 79,
          "time": 57.428514000000035,
          "velocity": 0.8818897637795275,
          "duration": 0.14285699999999935
        },
        {
          "name": "F#4",
          "midi": 66,
          "time": 57.571371000000035,
          "velocity": 0.8818897637795275,
          "duration": 0.14285699999999935
        },
        {
          "name": "F#5",
          "midi": 78,
          "time": 57.571371000000035,
          "velocity": 0.8818897637795275,
          "duration": 0.14285699999999935
        },
        {
          "name": "G4",
          "midi": 67,
          "time": 57.714228000000034,
          "velocity": 0.8818897637795275,
          "duration": 0.2857139999999987
        },
        {
          "name": "G5",
          "midi": 79,
          "time": 57.714228000000034,
          "velocity": 0.8818897637795275,
          "duration": 0.2857139999999987
        },
        {
          "name": "D4",
          "midi": 62,
          "time": 57.99994200000003,
          "velocity": 0.8818897637795275,
          "duration": 0.2857139999999987
        },
        {
          "name": "D5",
          "midi": 74,
          "time": 57.99994200000003,
          "velocity": 0.8818897637795275,
          "duration": 0.2857139999999987
        },
        {
          "name": "B3",
          "midi": 59,
          "time": 58.28565600000003,
          "velocity": 0.8818897637795275,
          "duration": 0.14285699999999935
        },
        {
          "name": "B4",
          "midi": 71,
          "time": 58.28565600000003,
          "velocity": 0.8818897637795275,
          "duration": 0.14285699999999935
        },
        {
          "name": "C4",
          "midi": 60,
          "time": 58.42851300000003,
          "velocity": 0.8818897637795275,
          "duration": 0.14285699999999935
        },
        {
          "name": "C5",
          "midi": 72,
          "time": 58.42851300000003,
          "velocity": 0.8818897637795275,
          "duration": 0.14285699999999935
        },
        {
          "name": "B3",
          "midi": 59,
          "time": 58.57137000000003,
          "velocity": 0.8818897637795275,
          "duration": 0.14285699999999935
        },
        {
          "name": "B4",
          "midi": 71,
          "time": 58.57137000000003,
          "velocity": 0.8818897637795275,
          "duration": 0.14285699999999935
        },
        {
          "name": "A3",
          "midi": 57,
          "time": 58.71422700000003,
          "velocity": 0.8818897637795275,
          "duration": 0.14285699999999935
        },
        {
          "name": "A4",
          "midi": 69,
          "time": 58.71422700000003,
          "velocity": 0.8818897637795275,
          "duration": 0.14285699999999935
        },
        {
          "name": "G3",
          "midi": 55,
          "time": 58.85708400000003,
          "velocity": 0.8818897637795275,
          "duration": 0.14285699999999935
        },
        {
          "name": "G4",
          "midi": 67,
          "time": 58.85708400000003,
          "velocity": 0.8818897637795275,
          "duration": 0.14285699999999935
        },
        {
          "name": "F#3",
          "midi": 54,
          "time": 58.99994100000003,
          "velocity": 0.8818897637795275,
          "duration": 0.14285699999999935
        },
        {
          "name": "F#4",
          "midi": 66,
          "time": 58.99994100000003,
          "velocity": 0.8818897637795275,
          "duration": 0.14285699999999935
        },
        {
          "name": "G3",
          "midi": 55,
          "time": 59.14279800000003,
          "velocity": 0.8818897637795275,
          "duration": 0.2857139999999987
        },
        {
          "name": "G4",
          "midi": 67,
          "time": 59.14279800000003,
          "velocity": 0.8818897637795275,
          "duration": 0.2857139999999987
        },
        {
          "name": "B3",
          "midi": 59,
          "time": 59.428512000000026,
          "velocity": 0.8818897637795275,
          "duration": 0.2857139999999987
        },
        {
          "name": "B4",
          "midi": 71,
          "time": 59.428512000000026,
          "velocity": 0.8818897637795275,
          "duration": 0.2857139999999987
        },
        {
          "name": "D4",
          "midi": 62,
          "time": 59.714226000000025,
          "velocity": 0.8818897637795275,
          "duration": 0.2857139999999987
        },
        {
          "name": "D5",
          "midi": 74,
          "time": 59.714226000000025,
          "velocity": 0.8818897637795275,
          "duration": 0.2857139999999987
        },
        {
          "name": "G4",
          "midi": 67,
          "time": 59.999940000000024,
          "velocity": 0.8818897637795275,
          "duration": 0.2857139999999987
        },
        {
          "name": "G5",
          "midi": 79,
          "time": 59.999940000000024,
          "velocity": 0.8818897637795275,
          "duration": 0.2857139999999987
        },
        {
          "name": "G4",
          "midi": 67,
          "time": 60.28565400000002,
          "velocity": 0.8818897637795275,
          "duration": 0.14285699999999935
        },
        {
          "name": "G5",
          "midi": 79,
          "time": 60.28565400000002,
          "velocity": 0.8818897637795275,
          "duration": 0.14285699999999935
        },
        {
          "name": "F#4",
          "midi": 66,
          "time": 60.42851100000002,
          "velocity": 0.8818897637795275,
          "duration": 0.14285699999999935
        },
        {
          "name": "F#5",
          "midi": 78,
          "time": 60.42851100000002,
          "velocity": 0.8818897637795275,
          "duration": 0.14285699999999935
        },
        {
          "name": "G4",
          "midi": 67,
          "time": 60.57136800000002,
          "velocity": 0.8818897637795275,
          "duration": 0.14285699999999935
        },
        {
          "name": "G5",
          "midi": 79,
          "time": 60.57136800000002,
          "velocity": 0.8818897637795275,
          "duration": 0.14285699999999935
        },
        {
          "name": "A4",
          "midi": 69,
          "time": 60.71422500000002,
          "velocity": 0.8818897637795275,
          "duration": 0.14285699999999935
        },
        {
          "name": "A5",
          "midi": 81,
          "time": 60.71422500000002,
          "velocity": 0.8818897637795275,
          "duration": 0.14285699999999935
        },
        {
          "name": "B4",
          "midi": 71,
          "time": 60.85708200000002,
          "velocity": 0.8818897637795275,
          "duration": 0.2857139999999987
        },
        {
          "name": "B5",
          "midi": 83,
          "time": 60.85708200000002,
          "velocity": 0.8818897637795275,
          "duration": 0.2857139999999987
        },
        {
          "name": "D5",
          "midi": 74,
          "time": 61.14279600000002,
          "velocity": 0.8818897637795275,
          "duration": 0.42857099999999804
        },
        {
          "name": "D6",
          "midi": 86,
          "time": 61.14279600000002,
          "velocity": 0.8818897637795275,
          "duration": 0.42857099999999804
        },
        {
          "name": "C5",
          "midi": 72,
          "time": 61.571367000000016,
          "velocity": 0.8818897637795275,
          "duration": 0.14285699999999935
        },
        {
          "name": "C6",
          "midi": 84,
          "time": 61.571367000000016,
          "velocity": 0.8818897637795275,
          "duration": 0.14285699999999935
        },
        {
          "name": "B4",
          "midi": 71,
          "time": 61.714224000000016,
          "velocity": 0.8818897637795275,
          "duration": 0.14285699999999935
        },
        {
          "name": "B5",
          "midi": 83,
          "time": 61.714224000000016,
          "velocity": 0.8818897637795275,
          "duration": 0.14285699999999935
        },
        {
          "name": "A4",
          "midi": 69,
          "time": 61.857081000000015,
          "velocity": 0.8818897637795275,
          "duration": 0.14285699999999935
        },
        {
          "name": "A5",
          "midi": 81,
          "time": 61.857081000000015,
          "velocity": 0.8818897637795275,
          "duration": 0.14285699999999935
        },
        {
          "name": "G4",
          "midi": 67,
          "time": 61.999938000000014,
          "velocity": 0.8818897637795275,
          "duration": 0.14285699999999935
        },
        {
          "name": "G5",
          "midi": 79,
          "time": 61.999938000000014,
          "velocity": 0.8818897637795275,
          "duration": 0.14285699999999935
        },
        {
          "name": "F#4",
          "midi": 66,
          "time": 62.142795000000014,
          "velocity": 0.8818897637795275,
          "duration": 0.14285699999999935
        },
        {
          "name": "F#5",
          "midi": 78,
          "time": 62.142795000000014,
          "velocity": 0.8818897637795275,
          "duration": 0.14285699999999935
        },
        {
          "name": "G4",
          "midi": 67,
          "time": 62.28565200000001,
          "velocity": 0.8818897637795275,
          "duration": 0.14285699999999935
        },
        {
          "name": "G5",
          "midi": 79,
          "time": 62.28565200000001,
          "velocity": 0.8818897637795275,
          "duration": 0.14285699999999935
        },
        {
          "name": "D4",
          "midi": 62,
          "time": 62.42850900000001,
          "velocity": 0.8818897637795275,
          "duration": 0.14285699999999935
        },
        {
          "name": "D5",
          "midi": 74,
          "time": 62.42850900000001,
          "velocity": 0.8818897637795275,
          "duration": 0.14285699999999935
        },
        {
          "name": "B3",
          "midi": 59,
          "time": 62.57136600000001,
          "velocity": 0.8818897637795275,
          "duration": 0.2857139999999987
        },
        {
          "name": "B4",
          "midi": 71,
          "time": 62.57136600000001,
          "velocity": 0.8818897637795275,
          "duration": 0.2857139999999987
        },
        {
          "name": "D4",
          "midi": 62,
          "time": 62.85708000000001,
          "velocity": 0.8818897637795275,
          "duration": 0.2857139999999987
        },
        {
          "name": "D5",
          "midi": 74,
          "time": 62.85708000000001,
          "velocity": 0.8818897637795275,
          "duration": 0.2857139999999987
        },
        {
          "name": "G4",
          "midi": 67,
          "time": 63.14279400000001,
          "velocity": 0.8818897637795275,
          "duration": 0.2857139999999987
        },
        {
          "name": "G5",
          "midi": 79,
          "time": 63.14279400000001,
          "velocity": 0.8818897637795275,
          "duration": 0.2857139999999987
        },
        {
          "name": "F#4",
          "midi": 66,
          "time": 63.42850800000001,
          "velocity": 0.8818897637795275,
          "duration": 0.14285699999999935
        },
        {
          "name": "F#5",
          "midi": 78,
          "time": 63.42850800000001,
          "velocity": 0.8818897637795275,
          "duration": 0.14285699999999935
        },
        {
          "name": "E4",
          "midi": 64,
          "time": 63.57136500000001,
          "velocity": 0.8818897637795275,
          "duration": 0.14285699999999935
        },
        {
          "name": "E5",
          "midi": 76,
          "time": 63.57136500000001,
          "velocity": 0.8818897637795275,
          "duration": 0.14285699999999935
        },
        {
          "name": "D4",
          "midi": 62,
          "time": 63.71422200000001,
          "velocity": 0.8818897637795275,
          "duration": 0.42857100000000514
        },
        {
          "name": "D5",
          "midi": 74,
          "time": 63.71422200000001,
          "velocity": 0.8818897637795275,
          "duration": 0.42857100000000514
        },
        {
          "name": "A4",
          "midi": 69,
          "time": 64.14279300000001,
          "velocity": 0.8818897637795275,
          "duration": 0.14285700000000645
        },
        {
          "name": "A5",
          "midi": 81,
          "time": 64.14279300000001,
          "velocity": 0.8818897637795275,
          "duration": 0.14285700000000645
        },
        {
          "name": "D5",
          "midi": 74,
          "time": 64.28565000000002,
          "velocity": 0.8818897637795275,
          "duration": 0.42857100000000514
        },
        {
          "name": "D6",
          "midi": 86,
          "time": 64.28565000000002,
          "velocity": 0.8818897637795275,
          "duration": 0.42857100000000514
        },
        {
          "name": "E5",
          "midi": 76,
          "time": 64.71422100000002,
          "velocity": 0.8818897637795275,
          "duration": 0.42857100000000514
        },
        {
          "name": "E6",
          "midi": 88,
          "time": 64.71422100000002,
          "velocity": 0.8818897637795275,
          "duration": 0.42857100000000514
        },
        {
          "name": "F#5",
          "midi": 78,
          "time": 65.14279200000003,
          "velocity": 0.8818897637795275,
          "duration": 0.42857100000000514
        },
        {
          "name": "F#6",
          "midi": 90,
          "time": 65.14279200000003,
          "velocity": 0.8818897637795275,
          "duration": 0.42857100000000514
        },
        {
          "name": "D5",
          "midi": 74,
          "time": 65.57136300000003,
          "velocity": 0.8818897637795275,
          "duration": 0.42857100000000514
        },
        {
          "name": "D6",
          "midi": 86,
          "time": 65.57136300000003,
          "velocity": 0.8818897637795275,
          "duration": 0.42857100000000514
        },
        {
          "name": "A4",
          "midi": 69,
          "time": 65.99993400000004,
          "velocity": 0.8818897637795275,
          "duration": 0.42857100000000514
        },
        {
          "name": "A5",
          "midi": 81,
          "time": 65.99993400000004,
          "velocity": 0.8818897637795275,
          "duration": 0.42857100000000514
        },
        {
          "name": "G4",
          "midi": 67,
          "time": 66.42850500000004,
          "velocity": 0.8818897637795275,
          "duration": 0.42857100000000514
        },
        {
          "name": "G5",
          "midi": 79,
          "time": 66.42850500000004,
          "velocity": 0.8818897637795275,
          "duration": 0.42857100000000514
        },
        {
          "name": "F#4",
          "midi": 66,
          "time": 66.85707600000005,
          "velocity": 0.8818897637795275,
          "duration": 0.42857100000000514
        },
        {
          "name": "F#5",
          "midi": 78,
          "time": 66.85707600000005,
          "velocity": 0.8818897637795275,
          "duration": 0.42857100000000514
        },
        {
          "name": "D4",
          "midi": 62,
          "time": 67.28564700000005,
          "velocity": 0.8818897637795275,
          "duration": 0.42857100000000514
        },
        {
          "name": "D5",
          "midi": 74,
          "time": 67.28564700000005,
          "velocity": 0.8818897637795275,
          "duration": 0.42857100000000514
        },
        {
          "name": "A3",
          "midi": 57,
          "time": 67.71421800000006,
          "velocity": 0.8818897637795275,
          "duration": 0.8571419999999961
        },
        {
          "name": "A4",
          "midi": 69,
          "time": 67.71421800000006,
          "velocity": 0.8818897637795275,
          "duration": 0.8571419999999961
        },
        {
          "name": "A3",
          "midi": 57,
          "time": 68.57136000000006,
          "velocity": 0.8818897637795275,
          "duration": 0.42857100000000514
        },
        {
          "name": "A4",
          "midi": 69,
          "time": 68.57136000000006,
          "velocity": 0.8818897637795275,
          "duration": 0.42857100000000514
        },
        {
          "name": "A3",
          "midi": 57,
          "time": 68.99993100000006,
          "velocity": 0.8818897637795275,
          "duration": 0.14285700000000645
        },
        {
          "name": "A4",
          "midi": 69,
          "time": 68.99993100000006,
          "velocity": 0.8818897637795275,
          "duration": 0.14285700000000645
        },
        {
          "name": "D4",
          "midi": 62,
          "time": 69.14278800000007,
          "velocity": 0.8818897637795275,
          "duration": 0.14285700000000645
        },
        {
          "name": "D5",
          "midi": 74,
          "time": 69.14278800000007,
          "velocity": 0.8818897637795275,
          "duration": 0.14285700000000645
        },
        {
          "name": "G4",
          "midi": 67,
          "time": 70.28564400000008,
          "velocity": 0.8818897637795275,
          "duration": 0.2857139999999987
        },
        {
          "name": "G5",
          "midi": 79,
          "time": 70.28564400000008,
          "velocity": 0.8818897637795275,
          "duration": 0.2857139999999987
        },
        {
          "name": "F#4",
          "midi": 66,
          "time": 70.57135800000007,
          "velocity": 0.8818897637795275,
          "duration": 0.14285700000000645
        },
        {
          "name": "F#5",
          "midi": 78,
          "time": 70.57135800000007,
          "velocity": 0.8818897637795275,
          "duration": 0.14285700000000645
        },
        {
          "name": "G4",
          "midi": 67,
          "time": 70.71421500000008,
          "velocity": 0.8818897637795275,
          "duration": 0.14285700000000645
        },
        {
          "name": "G5",
          "midi": 79,
          "time": 70.71421500000008,
          "velocity": 0.8818897637795275,
          "duration": 0.14285700000000645
        },
        {
          "name": "E4",
          "midi": 64,
          "time": 70.85707200000009,
          "velocity": 0.8818897637795275,
          "duration": 0.2857139999999987
        },
        {
          "name": "E5",
          "midi": 76,
          "time": 70.85707200000009,
          "velocity": 0.8818897637795275,
          "duration": 0.2857139999999987
        },
        {
          "name": "G4",
          "midi": 67,
          "time": 71.14278600000009,
          "velocity": 0.8818897637795275,
          "duration": 0.2857139999999987
        },
        {
          "name": "G5",
          "midi": 79,
          "time": 71.14278600000009,
          "velocity": 0.8818897637795275,
          "duration": 0.2857139999999987
        },
        {
          "name": "F#4",
          "midi": 66,
          "time": 71.42850000000008,
          "velocity": 0.8818897637795275,
          "duration": 0.14285700000000645
        },
        {
          "name": "F#5",
          "midi": 78,
          "time": 71.42850000000008,
          "velocity": 0.8818897637795275,
          "duration": 0.14285700000000645
        },
        {
          "name": "G4",
          "midi": 67,
          "time": 71.57135700000009,
          "velocity": 0.8818897637795275,
          "duration": 0.14285700000000645
        },
        {
          "name": "G5",
          "midi": 79,
          "time": 71.57135700000009,
          "velocity": 0.8818897637795275,
          "duration": 0.14285700000000645
        },
        {
          "name": "E4",
          "midi": 64,
          "time": 71.7142140000001,
          "velocity": 0.8818897637795275,
          "duration": 0.2857139999999987
        },
        {
          "name": "E5",
          "midi": 76,
          "time": 71.7142140000001,
          "velocity": 0.8818897637795275,
          "duration": 0.2857139999999987
        },
        {
          "name": "G4",
          "midi": 67,
          "time": 71.9999280000001,
          "velocity": 0.8818897637795275,
          "duration": 0.2857139999999987
        },
        {
          "name": "G5",
          "midi": 79,
          "time": 71.9999280000001,
          "velocity": 0.8818897637795275,
          "duration": 0.2857139999999987
        },
        {
          "name": "F#4",
          "midi": 66,
          "time": 72.2856420000001,
          "velocity": 0.8818897637795275,
          "duration": 0.14285700000000645
        },
        {
          "name": "F#5",
          "midi": 78,
          "time": 72.2856420000001,
          "velocity": 0.8818897637795275,
          "duration": 0.14285700000000645
        },
        {
          "name": "G4",
          "midi": 67,
          "time": 72.4284990000001,
          "velocity": 0.8818897637795275,
          "duration": 0.14285700000000645
        },
        {
          "name": "G5",
          "midi": 79,
          "time": 72.4284990000001,
          "velocity": 0.8818897637795275,
          "duration": 0.14285700000000645
        },
        {
          "name": "E4",
          "midi": 64,
          "time": 72.57135600000011,
          "velocity": 0.8818897637795275,
          "duration": 0.2857139999999987
        },
        {
          "name": "E5",
          "midi": 76,
          "time": 72.57135600000011,
          "velocity": 0.8818897637795275,
          "duration": 0.2857139999999987
        },
        {
          "name": "G4",
          "midi": 67,
          "time": 72.8570700000001,
          "velocity": 0.8818897637795275,
          "duration": 0.2857139999999987
        },
        {
          "name": "G5",
          "midi": 79,
          "time": 72.8570700000001,
          "velocity": 0.8818897637795275,
          "duration": 0.2857139999999987
        },
        {
          "name": "F#4",
          "midi": 66,
          "time": 73.1427840000001,
          "velocity": 0.8818897637795275,
          "duration": 0.14285700000000645
        },
        {
          "name": "F#5",
          "midi": 78,
          "time": 73.1427840000001,
          "velocity": 0.8818897637795275,
          "duration": 0.14285700000000645
        },
        {
          "name": "G4",
          "midi": 67,
          "time": 73.28564100000011,
          "velocity": 0.8818897637795275,
          "duration": 0.14285700000000645
        },
        {
          "name": "G5",
          "midi": 79,
          "time": 73.28564100000011,
          "velocity": 0.8818897637795275,
          "duration": 0.14285700000000645
        },
        {
          "name": "E4",
          "midi": 64,
          "time": 73.42849800000012,
          "velocity": 0.8818897637795275,
          "duration": 0.2857139999999987
        },
        {
          "name": "E5",
          "midi": 76,
          "time": 73.42849800000012,
          "velocity": 0.8818897637795275,
          "duration": 0.2857139999999987
        },
        {
          "name": "E5",
          "midi": 76,
          "time": 73.71421200000012,
          "velocity": 0.8818897637795275,
          "duration": 0.8571419999999961
        },
        {
          "name": "E6",
          "midi": 88,
          "time": 73.71421200000012,
          "velocity": 0.8818897637795275,
          "duration": 0.8571419999999961
        },
        {
          "name": "D5",
          "midi": 74,
          "time": 74.57135400000011,
          "velocity": 0.8818897637795275,
          "duration": 0.8571419999999961
        },
        {
          "name": "D6",
          "midi": 86,
          "time": 74.57135400000011,
          "velocity": 0.8818897637795275,
          "duration": 0.8571419999999961
        },
        {
          "name": "C5",
          "midi": 72,
          "time": 75.42849600000011,
          "velocity": 0.8818897637795275,
          "duration": 0.5714279999999974
        },
        {
          "name": "C6",
          "midi": 84,
          "time": 75.42849600000011,
          "velocity": 0.8818897637795275,
          "duration": 0.5714279999999974
        },
        {
          "name": "C5",
          "midi": 72,
          "time": 75.9999240000001,
          "velocity": 0.8818897637795275,
          "duration": 0.14285700000000645
        },
        {
          "name": "C6",
          "midi": 84,
          "time": 75.9999240000001,
          "velocity": 0.8818897637795275,
          "duration": 0.14285700000000645
        },
        {
          "name": "D5",
          "midi": 74,
          "time": 76.14278100000011,
          "velocity": 0.8818897637795275,
          "duration": 0.14285700000000645
        },
        {
          "name": "D6",
          "midi": 86,
          "time": 76.14278100000011,
          "velocity": 0.8818897637795275,
          "duration": 0.14285700000000645
        },
        {
          "name": "B4",
          "midi": 71,
          "time": 76.28563800000012,
          "velocity": 0.8818897637795275,
          "duration": 0.8571419999999961
        },
        {
          "name": "B5",
          "midi": 83,
          "time": 76.28563800000012,
          "velocity": 0.8818897637795275,
          "duration": 0.8571419999999961
        },
        {
          "name": "E6",
          "midi": 88,
          "time": 77.14278000000012,
          "velocity": 0.8818897637795275,
          "duration": 1.7142840000000064
        },
        {
          "name": "B5",
          "midi": 83,
          "time": 77.14278000000012,
          "velocity": 0.8818897637795275,
          "duration": 1.7142840000000064
        },
        {
          "name": "E5",
          "midi": 76,
          "time": 77.14278000000012,
          "velocity": 0.8818897637795275,
          "duration": 1.7142840000000064
        },
        {
          "name": "E6",
          "midi": 88,
          "time": 78.85706400000012,
          "velocity": 0.8818897637795275,
          "duration": 0.8571419999999961
        },
        {
          "name": "B5",
          "midi": 83,
          "time": 78.85706400000012,
          "velocity": 0.8818897637795275,
          "duration": 0.8571419999999961
        },
        {
          "name": "E5",
          "midi": 76,
          "time": 78.85706400000012,
          "velocity": 0.8818897637795275,
          "duration": 0.8571419999999961
        },
        {
          "name": "E6",
          "midi": 88,
          "time": 79.71420600000012,
          "velocity": 0.8818897637795275,
          "duration": 0.8571419999999961
        },
        {
          "name": "D6",
          "midi": 86,
          "time": 79.71420600000012,
          "velocity": 0.8818897637795275,
          "duration": 0.8571419999999961
        },
        {
          "name": "E5",
          "midi": 76,
          "time": 79.71420600000012,
          "velocity": 0.8818897637795275,
          "duration": 0.8571419999999961
        },
        {
          "name": "E6",
          "midi": 88,
          "time": 80.57134800000011,
          "velocity": 0.8818897637795275,
          "duration": 1.7142840000000064
        },
        {
          "name": "C6",
          "midi": 84,
          "time": 80.57134800000011,
          "velocity": 0.8818897637795275,
          "duration": 1.7142840000000064
        },
        {
          "name": "E5",
          "midi": 76,
          "time": 80.57134800000011,
          "velocity": 0.8818897637795275,
          "duration": 1.7142840000000064
        },
        {
          "name": "E6",
          "midi": 88,
          "time": 82.28563200000012,
          "velocity": 0.8818897637795275,
          "duration": 1.7142840000000064
        },
        {
          "name": "C6",
          "midi": 84,
          "time": 82.28563200000012,
          "velocity": 0.8818897637795275,
          "duration": 1.7142840000000064
        },
        {
          "name": "E5",
          "midi": 76,
          "time": 82.28563200000012,
          "velocity": 0.8818897637795275,
          "duration": 1.7142840000000064
        },
        {
          "name": "E6",
          "midi": 88,
          "time": 83.99991600000013,
          "velocity": 0.8818897637795275,
          "duration": 1.7142840000000064
        },
        {
          "name": "C6",
          "midi": 84,
          "time": 83.99991600000013,
          "velocity": 0.8818897637795275,
          "duration": 1.7142840000000064
        },
        {
          "name": "E5",
          "midi": 76,
          "time": 83.99991600000013,
          "velocity": 0.8818897637795275,
          "duration": 1.7142840000000064
        },
        {
          "name": "E6",
          "midi": 88,
          "time": 85.71420000000013,
          "velocity": 0.8818897637795275,
          "duration": 0.8571419999999961
        },
        {
          "name": "C6",
          "midi": 84,
          "time": 85.71420000000013,
          "velocity": 0.8818897637795275,
          "duration": 0.8571419999999961
        },
        {
          "name": "E5",
          "midi": 76,
          "time": 85.71420000000013,
          "velocity": 0.8818897637795275,
          "duration": 0.8571419999999961
        },
        {
          "name": "E6",
          "midi": 88,
          "time": 86.57134200000013,
          "velocity": 0.8818897637795275,
          "duration": 0.8571419999999961
        },
        {
          "name": "C6",
          "midi": 84,
          "time": 86.57134200000013,
          "velocity": 0.8818897637795275,
          "duration": 0.8571419999999961
        },
        {
          "name": "E5",
          "midi": 76,
          "time": 86.57134200000013,
          "velocity": 0.8818897637795275,
          "duration": 0.8571419999999961
        },
        {
          "name": "E6",
          "midi": 88,
          "time": 87.42848400000013,
          "velocity": 0.8818897637795275,
          "duration": 1.7142840000000064
        },
        {
          "name": "C6",
          "midi": 84,
          "time": 87.42848400000013,
          "velocity": 0.8818897637795275,
          "duration": 1.7142840000000064
        },
        {
          "name": "E5",
          "midi": 76,
          "time": 87.42848400000013,
          "velocity": 0.8818897637795275,
          "duration": 1.7142840000000064
        },
        {
          "name": "E6",
          "midi": 88,
          "time": 89.14276800000013,
          "velocity": 0.8818897637795275,
          "duration": 0.8571419999999961
        },
        {
          "name": "C6",
          "midi": 84,
          "time": 89.14276800000013,
          "velocity": 0.8818897637795275,
          "duration": 0.8571419999999961
        },
        {
          "name": "E5",
          "midi": 76,
          "time": 89.14276800000013,
          "velocity": 0.8818897637795275,
          "duration": 0.8571419999999961
        },
        {
          "name": "G6",
          "midi": 91,
          "time": 90.85705200000012,
          "velocity": 0.8818897637795275,
          "duration": 1.7142840000000064
        },
        {
          "name": "E6",
          "midi": 88,
          "time": 90.85705200000012,
          "velocity": 0.8818897637795275,
          "duration": 1.7142840000000064
        },
        {
          "name": "G6",
          "midi": 91,
          "time": 92.57133600000013,
          "velocity": 0.8818897637795275,
          "duration": 0.8571419999999961
        },
        {
          "name": "E6",
          "midi": 88,
          "time": 92.57133600000013,
          "velocity": 0.8818897637795275,
          "duration": 0.8571419999999961
        },
        {
          "name": "G6",
          "midi": 91,
          "time": 93.42847800000013,
          "velocity": 0.8818897637795275,
          "duration": 0.8571419999999961
        },
        {
          "name": "F6",
          "midi": 89,
          "time": 93.42847800000013,
          "velocity": 0.8818897637795275,
          "duration": 0.8571419999999961
        },
        {
          "name": "G6",
          "midi": 91,
          "time": 94.28562000000012,
          "velocity": 0.8818897637795275,
          "duration": 1.7142840000000064
        },
        {
          "name": "E6",
          "midi": 88,
          "time": 94.28562000000012,
          "velocity": 0.8818897637795275,
          "duration": 1.7142840000000064
        },
        {
          "name": "G6",
          "midi": 91,
          "time": 95.99990400000013,
          "velocity": 0.8818897637795275,
          "duration": 0.8571419999999961
        },
        {
          "name": "E6",
          "midi": 88,
          "time": 95.99990400000013,
          "velocity": 0.8818897637795275,
          "duration": 0.8571419999999961
        },
        {
          "name": "A4",
          "midi": 69,
          "time": 105.42846600000013,
          "velocity": 0.8818897637795275,
          "duration": 0.8571419999999961
        },
        {
          "name": "A7",
          "midi": 105,
          "time": 105.42846600000013,
          "velocity": 0.8818897637795275,
          "duration": 0.8571419999999961
        },
        {
          "name": "A5",
          "midi": 81,
          "time": 105.42846600000013,
          "velocity": 0.8818897637795275,
          "duration": 0.8571419999999961
        },
        {
          "name": "A6",
          "midi": 93,
          "time": 105.42846600000013,
          "velocity": 0.8818897637795275,
          "duration": 0.8571419999999961
        },
        {
          "name": "A4",
          "midi": 69,
          "time": 106.28560800000012,
          "velocity": 0.8818897637795275,
          "duration": 1.7142840000000064
        },
        {
          "name": "A7",
          "midi": 105,
          "time": 106.28560800000012,
          "velocity": 0.8818897637795275,
          "duration": 1.7142840000000064
        },
        {
          "name": "A5",
          "midi": 81,
          "time": 106.28560800000012,
          "velocity": 0.8818897637795275,
          "duration": 1.7142840000000064
        },
        {
          "name": "A6",
          "midi": 93,
          "time": 106.28560800000012,
          "velocity": 0.8818897637795275,
          "duration": 1.7142840000000064
        },
        {
          "name": "A5",
          "midi": 81,
          "time": 107.99989200000013,
          "velocity": 0.8818897637795275,
          "duration": 1.7142840000000064
        },
        {
          "name": "A7",
          "midi": 105,
          "time": 107.99989200000013,
          "velocity": 0.8818897637795275,
          "duration": 1.7142840000000064
        },
        {
          "name": "A6",
          "midi": 93,
          "time": 107.99989200000013,
          "velocity": 0.8818897637795275,
          "duration": 1.7142840000000064
        },
        {
          "name": "A5",
          "midi": 81,
          "time": 109.71417600000014,
          "velocity": 0.8818897637795275,
          "duration": 1.7142840000000064
        },
        {
          "name": "A7",
          "midi": 105,
          "time": 109.71417600000014,
          "velocity": 0.8818897637795275,
          "duration": 1.7142840000000064
        },
        {
          "name": "A6",
          "midi": 93,
          "time": 109.71417600000014,
          "velocity": 0.8818897637795275,
          "duration": 1.7142840000000064
        },
        {
          "name": "A3",
          "midi": 57,
          "time": 111.42846000000014,
          "velocity": 0.8818897637795275,
          "duration": 0.42857100000000514
        },
        {
          "name": "A6",
          "midi": 93,
          "time": 111.42846000000014,
          "velocity": 0.8818897637795275,
          "duration": 0.2857139999999987
        },
        {
          "name": "A4",
          "midi": 69,
          "time": 111.42846000000014,
          "velocity": 0.8818897637795275,
          "duration": 0.42857100000000514
        },
        {
          "name": "A5",
          "midi": 81,
          "time": 111.42846000000014,
          "velocity": 0.8818897637795275,
          "duration": 0.2857139999999987
        },
        {
          "name": "A6",
          "midi": 93,
          "time": 111.71417400000014,
          "velocity": 0.8818897637795275,
          "duration": 0.2857140000000129
        },
        {
          "name": "A5",
          "midi": 81,
          "time": 111.71417400000014,
          "velocity": 0.8818897637795275,
          "duration": 0.2857140000000129
        },
        {
          "name": "A3",
          "midi": 57,
          "time": 111.85703100000015,
          "velocity": 0.8818897637795275,
          "duration": 0.2857140000000129
        },
        {
          "name": "A4",
          "midi": 69,
          "time": 111.85703100000015,
          "velocity": 0.8818897637795275,
          "duration": 0.2857140000000129
        },
        {
          "name": "A6",
          "midi": 93,
          "time": 111.99988800000015,
          "velocity": 0.8818897637795275,
          "duration": 0.2857140000000129
        },
        {
          "name": "A5",
          "midi": 81,
          "time": 111.99988800000015,
          "velocity": 0.8818897637795275,
          "duration": 0.2857140000000129
        },
        {
          "name": "A3",
          "midi": 57,
          "time": 112.14274500000016,
          "velocity": 0.8818897637795275,
          "duration": 0.14285700000000645
        },
        {
          "name": "A4",
          "midi": 69,
          "time": 112.14274500000016,
          "velocity": 0.8818897637795275,
          "duration": 0.14285700000000645
        },
        {
          "name": "A3",
          "midi": 57,
          "time": 112.28560200000017,
          "velocity": 0.8818897637795275,
          "duration": 0.42857100000000514
        },
        {
          "name": "A6",
          "midi": 93,
          "time": 112.28560200000017,
          "velocity": 0.8818897637795275,
          "duration": 0.2857139999999987
        },
        {
          "name": "A4",
          "midi": 69,
          "time": 112.28560200000017,
          "velocity": 0.8818897637795275,
          "duration": 0.42857100000000514
        },
        {
          "name": "A5",
          "midi": 81,
          "time": 112.28560200000017,
          "velocity": 0.8818897637795275,
          "duration": 0.2857139999999987
        },
        {
          "name": "A6",
          "midi": 93,
          "time": 112.57131600000017,
          "velocity": 0.8818897637795275,
          "duration": 0.2857140000000129
        },
        {
          "name": "A5",
          "midi": 81,
          "time": 112.57131600000017,
          "velocity": 0.8818897637795275,
          "duration": 0.2857140000000129
        },
        {
          "name": "A3",
          "midi": 57,
          "time": 112.71417300000017,
          "velocity": 0.8818897637795275,
          "duration": 0.2857140000000129
        },
        {
          "name": "A4",
          "midi": 69,
          "time": 112.71417300000017,
          "velocity": 0.8818897637795275,
          "duration": 0.2857140000000129
        },
        {
          "name": "A6",
          "midi": 93,
          "time": 112.85703000000018,
          "velocity": 0.8818897637795275,
          "duration": 0.2857140000000129
        },
        {
          "name": "A5",
          "midi": 81,
          "time": 112.85703000000018,
          "velocity": 0.8818897637795275,
          "duration": 0.2857140000000129
        },
        {
          "name": "A3",
          "midi": 57,
          "time": 112.99988700000019,
          "velocity": 0.8818897637795275,
          "duration": 0.14285700000000645
        },
        {
          "name": "A4",
          "midi": 69,
          "time": 112.99988700000019,
          "velocity": 0.8818897637795275,
          "duration": 0.14285700000000645
        },
        {
          "name": "A3",
          "midi": 57,
          "time": 113.14274400000019,
          "velocity": 0.8818897637795275,
          "duration": 0.42857100000000514
        },
        {
          "name": "A6",
          "midi": 93,
          "time": 113.14274400000019,
          "velocity": 0.8818897637795275,
          "duration": 0.2857139999999987
        },
        {
          "name": "A4",
          "midi": 69,
          "time": 113.14274400000019,
          "velocity": 0.8818897637795275,
          "duration": 0.42857100000000514
        },
        {
          "name": "A5",
          "midi": 81,
          "time": 113.14274400000019,
          "velocity": 0.8818897637795275,
          "duration": 0.2857139999999987
        },
        {
          "name": "A6",
          "midi": 93,
          "time": 113.42845800000019,
          "velocity": 0.8818897637795275,
          "duration": 0.2857140000000129
        },
        {
          "name": "A5",
          "midi": 81,
          "time": 113.42845800000019,
          "velocity": 0.8818897637795275,
          "duration": 0.2857140000000129
        },
        {
          "name": "A3",
          "midi": 57,
          "time": 113.5713150000002,
          "velocity": 0.8818897637795275,
          "duration": 0.2857140000000129
        },
        {
          "name": "A4",
          "midi": 69,
          "time": 113.5713150000002,
          "velocity": 0.8818897637795275,
          "duration": 0.2857140000000129
        },
        {
          "name": "A6",
          "midi": 93,
          "time": 113.7141720000002,
          "velocity": 0.8818897637795275,
          "duration": 0.2857140000000129
        },
        {
          "name": "A5",
          "midi": 81,
          "time": 113.7141720000002,
          "velocity": 0.8818897637795275,
          "duration": 0.2857140000000129
        },
        {
          "name": "A3",
          "midi": 57,
          "time": 113.85702900000021,
          "velocity": 0.8818897637795275,
          "duration": 0.14285700000000645
        },
        {
          "name": "A4",
          "midi": 69,
          "time": 113.85702900000021,
          "velocity": 0.8818897637795275,
          "duration": 0.14285700000000645
        },
        {
          "name": "F#3",
          "midi": 54,
          "time": 113.99988600000022,
          "velocity": 0.8818897637795275,
          "duration": 0.42857100000000514
        },
        {
          "name": "A4",
          "midi": 69,
          "time": 113.99988600000022,
          "velocity": 0.8818897637795275,
          "duration": 0.2857139999999987
        },
        {
          "name": "A6",
          "midi": 93,
          "time": 113.99988600000022,
          "velocity": 0.8818897637795275,
          "duration": 0.2857139999999987
        },
        {
          "name": "F#4",
          "midi": 66,
          "time": 113.99988600000022,
          "velocity": 0.8818897637795275,
          "duration": 0.42857100000000514
        },
        {
          "name": "A5",
          "midi": 81,
          "time": 113.99988600000022,
          "velocity": 0.8818897637795275,
          "duration": 0.2857139999999987
        },
        {
          "name": "A4",
          "midi": 69,
          "time": 114.28560000000022,
          "velocity": 0.8818897637795275,
          "duration": 0.2857140000000129
        },
        {
          "name": "A6",
          "midi": 93,
          "time": 114.28560000000022,
          "velocity": 0.8818897637795275,
          "duration": 0.2857140000000129
        },
        {
          "name": "A5",
          "midi": 81,
          "time": 114.28560000000022,
          "velocity": 0.8818897637795275,
          "duration": 0.2857140000000129
        },
        {
          "name": "G3",
          "midi": 55,
          "time": 114.42845700000022,
          "velocity": 0.8818897637795275,
          "duration": 0.42857100000000514
        },
        {
          "name": "G4",
          "midi": 67,
          "time": 114.42845700000022,
          "velocity": 0.8818897637795275,
          "duration": 0.42857100000000514
        },
        {
          "name": "A4",
          "midi": 69,
          "time": 114.57131400000023,
          "velocity": 0.8818897637795275,
          "duration": 0.2857139999999987
        },
        {
          "name": "A6",
          "midi": 93,
          "time": 114.57131400000023,
          "velocity": 0.8818897637795275,
          "duration": 0.2857139999999987
        },
        {
          "name": "A5",
          "midi": 81,
          "time": 114.57131400000023,
          "velocity": 0.8818897637795275,
          "duration": 0.2857139999999987
        },
        {
          "name": "A3",
          "midi": 57,
          "time": 114.85702800000023,
          "velocity": 0.8818897637795275,
          "duration": 0.42857100000000514
        },
        {
          "name": "A6",
          "midi": 93,
          "time": 114.85702800000023,
          "velocity": 0.8818897637795275,
          "duration": 0.2857139999999987
        },
        {
          "name": "A4",
          "midi": 69,
          "time": 114.85702800000023,
          "velocity": 0.8818897637795275,
          "duration": 0.42857100000000514
        },
        {
          "name": "A5",
          "midi": 81,
          "time": 114.85702800000023,
          "velocity": 0.8818897637795275,
          "duration": 0.2857139999999987
        },
        {
          "name": "A6",
          "midi": 93,
          "time": 115.14274200000023,
          "velocity": 0.8818897637795275,
          "duration": 0.2857140000000129
        },
        {
          "name": "A5",
          "midi": 81,
          "time": 115.14274200000023,
          "velocity": 0.8818897637795275,
          "duration": 0.2857140000000129
        },
        {
          "name": "A3",
          "midi": 57,
          "time": 115.28559900000023,
          "velocity": 0.8818897637795275,
          "duration": 0.2857140000000129
        },
        {
          "name": "A4",
          "midi": 69,
          "time": 115.28559900000023,
          "velocity": 0.8818897637795275,
          "duration": 0.2857140000000129
        },
        {
          "name": "A6",
          "midi": 93,
          "time": 115.42845600000024,
          "velocity": 0.8818897637795275,
          "duration": 0.2857140000000129
        },
        {
          "name": "A5",
          "midi": 81,
          "time": 115.42845600000024,
          "velocity": 0.8818897637795275,
          "duration": 0.2857140000000129
        },
        {
          "name": "A3",
          "midi": 57,
          "time": 115.57131300000025,
          "velocity": 0.8818897637795275,
          "duration": 0.14285700000000645
        },
        {
          "name": "A4",
          "midi": 69,
          "time": 115.57131300000025,
          "velocity": 0.8818897637795275,
          "duration": 0.14285700000000645
        },
        {
          "name": "A3",
          "midi": 57,
          "time": 115.71417000000025,
          "velocity": 0.8818897637795275,
          "duration": 0.42857100000000514
        },
        {
          "name": "A6",
          "midi": 93,
          "time": 115.71417000000025,
          "velocity": 0.8818897637795275,
          "duration": 0.2857139999999987
        },
        {
          "name": "A4",
          "midi": 69,
          "time": 115.71417000000025,
          "velocity": 0.8818897637795275,
          "duration": 0.42857100000000514
        },
        {
          "name": "A5",
          "midi": 81,
          "time": 115.71417000000025,
          "velocity": 0.8818897637795275,
          "duration": 0.2857139999999987
        },
        {
          "name": "A6",
          "midi": 93,
          "time": 115.99988400000025,
          "velocity": 0.8818897637795275,
          "duration": 0.2857140000000129
        },
        {
          "name": "A5",
          "midi": 81,
          "time": 115.99988400000025,
          "velocity": 0.8818897637795275,
          "duration": 0.2857140000000129
        },
        {
          "name": "A3",
          "midi": 57,
          "time": 116.14274100000026,
          "velocity": 0.8818897637795275,
          "duration": 0.2857140000000129
        },
        {
          "name": "A4",
          "midi": 69,
          "time": 116.14274100000026,
          "velocity": 0.8818897637795275,
          "duration": 0.2857140000000129
        },
        {
          "name": "A6",
          "midi": 93,
          "time": 116.28559800000026,
          "velocity": 0.8818897637795275,
          "duration": 0.2857140000000129
        },
        {
          "name": "A5",
          "midi": 81,
          "time": 116.28559800000026,
          "velocity": 0.8818897637795275,
          "duration": 0.2857140000000129
        },
        {
          "name": "A3",
          "midi": 57,
          "time": 116.42845500000027,
          "velocity": 0.8818897637795275,
          "duration": 0.14285700000000645
        },
        {
          "name": "A4",
          "midi": 69,
          "time": 116.42845500000027,
          "velocity": 0.8818897637795275,
          "duration": 0.14285700000000645
        },
        {
          "name": "A3",
          "midi": 57,
          "time": 116.57131200000028,
          "velocity": 0.8818897637795275,
          "duration": 0.42857100000000514
        },
        {
          "name": "A6",
          "midi": 93,
          "time": 116.57131200000028,
          "velocity": 0.8818897637795275,
          "duration": 0.2857139999999987
        },
        {
          "name": "A4",
          "midi": 69,
          "time": 116.57131200000028,
          "velocity": 0.8818897637795275,
          "duration": 0.42857100000000514
        },
        {
          "name": "A5",
          "midi": 81,
          "time": 116.57131200000028,
          "velocity": 0.8818897637795275,
          "duration": 0.2857139999999987
        },
        {
          "name": "A6",
          "midi": 93,
          "time": 116.85702600000027,
          "velocity": 0.8818897637795275,
          "duration": 0.2857140000000129
        },
        {
          "name": "A5",
          "midi": 81,
          "time": 116.85702600000027,
          "velocity": 0.8818897637795275,
          "duration": 0.2857140000000129
        },
        {
          "name": "A3",
          "midi": 57,
          "time": 116.99988300000028,
          "velocity": 0.8818897637795275,
          "duration": 0.2857140000000129
        },
        {
          "name": "A4",
          "midi": 69,
          "time": 116.99988300000028,
          "velocity": 0.8818897637795275,
          "duration": 0.2857140000000129
        },
        {
          "name": "A6",
          "midi": 93,
          "time": 117.14274000000029,
          "velocity": 0.8818897637795275,
          "duration": 0.2857140000000129
        },
        {
          "name": "A5",
          "midi": 81,
          "time": 117.14274000000029,
          "velocity": 0.8818897637795275,
          "duration": 0.2857140000000129
        },
        {
          "name": "A3",
          "midi": 57,
          "time": 117.2855970000003,
          "velocity": 0.8818897637795275,
          "duration": 0.14285700000000645
        },
        {
          "name": "A4",
          "midi": 69,
          "time": 117.2855970000003,
          "velocity": 0.8818897637795275,
          "duration": 0.14285700000000645
        },
        {
          "name": "A3",
          "midi": 57,
          "time": 117.4284540000003,
          "velocity": 0.8818897637795275,
          "duration": 0.8571419999999961
        },
        {
          "name": "A6",
          "midi": 93,
          "time": 117.4284540000003,
          "velocity": 0.8818897637795275,
          "duration": 0.8571419999999961
        },
        {
          "name": "A4",
          "midi": 69,
          "time": 117.4284540000003,
          "velocity": 0.8818897637795275,
          "duration": 0.8571419999999961
        },
        {
          "name": "A5",
          "midi": 81,
          "time": 117.4284540000003,
          "velocity": 0.8818897637795275,
          "duration": 0.8571419999999961
        },
        {
          "name": "E4",
          "midi": 64,
          "time": 118.2855960000003,
          "velocity": 0.8818897637795275,
          "duration": 1.7142840000000064
        },
        {
          "name": "E7",
          "midi": 100,
          "time": 118.2855960000003,
          "velocity": 0.8818897637795275,
          "duration": 1.7142840000000064
        },
        {
          "name": "E5",
          "midi": 76,
          "time": 118.2855960000003,
          "velocity": 0.8818897637795275,
          "duration": 1.7142840000000064
        },
        {
          "name": "E6",
          "midi": 88,
          "time": 118.2855960000003,
          "velocity": 0.8818897637795275,
          "duration": 1.7142840000000064
        },
        {
          "name": "E4",
          "midi": 64,
          "time": 119.9998800000003,
          "velocity": 0.8818897637795275,
          "duration": 1.7142840000000064
        },
        {
          "name": "E7",
          "midi": 100,
          "time": 119.9998800000003,
          "velocity": 0.8818897637795275,
          "duration": 1.7142840000000064
        },
        {
          "name": "E5",
          "midi": 76,
          "time": 119.9998800000003,
          "velocity": 0.8818897637795275,
          "duration": 1.7142840000000064
        },
        {
          "name": "E6",
          "midi": 88,
          "time": 119.9998800000003,
          "velocity": 0.8818897637795275,
          "duration": 1.7142840000000064
        },
        {
          "name": "E2",
          "midi": 40,
          "time": 121.71416400000031,
          "velocity": 0.8818897637795275,
          "duration": 1.7142840000000064
        },
        {
          "name": "E5",
          "midi": 76,
          "time": 121.71416400000031,
          "velocity": 0.8818897637795275,
          "duration": 1.7142840000000064
        },
        {
          "name": "E7",
          "midi": 100,
          "time": 121.71416400000031,
          "velocity": 0.8818897637795275,
          "duration": 1.7142840000000064
        },
        {
          "name": "E3",
          "midi": 52,
          "time": 121.71416400000031,
          "velocity": 0.8818897637795275,
          "duration": 1.7142840000000064
        },
        {
          "name": "E6",
          "midi": 88,
          "time": 121.71416400000031,
          "velocity": 0.8818897637795275,
          "duration": 1.7142840000000064
        },
        {
          "name": "E2",
          "midi": 40,
          "time": 123.42844800000032,
          "velocity": 0.8818897637795275,
          "duration": 1.7142840000000064
        },
        {
          "name": "E5",
          "midi": 76,
          "time": 123.42844800000032,
          "velocity": 0.8818897637795275,
          "duration": 1.7142840000000064
        },
        {
          "name": "E7",
          "midi": 100,
          "time": 123.42844800000032,
          "velocity": 0.8818897637795275,
          "duration": 1.7142840000000064
        },
        {
          "name": "E3",
          "midi": 52,
          "time": 123.42844800000032,
          "velocity": 0.8818897637795275,
          "duration": 1.7142840000000064
        },
        {
          "name": "E6",
          "midi": 88,
          "time": 123.42844800000032,
          "velocity": 0.8818897637795275,
          "duration": 1.7142840000000064
        },
        {
          "name": "G4",
          "midi": 67,
          "time": 125.14273200000032,
          "velocity": 0.8818897637795275,
          "duration": 0.2857139999999987
        },
        {
          "name": "G5",
          "midi": 79,
          "time": 125.14273200000032,
          "velocity": 0.8818897637795275,
          "duration": 0.2857139999999987
        },
        {
          "name": "F#4",
          "midi": 66,
          "time": 125.42844600000032,
          "velocity": 0.8818897637795275,
          "duration": 0.14285700000000645
        },
        {
          "name": "F#5",
          "midi": 78,
          "time": 125.42844600000032,
          "velocity": 0.8818897637795275,
          "duration": 0.14285700000000645
        },
        {
          "name": "G4",
          "midi": 67,
          "time": 125.57130300000033,
          "velocity": 0.8818897637795275,
          "duration": 0.14285700000000645
        },
        {
          "name": "G5",
          "midi": 79,
          "time": 125.57130300000033,
          "velocity": 0.8818897637795275,
          "duration": 0.14285700000000645
        },
        {
          "name": "E4",
          "midi": 64,
          "time": 125.71416000000033,
          "velocity": 0.8818897637795275,
          "duration": 0.2857139999999987
        },
        {
          "name": "E5",
          "midi": 76,
          "time": 125.71416000000033,
          "velocity": 0.8818897637795275,
          "duration": 0.2857139999999987
        },
        {
          "name": "G4",
          "midi": 67,
          "time": 125.99987400000033,
          "velocity": 0.8818897637795275,
          "duration": 0.2857139999999987
        },
        {
          "name": "G5",
          "midi": 79,
          "time": 125.99987400000033,
          "velocity": 0.8818897637795275,
          "duration": 0.2857139999999987
        },
        {
          "name": "F#4",
          "midi": 66,
          "time": 126.28558800000033,
          "velocity": 0.8818897637795275,
          "duration": 0.14285700000000645
        },
        {
          "name": "F#5",
          "midi": 78,
          "time": 126.28558800000033,
          "velocity": 0.8818897637795275,
          "duration": 0.14285700000000645
        },
        {
          "name": "G4",
          "midi": 67,
          "time": 126.42844500000034,
          "velocity": 0.8818897637795275,
          "duration": 0.14285700000000645
        },
        {
          "name": "G5",
          "midi": 79,
          "time": 126.42844500000034,
          "velocity": 0.8818897637795275,
          "duration": 0.14285700000000645
        },
        {
          "name": "E4",
          "midi": 64,
          "time": 126.57130200000034,
          "velocity": 0.8818897637795275,
          "duration": 0.2857139999999987
        },
        {
          "name": "E5",
          "midi": 76,
          "time": 126.57130200000034,
          "velocity": 0.8818897637795275,
          "duration": 0.2857139999999987
        },
        {
          "name": "G4",
          "midi": 67,
          "time": 126.85701600000034,
          "velocity": 0.8818897637795275,
          "duration": 0.2857139999999987
        },
        {
          "name": "G5",
          "midi": 79,
          "time": 126.85701600000034,
          "velocity": 0.8818897637795275,
          "duration": 0.2857139999999987
        },
        {
          "name": "F#4",
          "midi": 66,
          "time": 127.14273000000034,
          "velocity": 0.8818897637795275,
          "duration": 0.14285700000000645
        },
        {
          "name": "F#5",
          "midi": 78,
          "time": 127.14273000000034,
          "velocity": 0.8818897637795275,
          "duration": 0.14285700000000645
        },
        {
          "name": "G4",
          "midi": 67,
          "time": 127.28558700000035,
          "velocity": 0.8818897637795275,
          "duration": 0.14285700000000645
        },
        {
          "name": "G5",
          "midi": 79,
          "time": 127.28558700000035,
          "velocity": 0.8818897637795275,
          "duration": 0.14285700000000645
        },
        {
          "name": "E4",
          "midi": 64,
          "time": 127.42844400000035,
          "velocity": 0.8818897637795275,
          "duration": 0.2857139999999987
        },
        {
          "name": "E5",
          "midi": 76,
          "time": 127.42844400000035,
          "velocity": 0.8818897637795275,
          "duration": 0.2857139999999987
        },
        {
          "name": "G4",
          "midi": 67,
          "time": 127.71415800000035,
          "velocity": 0.8818897637795275,
          "duration": 0.2857139999999987
        },
        {
          "name": "G5",
          "midi": 79,
          "time": 127.71415800000035,
          "velocity": 0.8818897637795275,
          "duration": 0.2857139999999987
        },
        {
          "name": "F#4",
          "midi": 66,
          "time": 127.99987200000035,
          "velocity": 0.8818897637795275,
          "duration": 0.14285699999999224
        },
        {
          "name": "F#5",
          "midi": 78,
          "time": 127.99987200000035,
          "velocity": 0.8818897637795275,
          "duration": 0.14285699999999224
        },
        {
          "name": "G4",
          "midi": 67,
          "time": 128.14272900000034,
          "velocity": 0.8818897637795275,
          "duration": 0.14285699999999224
        },
        {
          "name": "G5",
          "midi": 79,
          "time": 128.14272900000034,
          "velocity": 0.8818897637795275,
          "duration": 0.14285699999999224
        },
        {
          "name": "E4",
          "midi": 64,
          "time": 128.28558600000034,
          "velocity": 0.8818897637795275,
          "duration": 0.2857140000000129
        },
        {
          "name": "E5",
          "midi": 76,
          "time": 128.28558600000034,
          "velocity": 0.8818897637795275,
          "duration": 0.2857140000000129
        },
        {
          "name": "B3",
          "midi": 59,
          "time": 128.57130000000035,
          "velocity": 0.8818897637795275,
          "duration": 0.14285699999999224
        },
        {
          "name": "B4",
          "midi": 71,
          "time": 128.57130000000035,
          "velocity": 0.8818897637795275,
          "duration": 0.14285699999999224
        },
        {
          "name": "C#4",
          "midi": 61,
          "time": 128.71415700000034,
          "velocity": 0.8818897637795275,
          "duration": 0.14285699999999224
        },
        {
          "name": "C#5",
          "midi": 73,
          "time": 128.71415700000034,
          "velocity": 0.8818897637795275,
          "duration": 0.14285699999999224
        },
        {
          "name": "D#4",
          "midi": 63,
          "time": 128.85701400000033,
          "velocity": 0.8818897637795275,
          "duration": 0.14285699999999224
        },
        {
          "name": "D#5",
          "midi": 75,
          "time": 128.85701400000033,
          "velocity": 0.8818897637795275,
          "duration": 0.14285699999999224
        },
        {
          "name": "E4",
          "midi": 64,
          "time": 128.99987100000033,
          "velocity": 0.8818897637795275,
          "duration": 0.14285699999999224
        },
        {
          "name": "E5",
          "midi": 76,
          "time": 128.99987100000033,
          "velocity": 0.8818897637795275,
          "duration": 0.14285699999999224
        },
        {
          "name": "F#4",
          "midi": 66,
          "time": 129.14272800000032,
          "velocity": 0.8818897637795275,
          "duration": 0.14285699999999224
        },
        {
          "name": "F#5",
          "midi": 78,
          "time": 129.14272800000032,
          "velocity": 0.8818897637795275,
          "duration": 0.14285699999999224
        },
        {
          "name": "G4",
          "midi": 67,
          "time": 129.2855850000003,
          "velocity": 0.8818897637795275,
          "duration": 0.14285699999999224
        },
        {
          "name": "G5",
          "midi": 79,
          "time": 129.2855850000003,
          "velocity": 0.8818897637795275,
          "duration": 0.14285699999999224
        },
        {
          "name": "A4",
          "midi": 69,
          "time": 129.4284420000003,
          "velocity": 0.8818897637795275,
          "duration": 0.14285699999999224
        },
        {
          "name": "A5",
          "midi": 81,
          "time": 129.4284420000003,
          "velocity": 0.8818897637795275,
          "duration": 0.14285699999999224
        },
        {
          "name": "B4",
          "midi": 71,
          "time": 129.5712990000003,
          "velocity": 0.8818897637795275,
          "duration": 0.14285699999999224
        },
        {
          "name": "B5",
          "midi": 83,
          "time": 129.5712990000003,
          "velocity": 0.8818897637795275,
          "duration": 0.14285699999999224
        },
        {
          "name": "A4",
          "midi": 69,
          "time": 129.7141560000003,
          "velocity": 0.8818897637795275,
          "duration": 0.2857140000000129
        },
        {
          "name": "A5",
          "midi": 81,
          "time": 129.7141560000003,
          "velocity": 0.8818897637795275,
          "duration": 0.2857140000000129
        },
        {
          "name": "G4",
          "midi": 67,
          "time": 129.9998700000003,
          "velocity": 0.8818897637795275,
          "duration": 0.2857140000000129
        },
        {
          "name": "G5",
          "midi": 79,
          "time": 129.9998700000003,
          "velocity": 0.8818897637795275,
          "duration": 0.2857140000000129
        },
        {
          "name": "B3",
          "midi": 59,
          "time": 130.2855840000003,
          "velocity": 0.8818897637795275,
          "duration": 0.14285699999999224
        },
        {
          "name": "B4",
          "midi": 71,
          "time": 130.2855840000003,
          "velocity": 0.8818897637795275,
          "duration": 0.14285699999999224
        },
        {
          "name": "C#4",
          "midi": 61,
          "time": 130.4284410000003,
          "velocity": 0.8818897637795275,
          "duration": 0.14285699999999224
        },
        {
          "name": "C#5",
          "midi": 73,
          "time": 130.4284410000003,
          "velocity": 0.8818897637795275,
          "duration": 0.14285699999999224
        },
        {
          "name": "D#4",
          "midi": 63,
          "time": 130.5712980000003,
          "velocity": 0.8818897637795275,
          "duration": 0.14285699999999224
        },
        {
          "name": "D#5",
          "midi": 75,
          "time": 130.5712980000003,
          "velocity": 0.8818897637795275,
          "duration": 0.14285699999999224
        },
        {
          "name": "E4",
          "midi": 64,
          "time": 130.7141550000003,
          "velocity": 0.8818897637795275,
          "duration": 0.14285699999999224
        },
        {
          "name": "E5",
          "midi": 76,
          "time": 130.7141550000003,
          "velocity": 0.8818897637795275,
          "duration": 0.14285699999999224
        },
        {
          "name": "F#4",
          "midi": 66,
          "time": 130.85701200000028,
          "velocity": 0.8818897637795275,
          "duration": 0.14285699999999224
        },
        {
          "name": "F#5",
          "midi": 78,
          "time": 130.85701200000028,
          "velocity": 0.8818897637795275,
          "duration": 0.14285699999999224
        },
        {
          "name": "G4",
          "midi": 67,
          "time": 130.99986900000027,
          "velocity": 0.8818897637795275,
          "duration": 0.14285699999999224
        },
        {
          "name": "G5",
          "midi": 79,
          "time": 130.99986900000027,
          "velocity": 0.8818897637795275,
          "duration": 0.14285699999999224
        },
        {
          "name": "A4",
          "midi": 69,
          "time": 131.14272600000027,
          "velocity": 0.8818897637795275,
          "duration": 0.14285699999999224
        },
        {
          "name": "A5",
          "midi": 81,
          "time": 131.14272600000027,
          "velocity": 0.8818897637795275,
          "duration": 0.14285699999999224
        },
        {
          "name": "B4",
          "midi": 71,
          "time": 131.28558300000026,
          "velocity": 0.8818897637795275,
          "duration": 0.14285699999999224
        },
        {
          "name": "B5",
          "midi": 83,
          "time": 131.28558300000026,
          "velocity": 0.8818897637795275,
          "duration": 0.14285699999999224
        },
        {
          "name": "A4",
          "midi": 69,
          "time": 131.42844000000025,
          "velocity": 0.8818897637795275,
          "duration": 0.2857140000000129
        },
        {
          "name": "A5",
          "midi": 81,
          "time": 131.42844000000025,
          "velocity": 0.8818897637795275,
          "duration": 0.2857140000000129
        },
        {
          "name": "F#4",
          "midi": 66,
          "time": 131.71415400000026,
          "velocity": 0.8818897637795275,
          "duration": 0.14285699999999224
        },
        {
          "name": "F#5",
          "midi": 78,
          "time": 131.71415400000026,
          "velocity": 0.8818897637795275,
          "duration": 0.14285699999999224
        },
        {
          "name": "G4",
          "midi": 67,
          "time": 131.85701100000026,
          "velocity": 0.8818897637795275,
          "duration": 0.14285699999999224
        },
        {
          "name": "G5",
          "midi": 79,
          "time": 131.85701100000026,
          "velocity": 0.8818897637795275,
          "duration": 0.14285699999999224
        },
        {
          "name": "A4",
          "midi": 69,
          "time": 131.99986800000025,
          "velocity": 0.8818897637795275,
          "duration": 0.14285699999999224
        },
        {
          "name": "A5",
          "midi": 81,
          "time": 131.99986800000025,
          "velocity": 0.8818897637795275,
          "duration": 0.14285699999999224
        },
        {
          "name": "B4",
          "midi": 71,
          "time": 132.14272500000024,
          "velocity": 0.8818897637795275,
          "duration": 0.14285699999999224
        },
        {
          "name": "B5",
          "midi": 83,
          "time": 132.14272500000024,
          "velocity": 0.8818897637795275,
          "duration": 0.14285699999999224
        },
        {
          "name": "C5",
          "midi": 72,
          "time": 132.28558200000023,
          "velocity": 0.8818897637795275,
          "duration": 0.14285699999999224
        },
        {
          "name": "C6",
          "midi": 84,
          "time": 132.28558200000023,
          "velocity": 0.8818897637795275,
          "duration": 0.14285699999999224
        },
        {
          "name": "B4",
          "midi": 71,
          "time": 132.42843900000022,
          "velocity": 0.8818897637795275,
          "duration": 0.14285699999999224
        },
        {
          "name": "B5",
          "midi": 83,
          "time": 132.42843900000022,
          "velocity": 0.8818897637795275,
          "duration": 0.14285699999999224
        },
        {
          "name": "A4",
          "midi": 69,
          "time": 132.57129600000022,
          "velocity": 0.8818897637795275,
          "duration": 0.14285699999999224
        },
        {
          "name": "A5",
          "midi": 81,
          "time": 132.57129600000022,
          "velocity": 0.8818897637795275,
          "duration": 0.14285699999999224
        },
        {
          "name": "B4",
          "midi": 71,
          "time": 132.7141530000002,
          "velocity": 0.8818897637795275,
          "duration": 0.14285699999999224
        },
        {
          "name": "B5",
          "midi": 83,
          "time": 132.7141530000002,
          "velocity": 0.8818897637795275,
          "duration": 0.14285699999999224
        },
        {
          "name": "G4",
          "midi": 67,
          "time": 132.8570100000002,
          "velocity": 0.8818897637795275,
          "duration": 0.14285699999999224
        },
        {
          "name": "G5",
          "midi": 79,
          "time": 132.8570100000002,
          "velocity": 0.8818897637795275,
          "duration": 0.14285699999999224
        },
        {
          "name": "F#4",
          "midi": 66,
          "time": 132.9998670000002,
          "velocity": 0.8818897637795275,
          "duration": 0.14285699999999224
        },
        {
          "name": "F#5",
          "midi": 78,
          "time": 132.9998670000002,
          "velocity": 0.8818897637795275,
          "duration": 0.14285699999999224
        },
        {
          "name": "G4",
          "midi": 67,
          "time": 133.1427240000002,
          "velocity": 0.8818897637795275,
          "duration": 0.2857140000000129
        },
        {
          "name": "G5",
          "midi": 79,
          "time": 133.1427240000002,
          "velocity": 0.8818897637795275,
          "duration": 0.2857140000000129
        },
        {
          "name": "D4",
          "midi": 62,
          "time": 133.4284380000002,
          "velocity": 0.8818897637795275,
          "duration": 0.2857140000000129
        },
        {
          "name": "D5",
          "midi": 74,
          "time": 133.4284380000002,
          "velocity": 0.8818897637795275,
          "duration": 0.2857140000000129
        },
        {
          "name": "B3",
          "midi": 59,
          "time": 133.7141520000002,
          "velocity": 0.8818897637795275,
          "duration": 0.14285699999999224
        },
        {
          "name": "B4",
          "midi": 71,
          "time": 133.7141520000002,
          "velocity": 0.8818897637795275,
          "duration": 0.14285699999999224
        },
        {
          "name": "C4",
          "midi": 60,
          "time": 133.8570090000002,
          "velocity": 0.8818897637795275,
          "duration": 0.14285699999999224
        },
        {
          "name": "C5",
          "midi": 72,
          "time": 133.8570090000002,
          "velocity": 0.8818897637795275,
          "duration": 0.14285699999999224
        },
        {
          "name": "B3",
          "midi": 59,
          "time": 133.9998660000002,
          "velocity": 0.8818897637795275,
          "duration": 0.14285699999999224
        },
        {
          "name": "B4",
          "midi": 71,
          "time": 133.9998660000002,
          "velocity": 0.8818897637795275,
          "duration": 0.14285699999999224
        },
        {
          "name": "A3",
          "midi": 57,
          "time": 134.1427230000002,
          "velocity": 0.8818897637795275,
          "duration": 0.14285699999999224
        },
        {
          "name": "A4",
          "midi": 69,
          "time": 134.1427230000002,
          "velocity": 0.8818897637795275,
          "duration": 0.14285699999999224
        },
        {
          "name": "G3",
          "midi": 55,
          "time": 134.28558000000018,
          "velocity": 0.8818897637795275,
          "duration": 0.14285699999999224
        },
        {
          "name": "G4",
          "midi": 67,
          "time": 134.28558000000018,
          "velocity": 0.8818897637795275,
          "duration": 0.14285699999999224
        },
        {
          "name": "F#3",
          "midi": 54,
          "time": 134.42843700000017,
          "velocity": 0.8818897637795275,
          "duration": 0.14285699999999224
        },
        {
          "name": "F#4",
          "midi": 66,
          "time": 134.42843700000017,
          "velocity": 0.8818897637795275,
          "duration": 0.14285699999999224
        },
        {
          "name": "G3",
          "midi": 55,
          "time": 134.57129400000017,
          "velocity": 0.8818897637795275,
          "duration": 0.2857140000000129
        },
        {
          "name": "G4",
          "midi": 67,
          "time": 134.57129400000017,
          "velocity": 0.8818897637795275,
          "duration": 0.2857140000000129
        },
        {
          "name": "B3",
          "midi": 59,
          "time": 134.85700800000018,
          "velocity": 0.8818897637795275,
          "duration": 0.2857140000000129
        },
        {
          "name": "B4",
          "midi": 71,
          "time": 134.85700800000018,
          "velocity": 0.8818897637795275,
          "duration": 0.2857140000000129
        },
        {
          "name": "D4",
          "midi": 62,
          "time": 135.1427220000002,
          "velocity": 0.8818897637795275,
          "duration": 0.2857140000000129
        },
        {
          "name": "D5",
          "midi": 74,
          "time": 135.1427220000002,
          "velocity": 0.8818897637795275,
          "duration": 0.2857140000000129
        },
        {
          "name": "G4",
          "midi": 67,
          "time": 135.4284360000002,
          "velocity": 0.8818897637795275,
          "duration": 0.2857140000000129
        },
        {
          "name": "G5",
          "midi": 79,
          "time": 135.4284360000002,
          "velocity": 0.8818897637795275,
          "duration": 0.2857140000000129
        },
        {
          "name": "G4",
          "midi": 67,
          "time": 135.71415000000022,
          "velocity": 0.8818897637795275,
          "duration": 0.14285699999999224
        },
        {
          "name": "G5",
          "midi": 79,
          "time": 135.71415000000022,
          "velocity": 0.8818897637795275,
          "duration": 0.14285699999999224
        },
        {
          "name": "F#4",
          "midi": 66,
          "time": 135.8570070000002,
          "velocity": 0.8818897637795275,
          "duration": 0.14285699999999224
        },
        {
          "name": "F#5",
          "midi": 78,
          "time": 135.8570070000002,
          "velocity": 0.8818897637795275,
          "duration": 0.14285699999999224
        },
        {
          "name": "G4",
          "midi": 67,
          "time": 135.9998640000002,
          "velocity": 0.8818897637795275,
          "duration": 0.14285699999999224
        },
        {
          "name": "G5",
          "midi": 79,
          "time": 135.9998640000002,
          "velocity": 0.8818897637795275,
          "duration": 0.14285699999999224
        },
        {
          "name": "A4",
          "midi": 69,
          "time": 136.1427210000002,
          "velocity": 0.8818897637795275,
          "duration": 0.14285699999999224
        },
        {
          "name": "A5",
          "midi": 81,
          "time": 136.1427210000002,
          "velocity": 0.8818897637795275,
          "duration": 0.14285699999999224
        },
        {
          "name": "B4",
          "midi": 71,
          "time": 136.28557800000019,
          "velocity": 0.8818897637795275,
          "duration": 0.2857140000000129
        },
        {
          "name": "B5",
          "midi": 83,
          "time": 136.28557800000019,
          "velocity": 0.8818897637795275,
          "duration": 0.2857140000000129
        },
        {
          "name": "D5",
          "midi": 74,
          "time": 136.5712920000002,
          "velocity": 0.8818897637795275,
          "duration": 0.42857100000000514
        },
        {
          "name": "D6",
          "midi": 86,
          "time": 136.5712920000002,
          "velocity": 0.8818897637795275,
          "duration": 0.42857100000000514
        },
        {
          "name": "C5",
          "midi": 72,
          "time": 136.9998630000002,
          "velocity": 0.8818897637795275,
          "duration": 0.14285699999999224
        },
        {
          "name": "C6",
          "midi": 84,
          "time": 136.9998630000002,
          "velocity": 0.8818897637795275,
          "duration": 0.14285699999999224
        },
        {
          "name": "B4",
          "midi": 71,
          "time": 137.1427200000002,
          "velocity": 0.8818897637795275,
          "duration": 0.14285699999999224
        },
        {
          "name": "B5",
          "midi": 83,
          "time": 137.1427200000002,
          "velocity": 0.8818897637795275,
          "duration": 0.14285699999999224
        },
        {
          "name": "A4",
          "midi": 69,
          "time": 137.2855770000002,
          "velocity": 0.8818897637795275,
          "duration": 0.14285699999999224
        },
        {
          "name": "A5",
          "midi": 81,
          "time": 137.2855770000002,
          "velocity": 0.8818897637795275,
          "duration": 0.14285699999999224
        },
        {
          "name": "G4",
          "midi": 67,
          "time": 137.42843400000018,
          "velocity": 0.8818897637795275,
          "duration": 0.14285699999999224
        },
        {
          "name": "G5",
          "midi": 79,
          "time": 137.42843400000018,
          "velocity": 0.8818897637795275,
          "duration": 0.14285699999999224
        },
        {
          "name": "F#4",
          "midi": 66,
          "time": 137.57129100000017,
          "velocity": 0.8818897637795275,
          "duration": 0.14285699999999224
        },
        {
          "name": "F#5",
          "midi": 78,
          "time": 137.57129100000017,
          "velocity": 0.8818897637795275,
          "duration": 0.14285699999999224
        },
        {
          "name": "G4",
          "midi": 67,
          "time": 137.71414800000016,
          "velocity": 0.8818897637795275,
          "duration": 0.14285699999999224
        },
        {
          "name": "G5",
          "midi": 79,
          "time": 137.71414800000016,
          "velocity": 0.8818897637795275,
          "duration": 0.14285699999999224
        },
        {
          "name": "D4",
          "midi": 62,
          "time": 137.85700500000016,
          "velocity": 0.8818897637795275,
          "duration": 0.14285699999999224
        },
        {
          "name": "D5",
          "midi": 74,
          "time": 137.85700500000016,
          "velocity": 0.8818897637795275,
          "duration": 0.14285699999999224
        },
        {
          "name": "B3",
          "midi": 59,
          "time": 137.99986200000015,
          "velocity": 0.8818897637795275,
          "duration": 0.2857140000000129
        },
        {
          "name": "B4",
          "midi": 71,
          "time": 137.99986200000015,
          "velocity": 0.8818897637795275,
          "duration": 0.2857140000000129
        },
        {
          "name": "D4",
          "midi": 62,
          "time": 138.28557600000016,
          "velocity": 0.8818897637795275,
          "duration": 0.2857140000000129
        },
        {
          "name": "D5",
          "midi": 74,
          "time": 138.28557600000016,
          "velocity": 0.8818897637795275,
          "duration": 0.2857140000000129
        },
        {
          "name": "G4",
          "midi": 67,
          "time": 138.57129000000018,
          "velocity": 0.8818897637795275,
          "duration": 0.2857140000000129
        },
        {
          "name": "G5",
          "midi": 79,
          "time": 138.57129000000018,
          "velocity": 0.8818897637795275,
          "duration": 0.2857140000000129
        },
        {
          "name": "F#4",
          "midi": 66,
          "time": 138.8570040000002,
          "velocity": 0.8818897637795275,
          "duration": 0.14285699999999224
        },
        {
          "name": "F#5",
          "midi": 78,
          "time": 138.8570040000002,
          "velocity": 0.8818897637795275,
          "duration": 0.14285699999999224
        },
        {
          "name": "E4",
          "midi": 64,
          "time": 138.99986100000018,
          "velocity": 0.8818897637795275,
          "duration": 0.14285699999999224
        },
        {
          "name": "E5",
          "midi": 76,
          "time": 138.99986100000018,
          "velocity": 0.8818897637795275,
          "duration": 0.14285699999999224
        },
        {
          "name": "D4",
          "midi": 62,
          "time": 139.14271800000017,
          "velocity": 0.8818897637795275,
          "duration": 0.42857100000000514
        },
        {
          "name": "D5",
          "midi": 74,
          "time": 139.14271800000017,
          "velocity": 0.8818897637795275,
          "duration": 0.42857100000000514
        },
        {
          "name": "A4",
          "midi": 69,
          "time": 139.57128900000018,
          "velocity": 0.8818897637795275,
          "duration": 0.14285699999999224
        },
        {
          "name": "A5",
          "midi": 81,
          "time": 139.57128900000018,
          "velocity": 0.8818897637795275,
          "duration": 0.14285699999999224
        },
        {
          "name": "D5",
          "midi": 74,
          "time": 139.71414600000017,
          "velocity": 0.8818897637795275,
          "duration": 0.42857100000000514
        },
        {
          "name": "D6",
          "midi": 86,
          "time": 139.71414600000017,
          "velocity": 0.8818897637795275,
          "duration": 0.42857100000000514
        },
        {
          "name": "E5",
          "midi": 76,
          "time": 140.14271700000018,
          "velocity": 0.8818897637795275,
          "duration": 0.42857100000000514
        },
        {
          "name": "E6",
          "midi": 88,
          "time": 140.14271700000018,
          "velocity": 0.8818897637795275,
          "duration": 0.42857100000000514
        },
        {
          "name": "F#5",
          "midi": 78,
          "time": 140.57128800000018,
          "velocity": 0.8818897637795275,
          "duration": 0.42857100000000514
        },
        {
          "name": "F#6",
          "midi": 90,
          "time": 140.57128800000018,
          "velocity": 0.8818897637795275,
          "duration": 0.42857100000000514
        },
        {
          "name": "D5",
          "midi": 74,
          "time": 140.99985900000019,
          "velocity": 0.8818897637795275,
          "duration": 0.42857100000000514
        },
        {
          "name": "D6",
          "midi": 86,
          "time": 140.99985900000019,
          "velocity": 0.8818897637795275,
          "duration": 0.42857100000000514
        },
        {
          "name": "A4",
          "midi": 69,
          "time": 141.4284300000002,
          "velocity": 0.8818897637795275,
          "duration": 0.42857100000000514
        },
        {
          "name": "A5",
          "midi": 81,
          "time": 141.4284300000002,
          "velocity": 0.8818897637795275,
          "duration": 0.42857100000000514
        },
        {
          "name": "G4",
          "midi": 67,
          "time": 141.8570010000002,
          "velocity": 0.8818897637795275,
          "duration": 0.42857100000000514
        },
        {
          "name": "G5",
          "midi": 79,
          "time": 141.8570010000002,
          "velocity": 0.8818897637795275,
          "duration": 0.42857100000000514
        },
        {
          "name": "F#4",
          "midi": 66,
          "time": 142.2855720000002,
          "velocity": 0.8818897637795275,
          "duration": 0.42857100000000514
        },
        {
          "name": "F#5",
          "midi": 78,
          "time": 142.2855720000002,
          "velocity": 0.8818897637795275,
          "duration": 0.42857100000000514
        },
        {
          "name": "D4",
          "midi": 62,
          "time": 142.7141430000002,
          "velocity": 0.8818897637795275,
          "duration": 0.42857100000000514
        },
        {
          "name": "D5",
          "midi": 74,
          "time": 142.7141430000002,
          "velocity": 0.8818897637795275,
          "duration": 0.42857100000000514
        },
        {
          "name": "A3",
          "midi": 57,
          "time": 143.1427140000002,
          "velocity": 0.8818897637795275,
          "duration": 0.8571420000000103
        },
        {
          "name": "A4",
          "midi": 69,
          "time": 143.1427140000002,
          "velocity": 0.8818897637795275,
          "duration": 0.8571420000000103
        },
        {
          "name": "A3",
          "midi": 57,
          "time": 143.99985600000022,
          "velocity": 0.8818897637795275,
          "duration": 0.42857100000000514
        },
        {
          "name": "A4",
          "midi": 69,
          "time": 143.99985600000022,
          "velocity": 0.8818897637795275,
          "duration": 0.42857100000000514
        },
        {
          "name": "A3",
          "midi": 57,
          "time": 144.42842700000023,
          "velocity": 0.8818897637795275,
          "duration": 0.14285699999999224
        },
        {
          "name": "A4",
          "midi": 69,
          "time": 144.42842700000023,
          "velocity": 0.8818897637795275,
          "duration": 0.14285699999999224
        },
        {
          "name": "D4",
          "midi": 62,
          "time": 144.57128400000022,
          "velocity": 0.8818897637795275,
          "duration": 0.2857140000000129
        },
        {
          "name": "D5",
          "midi": 74,
          "time": 144.57128400000022,
          "velocity": 0.8818897637795275,
          "duration": 0.2857140000000129
        },
        {
          "name": "G4",
          "midi": 67,
          "time": 145.71414000000024,
          "velocity": 0.8818897637795275,
          "duration": 0.2857140000000129
        },
        {
          "name": "G5",
          "midi": 79,
          "time": 145.71414000000024,
          "velocity": 0.8818897637795275,
          "duration": 0.2857140000000129
        },
        {
          "name": "F#4",
          "midi": 66,
          "time": 145.99985400000025,
          "velocity": 0.8818897637795275,
          "duration": 0.14285699999999224
        },
        {
          "name": "F#5",
          "midi": 78,
          "time": 145.99985400000025,
          "velocity": 0.8818897637795275,
          "duration": 0.14285699999999224
        },
        {
          "name": "G4",
          "midi": 67,
          "time": 146.14271100000025,
          "velocity": 0.8818897637795275,
          "duration": 0.14285699999999224
        },
        {
          "name": "G5",
          "midi": 79,
          "time": 146.14271100000025,
          "velocity": 0.8818897637795275,
          "duration": 0.14285699999999224
        },
        {
          "name": "E4",
          "midi": 64,
          "time": 146.28556800000024,
          "velocity": 0.8818897637795275,
          "duration": 0.2857140000000129
        },
        {
          "name": "E5",
          "midi": 76,
          "time": 146.28556800000024,
          "velocity": 0.8818897637795275,
          "duration": 0.2857140000000129
        },
        {
          "name": "G4",
          "midi": 67,
          "time": 146.57128200000025,
          "velocity": 0.8818897637795275,
          "duration": 0.2857140000000129
        },
        {
          "name": "G5",
          "midi": 79,
          "time": 146.57128200000025,
          "velocity": 0.8818897637795275,
          "duration": 0.2857140000000129
        },
        {
          "name": "F#4",
          "midi": 66,
          "time": 146.85699600000027,
          "velocity": 0.8818897637795275,
          "duration": 0.14285699999999224
        },
        {
          "name": "F#5",
          "midi": 78,
          "time": 146.85699600000027,
          "velocity": 0.8818897637795275,
          "duration": 0.14285699999999224
        },
        {
          "name": "G4",
          "midi": 67,
          "time": 146.99985300000026,
          "velocity": 0.8818897637795275,
          "duration": 0.14285699999999224
        },
        {
          "name": "G5",
          "midi": 79,
          "time": 146.99985300000026,
          "velocity": 0.8818897637795275,
          "duration": 0.14285699999999224
        },
        {
          "name": "E4",
          "midi": 64,
          "time": 147.14271000000025,
          "velocity": 0.8818897637795275,
          "duration": 0.2857140000000129
        },
        {
          "name": "E5",
          "midi": 76,
          "time": 147.14271000000025,
          "velocity": 0.8818897637795275,
          "duration": 0.2857140000000129
        },
        {
          "name": "G4",
          "midi": 67,
          "time": 147.42842400000026,
          "velocity": 0.8818897637795275,
          "duration": 0.2857140000000129
        },
        {
          "name": "G5",
          "midi": 79,
          "time": 147.42842400000026,
          "velocity": 0.8818897637795275,
          "duration": 0.2857140000000129
        },
        {
          "name": "F#4",
          "midi": 66,
          "time": 147.71413800000028,
          "velocity": 0.8818897637795275,
          "duration": 0.14285699999999224
        },
        {
          "name": "F#5",
          "midi": 78,
          "time": 147.71413800000028,
          "velocity": 0.8818897637795275,
          "duration": 0.14285699999999224
        },
        {
          "name": "G4",
          "midi": 67,
          "time": 147.85699500000027,
          "velocity": 0.8818897637795275,
          "duration": 0.14285699999999224
        },
        {
          "name": "G5",
          "midi": 79,
          "time": 147.85699500000027,
          "velocity": 0.8818897637795275,
          "duration": 0.14285699999999224
        },
        {
          "name": "E4",
          "midi": 64,
          "time": 147.99985200000026,
          "velocity": 0.8818897637795275,
          "duration": 0.2857140000000129
        },
        {
          "name": "E5",
          "midi": 76,
          "time": 147.99985200000026,
          "velocity": 0.8818897637795275,
          "duration": 0.2857140000000129
        },
        {
          "name": "G4",
          "midi": 67,
          "time": 148.28556600000027,
          "velocity": 0.8818897637795275,
          "duration": 0.2857140000000129
        },
        {
          "name": "G5",
          "midi": 79,
          "time": 148.28556600000027,
          "velocity": 0.8818897637795275,
          "duration": 0.2857140000000129
        },
        {
          "name": "F#4",
          "midi": 66,
          "time": 148.57128000000029,
          "velocity": 0.8818897637795275,
          "duration": 0.14285699999999224
        },
        {
          "name": "F#5",
          "midi": 78,
          "time": 148.57128000000029,
          "velocity": 0.8818897637795275,
          "duration": 0.14285699999999224
        },
        {
          "name": "G4",
          "midi": 67,
          "time": 148.71413700000028,
          "velocity": 0.8818897637795275,
          "duration": 0.14285699999999224
        },
        {
          "name": "G5",
          "midi": 79,
          "time": 148.71413700000028,
          "velocity": 0.8818897637795275,
          "duration": 0.14285699999999224
        },
        {
          "name": "E4",
          "midi": 64,
          "time": 148.85699400000027,
          "velocity": 0.8818897637795275,
          "duration": 0.2857140000000129
        },
        {
          "name": "E5",
          "midi": 76,
          "time": 148.85699400000027,
          "velocity": 0.8818897637795275,
          "duration": 0.2857140000000129
        },
        {
          "name": "E5",
          "midi": 76,
          "time": 149.14270800000028,
          "velocity": 0.8818897637795275,
          "duration": 0.8571420000000103
        },
        {
          "name": "E6",
          "midi": 88,
          "time": 149.14270800000028,
          "velocity": 0.8818897637795275,
          "duration": 0.8571420000000103
        },
        {
          "name": "D5",
          "midi": 74,
          "time": 149.9998500000003,
          "velocity": 0.8818897637795275,
          "duration": 0.8571420000000103
        },
        {
          "name": "D6",
          "midi": 86,
          "time": 149.9998500000003,
          "velocity": 0.8818897637795275,
          "duration": 0.8571420000000103
        },
        {
          "name": "C5",
          "midi": 72,
          "time": 150.8569920000003,
          "velocity": 0.8818897637795275,
          "duration": 0.5714279999999974
        },
        {
          "name": "C6",
          "midi": 84,
          "time": 150.8569920000003,
          "velocity": 0.8818897637795275,
          "duration": 0.5714279999999974
        },
        {
          "name": "C5",
          "midi": 72,
          "time": 151.4284200000003,
          "velocity": 0.8818897637795275,
          "duration": 0.14285699999999224
        },
        {
          "name": "C6",
          "midi": 84,
          "time": 151.4284200000003,
          "velocity": 0.8818897637795275,
          "duration": 0.14285699999999224
        },
        {
          "name": "D5",
          "midi": 74,
          "time": 151.5712770000003,
          "velocity": 0.8818897637795275,
          "duration": 0.14285699999999224
        },
        {
          "name": "D6",
          "midi": 86,
          "time": 151.5712770000003,
          "velocity": 0.8818897637795275,
          "duration": 0.14285699999999224
        },
        {
          "name": "B4",
          "midi": 71,
          "time": 151.71413400000029,
          "velocity": 0.8818897637795275,
          "duration": 0.8571420000000103
        },
        {
          "name": "B5",
          "midi": 83,
          "time": 151.71413400000029,
          "velocity": 0.8818897637795275,
          "duration": 0.8571420000000103
        },
        {
          "name": "E5",
          "midi": 76,
          "time": 155.9998440000003,
          "velocity": 0.8818897637795275,
          "duration": 0.14285699999999224
        },
        {
          "name": "F#5",
          "midi": 78,
          "time": 156.1427010000003,
          "velocity": 0.8818897637795275,
          "duration": 0.14285699999999224
        },
        {
          "name": "E5",
          "midi": 76,
          "time": 156.2855580000003,
          "velocity": 0.8818897637795275,
          "duration": 0.14285699999999224
        },
        {
          "name": "F#5",
          "midi": 78,
          "time": 156.42841500000029,
          "velocity": 0.8818897637795275,
          "duration": 0.14285699999999224
        },
        {
          "name": "E5",
          "midi": 76,
          "time": 156.57127200000028,
          "velocity": 0.8818897637795275,
          "duration": 0.14285699999999224
        },
        {
          "name": "F#5",
          "midi": 78,
          "time": 156.71412900000027,
          "velocity": 0.8818897637795275,
          "duration": 0.14285699999999224
        },
        {
          "name": "G#5",
          "midi": 80,
          "time": 156.85698600000026,
          "velocity": 0.8818897637795275,
          "duration": 0.42857100000000514
        },
        {
          "name": "A5",
          "midi": 81,
          "time": 157.28555700000027,
          "velocity": 0.8818897637795275,
          "duration": 0.14285699999999224
        },
        {
          "name": "G#5",
          "midi": 80,
          "time": 157.42841400000026,
          "velocity": 0.8818897637795275,
          "duration": 0.2857140000000129
        },
        {
          "name": "G#5",
          "midi": 80,
          "time": 157.71412800000027,
          "velocity": 0.8818897637795275,
          "duration": 0.2857140000000129
        },
        {
          "name": "F#5",
          "midi": 78,
          "time": 157.99984200000029,
          "velocity": 0.8818897637795275,
          "duration": 0.2857140000000129
        },
        {
          "name": "E5",
          "midi": 76,
          "time": 158.2855560000003,
          "velocity": 0.8818897637795275,
          "duration": 0.2857140000000129
        },
        {
          "name": "E5",
          "midi": 76,
          "time": 158.5712700000003,
          "velocity": 0.8818897637795275,
          "duration": 0.2857140000000129
        },
        {
          "name": "C#5",
          "midi": 73,
          "time": 158.85698400000032,
          "velocity": 0.8818897637795275,
          "duration": 0.2857140000000129
        },
        {
          "name": "D5",
          "midi": 74,
          "time": 159.14269800000034,
          "velocity": 0.8818897637795275,
          "duration": 0.2857140000000129
        },
        {
          "name": "E5",
          "midi": 76,
          "time": 159.42841200000035,
          "velocity": 0.8818897637795275,
          "duration": 3.4285680000000127
        },
        {
          "name": "B5",
          "midi": 83,
          "time": 169.71411600000036,
          "velocity": 0.8818897637795275,
          "duration": 0.8571420000000103
        },
        {
          "name": "A5",
          "midi": 81,
          "time": 170.57125800000037,
          "velocity": 0.8818897637795275,
          "duration": 0.42857100000000514
        },
        {
          "name": "B5",
          "midi": 83,
          "time": 170.99982900000037,
          "velocity": 0.8818897637795275,
          "duration": 0.42857100000000514
        },
        {
          "name": "E5",
          "midi": 76,
          "time": 171.42840000000038,
          "velocity": 0.8818897637795275,
          "duration": 1.7142839999999921
        },
        {
          "name": "E5",
          "midi": 76,
          "time": 173.14268400000037,
          "velocity": 0.8818897637795275,
          "duration": 1.7142839999999921
        }
      ],
      "controlChanges": {
        "1": [
          {
            "number": 1,
            "time": 174.91053937500035,
            "value": 0
          }
        ],
        "7": [
          {
            "number": 7,
            "time": 0,
            "value": 0.7874015748031497
          },
          {
            "number": 7,
            "time": 1.8928552500000002,
            "value": 0.007874015748031496
          },
          {
            "number": 7,
            "time": 1.8928552500000002,
            "value": 0.007874015748031496
          },
          {
            "number": 7,
            "time": 1.8928552500000002,
            "value": 0.007874015748031496
          },
          {
            "number": 7,
            "time": 2.0714265000000003,
            "value": 0.015748031496062992
          },
          {
            "number": 7,
            "time": 2.0714265000000003,
            "value": 0.015748031496062992
          },
          {
            "number": 7,
            "time": 2.0714265000000003,
            "value": 0.015748031496062992
          },
          {
            "number": 7,
            "time": 2.2142835000000005,
            "value": 0.023622047244094488
          },
          {
            "number": 7,
            "time": 2.2142835000000005,
            "value": 0.023622047244094488
          },
          {
            "number": 7,
            "time": 2.2142835000000005,
            "value": 0.023622047244094488
          },
          {
            "number": 7,
            "time": 2.3928547500000006,
            "value": 0.031496062992125984
          },
          {
            "number": 7,
            "time": 2.3928547500000006,
            "value": 0.031496062992125984
          },
          {
            "number": 7,
            "time": 2.3928547500000006,
            "value": 0.031496062992125984
          },
          {
            "number": 7,
            "time": 2.535711750000001,
            "value": 0.03937007874015748
          },
          {
            "number": 7,
            "time": 2.535711750000001,
            "value": 0.03937007874015748
          },
          {
            "number": 7,
            "time": 2.535711750000001,
            "value": 0.03937007874015748
          },
          {
            "number": 7,
            "time": 2.714283000000001,
            "value": 0.047244094488188976
          },
          {
            "number": 7,
            "time": 2.714283000000001,
            "value": 0.047244094488188976
          },
          {
            "number": 7,
            "time": 2.714283000000001,
            "value": 0.047244094488188976
          },
          {
            "number": 7,
            "time": 2.857140000000001,
            "value": 0.05511811023622047
          },
          {
            "number": 7,
            "time": 2.857140000000001,
            "value": 0.05511811023622047
          },
          {
            "number": 7,
            "time": 2.857140000000001,
            "value": 0.05511811023622047
          },
          {
            "number": 7,
            "time": 3.035711250000001,
            "value": 0.06299212598425197
          },
          {
            "number": 7,
            "time": 3.035711250000001,
            "value": 0.06299212598425197
          },
          {
            "number": 7,
            "time": 3.035711250000001,
            "value": 0.06299212598425197
          },
          {
            "number": 7,
            "time": 3.1785682500000014,
            "value": 0.07086614173228346
          },
          {
            "number": 7,
            "time": 3.1785682500000014,
            "value": 0.07086614173228346
          },
          {
            "number": 7,
            "time": 3.1785682500000014,
            "value": 0.07086614173228346
          },
          {
            "number": 7,
            "time": 3.3571395000000015,
            "value": 0.07874015748031496
          },
          {
            "number": 7,
            "time": 3.3571395000000015,
            "value": 0.07874015748031496
          },
          {
            "number": 7,
            "time": 3.3571395000000015,
            "value": 0.07874015748031496
          },
          {
            "number": 7,
            "time": 3.4999965000000017,
            "value": 0.08661417322834646
          },
          {
            "number": 7,
            "time": 3.4999965000000017,
            "value": 0.08661417322834646
          },
          {
            "number": 7,
            "time": 3.4999965000000017,
            "value": 0.08661417322834646
          },
          {
            "number": 7,
            "time": 3.678567750000002,
            "value": 0.09448818897637795
          },
          {
            "number": 7,
            "time": 3.678567750000002,
            "value": 0.09448818897637795
          },
          {
            "number": 7,
            "time": 3.678567750000002,
            "value": 0.09448818897637795
          },
          {
            "number": 7,
            "time": 3.821424750000002,
            "value": 0.10236220472440945
          },
          {
            "number": 7,
            "time": 3.821424750000002,
            "value": 0.10236220472440945
          },
          {
            "number": 7,
            "time": 3.821424750000002,
            "value": 0.10236220472440945
          },
          {
            "number": 7,
            "time": 3.999996000000002,
            "value": 0.11023622047244094
          },
          {
            "number": 7,
            "time": 3.999996000000002,
            "value": 0.11023622047244094
          },
          {
            "number": 7,
            "time": 3.999996000000002,
            "value": 0.11023622047244094
          },
          {
            "number": 7,
            "time": 4.178567250000002,
            "value": 0.11811023622047244
          },
          {
            "number": 7,
            "time": 4.178567250000002,
            "value": 0.11811023622047244
          },
          {
            "number": 7,
            "time": 4.178567250000002,
            "value": 0.11811023622047244
          },
          {
            "number": 7,
            "time": 4.321424250000002,
            "value": 0.12598425196850394
          },
          {
            "number": 7,
            "time": 4.321424250000002,
            "value": 0.12598425196850394
          },
          {
            "number": 7,
            "time": 4.321424250000002,
            "value": 0.12598425196850394
          },
          {
            "number": 7,
            "time": 4.4999955000000025,
            "value": 0.13385826771653545
          },
          {
            "number": 7,
            "time": 4.4999955000000025,
            "value": 0.13385826771653545
          },
          {
            "number": 7,
            "time": 4.4999955000000025,
            "value": 0.13385826771653545
          },
          {
            "number": 7,
            "time": 4.642852500000003,
            "value": 0.14173228346456693
          },
          {
            "number": 7,
            "time": 4.642852500000003,
            "value": 0.14173228346456693
          },
          {
            "number": 7,
            "time": 4.642852500000003,
            "value": 0.14173228346456693
          },
          {
            "number": 7,
            "time": 4.821423750000003,
            "value": 0.14960629921259844
          },
          {
            "number": 7,
            "time": 4.821423750000003,
            "value": 0.14960629921259844
          },
          {
            "number": 7,
            "time": 4.821423750000003,
            "value": 0.14960629921259844
          },
          {
            "number": 7,
            "time": 4.964280750000003,
            "value": 0.15748031496062992
          },
          {
            "number": 7,
            "time": 4.964280750000003,
            "value": 0.15748031496062992
          },
          {
            "number": 7,
            "time": 4.964280750000003,
            "value": 0.15748031496062992
          },
          {
            "number": 7,
            "time": 5.142852000000003,
            "value": 0.16535433070866143
          },
          {
            "number": 7,
            "time": 5.142852000000003,
            "value": 0.16535433070866143
          },
          {
            "number": 7,
            "time": 5.142852000000003,
            "value": 0.16535433070866143
          },
          {
            "number": 7,
            "time": 5.285709000000003,
            "value": 0.1732283464566929
          },
          {
            "number": 7,
            "time": 5.285709000000003,
            "value": 0.1732283464566929
          },
          {
            "number": 7,
            "time": 5.285709000000003,
            "value": 0.1732283464566929
          },
          {
            "number": 7,
            "time": 5.464280250000003,
            "value": 0.18110236220472442
          },
          {
            "number": 7,
            "time": 5.464280250000003,
            "value": 0.18110236220472442
          },
          {
            "number": 7,
            "time": 5.464280250000003,
            "value": 0.18110236220472442
          },
          {
            "number": 7,
            "time": 5.607137250000004,
            "value": 0.1889763779527559
          },
          {
            "number": 7,
            "time": 5.607137250000004,
            "value": 0.1889763779527559
          },
          {
            "number": 7,
            "time": 5.607137250000004,
            "value": 0.1889763779527559
          },
          {
            "number": 7,
            "time": 5.785708500000004,
            "value": 0.1968503937007874
          },
          {
            "number": 7,
            "time": 5.785708500000004,
            "value": 0.1968503937007874
          },
          {
            "number": 7,
            "time": 5.785708500000004,
            "value": 0.1968503937007874
          },
          {
            "number": 7,
            "time": 5.928565500000004,
            "value": 0.2047244094488189
          },
          {
            "number": 7,
            "time": 5.928565500000004,
            "value": 0.2047244094488189
          },
          {
            "number": 7,
            "time": 5.928565500000004,
            "value": 0.2047244094488189
          },
          {
            "number": 7,
            "time": 6.107136750000004,
            "value": 0.2125984251968504
          },
          {
            "number": 7,
            "time": 6.107136750000004,
            "value": 0.2125984251968504
          },
          {
            "number": 7,
            "time": 6.107136750000004,
            "value": 0.2125984251968504
          },
          {
            "number": 7,
            "time": 6.249993750000004,
            "value": 0.2204724409448819
          },
          {
            "number": 7,
            "time": 6.249993750000004,
            "value": 0.2204724409448819
          },
          {
            "number": 7,
            "time": 6.249993750000004,
            "value": 0.2204724409448819
          },
          {
            "number": 7,
            "time": 6.428565000000004,
            "value": 0.2283464566929134
          },
          {
            "number": 7,
            "time": 6.428565000000004,
            "value": 0.2283464566929134
          },
          {
            "number": 7,
            "time": 6.428565000000004,
            "value": 0.2283464566929134
          },
          {
            "number": 7,
            "time": 6.607136250000004,
            "value": 0.23622047244094488
          },
          {
            "number": 7,
            "time": 6.607136250000004,
            "value": 0.23622047244094488
          },
          {
            "number": 7,
            "time": 6.607136250000004,
            "value": 0.23622047244094488
          },
          {
            "number": 7,
            "time": 6.749993250000005,
            "value": 0.2440944881889764
          },
          {
            "number": 7,
            "time": 6.749993250000005,
            "value": 0.2440944881889764
          },
          {
            "number": 7,
            "time": 6.749993250000005,
            "value": 0.2440944881889764
          },
          {
            "number": 7,
            "time": 6.928564500000004,
            "value": 0.25196850393700787
          },
          {
            "number": 7,
            "time": 6.928564500000004,
            "value": 0.25196850393700787
          },
          {
            "number": 7,
            "time": 6.928564500000004,
            "value": 0.25196850393700787
          },
          {
            "number": 7,
            "time": 7.071421500000003,
            "value": 0.25984251968503935
          },
          {
            "number": 7,
            "time": 7.071421500000003,
            "value": 0.25984251968503935
          },
          {
            "number": 7,
            "time": 7.071421500000003,
            "value": 0.25984251968503935
          },
          {
            "number": 7,
            "time": 7.249992750000002,
            "value": 0.2677165354330709
          },
          {
            "number": 7,
            "time": 7.249992750000002,
            "value": 0.2677165354330709
          },
          {
            "number": 7,
            "time": 7.249992750000002,
            "value": 0.2677165354330709
          },
          {
            "number": 7,
            "time": 7.3928497500000026,
            "value": 0.2755905511811024
          },
          {
            "number": 7,
            "time": 7.3928497500000026,
            "value": 0.2755905511811024
          },
          {
            "number": 7,
            "time": 7.3928497500000026,
            "value": 0.2755905511811024
          },
          {
            "number": 7,
            "time": 7.571421000000003,
            "value": 0.28346456692913385
          },
          {
            "number": 7,
            "time": 7.571421000000003,
            "value": 0.28346456692913385
          },
          {
            "number": 7,
            "time": 7.571421000000003,
            "value": 0.28346456692913385
          },
          {
            "number": 7,
            "time": 7.714278000000003,
            "value": 0.29133858267716534
          },
          {
            "number": 7,
            "time": 7.714278000000003,
            "value": 0.29133858267716534
          },
          {
            "number": 7,
            "time": 7.714278000000003,
            "value": 0.29133858267716534
          },
          {
            "number": 7,
            "time": 7.892849250000003,
            "value": 0.2992125984251969
          },
          {
            "number": 7,
            "time": 7.892849250000003,
            "value": 0.2992125984251969
          },
          {
            "number": 7,
            "time": 7.892849250000003,
            "value": 0.2992125984251969
          },
          {
            "number": 7,
            "time": 8.035706250000004,
            "value": 0.30708661417322836
          },
          {
            "number": 7,
            "time": 8.035706250000004,
            "value": 0.30708661417322836
          },
          {
            "number": 7,
            "time": 8.035706250000004,
            "value": 0.30708661417322836
          },
          {
            "number": 7,
            "time": 8.214277500000003,
            "value": 0.31496062992125984
          },
          {
            "number": 7,
            "time": 8.214277500000003,
            "value": 0.31496062992125984
          },
          {
            "number": 7,
            "time": 8.214277500000003,
            "value": 0.31496062992125984
          },
          {
            "number": 7,
            "time": 8.357134500000003,
            "value": 0.3228346456692913
          },
          {
            "number": 7,
            "time": 8.357134500000003,
            "value": 0.3228346456692913
          },
          {
            "number": 7,
            "time": 8.357134500000003,
            "value": 0.3228346456692913
          },
          {
            "number": 7,
            "time": 8.535705750000002,
            "value": 0.33070866141732286
          },
          {
            "number": 7,
            "time": 8.535705750000002,
            "value": 0.33070866141732286
          },
          {
            "number": 7,
            "time": 8.535705750000002,
            "value": 0.33070866141732286
          },
          {
            "number": 7,
            "time": 8.714277000000001,
            "value": 0.33858267716535434
          },
          {
            "number": 7,
            "time": 8.714277000000001,
            "value": 0.33858267716535434
          },
          {
            "number": 7,
            "time": 8.714277000000001,
            "value": 0.33858267716535434
          },
          {
            "number": 7,
            "time": 8.857134,
            "value": 0.3464566929133858
          },
          {
            "number": 7,
            "time": 8.857134,
            "value": 0.3464566929133858
          },
          {
            "number": 7,
            "time": 8.857134,
            "value": 0.3464566929133858
          },
          {
            "number": 7,
            "time": 9.03570525,
            "value": 0.3543307086614173
          },
          {
            "number": 7,
            "time": 9.03570525,
            "value": 0.3543307086614173
          },
          {
            "number": 7,
            "time": 9.03570525,
            "value": 0.3543307086614173
          },
          {
            "number": 7,
            "time": 9.178562249999999,
            "value": 0.36220472440944884
          },
          {
            "number": 7,
            "time": 9.178562249999999,
            "value": 0.36220472440944884
          },
          {
            "number": 7,
            "time": 9.178562249999999,
            "value": 0.36220472440944884
          },
          {
            "number": 7,
            "time": 9.357133499999998,
            "value": 0.3700787401574803
          },
          {
            "number": 7,
            "time": 9.357133499999998,
            "value": 0.3700787401574803
          },
          {
            "number": 7,
            "time": 9.357133499999998,
            "value": 0.3700787401574803
          },
          {
            "number": 7,
            "time": 9.499990499999997,
            "value": 0.3779527559055118
          },
          {
            "number": 7,
            "time": 9.499990499999997,
            "value": 0.3779527559055118
          },
          {
            "number": 7,
            "time": 9.499990499999997,
            "value": 0.3779527559055118
          },
          {
            "number": 7,
            "time": 9.678561749999997,
            "value": 0.3858267716535433
          },
          {
            "number": 7,
            "time": 9.678561749999997,
            "value": 0.3858267716535433
          },
          {
            "number": 7,
            "time": 9.678561749999997,
            "value": 0.3858267716535433
          },
          {
            "number": 7,
            "time": 9.821418749999996,
            "value": 0.3937007874015748
          },
          {
            "number": 7,
            "time": 9.821418749999996,
            "value": 0.3937007874015748
          },
          {
            "number": 7,
            "time": 9.821418749999996,
            "value": 0.3937007874015748
          },
          {
            "number": 7,
            "time": 9.999989999999995,
            "value": 0.4015748031496063
          },
          {
            "number": 7,
            "time": 9.999989999999995,
            "value": 0.4015748031496063
          },
          {
            "number": 7,
            "time": 9.999989999999995,
            "value": 0.4015748031496063
          },
          {
            "number": 7,
            "time": 10.142846999999994,
            "value": 0.4094488188976378
          },
          {
            "number": 7,
            "time": 10.142846999999994,
            "value": 0.4094488188976378
          },
          {
            "number": 7,
            "time": 10.142846999999994,
            "value": 0.4094488188976378
          },
          {
            "number": 7,
            "time": 10.321418249999994,
            "value": 0.41732283464566927
          },
          {
            "number": 7,
            "time": 10.321418249999994,
            "value": 0.41732283464566927
          },
          {
            "number": 7,
            "time": 10.321418249999994,
            "value": 0.41732283464566927
          },
          {
            "number": 7,
            "time": 10.464275249999993,
            "value": 0.4251968503937008
          },
          {
            "number": 7,
            "time": 10.464275249999993,
            "value": 0.4251968503937008
          },
          {
            "number": 7,
            "time": 10.464275249999993,
            "value": 0.4251968503937008
          },
          {
            "number": 7,
            "time": 10.642846499999992,
            "value": 0.4330708661417323
          },
          {
            "number": 7,
            "time": 10.642846499999992,
            "value": 0.4330708661417323
          },
          {
            "number": 7,
            "time": 10.642846499999992,
            "value": 0.4330708661417323
          },
          {
            "number": 7,
            "time": 10.785703499999991,
            "value": 0.4409448818897638
          },
          {
            "number": 7,
            "time": 10.785703499999991,
            "value": 0.4409448818897638
          },
          {
            "number": 7,
            "time": 10.785703499999991,
            "value": 0.4409448818897638
          },
          {
            "number": 7,
            "time": 10.96427474999999,
            "value": 0.44881889763779526
          },
          {
            "number": 7,
            "time": 10.96427474999999,
            "value": 0.44881889763779526
          },
          {
            "number": 7,
            "time": 10.96427474999999,
            "value": 0.44881889763779526
          },
          {
            "number": 7,
            "time": 11.14284599999999,
            "value": 0.4566929133858268
          },
          {
            "number": 7,
            "time": 11.14284599999999,
            "value": 0.4566929133858268
          },
          {
            "number": 7,
            "time": 11.14284599999999,
            "value": 0.4566929133858268
          },
          {
            "number": 7,
            "time": 11.28570299999999,
            "value": 0.4645669291338583
          },
          {
            "number": 7,
            "time": 11.28570299999999,
            "value": 0.4645669291338583
          },
          {
            "number": 7,
            "time": 11.28570299999999,
            "value": 0.4645669291338583
          },
          {
            "number": 7,
            "time": 11.464274249999988,
            "value": 0.47244094488188976
          },
          {
            "number": 7,
            "time": 11.464274249999988,
            "value": 0.47244094488188976
          },
          {
            "number": 7,
            "time": 11.464274249999988,
            "value": 0.47244094488188976
          },
          {
            "number": 7,
            "time": 11.607131249999988,
            "value": 0.48031496062992124
          },
          {
            "number": 7,
            "time": 11.607131249999988,
            "value": 0.48031496062992124
          },
          {
            "number": 7,
            "time": 11.607131249999988,
            "value": 0.48031496062992124
          },
          {
            "number": 7,
            "time": 11.785702499999987,
            "value": 0.4881889763779528
          },
          {
            "number": 7,
            "time": 11.785702499999987,
            "value": 0.4881889763779528
          },
          {
            "number": 7,
            "time": 11.785702499999987,
            "value": 0.4881889763779528
          },
          {
            "number": 7,
            "time": 11.928559499999986,
            "value": 0.49606299212598426
          },
          {
            "number": 7,
            "time": 11.928559499999986,
            "value": 0.49606299212598426
          },
          {
            "number": 7,
            "time": 11.928559499999986,
            "value": 0.49606299212598426
          },
          {
            "number": 7,
            "time": 12.107130749999985,
            "value": 0.5039370078740157
          },
          {
            "number": 7,
            "time": 12.107130749999985,
            "value": 0.5039370078740157
          },
          {
            "number": 7,
            "time": 12.107130749999985,
            "value": 0.5039370078740157
          },
          {
            "number": 7,
            "time": 12.249987749999985,
            "value": 0.5118110236220472
          },
          {
            "number": 7,
            "time": 12.249987749999985,
            "value": 0.5118110236220472
          },
          {
            "number": 7,
            "time": 12.249987749999985,
            "value": 0.5118110236220472
          },
          {
            "number": 7,
            "time": 12.428558999999984,
            "value": 0.5196850393700787
          },
          {
            "number": 7,
            "time": 12.428558999999984,
            "value": 0.5196850393700787
          },
          {
            "number": 7,
            "time": 12.428558999999984,
            "value": 0.5196850393700787
          },
          {
            "number": 7,
            "time": 12.571415999999983,
            "value": 0.5275590551181102
          },
          {
            "number": 7,
            "time": 12.571415999999983,
            "value": 0.5275590551181102
          },
          {
            "number": 7,
            "time": 12.571415999999983,
            "value": 0.5275590551181102
          },
          {
            "number": 7,
            "time": 12.749987249999982,
            "value": 0.5354330708661418
          },
          {
            "number": 7,
            "time": 12.749987249999982,
            "value": 0.5354330708661418
          },
          {
            "number": 7,
            "time": 12.749987249999982,
            "value": 0.5354330708661418
          },
          {
            "number": 7,
            "time": 12.892844249999982,
            "value": 0.5433070866141733
          },
          {
            "number": 7,
            "time": 12.892844249999982,
            "value": 0.5433070866141733
          },
          {
            "number": 7,
            "time": 12.892844249999982,
            "value": 0.5433070866141733
          },
          {
            "number": 7,
            "time": 13.071415499999981,
            "value": 0.5511811023622047
          },
          {
            "number": 7,
            "time": 13.071415499999981,
            "value": 0.5511811023622047
          },
          {
            "number": 7,
            "time": 13.071415499999981,
            "value": 0.5511811023622047
          },
          {
            "number": 7,
            "time": 13.21427249999998,
            "value": 0.5590551181102362
          },
          {
            "number": 7,
            "time": 13.21427249999998,
            "value": 0.5590551181102362
          },
          {
            "number": 7,
            "time": 13.21427249999998,
            "value": 0.5590551181102362
          },
          {
            "number": 7,
            "time": 13.39284374999998,
            "value": 0.5669291338582677
          },
          {
            "number": 7,
            "time": 13.39284374999998,
            "value": 0.5669291338582677
          },
          {
            "number": 7,
            "time": 13.39284374999998,
            "value": 0.5669291338582677
          },
          {
            "number": 7,
            "time": 13.571414999999979,
            "value": 0.5748031496062992
          },
          {
            "number": 7,
            "time": 13.571414999999979,
            "value": 0.5748031496062992
          },
          {
            "number": 7,
            "time": 13.571414999999979,
            "value": 0.5748031496062992
          },
          {
            "number": 7,
            "time": 13.714271999999978,
            "value": 0.5826771653543307
          },
          {
            "number": 7,
            "time": 13.714271999999978,
            "value": 0.5826771653543307
          },
          {
            "number": 7,
            "time": 13.714271999999978,
            "value": 0.5826771653543307
          },
          {
            "number": 7,
            "time": 13.892843249999977,
            "value": 0.5905511811023622
          },
          {
            "number": 7,
            "time": 13.892843249999977,
            "value": 0.5905511811023622
          },
          {
            "number": 7,
            "time": 13.892843249999977,
            "value": 0.5905511811023622
          },
          {
            "number": 7,
            "time": 14.035700249999977,
            "value": 0.5984251968503937
          },
          {
            "number": 7,
            "time": 14.035700249999977,
            "value": 0.5984251968503937
          },
          {
            "number": 7,
            "time": 14.035700249999977,
            "value": 0.5984251968503937
          },
          {
            "number": 7,
            "time": 14.214271499999976,
            "value": 0.6062992125984252
          },
          {
            "number": 7,
            "time": 14.214271499999976,
            "value": 0.6062992125984252
          },
          {
            "number": 7,
            "time": 14.214271499999976,
            "value": 0.6062992125984252
          },
          {
            "number": 7,
            "time": 14.357128499999975,
            "value": 0.6141732283464567
          },
          {
            "number": 7,
            "time": 14.357128499999975,
            "value": 0.6141732283464567
          },
          {
            "number": 7,
            "time": 14.357128499999975,
            "value": 0.6141732283464567
          },
          {
            "number": 7,
            "time": 14.535699749999974,
            "value": 0.6220472440944882
          },
          {
            "number": 7,
            "time": 14.535699749999974,
            "value": 0.6220472440944882
          },
          {
            "number": 7,
            "time": 14.535699749999974,
            "value": 0.6220472440944882
          },
          {
            "number": 7,
            "time": 14.678556749999974,
            "value": 0.6299212598425197
          },
          {
            "number": 7,
            "time": 14.678556749999974,
            "value": 0.6299212598425197
          },
          {
            "number": 7,
            "time": 14.678556749999974,
            "value": 0.6299212598425197
          },
          {
            "number": 7,
            "time": 14.857127999999973,
            "value": 0.6377952755905512
          },
          {
            "number": 7,
            "time": 14.857127999999973,
            "value": 0.6377952755905512
          },
          {
            "number": 7,
            "time": 14.857127999999973,
            "value": 0.6377952755905512
          },
          {
            "number": 7,
            "time": 14.999984999999972,
            "value": 0.6456692913385826
          },
          {
            "number": 7,
            "time": 14.999984999999972,
            "value": 0.6456692913385826
          },
          {
            "number": 7,
            "time": 14.999984999999972,
            "value": 0.6456692913385826
          },
          {
            "number": 7,
            "time": 15.178556249999971,
            "value": 0.6535433070866141
          },
          {
            "number": 7,
            "time": 15.178556249999971,
            "value": 0.6535433070866141
          },
          {
            "number": 7,
            "time": 15.178556249999971,
            "value": 0.6535433070866141
          },
          {
            "number": 7,
            "time": 15.32141324999997,
            "value": 0.6614173228346457
          },
          {
            "number": 7,
            "time": 15.32141324999997,
            "value": 0.6614173228346457
          },
          {
            "number": 7,
            "time": 15.32141324999997,
            "value": 0.6614173228346457
          },
          {
            "number": 7,
            "time": 15.49998449999997,
            "value": 0.6692913385826772
          },
          {
            "number": 7,
            "time": 15.49998449999997,
            "value": 0.6692913385826772
          },
          {
            "number": 7,
            "time": 15.49998449999997,
            "value": 0.6692913385826772
          },
          {
            "number": 7,
            "time": 15.678555749999969,
            "value": 0.6771653543307087
          },
          {
            "number": 7,
            "time": 15.678555749999969,
            "value": 0.6771653543307087
          },
          {
            "number": 7,
            "time": 15.678555749999969,
            "value": 0.6771653543307087
          },
          {
            "number": 7,
            "time": 15.821412749999968,
            "value": 0.6850393700787402
          },
          {
            "number": 7,
            "time": 15.821412749999968,
            "value": 0.6850393700787402
          },
          {
            "number": 7,
            "time": 15.821412749999968,
            "value": 0.6850393700787402
          },
          {
            "number": 7,
            "time": 15.999983999999968,
            "value": 0.6929133858267716
          },
          {
            "number": 7,
            "time": 15.999983999999968,
            "value": 0.6929133858267716
          },
          {
            "number": 7,
            "time": 15.999983999999968,
            "value": 0.6929133858267716
          },
          {
            "number": 7,
            "time": 16.14284099999997,
            "value": 0.7007874015748031
          },
          {
            "number": 7,
            "time": 16.14284099999997,
            "value": 0.7007874015748031
          },
          {
            "number": 7,
            "time": 16.14284099999997,
            "value": 0.7007874015748031
          },
          {
            "number": 7,
            "time": 16.32141224999997,
            "value": 0.7086614173228346
          },
          {
            "number": 7,
            "time": 16.32141224999997,
            "value": 0.7086614173228346
          },
          {
            "number": 7,
            "time": 16.32141224999997,
            "value": 0.7086614173228346
          },
          {
            "number": 7,
            "time": 16.46426924999997,
            "value": 0.7165354330708661
          },
          {
            "number": 7,
            "time": 16.46426924999997,
            "value": 0.7165354330708661
          },
          {
            "number": 7,
            "time": 16.46426924999997,
            "value": 0.7165354330708661
          },
          {
            "number": 7,
            "time": 16.64284049999997,
            "value": 0.7244094488188977
          },
          {
            "number": 7,
            "time": 16.64284049999997,
            "value": 0.7244094488188977
          },
          {
            "number": 7,
            "time": 16.64284049999997,
            "value": 0.7244094488188977
          },
          {
            "number": 7,
            "time": 16.78569749999997,
            "value": 0.7322834645669292
          },
          {
            "number": 7,
            "time": 16.78569749999997,
            "value": 0.7322834645669292
          },
          {
            "number": 7,
            "time": 16.78569749999997,
            "value": 0.7322834645669292
          },
          {
            "number": 7,
            "time": 16.964268749999974,
            "value": 0.7401574803149606
          },
          {
            "number": 7,
            "time": 16.964268749999974,
            "value": 0.7401574803149606
          },
          {
            "number": 7,
            "time": 16.964268749999974,
            "value": 0.7401574803149606
          },
          {
            "number": 7,
            "time": 17.107125749999977,
            "value": 0.7480314960629921
          },
          {
            "number": 7,
            "time": 17.107125749999977,
            "value": 0.7480314960629921
          },
          {
            "number": 7,
            "time": 17.107125749999977,
            "value": 0.7480314960629921
          },
          {
            "number": 7,
            "time": 17.28569699999998,
            "value": 0.7559055118110236
          },
          {
            "number": 7,
            "time": 17.28569699999998,
            "value": 0.7559055118110236
          },
          {
            "number": 7,
            "time": 17.28569699999998,
            "value": 0.7559055118110236
          },
          {
            "number": 7,
            "time": 17.42855399999998,
            "value": 0.7637795275590551
          },
          {
            "number": 7,
            "time": 17.42855399999998,
            "value": 0.7637795275590551
          },
          {
            "number": 7,
            "time": 17.42855399999998,
            "value": 0.7637795275590551
          },
          {
            "number": 7,
            "time": 17.60712524999998,
            "value": 0.7716535433070866
          },
          {
            "number": 7,
            "time": 17.60712524999998,
            "value": 0.7716535433070866
          },
          {
            "number": 7,
            "time": 17.60712524999998,
            "value": 0.7716535433070866
          },
          {
            "number": 7,
            "time": 17.749982249999984,
            "value": 0.7795275590551181
          },
          {
            "number": 7,
            "time": 17.749982249999984,
            "value": 0.7795275590551181
          },
          {
            "number": 7,
            "time": 17.749982249999984,
            "value": 0.7795275590551181
          },
          {
            "number": 7,
            "time": 17.928553499999985,
            "value": 0.7874015748031497
          },
          {
            "number": 7,
            "time": 17.928553499999985,
            "value": 0.7874015748031497
          },
          {
            "number": 7,
            "time": 17.928553499999985,
            "value": 0.7874015748031497
          },
          {
            "number": 7,
            "time": 18.107124749999986,
            "value": 0.7952755905511811
          },
          {
            "number": 7,
            "time": 18.107124749999986,
            "value": 0.7952755905511811
          },
          {
            "number": 7,
            "time": 18.107124749999986,
            "value": 0.7952755905511811
          },
          {
            "number": 7,
            "time": 18.24998174999999,
            "value": 0.8031496062992126
          },
          {
            "number": 7,
            "time": 18.24998174999999,
            "value": 0.8031496062992126
          },
          {
            "number": 7,
            "time": 18.24998174999999,
            "value": 0.8031496062992126
          },
          {
            "number": 7,
            "time": 18.428552999999994,
            "value": 0.8110236220472441
          },
          {
            "number": 7,
            "time": 18.428552999999994,
            "value": 0.8110236220472441
          },
          {
            "number": 7,
            "time": 18.428552999999994,
            "value": 0.8110236220472441
          },
          {
            "number": 7,
            "time": 18.571409999999993,
            "value": 0.8188976377952756
          },
          {
            "number": 7,
            "time": 18.571409999999993,
            "value": 0.8188976377952756
          },
          {
            "number": 7,
            "time": 18.571409999999993,
            "value": 0.8188976377952756
          },
          {
            "number": 7,
            "time": 18.749981249999994,
            "value": 0.8267716535433071
          },
          {
            "number": 7,
            "time": 18.749981249999994,
            "value": 0.8267716535433071
          },
          {
            "number": 7,
            "time": 18.749981249999994,
            "value": 0.8267716535433071
          },
          {
            "number": 7,
            "time": 18.892838249999997,
            "value": 0.8346456692913385
          },
          {
            "number": 7,
            "time": 18.892838249999997,
            "value": 0.8346456692913385
          },
          {
            "number": 7,
            "time": 18.892838249999997,
            "value": 0.8346456692913385
          },
          {
            "number": 7,
            "time": 19.071409499999998,
            "value": 0.84251968503937
          },
          {
            "number": 7,
            "time": 19.071409499999998,
            "value": 0.84251968503937
          },
          {
            "number": 7,
            "time": 19.071409499999998,
            "value": 0.84251968503937
          },
          {
            "number": 7,
            "time": 19.2142665,
            "value": 0.8503937007874016
          },
          {
            "number": 7,
            "time": 19.2142665,
            "value": 0.8503937007874016
          },
          {
            "number": 7,
            "time": 19.2142665,
            "value": 0.8503937007874016
          },
          {
            "number": 7,
            "time": 19.39283775,
            "value": 0.8582677165354331
          },
          {
            "number": 7,
            "time": 19.39283775,
            "value": 0.8582677165354331
          },
          {
            "number": 7,
            "time": 19.39283775,
            "value": 0.8582677165354331
          },
          {
            "number": 7,
            "time": 19.535694750000005,
            "value": 0.8661417322834646
          },
          {
            "number": 7,
            "time": 19.535694750000005,
            "value": 0.8661417322834646
          },
          {
            "number": 7,
            "time": 19.535694750000005,
            "value": 0.8661417322834646
          },
          {
            "number": 7,
            "time": 19.714266000000006,
            "value": 0.8740157480314961
          },
          {
            "number": 7,
            "time": 19.714266000000006,
            "value": 0.8740157480314961
          },
          {
            "number": 7,
            "time": 19.714266000000006,
            "value": 0.8740157480314961
          },
          {
            "number": 7,
            "time": 19.85712300000001,
            "value": 0.8818897637795275
          },
          {
            "number": 7,
            "time": 19.85712300000001,
            "value": 0.8818897637795275
          },
          {
            "number": 7,
            "time": 19.85712300000001,
            "value": 0.8818897637795275
          },
          {
            "number": 7,
            "time": 20.035694250000013,
            "value": 0.889763779527559
          },
          {
            "number": 7,
            "time": 20.035694250000013,
            "value": 0.889763779527559
          },
          {
            "number": 7,
            "time": 20.035694250000013,
            "value": 0.889763779527559
          },
          {
            "number": 7,
            "time": 20.214265500000014,
            "value": 0.8976377952755905
          },
          {
            "number": 7,
            "time": 20.214265500000014,
            "value": 0.8976377952755905
          },
          {
            "number": 7,
            "time": 20.214265500000014,
            "value": 0.8976377952755905
          },
          {
            "number": 7,
            "time": 20.357122500000017,
            "value": 0.905511811023622
          },
          {
            "number": 7,
            "time": 20.357122500000017,
            "value": 0.905511811023622
          },
          {
            "number": 7,
            "time": 20.357122500000017,
            "value": 0.905511811023622
          },
          {
            "number": 7,
            "time": 20.535693750000018,
            "value": 0.9133858267716536
          },
          {
            "number": 7,
            "time": 20.535693750000018,
            "value": 0.9133858267716536
          },
          {
            "number": 7,
            "time": 20.535693750000018,
            "value": 0.9133858267716536
          },
          {
            "number": 7,
            "time": 20.67855075000002,
            "value": 0.9212598425196851
          },
          {
            "number": 7,
            "time": 20.67855075000002,
            "value": 0.9212598425196851
          },
          {
            "number": 7,
            "time": 20.67855075000002,
            "value": 0.9212598425196851
          },
          {
            "number": 7,
            "time": 20.85712200000002,
            "value": 0.9291338582677166
          },
          {
            "number": 7,
            "time": 20.85712200000002,
            "value": 0.9291338582677166
          },
          {
            "number": 7,
            "time": 20.85712200000002,
            "value": 0.9291338582677166
          },
          {
            "number": 7,
            "time": 20.99997900000002,
            "value": 0.937007874015748
          },
          {
            "number": 7,
            "time": 20.99997900000002,
            "value": 0.937007874015748
          },
          {
            "number": 7,
            "time": 20.99997900000002,
            "value": 0.937007874015748
          },
          {
            "number": 7,
            "time": 21.178550250000026,
            "value": 0.9448818897637795
          },
          {
            "number": 7,
            "time": 21.178550250000026,
            "value": 0.9448818897637795
          },
          {
            "number": 7,
            "time": 21.178550250000026,
            "value": 0.9448818897637795
          },
          {
            "number": 7,
            "time": 21.32140725000003,
            "value": 0.952755905511811
          },
          {
            "number": 7,
            "time": 21.32140725000003,
            "value": 0.952755905511811
          },
          {
            "number": 7,
            "time": 21.32140725000003,
            "value": 0.952755905511811
          },
          {
            "number": 7,
            "time": 21.49997850000003,
            "value": 0.9606299212598425
          },
          {
            "number": 7,
            "time": 21.49997850000003,
            "value": 0.9606299212598425
          },
          {
            "number": 7,
            "time": 21.49997850000003,
            "value": 0.9606299212598425
          },
          {
            "number": 7,
            "time": 21.64283550000003,
            "value": 0.968503937007874
          },
          {
            "number": 7,
            "time": 21.64283550000003,
            "value": 0.968503937007874
          },
          {
            "number": 7,
            "time": 21.64283550000003,
            "value": 0.968503937007874
          },
          {
            "number": 7,
            "time": 21.82140675000003,
            "value": 0.9763779527559056
          },
          {
            "number": 7,
            "time": 21.82140675000003,
            "value": 0.9763779527559056
          },
          {
            "number": 7,
            "time": 21.82140675000003,
            "value": 0.9763779527559056
          },
          {
            "number": 7,
            "time": 21.964263750000033,
            "value": 0.984251968503937
          },
          {
            "number": 7,
            "time": 21.964263750000033,
            "value": 0.984251968503937
          },
          {
            "number": 7,
            "time": 21.964263750000033,
            "value": 0.984251968503937
          },
          {
            "number": 7,
            "time": 22.142835000000034,
            "value": 0.9921259842519685
          },
          {
            "number": 7,
            "time": 22.142835000000034,
            "value": 0.9921259842519685
          },
          {
            "number": 7,
            "time": 22.142835000000034,
            "value": 0.9921259842519685
          },
          {
            "number": 7,
            "time": 22.284203906250035,
            "value": 1
          },
          {
            "number": 7,
            "time": 22.284203906250035,
            "value": 1
          },
          {
            "number": 7,
            "time": 22.284203906250035,
            "value": 1
          },
          {
            "number": 7,
            "time": 175.05339637500035,
            "value": 0.7874015748031497
          }
        ],
        "10": [
          {
            "number": 10,
            "time": 0,
            "value": 0
          },
          {
            "number": 10,
            "time": 5.071423500000003,
            "value": 0.14960629921259844
          },
          {
            "number": 10,
            "time": 5.071423500000003,
            "value": 0.14960629921259844
          },
          {
            "number": 10,
            "time": 5.071423500000003,
            "value": 0.14960629921259844
          },
          {
            "number": 10,
            "time": 5.2499947500000035,
            "value": 0.15748031496062992
          },
          {
            "number": 10,
            "time": 5.2499947500000035,
            "value": 0.15748031496062992
          },
          {
            "number": 10,
            "time": 5.2499947500000035,
            "value": 0.15748031496062992
          },
          {
            "number": 10,
            "time": 5.4285660000000036,
            "value": 0.16535433070866143
          },
          {
            "number": 10,
            "time": 5.4285660000000036,
            "value": 0.16535433070866143
          },
          {
            "number": 10,
            "time": 5.4285660000000036,
            "value": 0.16535433070866143
          },
          {
            "number": 10,
            "time": 5.607137250000004,
            "value": 0.1732283464566929
          },
          {
            "number": 10,
            "time": 5.607137250000004,
            "value": 0.1732283464566929
          },
          {
            "number": 10,
            "time": 5.607137250000004,
            "value": 0.1732283464566929
          },
          {
            "number": 10,
            "time": 5.785708500000004,
            "value": 0.18110236220472442
          },
          {
            "number": 10,
            "time": 5.785708500000004,
            "value": 0.18110236220472442
          },
          {
            "number": 10,
            "time": 5.785708500000004,
            "value": 0.18110236220472442
          },
          {
            "number": 10,
            "time": 5.928565500000004,
            "value": 0.1889763779527559
          },
          {
            "number": 10,
            "time": 5.928565500000004,
            "value": 0.1889763779527559
          },
          {
            "number": 10,
            "time": 5.928565500000004,
            "value": 0.1889763779527559
          },
          {
            "number": 10,
            "time": 6.107136750000004,
            "value": 0.1968503937007874
          },
          {
            "number": 10,
            "time": 6.107136750000004,
            "value": 0.1968503937007874
          },
          {
            "number": 10,
            "time": 6.107136750000004,
            "value": 0.1968503937007874
          },
          {
            "number": 10,
            "time": 6.285708000000004,
            "value": 0.2047244094488189
          },
          {
            "number": 10,
            "time": 6.285708000000004,
            "value": 0.2047244094488189
          },
          {
            "number": 10,
            "time": 6.285708000000004,
            "value": 0.2047244094488189
          },
          {
            "number": 10,
            "time": 6.464279250000004,
            "value": 0.2125984251968504
          },
          {
            "number": 10,
            "time": 6.464279250000004,
            "value": 0.2125984251968504
          },
          {
            "number": 10,
            "time": 6.464279250000004,
            "value": 0.2125984251968504
          },
          {
            "number": 10,
            "time": 6.642850500000004,
            "value": 0.2204724409448819
          },
          {
            "number": 10,
            "time": 6.642850500000004,
            "value": 0.2204724409448819
          },
          {
            "number": 10,
            "time": 6.642850500000004,
            "value": 0.2204724409448819
          },
          {
            "number": 10,
            "time": 6.821421750000004,
            "value": 0.2283464566929134
          },
          {
            "number": 10,
            "time": 6.821421750000004,
            "value": 0.2283464566929134
          },
          {
            "number": 10,
            "time": 6.821421750000004,
            "value": 0.2283464566929134
          },
          {
            "number": 10,
            "time": 6.9999930000000035,
            "value": 0.23622047244094488
          },
          {
            "number": 10,
            "time": 6.9999930000000035,
            "value": 0.23622047244094488
          },
          {
            "number": 10,
            "time": 6.9999930000000035,
            "value": 0.23622047244094488
          },
          {
            "number": 10,
            "time": 7.178564250000003,
            "value": 0.2440944881889764
          },
          {
            "number": 10,
            "time": 7.178564250000003,
            "value": 0.2440944881889764
          },
          {
            "number": 10,
            "time": 7.178564250000003,
            "value": 0.2440944881889764
          },
          {
            "number": 10,
            "time": 7.357135500000003,
            "value": 0.25196850393700787
          },
          {
            "number": 10,
            "time": 7.357135500000003,
            "value": 0.25196850393700787
          },
          {
            "number": 10,
            "time": 7.357135500000003,
            "value": 0.25196850393700787
          },
          {
            "number": 10,
            "time": 7.535706750000003,
            "value": 0.25984251968503935
          },
          {
            "number": 10,
            "time": 7.535706750000003,
            "value": 0.25984251968503935
          },
          {
            "number": 10,
            "time": 7.535706750000003,
            "value": 0.25984251968503935
          },
          {
            "number": 10,
            "time": 7.714278000000003,
            "value": 0.2677165354330709
          },
          {
            "number": 10,
            "time": 7.714278000000003,
            "value": 0.2677165354330709
          },
          {
            "number": 10,
            "time": 7.714278000000003,
            "value": 0.2677165354330709
          },
          {
            "number": 10,
            "time": 7.857135000000003,
            "value": 0.2755905511811024
          },
          {
            "number": 10,
            "time": 7.857135000000003,
            "value": 0.2755905511811024
          },
          {
            "number": 10,
            "time": 7.857135000000003,
            "value": 0.2755905511811024
          },
          {
            "number": 10,
            "time": 8.035706250000004,
            "value": 0.28346456692913385
          },
          {
            "number": 10,
            "time": 8.035706250000004,
            "value": 0.28346456692913385
          },
          {
            "number": 10,
            "time": 8.035706250000004,
            "value": 0.28346456692913385
          },
          {
            "number": 10,
            "time": 8.214277500000003,
            "value": 0.29133858267716534
          },
          {
            "number": 10,
            "time": 8.214277500000003,
            "value": 0.29133858267716534
          },
          {
            "number": 10,
            "time": 8.214277500000003,
            "value": 0.29133858267716534
          },
          {
            "number": 10,
            "time": 8.392848750000002,
            "value": 0.2992125984251969
          },
          {
            "number": 10,
            "time": 8.392848750000002,
            "value": 0.2992125984251969
          },
          {
            "number": 10,
            "time": 8.392848750000002,
            "value": 0.2992125984251969
          },
          {
            "number": 10,
            "time": 8.571420000000002,
            "value": 0.30708661417322836
          },
          {
            "number": 10,
            "time": 8.571420000000002,
            "value": 0.30708661417322836
          },
          {
            "number": 10,
            "time": 8.571420000000002,
            "value": 0.30708661417322836
          },
          {
            "number": 10,
            "time": 8.74999125,
            "value": 0.31496062992125984
          },
          {
            "number": 10,
            "time": 8.74999125,
            "value": 0.31496062992125984
          },
          {
            "number": 10,
            "time": 8.74999125,
            "value": 0.31496062992125984
          },
          {
            "number": 10,
            "time": 8.9285625,
            "value": 0.3228346456692913
          },
          {
            "number": 10,
            "time": 8.9285625,
            "value": 0.3228346456692913
          },
          {
            "number": 10,
            "time": 8.9285625,
            "value": 0.3228346456692913
          },
          {
            "number": 10,
            "time": 9.10713375,
            "value": 0.33070866141732286
          },
          {
            "number": 10,
            "time": 9.10713375,
            "value": 0.33070866141732286
          },
          {
            "number": 10,
            "time": 9.10713375,
            "value": 0.33070866141732286
          },
          {
            "number": 10,
            "time": 9.285704999999998,
            "value": 0.33858267716535434
          },
          {
            "number": 10,
            "time": 9.285704999999998,
            "value": 0.33858267716535434
          },
          {
            "number": 10,
            "time": 9.285704999999998,
            "value": 0.33858267716535434
          },
          {
            "number": 10,
            "time": 9.464276249999998,
            "value": 0.3464566929133858
          },
          {
            "number": 10,
            "time": 9.464276249999998,
            "value": 0.3464566929133858
          },
          {
            "number": 10,
            "time": 9.464276249999998,
            "value": 0.3464566929133858
          },
          {
            "number": 10,
            "time": 9.642847499999997,
            "value": 0.3543307086614173
          },
          {
            "number": 10,
            "time": 9.642847499999997,
            "value": 0.3543307086614173
          },
          {
            "number": 10,
            "time": 9.642847499999997,
            "value": 0.3543307086614173
          },
          {
            "number": 10,
            "time": 9.821418749999996,
            "value": 0.36220472440944884
          },
          {
            "number": 10,
            "time": 9.821418749999996,
            "value": 0.36220472440944884
          },
          {
            "number": 10,
            "time": 9.821418749999996,
            "value": 0.36220472440944884
          },
          {
            "number": 10,
            "time": 9.964275749999995,
            "value": 0.3700787401574803
          },
          {
            "number": 10,
            "time": 9.964275749999995,
            "value": 0.3700787401574803
          },
          {
            "number": 10,
            "time": 9.964275749999995,
            "value": 0.3700787401574803
          },
          {
            "number": 10,
            "time": 10.142846999999994,
            "value": 0.3779527559055118
          },
          {
            "number": 10,
            "time": 10.142846999999994,
            "value": 0.3779527559055118
          },
          {
            "number": 10,
            "time": 10.142846999999994,
            "value": 0.3779527559055118
          },
          {
            "number": 10,
            "time": 10.321418249999994,
            "value": 0.3858267716535433
          },
          {
            "number": 10,
            "time": 10.321418249999994,
            "value": 0.3858267716535433
          },
          {
            "number": 10,
            "time": 10.321418249999994,
            "value": 0.3858267716535433
          },
          {
            "number": 10,
            "time": 10.499989499999993,
            "value": 0.3937007874015748
          },
          {
            "number": 10,
            "time": 10.499989499999993,
            "value": 0.3937007874015748
          },
          {
            "number": 10,
            "time": 10.499989499999993,
            "value": 0.3937007874015748
          },
          {
            "number": 10,
            "time": 10.678560749999992,
            "value": 0.4015748031496063
          },
          {
            "number": 10,
            "time": 10.678560749999992,
            "value": 0.4015748031496063
          },
          {
            "number": 10,
            "time": 10.678560749999992,
            "value": 0.4015748031496063
          },
          {
            "number": 10,
            "time": 10.857131999999991,
            "value": 0.4094488188976378
          },
          {
            "number": 10,
            "time": 10.857131999999991,
            "value": 0.4094488188976378
          },
          {
            "number": 10,
            "time": 10.857131999999991,
            "value": 0.4094488188976378
          },
          {
            "number": 10,
            "time": 11.03570324999999,
            "value": 0.41732283464566927
          },
          {
            "number": 10,
            "time": 11.03570324999999,
            "value": 0.41732283464566927
          },
          {
            "number": 10,
            "time": 11.03570324999999,
            "value": 0.41732283464566927
          },
          {
            "number": 10,
            "time": 11.21427449999999,
            "value": 0.4251968503937008
          },
          {
            "number": 10,
            "time": 11.21427449999999,
            "value": 0.4251968503937008
          },
          {
            "number": 10,
            "time": 11.21427449999999,
            "value": 0.4251968503937008
          },
          {
            "number": 10,
            "time": 11.392845749999989,
            "value": 0.4330708661417323
          },
          {
            "number": 10,
            "time": 11.392845749999989,
            "value": 0.4330708661417323
          },
          {
            "number": 10,
            "time": 11.392845749999989,
            "value": 0.4330708661417323
          },
          {
            "number": 10,
            "time": 11.571416999999988,
            "value": 0.4409448818897638
          },
          {
            "number": 10,
            "time": 11.571416999999988,
            "value": 0.4409448818897638
          },
          {
            "number": 10,
            "time": 11.571416999999988,
            "value": 0.4409448818897638
          },
          {
            "number": 10,
            "time": 11.749988249999987,
            "value": 0.44881889763779526
          },
          {
            "number": 10,
            "time": 11.749988249999987,
            "value": 0.44881889763779526
          },
          {
            "number": 10,
            "time": 11.749988249999987,
            "value": 0.44881889763779526
          },
          {
            "number": 10,
            "time": 11.892845249999986,
            "value": 0.4566929133858268
          },
          {
            "number": 10,
            "time": 11.892845249999986,
            "value": 0.4566929133858268
          },
          {
            "number": 10,
            "time": 11.892845249999986,
            "value": 0.4566929133858268
          },
          {
            "number": 10,
            "time": 12.071416499999986,
            "value": 0.4645669291338583
          },
          {
            "number": 10,
            "time": 12.071416499999986,
            "value": 0.4645669291338583
          },
          {
            "number": 10,
            "time": 12.071416499999986,
            "value": 0.4645669291338583
          },
          {
            "number": 10,
            "time": 12.249987749999985,
            "value": 0.47244094488188976
          },
          {
            "number": 10,
            "time": 12.249987749999985,
            "value": 0.47244094488188976
          },
          {
            "number": 10,
            "time": 12.249987749999985,
            "value": 0.47244094488188976
          },
          {
            "number": 10,
            "time": 12.428558999999984,
            "value": 0.48031496062992124
          },
          {
            "number": 10,
            "time": 12.428558999999984,
            "value": 0.48031496062992124
          },
          {
            "number": 10,
            "time": 12.428558999999984,
            "value": 0.48031496062992124
          },
          {
            "number": 10,
            "time": 12.607130249999983,
            "value": 0.4881889763779528
          },
          {
            "number": 10,
            "time": 12.607130249999983,
            "value": 0.4881889763779528
          },
          {
            "number": 10,
            "time": 12.607130249999983,
            "value": 0.4881889763779528
          },
          {
            "number": 10,
            "time": 12.785701499999982,
            "value": 0.49606299212598426
          },
          {
            "number": 10,
            "time": 12.785701499999982,
            "value": 0.49606299212598426
          },
          {
            "number": 10,
            "time": 12.785701499999982,
            "value": 0.49606299212598426
          },
          {
            "number": 10,
            "time": 12.964272749999981,
            "value": 0.5039370078740157
          },
          {
            "number": 10,
            "time": 12.964272749999981,
            "value": 0.5039370078740157
          },
          {
            "number": 10,
            "time": 12.964272749999981,
            "value": 0.5039370078740157
          },
          {
            "number": 10,
            "time": 13.14284399999998,
            "value": 0.5118110236220472
          },
          {
            "number": 10,
            "time": 13.14284399999998,
            "value": 0.5118110236220472
          },
          {
            "number": 10,
            "time": 13.14284399999998,
            "value": 0.5118110236220472
          },
          {
            "number": 10,
            "time": 13.32141524999998,
            "value": 0.5196850393700787
          },
          {
            "number": 10,
            "time": 13.32141524999998,
            "value": 0.5196850393700787
          },
          {
            "number": 10,
            "time": 13.32141524999998,
            "value": 0.5196850393700787
          },
          {
            "number": 10,
            "time": 13.499986499999979,
            "value": 0.5275590551181102
          },
          {
            "number": 10,
            "time": 13.499986499999979,
            "value": 0.5275590551181102
          },
          {
            "number": 10,
            "time": 13.499986499999979,
            "value": 0.5275590551181102
          },
          {
            "number": 10,
            "time": 13.678557749999978,
            "value": 0.5354330708661418
          },
          {
            "number": 10,
            "time": 13.678557749999978,
            "value": 0.5354330708661418
          },
          {
            "number": 10,
            "time": 13.678557749999978,
            "value": 0.5354330708661418
          },
          {
            "number": 10,
            "time": 13.857128999999977,
            "value": 0.5433070866141733
          },
          {
            "number": 10,
            "time": 13.857128999999977,
            "value": 0.5433070866141733
          },
          {
            "number": 10,
            "time": 13.857128999999977,
            "value": 0.5433070866141733
          },
          {
            "number": 10,
            "time": 13.999985999999977,
            "value": 0.5511811023622047
          },
          {
            "number": 10,
            "time": 13.999985999999977,
            "value": 0.5511811023622047
          },
          {
            "number": 10,
            "time": 13.999985999999977,
            "value": 0.5511811023622047
          },
          {
            "number": 10,
            "time": 14.178557249999976,
            "value": 0.5590551181102362
          },
          {
            "number": 10,
            "time": 14.178557249999976,
            "value": 0.5590551181102362
          },
          {
            "number": 10,
            "time": 14.178557249999976,
            "value": 0.5590551181102362
          },
          {
            "number": 10,
            "time": 14.357128499999975,
            "value": 0.5669291338582677
          },
          {
            "number": 10,
            "time": 14.357128499999975,
            "value": 0.5669291338582677
          },
          {
            "number": 10,
            "time": 14.357128499999975,
            "value": 0.5669291338582677
          },
          {
            "number": 10,
            "time": 14.535699749999974,
            "value": 0.5748031496062992
          },
          {
            "number": 10,
            "time": 14.535699749999974,
            "value": 0.5748031496062992
          },
          {
            "number": 10,
            "time": 14.535699749999974,
            "value": 0.5748031496062992
          },
          {
            "number": 10,
            "time": 14.714270999999973,
            "value": 0.5826771653543307
          },
          {
            "number": 10,
            "time": 14.714270999999973,
            "value": 0.5826771653543307
          },
          {
            "number": 10,
            "time": 14.714270999999973,
            "value": 0.5826771653543307
          },
          {
            "number": 10,
            "time": 14.892842249999973,
            "value": 0.5905511811023622
          },
          {
            "number": 10,
            "time": 14.892842249999973,
            "value": 0.5905511811023622
          },
          {
            "number": 10,
            "time": 14.892842249999973,
            "value": 0.5905511811023622
          },
          {
            "number": 10,
            "time": 15.071413499999972,
            "value": 0.5984251968503937
          },
          {
            "number": 10,
            "time": 15.071413499999972,
            "value": 0.5984251968503937
          },
          {
            "number": 10,
            "time": 15.071413499999972,
            "value": 0.5984251968503937
          },
          {
            "number": 10,
            "time": 15.249984749999971,
            "value": 0.6062992125984252
          },
          {
            "number": 10,
            "time": 15.249984749999971,
            "value": 0.6062992125984252
          },
          {
            "number": 10,
            "time": 15.249984749999971,
            "value": 0.6062992125984252
          },
          {
            "number": 10,
            "time": 15.42855599999997,
            "value": 0.6141732283464567
          },
          {
            "number": 10,
            "time": 15.42855599999997,
            "value": 0.6141732283464567
          },
          {
            "number": 10,
            "time": 15.42855599999997,
            "value": 0.6141732283464567
          },
          {
            "number": 10,
            "time": 15.60712724999997,
            "value": 0.6220472440944882
          },
          {
            "number": 10,
            "time": 15.60712724999997,
            "value": 0.6220472440944882
          },
          {
            "number": 10,
            "time": 15.60712724999997,
            "value": 0.6220472440944882
          },
          {
            "number": 10,
            "time": 15.785698499999969,
            "value": 0.6299212598425197
          },
          {
            "number": 10,
            "time": 15.785698499999969,
            "value": 0.6299212598425197
          },
          {
            "number": 10,
            "time": 15.785698499999969,
            "value": 0.6299212598425197
          },
          {
            "number": 10,
            "time": 15.928555499999968,
            "value": 0.6377952755905512
          },
          {
            "number": 10,
            "time": 15.928555499999968,
            "value": 0.6377952755905512
          },
          {
            "number": 10,
            "time": 15.928555499999968,
            "value": 0.6377952755905512
          },
          {
            "number": 10,
            "time": 16.107126749999967,
            "value": 0.6456692913385826
          },
          {
            "number": 10,
            "time": 16.107126749999967,
            "value": 0.6456692913385826
          },
          {
            "number": 10,
            "time": 16.107126749999967,
            "value": 0.6456692913385826
          },
          {
            "number": 10,
            "time": 16.285697999999968,
            "value": 0.6535433070866141
          },
          {
            "number": 10,
            "time": 16.285697999999968,
            "value": 0.6535433070866141
          },
          {
            "number": 10,
            "time": 16.285697999999968,
            "value": 0.6535433070866141
          },
          {
            "number": 10,
            "time": 16.46426924999997,
            "value": 0.6614173228346457
          },
          {
            "number": 10,
            "time": 16.46426924999997,
            "value": 0.6614173228346457
          },
          {
            "number": 10,
            "time": 16.46426924999997,
            "value": 0.6614173228346457
          },
          {
            "number": 10,
            "time": 16.64284049999997,
            "value": 0.6692913385826772
          },
          {
            "number": 10,
            "time": 16.64284049999997,
            "value": 0.6692913385826772
          },
          {
            "number": 10,
            "time": 16.64284049999997,
            "value": 0.6692913385826772
          },
          {
            "number": 10,
            "time": 16.82141174999997,
            "value": 0.6771653543307087
          },
          {
            "number": 10,
            "time": 16.82141174999997,
            "value": 0.6771653543307087
          },
          {
            "number": 10,
            "time": 16.82141174999997,
            "value": 0.6771653543307087
          },
          {
            "number": 10,
            "time": 16.999982999999975,
            "value": 0.6850393700787402
          },
          {
            "number": 10,
            "time": 16.999982999999975,
            "value": 0.6850393700787402
          },
          {
            "number": 10,
            "time": 16.999982999999975,
            "value": 0.6850393700787402
          },
          {
            "number": 10,
            "time": 17.17855424999998,
            "value": 0.6929133858267716
          },
          {
            "number": 10,
            "time": 17.17855424999998,
            "value": 0.6929133858267716
          },
          {
            "number": 10,
            "time": 17.17855424999998,
            "value": 0.6929133858267716
          },
          {
            "number": 10,
            "time": 17.35712549999998,
            "value": 0.7007874015748031
          },
          {
            "number": 10,
            "time": 17.35712549999998,
            "value": 0.7007874015748031
          },
          {
            "number": 10,
            "time": 17.35712549999998,
            "value": 0.7007874015748031
          },
          {
            "number": 10,
            "time": 17.535696749999982,
            "value": 0.7086614173228346
          },
          {
            "number": 10,
            "time": 17.535696749999982,
            "value": 0.7086614173228346
          },
          {
            "number": 10,
            "time": 17.535696749999982,
            "value": 0.7086614173228346
          },
          {
            "number": 10,
            "time": 17.714267999999983,
            "value": 0.7165354330708661
          },
          {
            "number": 10,
            "time": 17.714267999999983,
            "value": 0.7165354330708661
          },
          {
            "number": 10,
            "time": 17.714267999999983,
            "value": 0.7165354330708661
          },
          {
            "number": 10,
            "time": 17.892839249999984,
            "value": 0.7244094488188977
          },
          {
            "number": 10,
            "time": 17.892839249999984,
            "value": 0.7244094488188977
          },
          {
            "number": 10,
            "time": 17.892839249999984,
            "value": 0.7244094488188977
          },
          {
            "number": 10,
            "time": 18.035696249999987,
            "value": 0.7322834645669292
          },
          {
            "number": 10,
            "time": 18.035696249999987,
            "value": 0.7322834645669292
          },
          {
            "number": 10,
            "time": 18.035696249999987,
            "value": 0.7322834645669292
          },
          {
            "number": 10,
            "time": 18.214267499999988,
            "value": 0.7401574803149606
          },
          {
            "number": 10,
            "time": 18.214267499999988,
            "value": 0.7401574803149606
          },
          {
            "number": 10,
            "time": 18.214267499999988,
            "value": 0.7401574803149606
          },
          {
            "number": 10,
            "time": 18.392838749999992,
            "value": 0.7480314960629921
          },
          {
            "number": 10,
            "time": 18.392838749999992,
            "value": 0.7480314960629921
          },
          {
            "number": 10,
            "time": 18.392838749999992,
            "value": 0.7480314960629921
          },
          {
            "number": 10,
            "time": 18.571409999999993,
            "value": 0.7559055118110236
          },
          {
            "number": 10,
            "time": 18.571409999999993,
            "value": 0.7559055118110236
          },
          {
            "number": 10,
            "time": 18.571409999999993,
            "value": 0.7559055118110236
          },
          {
            "number": 10,
            "time": 18.749981249999994,
            "value": 0.7637795275590551
          },
          {
            "number": 10,
            "time": 18.749981249999994,
            "value": 0.7637795275590551
          },
          {
            "number": 10,
            "time": 18.749981249999994,
            "value": 0.7637795275590551
          },
          {
            "number": 10,
            "time": 18.9285525,
            "value": 0.7716535433070866
          },
          {
            "number": 10,
            "time": 18.9285525,
            "value": 0.7716535433070866
          },
          {
            "number": 10,
            "time": 18.9285525,
            "value": 0.7716535433070866
          },
          {
            "number": 10,
            "time": 19.10712375,
            "value": 0.7795275590551181
          },
          {
            "number": 10,
            "time": 19.10712375,
            "value": 0.7795275590551181
          },
          {
            "number": 10,
            "time": 19.10712375,
            "value": 0.7795275590551181
          },
          {
            "number": 10,
            "time": 19.285695,
            "value": 0.7874015748031497
          },
          {
            "number": 10,
            "time": 19.285695,
            "value": 0.7874015748031497
          },
          {
            "number": 10,
            "time": 19.285695,
            "value": 0.7874015748031497
          },
          {
            "number": 10,
            "time": 19.464266250000005,
            "value": 0.7952755905511811
          },
          {
            "number": 10,
            "time": 19.464266250000005,
            "value": 0.7952755905511811
          },
          {
            "number": 10,
            "time": 19.464266250000005,
            "value": 0.7952755905511811
          },
          {
            "number": 10,
            "time": 19.642837500000006,
            "value": 0.8031496062992126
          },
          {
            "number": 10,
            "time": 19.642837500000006,
            "value": 0.8031496062992126
          },
          {
            "number": 10,
            "time": 19.642837500000006,
            "value": 0.8031496062992126
          },
          {
            "number": 10,
            "time": 19.821408750000007,
            "value": 0.8110236220472441
          },
          {
            "number": 10,
            "time": 19.821408750000007,
            "value": 0.8110236220472441
          },
          {
            "number": 10,
            "time": 19.821408750000007,
            "value": 0.8110236220472441
          },
          {
            "number": 10,
            "time": 19.96426575000001,
            "value": 0.8188976377952756
          },
          {
            "number": 10,
            "time": 19.96426575000001,
            "value": 0.8188976377952756
          },
          {
            "number": 10,
            "time": 19.96426575000001,
            "value": 0.8188976377952756
          },
          {
            "number": 10,
            "time": 20.142837000000014,
            "value": 0.8267716535433071
          },
          {
            "number": 10,
            "time": 20.142837000000014,
            "value": 0.8267716535433071
          },
          {
            "number": 10,
            "time": 20.142837000000014,
            "value": 0.8267716535433071
          },
          {
            "number": 10,
            "time": 20.321408250000015,
            "value": 0.8346456692913385
          },
          {
            "number": 10,
            "time": 20.321408250000015,
            "value": 0.8346456692913385
          },
          {
            "number": 10,
            "time": 20.321408250000015,
            "value": 0.8346456692913385
          },
          {
            "number": 10,
            "time": 20.499979500000016,
            "value": 0.84251968503937
          },
          {
            "number": 10,
            "time": 20.499979500000016,
            "value": 0.84251968503937
          },
          {
            "number": 10,
            "time": 20.499979500000016,
            "value": 0.84251968503937
          },
          {
            "number": 10,
            "time": 20.67855075000002,
            "value": 0.8503937007874016
          },
          {
            "number": 10,
            "time": 20.67855075000002,
            "value": 0.8503937007874016
          },
          {
            "number": 10,
            "time": 20.67855075000002,
            "value": 0.8503937007874016
          },
          {
            "number": 10,
            "time": 20.85712200000002,
            "value": 0.8582677165354331
          },
          {
            "number": 10,
            "time": 20.85712200000002,
            "value": 0.8582677165354331
          },
          {
            "number": 10,
            "time": 20.85712200000002,
            "value": 0.8582677165354331
          },
          {
            "number": 10,
            "time": 21.035693250000023,
            "value": 0.8661417322834646
          },
          {
            "number": 10,
            "time": 21.035693250000023,
            "value": 0.8661417322834646
          },
          {
            "number": 10,
            "time": 21.035693250000023,
            "value": 0.8661417322834646
          },
          {
            "number": 10,
            "time": 21.214264500000027,
            "value": 0.8740157480314961
          },
          {
            "number": 10,
            "time": 21.214264500000027,
            "value": 0.8740157480314961
          },
          {
            "number": 10,
            "time": 21.214264500000027,
            "value": 0.8740157480314961
          },
          {
            "number": 10,
            "time": 21.392835750000028,
            "value": 0.8818897637795275
          },
          {
            "number": 10,
            "time": 21.392835750000028,
            "value": 0.8818897637795275
          },
          {
            "number": 10,
            "time": 21.392835750000028,
            "value": 0.8818897637795275
          },
          {
            "number": 10,
            "time": 21.57140700000003,
            "value": 0.889763779527559
          },
          {
            "number": 10,
            "time": 21.57140700000003,
            "value": 0.889763779527559
          },
          {
            "number": 10,
            "time": 21.57140700000003,
            "value": 0.889763779527559
          },
          {
            "number": 10,
            "time": 21.74997825000003,
            "value": 0.8976377952755905
          },
          {
            "number": 10,
            "time": 21.74997825000003,
            "value": 0.8976377952755905
          },
          {
            "number": 10,
            "time": 21.74997825000003,
            "value": 0.8976377952755905
          },
          {
            "number": 10,
            "time": 21.92854950000003,
            "value": 0.905511811023622
          },
          {
            "number": 10,
            "time": 21.92854950000003,
            "value": 0.905511811023622
          },
          {
            "number": 10,
            "time": 21.92854950000003,
            "value": 0.905511811023622
          },
          {
            "number": 10,
            "time": 22.071406500000034,
            "value": 0.9133858267716536
          },
          {
            "number": 10,
            "time": 22.071406500000034,
            "value": 0.9133858267716536
          },
          {
            "number": 10,
            "time": 22.071406500000034,
            "value": 0.9133858267716536
          },
          {
            "number": 10,
            "time": 22.249977750000035,
            "value": 0.9212598425196851
          },
          {
            "number": 10,
            "time": 22.249977750000035,
            "value": 0.9212598425196851
          },
          {
            "number": 10,
            "time": 22.249977750000035,
            "value": 0.9212598425196851
          },
          {
            "number": 10,
            "time": 22.428549000000036,
            "value": 0.9291338582677166
          },
          {
            "number": 10,
            "time": 22.428549000000036,
            "value": 0.9291338582677166
          },
          {
            "number": 10,
            "time": 22.428549000000036,
            "value": 0.9291338582677166
          },
          {
            "number": 10,
            "time": 22.607120250000037,
            "value": 0.937007874015748
          },
          {
            "number": 10,
            "time": 22.607120250000037,
            "value": 0.937007874015748
          },
          {
            "number": 10,
            "time": 22.607120250000037,
            "value": 0.937007874015748
          },
          {
            "number": 10,
            "time": 22.785691500000038,
            "value": 0.9448818897637795
          },
          {
            "number": 10,
            "time": 22.785691500000038,
            "value": 0.9448818897637795
          },
          {
            "number": 10,
            "time": 22.785691500000038,
            "value": 0.9448818897637795
          },
          {
            "number": 10,
            "time": 22.96426275000004,
            "value": 0.952755905511811
          },
          {
            "number": 10,
            "time": 22.96426275000004,
            "value": 0.952755905511811
          },
          {
            "number": 10,
            "time": 22.96426275000004,
            "value": 0.952755905511811
          },
          {
            "number": 10,
            "time": 23.14283400000004,
            "value": 0.9606299212598425
          },
          {
            "number": 10,
            "time": 23.14283400000004,
            "value": 0.9606299212598425
          },
          {
            "number": 10,
            "time": 23.14283400000004,
            "value": 0.9606299212598425
          },
          {
            "number": 10,
            "time": 23.32140525000004,
            "value": 0.968503937007874
          },
          {
            "number": 10,
            "time": 23.32140525000004,
            "value": 0.968503937007874
          },
          {
            "number": 10,
            "time": 23.32140525000004,
            "value": 0.968503937007874
          },
          {
            "number": 10,
            "time": 23.49997650000004,
            "value": 0.9763779527559056
          },
          {
            "number": 10,
            "time": 23.49997650000004,
            "value": 0.9763779527559056
          },
          {
            "number": 10,
            "time": 23.49997650000004,
            "value": 0.9763779527559056
          },
          {
            "number": 10,
            "time": 23.678547750000043,
            "value": 0.984251968503937
          },
          {
            "number": 10,
            "time": 23.678547750000043,
            "value": 0.984251968503937
          },
          {
            "number": 10,
            "time": 23.678547750000043,
            "value": 0.984251968503937
          },
          {
            "number": 10,
            "time": 23.857119000000043,
            "value": 0.9921259842519685
          },
          {
            "number": 10,
            "time": 23.857119000000043,
            "value": 0.9921259842519685
          },
          {
            "number": 10,
            "time": 23.857119000000043,
            "value": 0.9921259842519685
          },
          {
            "number": 10,
            "time": 23.998487906250045,
            "value": 1
          },
          {
            "number": 10,
            "time": 23.998487906250045,
            "value": 1
          },
          {
            "number": 10,
            "time": 23.998487906250045,
            "value": 1
          },
          {
            "number": 10,
            "time": 23.999976000000046,
            "value": 0.9921259842519685
          },
          {
            "number": 10,
            "time": 23.999976000000046,
            "value": 0.9921259842519685
          },
          {
            "number": 10,
            "time": 23.999976000000046,
            "value": 0.9921259842519685
          },
          {
            "number": 10,
            "time": 24.249975750000047,
            "value": 0.984251968503937
          },
          {
            "number": 10,
            "time": 24.249975750000047,
            "value": 0.984251968503937
          },
          {
            "number": 10,
            "time": 24.249975750000047,
            "value": 0.984251968503937
          },
          {
            "number": 10,
            "time": 24.46426125000005,
            "value": 0.9763779527559056
          },
          {
            "number": 10,
            "time": 24.46426125000005,
            "value": 0.9763779527559056
          },
          {
            "number": 10,
            "time": 24.46426125000005,
            "value": 0.9763779527559056
          },
          {
            "number": 10,
            "time": 24.678546750000052,
            "value": 0.968503937007874
          },
          {
            "number": 10,
            "time": 24.678546750000052,
            "value": 0.968503937007874
          },
          {
            "number": 10,
            "time": 24.678546750000052,
            "value": 0.968503937007874
          },
          {
            "number": 10,
            "time": 24.892832250000055,
            "value": 0.9606299212598425
          },
          {
            "number": 10,
            "time": 24.892832250000055,
            "value": 0.9606299212598425
          },
          {
            "number": 10,
            "time": 24.892832250000055,
            "value": 0.9606299212598425
          },
          {
            "number": 10,
            "time": 25.107117750000054,
            "value": 0.952755905511811
          },
          {
            "number": 10,
            "time": 25.107117750000054,
            "value": 0.952755905511811
          },
          {
            "number": 10,
            "time": 25.107117750000054,
            "value": 0.952755905511811
          },
          {
            "number": 10,
            "time": 25.321403250000056,
            "value": 0.9448818897637795
          },
          {
            "number": 10,
            "time": 25.321403250000056,
            "value": 0.9448818897637795
          },
          {
            "number": 10,
            "time": 25.321403250000056,
            "value": 0.9448818897637795
          },
          {
            "number": 10,
            "time": 25.53568875000006,
            "value": 0.937007874015748
          },
          {
            "number": 10,
            "time": 25.53568875000006,
            "value": 0.937007874015748
          },
          {
            "number": 10,
            "time": 25.53568875000006,
            "value": 0.937007874015748
          },
          {
            "number": 10,
            "time": 25.74997425000006,
            "value": 0.9291338582677166
          },
          {
            "number": 10,
            "time": 25.74997425000006,
            "value": 0.9291338582677166
          },
          {
            "number": 10,
            "time": 25.74997425000006,
            "value": 0.9291338582677166
          },
          {
            "number": 10,
            "time": 25.96425975000006,
            "value": 0.9212598425196851
          },
          {
            "number": 10,
            "time": 25.96425975000006,
            "value": 0.9212598425196851
          },
          {
            "number": 10,
            "time": 25.96425975000006,
            "value": 0.9212598425196851
          },
          {
            "number": 10,
            "time": 26.178545250000063,
            "value": 0.9133858267716536
          },
          {
            "number": 10,
            "time": 26.178545250000063,
            "value": 0.9133858267716536
          },
          {
            "number": 10,
            "time": 26.178545250000063,
            "value": 0.9133858267716536
          },
          {
            "number": 10,
            "time": 26.428545000000064,
            "value": 0.905511811023622
          },
          {
            "number": 10,
            "time": 26.428545000000064,
            "value": 0.905511811023622
          },
          {
            "number": 10,
            "time": 26.428545000000064,
            "value": 0.905511811023622
          },
          {
            "number": 10,
            "time": 26.642830500000063,
            "value": 0.8976377952755905
          },
          {
            "number": 10,
            "time": 26.642830500000063,
            "value": 0.8976377952755905
          },
          {
            "number": 10,
            "time": 26.642830500000063,
            "value": 0.8976377952755905
          },
          {
            "number": 10,
            "time": 26.85711600000006,
            "value": 0.889763779527559
          },
          {
            "number": 10,
            "time": 26.85711600000006,
            "value": 0.889763779527559
          },
          {
            "number": 10,
            "time": 26.85711600000006,
            "value": 0.889763779527559
          },
          {
            "number": 10,
            "time": 27.07140150000006,
            "value": 0.8818897637795275
          },
          {
            "number": 10,
            "time": 27.07140150000006,
            "value": 0.8818897637795275
          },
          {
            "number": 10,
            "time": 27.07140150000006,
            "value": 0.8818897637795275
          },
          {
            "number": 10,
            "time": 27.28568700000006,
            "value": 0.8740157480314961
          },
          {
            "number": 10,
            "time": 27.28568700000006,
            "value": 0.8740157480314961
          },
          {
            "number": 10,
            "time": 27.28568700000006,
            "value": 0.8740157480314961
          },
          {
            "number": 10,
            "time": 27.49997250000006,
            "value": 0.8661417322834646
          },
          {
            "number": 10,
            "time": 27.49997250000006,
            "value": 0.8661417322834646
          },
          {
            "number": 10,
            "time": 27.49997250000006,
            "value": 0.8661417322834646
          },
          {
            "number": 10,
            "time": 27.714258000000058,
            "value": 0.8582677165354331
          },
          {
            "number": 10,
            "time": 27.714258000000058,
            "value": 0.8582677165354331
          },
          {
            "number": 10,
            "time": 27.714258000000058,
            "value": 0.8582677165354331
          },
          {
            "number": 10,
            "time": 27.928543500000057,
            "value": 0.8503937007874016
          },
          {
            "number": 10,
            "time": 27.928543500000057,
            "value": 0.8503937007874016
          },
          {
            "number": 10,
            "time": 27.928543500000057,
            "value": 0.8503937007874016
          },
          {
            "number": 10,
            "time": 28.142829000000056,
            "value": 0.84251968503937
          },
          {
            "number": 10,
            "time": 28.142829000000056,
            "value": 0.84251968503937
          },
          {
            "number": 10,
            "time": 28.142829000000056,
            "value": 0.84251968503937
          },
          {
            "number": 10,
            "time": 28.357114500000055,
            "value": 0.8346456692913385
          },
          {
            "number": 10,
            "time": 28.357114500000055,
            "value": 0.8346456692913385
          },
          {
            "number": 10,
            "time": 28.357114500000055,
            "value": 0.8346456692913385
          },
          {
            "number": 10,
            "time": 28.571400000000054,
            "value": 0.8267716535433071
          },
          {
            "number": 10,
            "time": 28.571400000000054,
            "value": 0.8267716535433071
          },
          {
            "number": 10,
            "time": 28.571400000000054,
            "value": 0.8267716535433071
          },
          {
            "number": 10,
            "time": 28.821399750000054,
            "value": 0.8188976377952756
          },
          {
            "number": 10,
            "time": 28.821399750000054,
            "value": 0.8188976377952756
          },
          {
            "number": 10,
            "time": 28.821399750000054,
            "value": 0.8188976377952756
          },
          {
            "number": 10,
            "time": 29.035685250000057,
            "value": 0.8110236220472441
          },
          {
            "number": 10,
            "time": 29.035685250000057,
            "value": 0.8110236220472441
          },
          {
            "number": 10,
            "time": 29.035685250000057,
            "value": 0.8110236220472441
          },
          {
            "number": 10,
            "time": 29.24997075000006,
            "value": 0.8031496062992126
          },
          {
            "number": 10,
            "time": 29.24997075000006,
            "value": 0.8031496062992126
          },
          {
            "number": 10,
            "time": 29.24997075000006,
            "value": 0.8031496062992126
          },
          {
            "number": 10,
            "time": 29.464256250000062,
            "value": 0.7952755905511811
          },
          {
            "number": 10,
            "time": 29.464256250000062,
            "value": 0.7952755905511811
          },
          {
            "number": 10,
            "time": 29.464256250000062,
            "value": 0.7952755905511811
          },
          {
            "number": 10,
            "time": 29.67854175000006,
            "value": 0.7874015748031497
          },
          {
            "number": 10,
            "time": 29.67854175000006,
            "value": 0.7874015748031497
          },
          {
            "number": 10,
            "time": 29.67854175000006,
            "value": 0.7874015748031497
          },
          {
            "number": 10,
            "time": 29.892827250000064,
            "value": 0.7795275590551181
          },
          {
            "number": 10,
            "time": 29.892827250000064,
            "value": 0.7795275590551181
          },
          {
            "number": 10,
            "time": 29.892827250000064,
            "value": 0.7795275590551181
          },
          {
            "number": 10,
            "time": 30.107112750000066,
            "value": 0.7716535433070866
          },
          {
            "number": 10,
            "time": 30.107112750000066,
            "value": 0.7716535433070866
          },
          {
            "number": 10,
            "time": 30.107112750000066,
            "value": 0.7716535433070866
          },
          {
            "number": 10,
            "time": 30.32139825000007,
            "value": 0.7637795275590551
          },
          {
            "number": 10,
            "time": 30.32139825000007,
            "value": 0.7637795275590551
          },
          {
            "number": 10,
            "time": 30.32139825000007,
            "value": 0.7637795275590551
          },
          {
            "number": 10,
            "time": 30.535683750000068,
            "value": 0.7559055118110236
          },
          {
            "number": 10,
            "time": 30.535683750000068,
            "value": 0.7559055118110236
          },
          {
            "number": 10,
            "time": 30.535683750000068,
            "value": 0.7559055118110236
          },
          {
            "number": 10,
            "time": 30.74996925000007,
            "value": 0.7480314960629921
          },
          {
            "number": 10,
            "time": 30.74996925000007,
            "value": 0.7480314960629921
          },
          {
            "number": 10,
            "time": 30.74996925000007,
            "value": 0.7480314960629921
          },
          {
            "number": 10,
            "time": 30.99996900000007,
            "value": 0.7401574803149606
          },
          {
            "number": 10,
            "time": 30.99996900000007,
            "value": 0.7401574803149606
          },
          {
            "number": 10,
            "time": 30.99996900000007,
            "value": 0.7401574803149606
          },
          {
            "number": 10,
            "time": 31.21425450000007,
            "value": 0.7322834645669292
          },
          {
            "number": 10,
            "time": 31.21425450000007,
            "value": 0.7322834645669292
          },
          {
            "number": 10,
            "time": 31.21425450000007,
            "value": 0.7322834645669292
          },
          {
            "number": 10,
            "time": 31.42854000000007,
            "value": 0.7244094488188977
          },
          {
            "number": 10,
            "time": 31.42854000000007,
            "value": 0.7244094488188977
          },
          {
            "number": 10,
            "time": 31.42854000000007,
            "value": 0.7244094488188977
          },
          {
            "number": 10,
            "time": 31.642825500000068,
            "value": 0.7165354330708661
          },
          {
            "number": 10,
            "time": 31.642825500000068,
            "value": 0.7165354330708661
          },
          {
            "number": 10,
            "time": 31.642825500000068,
            "value": 0.7165354330708661
          },
          {
            "number": 10,
            "time": 31.857111000000067,
            "value": 0.7086614173228346
          },
          {
            "number": 10,
            "time": 31.857111000000067,
            "value": 0.7086614173228346
          },
          {
            "number": 10,
            "time": 31.857111000000067,
            "value": 0.7086614173228346
          },
          {
            "number": 10,
            "time": 32.07139650000007,
            "value": 0.7007874015748031
          },
          {
            "number": 10,
            "time": 32.07139650000007,
            "value": 0.7007874015748031
          },
          {
            "number": 10,
            "time": 32.07139650000007,
            "value": 0.7007874015748031
          },
          {
            "number": 10,
            "time": 32.28568200000007,
            "value": 0.6929133858267716
          },
          {
            "number": 10,
            "time": 32.28568200000007,
            "value": 0.6929133858267716
          },
          {
            "number": 10,
            "time": 32.28568200000007,
            "value": 0.6929133858267716
          },
          {
            "number": 10,
            "time": 32.499967500000075,
            "value": 0.6850393700787402
          },
          {
            "number": 10,
            "time": 32.499967500000075,
            "value": 0.6850393700787402
          },
          {
            "number": 10,
            "time": 32.499967500000075,
            "value": 0.6850393700787402
          },
          {
            "number": 10,
            "time": 32.71425300000008,
            "value": 0.6771653543307087
          },
          {
            "number": 10,
            "time": 32.71425300000008,
            "value": 0.6771653543307087
          },
          {
            "number": 10,
            "time": 32.71425300000008,
            "value": 0.6771653543307087
          },
          {
            "number": 10,
            "time": 32.92853850000008,
            "value": 0.6692913385826772
          },
          {
            "number": 10,
            "time": 32.92853850000008,
            "value": 0.6692913385826772
          },
          {
            "number": 10,
            "time": 32.92853850000008,
            "value": 0.6692913385826772
          },
          {
            "number": 10,
            "time": 33.14282400000008,
            "value": 0.6614173228346457
          },
          {
            "number": 10,
            "time": 33.14282400000008,
            "value": 0.6614173228346457
          },
          {
            "number": 10,
            "time": 33.14282400000008,
            "value": 0.6614173228346457
          },
          {
            "number": 10,
            "time": 33.39282375000008,
            "value": 0.6535433070866141
          },
          {
            "number": 10,
            "time": 33.39282375000008,
            "value": 0.6535433070866141
          },
          {
            "number": 10,
            "time": 33.39282375000008,
            "value": 0.6535433070866141
          },
          {
            "number": 10,
            "time": 33.60710925000008,
            "value": 0.6456692913385826
          },
          {
            "number": 10,
            "time": 33.60710925000008,
            "value": 0.6456692913385826
          },
          {
            "number": 10,
            "time": 33.60710925000008,
            "value": 0.6456692913385826
          },
          {
            "number": 10,
            "time": 33.82139475000008,
            "value": 0.6377952755905512
          },
          {
            "number": 10,
            "time": 33.82139475000008,
            "value": 0.6377952755905512
          },
          {
            "number": 10,
            "time": 33.82139475000008,
            "value": 0.6377952755905512
          },
          {
            "number": 10,
            "time": 34.03568025000008,
            "value": 0.6299212598425197
          },
          {
            "number": 10,
            "time": 34.03568025000008,
            "value": 0.6299212598425197
          },
          {
            "number": 10,
            "time": 34.03568025000008,
            "value": 0.6299212598425197
          },
          {
            "number": 10,
            "time": 34.24996575000008,
            "value": 0.6220472440944882
          },
          {
            "number": 10,
            "time": 34.24996575000008,
            "value": 0.6220472440944882
          },
          {
            "number": 10,
            "time": 34.24996575000008,
            "value": 0.6220472440944882
          },
          {
            "number": 10,
            "time": 34.464251250000075,
            "value": 0.6141732283464567
          },
          {
            "number": 10,
            "time": 34.464251250000075,
            "value": 0.6141732283464567
          },
          {
            "number": 10,
            "time": 34.464251250000075,
            "value": 0.6141732283464567
          },
          {
            "number": 10,
            "time": 34.67853675000008,
            "value": 0.6062992125984252
          },
          {
            "number": 10,
            "time": 34.67853675000008,
            "value": 0.6062992125984252
          },
          {
            "number": 10,
            "time": 34.67853675000008,
            "value": 0.6062992125984252
          },
          {
            "number": 10,
            "time": 34.89282225000007,
            "value": 0.5984251968503937
          },
          {
            "number": 10,
            "time": 34.89282225000007,
            "value": 0.5984251968503937
          },
          {
            "number": 10,
            "time": 34.89282225000007,
            "value": 0.5984251968503937
          },
          {
            "number": 10,
            "time": 35.107107750000075,
            "value": 0.5905511811023622
          },
          {
            "number": 10,
            "time": 35.107107750000075,
            "value": 0.5905511811023622
          },
          {
            "number": 10,
            "time": 35.107107750000075,
            "value": 0.5905511811023622
          },
          {
            "number": 10,
            "time": 35.32139325000007,
            "value": 0.5826771653543307
          },
          {
            "number": 10,
            "time": 35.32139325000007,
            "value": 0.5826771653543307
          },
          {
            "number": 10,
            "time": 35.32139325000007,
            "value": 0.5826771653543307
          },
          {
            "number": 10,
            "time": 35.57139300000007,
            "value": 0.5748031496062992
          },
          {
            "number": 10,
            "time": 35.57139300000007,
            "value": 0.5748031496062992
          },
          {
            "number": 10,
            "time": 35.57139300000007,
            "value": 0.5748031496062992
          },
          {
            "number": 10,
            "time": 35.785678500000074,
            "value": 0.5669291338582677
          },
          {
            "number": 10,
            "time": 35.785678500000074,
            "value": 0.5669291338582677
          },
          {
            "number": 10,
            "time": 35.785678500000074,
            "value": 0.5669291338582677
          },
          {
            "number": 10,
            "time": 35.99996400000008,
            "value": 0.5590551181102362
          },
          {
            "number": 10,
            "time": 35.99996400000008,
            "value": 0.5590551181102362
          },
          {
            "number": 10,
            "time": 35.99996400000008,
            "value": 0.5590551181102362
          },
          {
            "number": 10,
            "time": 36.21424950000008,
            "value": 0.5511811023622047
          },
          {
            "number": 10,
            "time": 36.21424950000008,
            "value": 0.5511811023622047
          },
          {
            "number": 10,
            "time": 36.21424950000008,
            "value": 0.5511811023622047
          },
          {
            "number": 10,
            "time": 36.42853500000008,
            "value": 0.5433070866141733
          },
          {
            "number": 10,
            "time": 36.42853500000008,
            "value": 0.5433070866141733
          },
          {
            "number": 10,
            "time": 36.42853500000008,
            "value": 0.5433070866141733
          },
          {
            "number": 10,
            "time": 36.642820500000084,
            "value": 0.5354330708661418
          },
          {
            "number": 10,
            "time": 36.642820500000084,
            "value": 0.5354330708661418
          },
          {
            "number": 10,
            "time": 36.642820500000084,
            "value": 0.5354330708661418
          },
          {
            "number": 10,
            "time": 36.85710600000009,
            "value": 0.5275590551181102
          },
          {
            "number": 10,
            "time": 36.85710600000009,
            "value": 0.5275590551181102
          },
          {
            "number": 10,
            "time": 36.85710600000009,
            "value": 0.5275590551181102
          },
          {
            "number": 10,
            "time": 37.07139150000009,
            "value": 0.5196850393700787
          },
          {
            "number": 10,
            "time": 37.07139150000009,
            "value": 0.5196850393700787
          },
          {
            "number": 10,
            "time": 37.07139150000009,
            "value": 0.5196850393700787
          },
          {
            "number": 10,
            "time": 37.28567700000009,
            "value": 0.5118110236220472
          },
          {
            "number": 10,
            "time": 37.28567700000009,
            "value": 0.5118110236220472
          },
          {
            "number": 10,
            "time": 37.28567700000009,
            "value": 0.5118110236220472
          },
          {
            "number": 10,
            "time": 37.499962500000095,
            "value": 0.5039370078740157
          },
          {
            "number": 10,
            "time": 37.499962500000095,
            "value": 0.5039370078740157
          },
          {
            "number": 10,
            "time": 37.499962500000095,
            "value": 0.5039370078740157
          },
          {
            "number": 10,
            "time": 175.14268200000035,
            "value": 0.5039370078740157
          }
        ],
        "91": [
          {
            "number": 91,
            "time": 0,
            "value": 0.8818897637795275
          },
          {
            "number": 91,
            "time": 175.23196762500035,
            "value": 0.31496062992125984
          }
        ],
        "93": [
          {
            "number": 93,
            "time": 0.142857,
            "value": 0.7559055118110236
          },
          {
            "number": 93,
            "time": 175.37482462500034,
            "value": 0
          }
        ]
      },
      "id": 7,
      "instrumentNumber": 14,
      "instrument": "tubular bells",
      "instrumentFamily": "chromatic percussion",
      "channelNumber": 2,
      "isPercussion": false
    },
    {
      "startTime": 2.1428550000000004,
      "duration": 186.85695600000037,
      "length": 437,
      "notes": [
        {
          "name": "G4",
          "midi": 67,
          "time": 2.1428550000000004,
          "velocity": 0.8818897637795275,
          "duration": 0.4285709999999998
        },
        {
          "name": "G4",
          "midi": 67,
          "time": 2.571426,
          "velocity": 0.8818897637795275,
          "duration": 0.4285709999999998
        },
        {
          "name": "G4",
          "midi": 67,
          "time": 2.999997,
          "velocity": 0.8818897637795275,
          "duration": 0.4285709999999998
        },
        {
          "name": "G4",
          "midi": 67,
          "time": 3.428568,
          "velocity": 0.8818897637795275,
          "duration": 0.42857100000000026
        },
        {
          "name": "G4",
          "midi": 67,
          "time": 3.857139,
          "velocity": 0.8818897637795275,
          "duration": 0.4285710000000007
        },
        {
          "name": "G4",
          "midi": 67,
          "time": 4.285710000000001,
          "velocity": 0.8818897637795275,
          "duration": 0.4285709999999998
        },
        {
          "name": "G4",
          "midi": 67,
          "time": 4.714281000000001,
          "velocity": 0.8818897637795275,
          "duration": 0.4285709999999998
        },
        {
          "name": "G4",
          "midi": 67,
          "time": 8.57142,
          "velocity": 0.8818897637795275,
          "duration": 0.42857099999999804
        },
        {
          "name": "G4",
          "midi": 67,
          "time": 8.999990999999998,
          "velocity": 0.8818897637795275,
          "duration": 0.42857099999999804
        },
        {
          "name": "G4",
          "midi": 67,
          "time": 9.428561999999996,
          "velocity": 0.8818897637795275,
          "duration": 0.42857099999999804
        },
        {
          "name": "G4",
          "midi": 67,
          "time": 9.857132999999994,
          "velocity": 0.8818897637795275,
          "duration": 0.42857099999999804
        },
        {
          "name": "G4",
          "midi": 67,
          "time": 10.285703999999992,
          "velocity": 0.8818897637795275,
          "duration": 0.42857099999999804
        },
        {
          "name": "G4",
          "midi": 67,
          "time": 10.71427499999999,
          "velocity": 0.8818897637795275,
          "duration": 0.42857099999999804
        },
        {
          "name": "G4",
          "midi": 67,
          "time": 11.142845999999988,
          "velocity": 0.8818897637795275,
          "duration": 0.42857099999999804
        },
        {
          "name": "G4",
          "midi": 67,
          "time": 11.571416999999986,
          "velocity": 0.8818897637795275,
          "duration": 0.42857099999999804
        },
        {
          "name": "G4",
          "midi": 67,
          "time": 11.999987999999984,
          "velocity": 0.8818897637795275,
          "duration": 0.42857099999999804
        },
        {
          "name": "G4",
          "midi": 67,
          "time": 12.428558999999982,
          "velocity": 0.8818897637795275,
          "duration": 0.42857099999999804
        },
        {
          "name": "G4",
          "midi": 67,
          "time": 12.85712999999998,
          "velocity": 0.8818897637795275,
          "duration": 0.42857099999999804
        },
        {
          "name": "G4",
          "midi": 67,
          "time": 13.285700999999978,
          "velocity": 0.8818897637795275,
          "duration": 0.42857099999999804
        },
        {
          "name": "G4",
          "midi": 67,
          "time": 13.714271999999976,
          "velocity": 0.8818897637795275,
          "duration": 0.42857099999999804
        },
        {
          "name": "G4",
          "midi": 67,
          "time": 14.142842999999974,
          "velocity": 0.8818897637795275,
          "duration": 0.42857099999999804
        },
        {
          "name": "G4",
          "midi": 67,
          "time": 14.571413999999972,
          "velocity": 0.8818897637795275,
          "duration": 0.42857099999999804
        },
        {
          "name": "G4",
          "midi": 67,
          "time": 14.99998499999997,
          "velocity": 0.8818897637795275,
          "duration": 0.42857099999999804
        },
        {
          "name": "G4",
          "midi": 67,
          "time": 15.428555999999968,
          "velocity": 0.8818897637795275,
          "duration": 0.42857099999999804
        },
        {
          "name": "G4",
          "midi": 67,
          "time": 15.857126999999966,
          "velocity": 0.8818897637795275,
          "duration": 0.4285710000000016
        },
        {
          "name": "G4",
          "midi": 67,
          "time": 16.285697999999968,
          "velocity": 0.8818897637795275,
          "duration": 0.4285710000000016
        },
        {
          "name": "G4",
          "midi": 67,
          "time": 16.71426899999997,
          "velocity": 0.8818897637795275,
          "duration": 0.42857100000000514
        },
        {
          "name": "G4",
          "midi": 67,
          "time": 17.142839999999975,
          "velocity": 0.8818897637795275,
          "duration": 0.42857100000000514
        },
        {
          "name": "G4",
          "midi": 67,
          "time": 17.57141099999998,
          "velocity": 0.8818897637795275,
          "duration": 0.42857100000000514
        },
        {
          "name": "G4",
          "midi": 67,
          "time": 17.999981999999985,
          "velocity": 0.8818897637795275,
          "duration": 0.42857100000000514
        },
        {
          "name": "G4",
          "midi": 67,
          "time": 18.42855299999999,
          "velocity": 0.8818897637795275,
          "duration": 0.4285710000000016
        },
        {
          "name": "G4",
          "midi": 67,
          "time": 18.857123999999992,
          "velocity": 0.8818897637795275,
          "duration": 0.42857100000000514
        },
        {
          "name": "G4",
          "midi": 67,
          "time": 19.285694999999997,
          "velocity": 0.8818897637795275,
          "duration": 0.4285710000000016
        },
        {
          "name": "G4",
          "midi": 67,
          "time": 19.714266,
          "velocity": 0.8818897637795275,
          "duration": 0.42857100000000514
        },
        {
          "name": "G4",
          "midi": 67,
          "time": 20.142837000000004,
          "velocity": 0.8818897637795275,
          "duration": 0.42857100000000514
        },
        {
          "name": "G4",
          "midi": 67,
          "time": 20.57140800000001,
          "velocity": 0.8818897637795275,
          "duration": 0.4285710000000016
        },
        {
          "name": "G4",
          "midi": 67,
          "time": 20.99997900000001,
          "velocity": 0.8818897637795275,
          "duration": 0.42857100000000514
        },
        {
          "name": "G4",
          "midi": 67,
          "time": 21.428550000000016,
          "velocity": 0.8818897637795275,
          "duration": 0.4285710000000016
        },
        {
          "name": "G4",
          "midi": 67,
          "time": 21.857121000000017,
          "velocity": 0.8818897637795275,
          "duration": 0.42857100000000514
        },
        {
          "name": "G4",
          "midi": 67,
          "time": 22.285692000000022,
          "velocity": 0.8818897637795275,
          "duration": 0.4285710000000016
        },
        {
          "name": "G4",
          "midi": 67,
          "time": 22.714263000000024,
          "velocity": 0.8818897637795275,
          "duration": 0.4285710000000016
        },
        {
          "name": "G4",
          "midi": 67,
          "time": 23.142834000000025,
          "velocity": 0.8818897637795275,
          "duration": 0.4285710000000016
        },
        {
          "name": "G4",
          "midi": 67,
          "time": 23.571405000000027,
          "velocity": 0.8818897637795275,
          "duration": 0.42857100000000514
        },
        {
          "name": "G4",
          "midi": 67,
          "time": 23.999976000000032,
          "velocity": 0.8818897637795275,
          "duration": 0.4285710000000016
        },
        {
          "name": "G4",
          "midi": 67,
          "time": 24.428547000000034,
          "velocity": 0.8818897637795275,
          "duration": 0.4285710000000016
        },
        {
          "name": "G4",
          "midi": 67,
          "time": 24.857118000000035,
          "velocity": 0.8818897637795275,
          "duration": 0.4285710000000016
        },
        {
          "name": "G4",
          "midi": 67,
          "time": 25.285689000000037,
          "velocity": 0.8818897637795275,
          "duration": 0.4285710000000016
        },
        {
          "name": "G4",
          "midi": 67,
          "time": 25.71426000000004,
          "velocity": 0.8818897637795275,
          "duration": 0.4285710000000016
        },
        {
          "name": "G4",
          "midi": 67,
          "time": 26.14283100000004,
          "velocity": 0.8818897637795275,
          "duration": 0.4285710000000016
        },
        {
          "name": "G4",
          "midi": 67,
          "time": 26.57140200000004,
          "velocity": 0.8818897637795275,
          "duration": 0.42857099999999804
        },
        {
          "name": "G4",
          "midi": 67,
          "time": 26.99997300000004,
          "velocity": 0.8818897637795275,
          "duration": 0.42857099999999804
        },
        {
          "name": "G4",
          "midi": 67,
          "time": 27.428544000000038,
          "velocity": 0.8818897637795275,
          "duration": 0.42857099999999804
        },
        {
          "name": "G4",
          "midi": 67,
          "time": 27.857115000000036,
          "velocity": 0.8818897637795275,
          "duration": 0.42857099999999804
        },
        {
          "name": "G4",
          "midi": 67,
          "time": 28.285686000000034,
          "velocity": 0.8818897637795275,
          "duration": 0.42857099999999804
        },
        {
          "name": "G4",
          "midi": 67,
          "time": 28.714257000000032,
          "velocity": 0.8818897637795275,
          "duration": 0.4285710000000016
        },
        {
          "name": "G4",
          "midi": 67,
          "time": 29.142828000000033,
          "velocity": 0.8818897637795275,
          "duration": 0.4285710000000016
        },
        {
          "name": "G4",
          "midi": 67,
          "time": 29.571399000000035,
          "velocity": 0.8818897637795275,
          "duration": 0.4285710000000016
        },
        {
          "name": "G4",
          "midi": 67,
          "time": 29.999970000000037,
          "velocity": 0.8818897637795275,
          "duration": 0.4285710000000016
        },
        {
          "name": "G4",
          "midi": 67,
          "time": 30.42854100000004,
          "velocity": 0.8818897637795275,
          "duration": 0.4285710000000016
        },
        {
          "name": "G4",
          "midi": 67,
          "time": 30.85711200000004,
          "velocity": 0.8818897637795275,
          "duration": 0.42857099999999804
        },
        {
          "name": "G4",
          "midi": 67,
          "time": 31.285683000000038,
          "velocity": 0.8818897637795275,
          "duration": 0.42857099999999804
        },
        {
          "name": "G4",
          "midi": 67,
          "time": 31.714254000000036,
          "velocity": 0.8818897637795275,
          "duration": 0.4285710000000016
        },
        {
          "name": "G4",
          "midi": 67,
          "time": 32.14282500000004,
          "velocity": 0.8818897637795275,
          "duration": 0.42857100000000514
        },
        {
          "name": "G5",
          "midi": 79,
          "time": 32.57139600000004,
          "velocity": 0.8818897637795275,
          "duration": 0.42857100000000514
        },
        {
          "name": "G5",
          "midi": 79,
          "time": 32.99996700000005,
          "velocity": 0.8818897637795275,
          "duration": 0.42857099999999804
        },
        {
          "name": "G5",
          "midi": 79,
          "time": 33.428538000000046,
          "velocity": 0.8818897637795275,
          "duration": 0.42857099999999804
        },
        {
          "name": "G5",
          "midi": 79,
          "time": 33.857109000000044,
          "velocity": 0.8818897637795275,
          "duration": 0.42857099999999804
        },
        {
          "name": "G5",
          "midi": 79,
          "time": 34.28568000000004,
          "velocity": 0.8818897637795275,
          "duration": 0.42857099999999804
        },
        {
          "name": "G5",
          "midi": 79,
          "time": 34.71425100000004,
          "velocity": 0.8818897637795275,
          "duration": 0.42857099999999804
        },
        {
          "name": "G5",
          "midi": 79,
          "time": 35.14282200000004,
          "velocity": 0.8818897637795275,
          "duration": 0.42857099999999804
        },
        {
          "name": "G5",
          "midi": 79,
          "time": 35.571393000000036,
          "velocity": 0.8818897637795275,
          "duration": 0.42857100000000514
        },
        {
          "name": "G4",
          "midi": 67,
          "time": 35.99996400000004,
          "velocity": 0.8818897637795275,
          "duration": 0.42857100000000514
        },
        {
          "name": "G4",
          "midi": 67,
          "time": 36.428535000000046,
          "velocity": 0.8818897637795275,
          "duration": 0.42857100000000514
        },
        {
          "name": "G4",
          "midi": 67,
          "time": 36.85710600000005,
          "velocity": 0.8818897637795275,
          "duration": 0.42857100000000514
        },
        {
          "name": "G4",
          "midi": 67,
          "time": 37.28567700000006,
          "velocity": 0.8818897637795275,
          "duration": 0.42857100000000514
        },
        {
          "name": "G4",
          "midi": 67,
          "time": 37.71424800000006,
          "velocity": 0.8818897637795275,
          "duration": 0.42857099999999804
        },
        {
          "name": "G4",
          "midi": 67,
          "time": 38.14281900000006,
          "velocity": 0.8818897637795275,
          "duration": 0.42857099999999804
        },
        {
          "name": "G4",
          "midi": 67,
          "time": 38.57139000000006,
          "velocity": 0.8818897637795275,
          "duration": 0.42857099999999804
        },
        {
          "name": "G4",
          "midi": 67,
          "time": 38.999961000000056,
          "velocity": 0.8818897637795275,
          "duration": 0.42857099999999804
        },
        {
          "name": "G4",
          "midi": 67,
          "time": 39.428532000000054,
          "velocity": 0.8818897637795275,
          "duration": 0.42857099999999804
        },
        {
          "name": "G4",
          "midi": 67,
          "time": 39.85710300000005,
          "velocity": 0.8818897637795275,
          "duration": 0.42857099999999804
        },
        {
          "name": "G4",
          "midi": 67,
          "time": 40.28567400000005,
          "velocity": 0.8818897637795275,
          "duration": 0.42857099999999804
        },
        {
          "name": "G4",
          "midi": 67,
          "time": 40.71424500000005,
          "velocity": 0.8818897637795275,
          "duration": 0.42857099999999804
        },
        {
          "name": "G4",
          "midi": 67,
          "time": 41.142816000000046,
          "velocity": 0.8818897637795275,
          "duration": 0.42857099999999804
        },
        {
          "name": "G4",
          "midi": 67,
          "time": 41.571387000000044,
          "velocity": 0.8818897637795275,
          "duration": 0.42857099999999804
        },
        {
          "name": "G4",
          "midi": 67,
          "time": 41.99995800000004,
          "velocity": 0.8818897637795275,
          "duration": 0.42857099999999804
        },
        {
          "name": "G4",
          "midi": 67,
          "time": 42.42852900000004,
          "velocity": 0.8818897637795275,
          "duration": 0.42857099999999804
        },
        {
          "name": "B3",
          "midi": 59,
          "time": 42.85710000000004,
          "velocity": 0.8818897637795275,
          "duration": 0.2857139999999987
        },
        {
          "name": "B3",
          "midi": 59,
          "time": 43.14281400000004,
          "velocity": 0.8818897637795275,
          "duration": 0.2857139999999987
        },
        {
          "name": "B3",
          "midi": 59,
          "time": 43.428528000000036,
          "velocity": 0.8818897637795275,
          "duration": 0.2857139999999987
        },
        {
          "name": "B3",
          "midi": 59,
          "time": 43.714242000000034,
          "velocity": 0.8818897637795275,
          "duration": 0.2857139999999987
        },
        {
          "name": "B3",
          "midi": 59,
          "time": 43.99995600000003,
          "velocity": 0.8818897637795275,
          "duration": 0.2857139999999987
        },
        {
          "name": "B3",
          "midi": 59,
          "time": 44.28567000000003,
          "velocity": 0.8818897637795275,
          "duration": 0.2857139999999987
        },
        {
          "name": "B3",
          "midi": 59,
          "time": 44.57138400000003,
          "velocity": 0.8818897637795275,
          "duration": 0.2857139999999987
        },
        {
          "name": "B3",
          "midi": 59,
          "time": 44.85709800000003,
          "velocity": 0.8818897637795275,
          "duration": 0.2857139999999987
        },
        {
          "name": "B3",
          "midi": 59,
          "time": 45.14281200000003,
          "velocity": 0.8818897637795275,
          "duration": 0.2857139999999987
        },
        {
          "name": "B3",
          "midi": 59,
          "time": 45.428526000000026,
          "velocity": 0.8818897637795275,
          "duration": 0.2857139999999987
        },
        {
          "name": "B3",
          "midi": 59,
          "time": 45.714240000000025,
          "velocity": 0.8818897637795275,
          "duration": 0.14285699999999935
        },
        {
          "name": "B3",
          "midi": 59,
          "time": 45.857097000000024,
          "velocity": 0.8818897637795275,
          "duration": 0.2857139999999987
        },
        {
          "name": "B3",
          "midi": 59,
          "time": 46.14281100000002,
          "velocity": 0.8818897637795275,
          "duration": 0.14285699999999935
        },
        {
          "name": "B3",
          "midi": 59,
          "time": 46.28566800000002,
          "velocity": 0.8818897637795275,
          "duration": 0.2857139999999987
        },
        {
          "name": "B3",
          "midi": 59,
          "time": 46.57138200000002,
          "velocity": 0.8818897637795275,
          "duration": 0.2857139999999987
        },
        {
          "name": "B3",
          "midi": 59,
          "time": 46.85709600000002,
          "velocity": 0.8818897637795275,
          "duration": 0.2857139999999987
        },
        {
          "name": "B3",
          "midi": 59,
          "time": 47.14281000000002,
          "velocity": 0.8818897637795275,
          "duration": 0.2857139999999987
        },
        {
          "name": "B3",
          "midi": 59,
          "time": 47.42852400000002,
          "velocity": 0.8818897637795275,
          "duration": 0.2857139999999987
        },
        {
          "name": "B3",
          "midi": 59,
          "time": 47.714238000000016,
          "velocity": 0.8818897637795275,
          "duration": 0.2857139999999987
        },
        {
          "name": "B3",
          "midi": 59,
          "time": 47.999952000000015,
          "velocity": 0.8818897637795275,
          "duration": 0.2857139999999987
        },
        {
          "name": "B3",
          "midi": 59,
          "time": 48.28566600000001,
          "velocity": 0.8818897637795275,
          "duration": 0.2857139999999987
        },
        {
          "name": "B3",
          "midi": 59,
          "time": 48.57138000000001,
          "velocity": 0.8818897637795275,
          "duration": 0.2857139999999987
        },
        {
          "name": "B3",
          "midi": 59,
          "time": 48.85709400000001,
          "velocity": 0.8818897637795275,
          "duration": 0.2857139999999987
        },
        {
          "name": "B3",
          "midi": 59,
          "time": 49.14280800000001,
          "velocity": 0.8818897637795275,
          "duration": 0.14285699999999935
        },
        {
          "name": "B3",
          "midi": 59,
          "time": 49.28566500000001,
          "velocity": 0.8818897637795275,
          "duration": 0.2857139999999987
        },
        {
          "name": "B3",
          "midi": 59,
          "time": 49.57137900000001,
          "velocity": 0.8818897637795275,
          "duration": 0.14285699999999935
        },
        {
          "name": "B3",
          "midi": 59,
          "time": 49.71423600000001,
          "velocity": 0.8818897637795275,
          "duration": 0.2857139999999987
        },
        {
          "name": "B3",
          "midi": 59,
          "time": 49.999950000000005,
          "velocity": 0.8818897637795275,
          "duration": 0.2857139999999987
        },
        {
          "name": "B3",
          "midi": 59,
          "time": 50.285664000000004,
          "velocity": 0.8818897637795275,
          "duration": 0.2857139999999987
        },
        {
          "name": "B3",
          "midi": 59,
          "time": 50.571378,
          "velocity": 0.8818897637795275,
          "duration": 0.2857139999999987
        },
        {
          "name": "B3",
          "midi": 59,
          "time": 50.857092,
          "velocity": 0.8818897637795275,
          "duration": 0.2857139999999987
        },
        {
          "name": "B3",
          "midi": 59,
          "time": 51.142806,
          "velocity": 0.8818897637795275,
          "duration": 0.2857139999999987
        },
        {
          "name": "B3",
          "midi": 59,
          "time": 51.42852,
          "velocity": 0.8818897637795275,
          "duration": 0.2857139999999987
        },
        {
          "name": "B3",
          "midi": 59,
          "time": 51.714234,
          "velocity": 0.8818897637795275,
          "duration": 0.2857139999999987
        },
        {
          "name": "B3",
          "midi": 59,
          "time": 51.999947999999996,
          "velocity": 0.8818897637795275,
          "duration": 0.2857139999999987
        },
        {
          "name": "B3",
          "midi": 59,
          "time": 52.285661999999995,
          "velocity": 0.8818897637795275,
          "duration": 0.2857139999999987
        },
        {
          "name": "B3",
          "midi": 59,
          "time": 52.571375999999994,
          "velocity": 0.8818897637795275,
          "duration": 0.14285699999999935
        },
        {
          "name": "B3",
          "midi": 59,
          "time": 52.71423299999999,
          "velocity": 0.8818897637795275,
          "duration": 0.2857139999999987
        },
        {
          "name": "B3",
          "midi": 59,
          "time": 52.99994699999999,
          "velocity": 0.8818897637795275,
          "duration": 0.14285699999999935
        },
        {
          "name": "B3",
          "midi": 59,
          "time": 53.14280399999999,
          "velocity": 0.8818897637795275,
          "duration": 0.2857139999999987
        },
        {
          "name": "B3",
          "midi": 59,
          "time": 53.42851799999999,
          "velocity": 0.8818897637795275,
          "duration": 0.2857139999999987
        },
        {
          "name": "B3",
          "midi": 59,
          "time": 53.71423199999999,
          "velocity": 0.8818897637795275,
          "duration": 0.2857139999999987
        },
        {
          "name": "B3",
          "midi": 59,
          "time": 53.99994599999999,
          "velocity": 0.8818897637795275,
          "duration": 0.2857139999999987
        },
        {
          "name": "B3",
          "midi": 59,
          "time": 54.285659999999986,
          "velocity": 0.8818897637795275,
          "duration": 0.2857139999999987
        },
        {
          "name": "B3",
          "midi": 59,
          "time": 54.571373999999985,
          "velocity": 0.8818897637795275,
          "duration": 0.2857139999999987
        },
        {
          "name": "B3",
          "midi": 59,
          "time": 54.85708799999998,
          "velocity": 0.8818897637795275,
          "duration": 0.2857139999999987
        },
        {
          "name": "B3",
          "midi": 59,
          "time": 55.14280199999998,
          "velocity": 0.8818897637795275,
          "duration": 0.2857139999999987
        },
        {
          "name": "B3",
          "midi": 59,
          "time": 55.42851599999998,
          "velocity": 0.8818897637795275,
          "duration": 0.2857139999999987
        },
        {
          "name": "B3",
          "midi": 59,
          "time": 55.71422999999998,
          "velocity": 0.8818897637795275,
          "duration": 0.2857139999999987
        },
        {
          "name": "B3",
          "midi": 59,
          "time": 55.99994399999998,
          "velocity": 0.8818897637795275,
          "duration": 0.2857139999999987
        },
        {
          "name": "B3",
          "midi": 59,
          "time": 56.28565799999998,
          "velocity": 0.8818897637795275,
          "duration": 0.2857139999999987
        },
        {
          "name": "D4",
          "midi": 62,
          "time": 56.571371999999975,
          "velocity": 0.8818897637795275,
          "duration": 0.2857139999999987
        },
        {
          "name": "D4",
          "midi": 62,
          "time": 56.857085999999974,
          "velocity": 0.8818897637795275,
          "duration": 0.2857139999999987
        },
        {
          "name": "D4",
          "midi": 62,
          "time": 57.14279999999997,
          "velocity": 0.8818897637795275,
          "duration": 0.2857139999999987
        },
        {
          "name": "D4",
          "midi": 62,
          "time": 57.42851399999997,
          "velocity": 0.8818897637795275,
          "duration": 0.2857139999999987
        },
        {
          "name": "D4",
          "midi": 62,
          "time": 57.71422799999997,
          "velocity": 0.8818897637795275,
          "duration": 0.2857139999999987
        },
        {
          "name": "D4",
          "midi": 62,
          "time": 57.99994199999997,
          "velocity": 0.8818897637795275,
          "duration": 0.2857139999999987
        },
        {
          "name": "D4",
          "midi": 62,
          "time": 58.28565599999997,
          "velocity": 0.8818897637795275,
          "duration": 0.2857139999999987
        },
        {
          "name": "D4",
          "midi": 62,
          "time": 58.571369999999966,
          "velocity": 0.8818897637795275,
          "duration": 0.2857139999999987
        },
        {
          "name": "D4",
          "midi": 62,
          "time": 58.857083999999965,
          "velocity": 0.8818897637795275,
          "duration": 0.2857139999999987
        },
        {
          "name": "D4",
          "midi": 62,
          "time": 59.142797999999964,
          "velocity": 0.8818897637795275,
          "duration": 0.2857139999999987
        },
        {
          "name": "D4",
          "midi": 62,
          "time": 59.42851199999996,
          "velocity": 0.8818897637795275,
          "duration": 0.14285699999999935
        },
        {
          "name": "D4",
          "midi": 62,
          "time": 59.57136899999996,
          "velocity": 0.8818897637795275,
          "duration": 0.2857139999999987
        },
        {
          "name": "D4",
          "midi": 62,
          "time": 59.85708299999996,
          "velocity": 0.8818897637795275,
          "duration": 0.14285699999999935
        },
        {
          "name": "D4",
          "midi": 62,
          "time": 59.99993999999996,
          "velocity": 0.8818897637795275,
          "duration": 0.2857139999999987
        },
        {
          "name": "D4",
          "midi": 62,
          "time": 60.28565399999996,
          "velocity": 0.8818897637795275,
          "duration": 0.2857139999999987
        },
        {
          "name": "D4",
          "midi": 62,
          "time": 60.57136799999996,
          "velocity": 0.8818897637795275,
          "duration": 0.2857139999999987
        },
        {
          "name": "D4",
          "midi": 62,
          "time": 60.857081999999956,
          "velocity": 0.8818897637795275,
          "duration": 0.2857139999999987
        },
        {
          "name": "D4",
          "midi": 62,
          "time": 61.142795999999954,
          "velocity": 0.8818897637795275,
          "duration": 0.2857139999999987
        },
        {
          "name": "D4",
          "midi": 62,
          "time": 61.42850999999995,
          "velocity": 0.8818897637795275,
          "duration": 0.2857139999999987
        },
        {
          "name": "D4",
          "midi": 62,
          "time": 61.71422399999995,
          "velocity": 0.8818897637795275,
          "duration": 0.2857139999999987
        },
        {
          "name": "D4",
          "midi": 62,
          "time": 61.99993799999995,
          "velocity": 0.8818897637795275,
          "duration": 0.2857139999999987
        },
        {
          "name": "D4",
          "midi": 62,
          "time": 62.28565199999995,
          "velocity": 0.8818897637795275,
          "duration": 0.2857139999999987
        },
        {
          "name": "D4",
          "midi": 62,
          "time": 62.57136599999995,
          "velocity": 0.8818897637795275,
          "duration": 0.2857139999999987
        },
        {
          "name": "D4",
          "midi": 62,
          "time": 62.85707999999995,
          "velocity": 0.8818897637795275,
          "duration": 0.14285699999999935
        },
        {
          "name": "D4",
          "midi": 62,
          "time": 62.999936999999946,
          "velocity": 0.8818897637795275,
          "duration": 0.2857139999999987
        },
        {
          "name": "D4",
          "midi": 62,
          "time": 63.285650999999945,
          "velocity": 0.8818897637795275,
          "duration": 0.14285699999999935
        },
        {
          "name": "A3",
          "midi": 57,
          "time": 63.428507999999944,
          "velocity": 0.8818897637795275,
          "duration": 0.2857139999999987
        },
        {
          "name": "A3",
          "midi": 57,
          "time": 63.71422199999994,
          "velocity": 0.8818897637795275,
          "duration": 0.2857139999999987
        },
        {
          "name": "A3",
          "midi": 57,
          "time": 63.99993599999994,
          "velocity": 0.8818897637795275,
          "duration": 0.2857140000000058
        },
        {
          "name": "A3",
          "midi": 57,
          "time": 64.28564999999995,
          "velocity": 0.8818897637795275,
          "duration": 0.2857139999999987
        },
        {
          "name": "A3",
          "midi": 57,
          "time": 64.57136399999995,
          "velocity": 0.8818897637795275,
          "duration": 0.2857139999999987
        },
        {
          "name": "A3",
          "midi": 57,
          "time": 64.85707799999994,
          "velocity": 0.8818897637795275,
          "duration": 0.2857139999999987
        },
        {
          "name": "A3",
          "midi": 57,
          "time": 65.14279199999994,
          "velocity": 0.8818897637795275,
          "duration": 0.2857139999999987
        },
        {
          "name": "A3",
          "midi": 57,
          "time": 65.42850599999994,
          "velocity": 0.8818897637795275,
          "duration": 0.2857139999999987
        },
        {
          "name": "A3",
          "midi": 57,
          "time": 65.71421999999994,
          "velocity": 0.8818897637795275,
          "duration": 0.2857139999999987
        },
        {
          "name": "A3",
          "midi": 57,
          "time": 65.99993399999994,
          "velocity": 0.8818897637795275,
          "duration": 0.2857139999999987
        },
        {
          "name": "A3",
          "midi": 57,
          "time": 66.28564799999994,
          "velocity": 0.8818897637795275,
          "duration": 0.14285700000000645
        },
        {
          "name": "A3",
          "midi": 57,
          "time": 66.42850499999994,
          "velocity": 0.8818897637795275,
          "duration": 0.2857139999999987
        },
        {
          "name": "A3",
          "midi": 57,
          "time": 66.71421899999994,
          "velocity": 0.8818897637795275,
          "duration": 0.14285700000000645
        },
        {
          "name": "A3",
          "midi": 57,
          "time": 66.85707599999995,
          "velocity": 0.8818897637795275,
          "duration": 0.2857139999999987
        },
        {
          "name": "A3",
          "midi": 57,
          "time": 67.14278999999995,
          "velocity": 0.8818897637795275,
          "duration": 0.2857139999999987
        },
        {
          "name": "A3",
          "midi": 57,
          "time": 67.42850399999995,
          "velocity": 0.8818897637795275,
          "duration": 0.2857139999999987
        },
        {
          "name": "A3",
          "midi": 57,
          "time": 67.71421799999995,
          "velocity": 0.8818897637795275,
          "duration": 0.2857139999999987
        },
        {
          "name": "A3",
          "midi": 57,
          "time": 67.99993199999994,
          "velocity": 0.8818897637795275,
          "duration": 0.2857139999999987
        },
        {
          "name": "A3",
          "midi": 57,
          "time": 68.28564599999994,
          "velocity": 0.8818897637795275,
          "duration": 0.2857139999999987
        },
        {
          "name": "A3",
          "midi": 57,
          "time": 68.57135999999994,
          "velocity": 0.8818897637795275,
          "duration": 0.2857139999999987
        },
        {
          "name": "A3",
          "midi": 57,
          "time": 68.85707399999994,
          "velocity": 0.8818897637795275,
          "duration": 0.2857139999999987
        },
        {
          "name": "A3",
          "midi": 57,
          "time": 69.14278799999994,
          "velocity": 0.8818897637795275,
          "duration": 0.2857139999999987
        },
        {
          "name": "A3",
          "midi": 57,
          "time": 69.42850199999994,
          "velocity": 0.8818897637795275,
          "duration": 0.2857139999999987
        },
        {
          "name": "A3",
          "midi": 57,
          "time": 69.71421599999994,
          "velocity": 0.8818897637795275,
          "duration": 0.14285700000000645
        },
        {
          "name": "A3",
          "midi": 57,
          "time": 69.85707299999994,
          "velocity": 0.8818897637795275,
          "duration": 0.2857139999999987
        },
        {
          "name": "A3",
          "midi": 57,
          "time": 70.14278699999994,
          "velocity": 0.8818897637795275,
          "duration": 0.14285700000000645
        },
        {
          "name": "B3",
          "midi": 59,
          "time": 70.28564399999995,
          "velocity": 0.8818897637795275,
          "duration": 0.2857139999999987
        },
        {
          "name": "B3",
          "midi": 59,
          "time": 70.57135799999995,
          "velocity": 0.8818897637795275,
          "duration": 0.2857139999999987
        },
        {
          "name": "B3",
          "midi": 59,
          "time": 70.85707199999995,
          "velocity": 0.8818897637795275,
          "duration": 0.2857139999999987
        },
        {
          "name": "B3",
          "midi": 59,
          "time": 71.14278599999994,
          "velocity": 0.8818897637795275,
          "duration": 0.2857139999999987
        },
        {
          "name": "B3",
          "midi": 59,
          "time": 71.42849999999994,
          "velocity": 0.8818897637795275,
          "duration": 0.2857139999999987
        },
        {
          "name": "B3",
          "midi": 59,
          "time": 71.71421399999994,
          "velocity": 0.8818897637795275,
          "duration": 0.2857139999999987
        },
        {
          "name": "B3",
          "midi": 59,
          "time": 71.99992799999994,
          "velocity": 0.8818897637795275,
          "duration": 0.2857139999999987
        },
        {
          "name": "B3",
          "midi": 59,
          "time": 72.28564199999994,
          "velocity": 0.8818897637795275,
          "duration": 0.2857139999999987
        },
        {
          "name": "B3",
          "midi": 59,
          "time": 72.57135599999994,
          "velocity": 0.8818897637795275,
          "duration": 0.2857139999999987
        },
        {
          "name": "B3",
          "midi": 59,
          "time": 72.85706999999994,
          "velocity": 0.8818897637795275,
          "duration": 0.2857139999999987
        },
        {
          "name": "B3",
          "midi": 59,
          "time": 73.14278399999993,
          "velocity": 0.8818897637795275,
          "duration": 0.2857139999999987
        },
        {
          "name": "B3",
          "midi": 59,
          "time": 73.42849799999993,
          "velocity": 0.8818897637795275,
          "duration": 0.2857139999999987
        },
        {
          "name": "B3",
          "midi": 59,
          "time": 73.71421199999993,
          "velocity": 0.8818897637795275,
          "duration": 0.2857139999999987
        },
        {
          "name": "B3",
          "midi": 59,
          "time": 73.99992599999993,
          "velocity": 0.8818897637795275,
          "duration": 0.2857139999999987
        },
        {
          "name": "B3",
          "midi": 59,
          "time": 74.28563999999993,
          "velocity": 0.8818897637795275,
          "duration": 0.2857139999999987
        },
        {
          "name": "B3",
          "midi": 59,
          "time": 74.57135399999993,
          "velocity": 0.8818897637795275,
          "duration": 0.2857139999999987
        },
        {
          "name": "B3",
          "midi": 59,
          "time": 74.85706799999993,
          "velocity": 0.8818897637795275,
          "duration": 0.2857139999999987
        },
        {
          "name": "B3",
          "midi": 59,
          "time": 75.14278199999993,
          "velocity": 0.8818897637795275,
          "duration": 0.2857139999999987
        },
        {
          "name": "B3",
          "midi": 59,
          "time": 75.42849599999992,
          "velocity": 0.8818897637795275,
          "duration": 0.2857139999999987
        },
        {
          "name": "B3",
          "midi": 59,
          "time": 75.71420999999992,
          "velocity": 0.8818897637795275,
          "duration": 0.2857139999999987
        },
        {
          "name": "B3",
          "midi": 59,
          "time": 75.99992399999992,
          "velocity": 0.8818897637795275,
          "duration": 0.2857139999999987
        },
        {
          "name": "B3",
          "midi": 59,
          "time": 76.28563799999992,
          "velocity": 0.8818897637795275,
          "duration": 0.2857139999999987
        },
        {
          "name": "B3",
          "midi": 59,
          "time": 76.57135199999992,
          "velocity": 0.8818897637795275,
          "duration": 0.2857139999999987
        },
        {
          "name": "B3",
          "midi": 59,
          "time": 76.85706599999992,
          "velocity": 0.8818897637795275,
          "duration": 0.2857139999999987
        },
        {
          "name": "E4",
          "midi": 64,
          "time": 77.14277999999992,
          "velocity": 0.8818897637795275,
          "duration": 0.2857139999999987
        },
        {
          "name": "E4",
          "midi": 64,
          "time": 77.42849399999992,
          "velocity": 0.8818897637795275,
          "duration": 0.2857139999999987
        },
        {
          "name": "E4",
          "midi": 64,
          "time": 77.71420799999991,
          "velocity": 0.8818897637795275,
          "duration": 0.2857139999999987
        },
        {
          "name": "E4",
          "midi": 64,
          "time": 77.99992199999991,
          "velocity": 0.8818897637795275,
          "duration": 0.2857139999999987
        },
        {
          "name": "E4",
          "midi": 64,
          "time": 78.28563599999991,
          "velocity": 0.8818897637795275,
          "duration": 0.2857139999999987
        },
        {
          "name": "E4",
          "midi": 64,
          "time": 78.57134999999991,
          "velocity": 0.8818897637795275,
          "duration": 0.2857139999999987
        },
        {
          "name": "E4",
          "midi": 64,
          "time": 78.85706399999991,
          "velocity": 0.8818897637795275,
          "duration": 0.2857139999999987
        },
        {
          "name": "E4",
          "midi": 64,
          "time": 79.14277799999991,
          "velocity": 0.8818897637795275,
          "duration": 0.2857139999999987
        },
        {
          "name": "E4",
          "midi": 64,
          "time": 79.4284919999999,
          "velocity": 0.8818897637795275,
          "duration": 0.2857139999999987
        },
        {
          "name": "E4",
          "midi": 64,
          "time": 79.7142059999999,
          "velocity": 0.8818897637795275,
          "duration": 0.2857139999999987
        },
        {
          "name": "E4",
          "midi": 64,
          "time": 79.9999199999999,
          "velocity": 0.8818897637795275,
          "duration": 0.14285700000000645
        },
        {
          "name": "E4",
          "midi": 64,
          "time": 80.14277699999991,
          "velocity": 0.8818897637795275,
          "duration": 0.2857139999999987
        },
        {
          "name": "E4",
          "midi": 64,
          "time": 80.42849099999991,
          "velocity": 0.8818897637795275,
          "duration": 0.14285700000000645
        },
        {
          "name": "E4",
          "midi": 64,
          "time": 80.57134799999992,
          "velocity": 0.8818897637795275,
          "duration": 0.2857139999999987
        },
        {
          "name": "E4",
          "midi": 64,
          "time": 80.85706199999991,
          "velocity": 0.8818897637795275,
          "duration": 0.2857139999999987
        },
        {
          "name": "E4",
          "midi": 64,
          "time": 81.14277599999991,
          "velocity": 0.8818897637795275,
          "duration": 0.2857139999999987
        },
        {
          "name": "E4",
          "midi": 64,
          "time": 81.42848999999991,
          "velocity": 0.8818897637795275,
          "duration": 0.2857139999999987
        },
        {
          "name": "E4",
          "midi": 64,
          "time": 81.71420399999991,
          "velocity": 0.8818897637795275,
          "duration": 0.2857139999999987
        },
        {
          "name": "E4",
          "midi": 64,
          "time": 81.99991799999991,
          "velocity": 0.8818897637795275,
          "duration": 0.2857139999999987
        },
        {
          "name": "E4",
          "midi": 64,
          "time": 82.28563199999991,
          "velocity": 0.8818897637795275,
          "duration": 0.2857139999999987
        },
        {
          "name": "E4",
          "midi": 64,
          "time": 82.5713459999999,
          "velocity": 0.8818897637795275,
          "duration": 0.2857139999999987
        },
        {
          "name": "E4",
          "midi": 64,
          "time": 82.8570599999999,
          "velocity": 0.8818897637795275,
          "duration": 0.2857139999999987
        },
        {
          "name": "E4",
          "midi": 64,
          "time": 83.1427739999999,
          "velocity": 0.8818897637795275,
          "duration": 0.2857139999999987
        },
        {
          "name": "E4",
          "midi": 64,
          "time": 83.4284879999999,
          "velocity": 0.8818897637795275,
          "duration": 0.14285700000000645
        },
        {
          "name": "E4",
          "midi": 64,
          "time": 83.57134499999991,
          "velocity": 0.8818897637795275,
          "duration": 0.2857139999999987
        },
        {
          "name": "E4",
          "midi": 64,
          "time": 83.85705899999991,
          "velocity": 0.8818897637795275,
          "duration": 0.14285700000000645
        },
        {
          "name": "E4",
          "midi": 64,
          "time": 83.99991599999991,
          "velocity": 0.8818897637795275,
          "duration": 0.2857139999999987
        },
        {
          "name": "E4",
          "midi": 64,
          "time": 84.28562999999991,
          "velocity": 0.8818897637795275,
          "duration": 0.2857139999999987
        },
        {
          "name": "E4",
          "midi": 64,
          "time": 84.57134399999991,
          "velocity": 0.8818897637795275,
          "duration": 0.2857139999999987
        },
        {
          "name": "E4",
          "midi": 64,
          "time": 84.85705799999991,
          "velocity": 0.8818897637795275,
          "duration": 0.2857139999999987
        },
        {
          "name": "E4",
          "midi": 64,
          "time": 85.14277199999991,
          "velocity": 0.8818897637795275,
          "duration": 0.2857139999999987
        },
        {
          "name": "E4",
          "midi": 64,
          "time": 85.42848599999991,
          "velocity": 0.8818897637795275,
          "duration": 0.2857139999999987
        },
        {
          "name": "E4",
          "midi": 64,
          "time": 85.7141999999999,
          "velocity": 0.8818897637795275,
          "duration": 0.2857139999999987
        },
        {
          "name": "E4",
          "midi": 64,
          "time": 85.9999139999999,
          "velocity": 0.8818897637795275,
          "duration": 0.2857139999999987
        },
        {
          "name": "E4",
          "midi": 64,
          "time": 86.2856279999999,
          "velocity": 0.8818897637795275,
          "duration": 0.2857139999999987
        },
        {
          "name": "E4",
          "midi": 64,
          "time": 86.5713419999999,
          "velocity": 0.8818897637795275,
          "duration": 0.2857139999999987
        },
        {
          "name": "E4",
          "midi": 64,
          "time": 86.8570559999999,
          "velocity": 0.8818897637795275,
          "duration": 0.14285700000000645
        },
        {
          "name": "E4",
          "midi": 64,
          "time": 86.9999129999999,
          "velocity": 0.8818897637795275,
          "duration": 0.2857139999999987
        },
        {
          "name": "E4",
          "midi": 64,
          "time": 87.2856269999999,
          "velocity": 0.8818897637795275,
          "duration": 0.14285700000000645
        },
        {
          "name": "E4",
          "midi": 64,
          "time": 87.42848399999991,
          "velocity": 0.8818897637795275,
          "duration": 0.2857139999999987
        },
        {
          "name": "E4",
          "midi": 64,
          "time": 87.71419799999991,
          "velocity": 0.8818897637795275,
          "duration": 0.2857139999999987
        },
        {
          "name": "E4",
          "midi": 64,
          "time": 87.99991199999991,
          "velocity": 0.8818897637795275,
          "duration": 0.2857139999999987
        },
        {
          "name": "E4",
          "midi": 64,
          "time": 88.28562599999991,
          "velocity": 0.8818897637795275,
          "duration": 0.2857139999999987
        },
        {
          "name": "E4",
          "midi": 64,
          "time": 88.5713399999999,
          "velocity": 0.8818897637795275,
          "duration": 0.2857139999999987
        },
        {
          "name": "E4",
          "midi": 64,
          "time": 88.8570539999999,
          "velocity": 0.8818897637795275,
          "duration": 0.2857139999999987
        },
        {
          "name": "E4",
          "midi": 64,
          "time": 89.1427679999999,
          "velocity": 0.8818897637795275,
          "duration": 0.2857139999999987
        },
        {
          "name": "E4",
          "midi": 64,
          "time": 89.4284819999999,
          "velocity": 0.8818897637795275,
          "duration": 0.2857139999999987
        },
        {
          "name": "E4",
          "midi": 64,
          "time": 89.7141959999999,
          "velocity": 0.8818897637795275,
          "duration": 0.2857139999999987
        },
        {
          "name": "E4",
          "midi": 64,
          "time": 89.9999099999999,
          "velocity": 0.8818897637795275,
          "duration": 0.2857139999999987
        },
        {
          "name": "E4",
          "midi": 64,
          "time": 90.2856239999999,
          "velocity": 0.8818897637795275,
          "duration": 0.14285700000000645
        },
        {
          "name": "E4",
          "midi": 64,
          "time": 90.4284809999999,
          "velocity": 0.8818897637795275,
          "duration": 0.2857139999999987
        },
        {
          "name": "E4",
          "midi": 64,
          "time": 90.7141949999999,
          "velocity": 0.8818897637795275,
          "duration": 0.14285700000000645
        },
        {
          "name": "G4",
          "midi": 67,
          "time": 90.85705199999991,
          "velocity": 0.8818897637795275,
          "duration": 0.2857139999999987
        },
        {
          "name": "G4",
          "midi": 67,
          "time": 91.14276599999991,
          "velocity": 0.8818897637795275,
          "duration": 0.2857139999999987
        },
        {
          "name": "G4",
          "midi": 67,
          "time": 91.42847999999991,
          "velocity": 0.8818897637795275,
          "duration": 0.2857139999999987
        },
        {
          "name": "G4",
          "midi": 67,
          "time": 91.7141939999999,
          "velocity": 0.8818897637795275,
          "duration": 0.2857139999999987
        },
        {
          "name": "G4",
          "midi": 67,
          "time": 91.9999079999999,
          "velocity": 0.8818897637795275,
          "duration": 0.2857139999999987
        },
        {
          "name": "G4",
          "midi": 67,
          "time": 92.2856219999999,
          "velocity": 0.8818897637795275,
          "duration": 0.2857139999999987
        },
        {
          "name": "G4",
          "midi": 67,
          "time": 92.5713359999999,
          "velocity": 0.8818897637795275,
          "duration": 0.2857139999999987
        },
        {
          "name": "G4",
          "midi": 67,
          "time": 92.8570499999999,
          "velocity": 0.8818897637795275,
          "duration": 0.2857139999999987
        },
        {
          "name": "G4",
          "midi": 67,
          "time": 93.1427639999999,
          "velocity": 0.8818897637795275,
          "duration": 0.2857139999999987
        },
        {
          "name": "G4",
          "midi": 67,
          "time": 93.4284779999999,
          "velocity": 0.8818897637795275,
          "duration": 0.2857139999999987
        },
        {
          "name": "G4",
          "midi": 67,
          "time": 93.7141919999999,
          "velocity": 0.8818897637795275,
          "duration": 0.14285700000000645
        },
        {
          "name": "G4",
          "midi": 67,
          "time": 93.8570489999999,
          "velocity": 0.8818897637795275,
          "duration": 0.2857139999999987
        },
        {
          "name": "G4",
          "midi": 67,
          "time": 94.1427629999999,
          "velocity": 0.8818897637795275,
          "duration": 0.14285700000000645
        },
        {
          "name": "G4",
          "midi": 67,
          "time": 94.28561999999991,
          "velocity": 0.8818897637795275,
          "duration": 0.2857139999999987
        },
        {
          "name": "G4",
          "midi": 67,
          "time": 94.57133399999991,
          "velocity": 0.8818897637795275,
          "duration": 0.2857139999999987
        },
        {
          "name": "G4",
          "midi": 67,
          "time": 94.8570479999999,
          "velocity": 0.8818897637795275,
          "duration": 0.2857139999999987
        },
        {
          "name": "G4",
          "midi": 67,
          "time": 95.1427619999999,
          "velocity": 0.8818897637795275,
          "duration": 0.2857139999999987
        },
        {
          "name": "G4",
          "midi": 67,
          "time": 95.4284759999999,
          "velocity": 0.8818897637795275,
          "duration": 0.2857139999999987
        },
        {
          "name": "G4",
          "midi": 67,
          "time": 95.7141899999999,
          "velocity": 0.8818897637795275,
          "duration": 0.2857139999999987
        },
        {
          "name": "G4",
          "midi": 67,
          "time": 95.9999039999999,
          "velocity": 0.8818897637795275,
          "duration": 0.2857139999999987
        },
        {
          "name": "G4",
          "midi": 67,
          "time": 96.2856179999999,
          "velocity": 0.8818897637795275,
          "duration": 0.2857139999999987
        },
        {
          "name": "G4",
          "midi": 67,
          "time": 96.5713319999999,
          "velocity": 0.8818897637795275,
          "duration": 0.2857139999999987
        },
        {
          "name": "G4",
          "midi": 67,
          "time": 96.8570459999999,
          "velocity": 0.8818897637795275,
          "duration": 0.2857139999999987
        },
        {
          "name": "G4",
          "midi": 67,
          "time": 97.1427599999999,
          "velocity": 0.8818897637795275,
          "duration": 0.14285700000000645
        },
        {
          "name": "G4",
          "midi": 67,
          "time": 97.2856169999999,
          "velocity": 0.8818897637795275,
          "duration": 0.2857139999999987
        },
        {
          "name": "G4",
          "midi": 67,
          "time": 97.5713309999999,
          "velocity": 0.8818897637795275,
          "duration": 0.14285700000000645
        },
        {
          "name": "D4",
          "midi": 62,
          "time": 97.71418799999991,
          "velocity": 0.8818897637795275,
          "duration": 0.2857139999999987
        },
        {
          "name": "D4",
          "midi": 62,
          "time": 97.9999019999999,
          "velocity": 0.8818897637795275,
          "duration": 0.2857139999999987
        },
        {
          "name": "D4",
          "midi": 62,
          "time": 98.2856159999999,
          "velocity": 0.8818897637795275,
          "duration": 0.2857139999999987
        },
        {
          "name": "D4",
          "midi": 62,
          "time": 98.5713299999999,
          "velocity": 0.8818897637795275,
          "duration": 0.2857139999999987
        },
        {
          "name": "D4",
          "midi": 62,
          "time": 98.8570439999999,
          "velocity": 0.8818897637795275,
          "duration": 0.2857139999999987
        },
        {
          "name": "D4",
          "midi": 62,
          "time": 99.1427579999999,
          "velocity": 0.8818897637795275,
          "duration": 0.2857139999999987
        },
        {
          "name": "D4",
          "midi": 62,
          "time": 99.4284719999999,
          "velocity": 0.8818897637795275,
          "duration": 0.2857139999999987
        },
        {
          "name": "D4",
          "midi": 62,
          "time": 99.7141859999999,
          "velocity": 0.8818897637795275,
          "duration": 0.2857139999999987
        },
        {
          "name": "D4",
          "midi": 62,
          "time": 99.9998999999999,
          "velocity": 0.8818897637795275,
          "duration": 0.2857139999999987
        },
        {
          "name": "D4",
          "midi": 62,
          "time": 100.2856139999999,
          "velocity": 0.8818897637795275,
          "duration": 0.2857139999999987
        },
        {
          "name": "D4",
          "midi": 62,
          "time": 100.5713279999999,
          "velocity": 0.8818897637795275,
          "duration": 0.14285700000000645
        },
        {
          "name": "D4",
          "midi": 62,
          "time": 100.7141849999999,
          "velocity": 0.8818897637795275,
          "duration": 0.2857139999999987
        },
        {
          "name": "D4",
          "midi": 62,
          "time": 100.9998989999999,
          "velocity": 0.8818897637795275,
          "duration": 0.14285700000000645
        },
        {
          "name": "D4",
          "midi": 62,
          "time": 101.1427559999999,
          "velocity": 0.8818897637795275,
          "duration": 0.2857139999999987
        },
        {
          "name": "D4",
          "midi": 62,
          "time": 101.4284699999999,
          "velocity": 0.8818897637795275,
          "duration": 0.2857139999999987
        },
        {
          "name": "D4",
          "midi": 62,
          "time": 101.7141839999999,
          "velocity": 0.8818897637795275,
          "duration": 0.2857139999999987
        },
        {
          "name": "D4",
          "midi": 62,
          "time": 101.9998979999999,
          "velocity": 0.8818897637795275,
          "duration": 0.2857139999999987
        },
        {
          "name": "D4",
          "midi": 62,
          "time": 102.2856119999999,
          "velocity": 0.8818897637795275,
          "duration": 0.2857139999999987
        },
        {
          "name": "D4",
          "midi": 62,
          "time": 102.5713259999999,
          "velocity": 0.8818897637795275,
          "duration": 0.2857139999999987
        },
        {
          "name": "D4",
          "midi": 62,
          "time": 102.8570399999999,
          "velocity": 0.8818897637795275,
          "duration": 0.2857139999999987
        },
        {
          "name": "D4",
          "midi": 62,
          "time": 103.1427539999999,
          "velocity": 0.8818897637795275,
          "duration": 0.2857139999999987
        },
        {
          "name": "D4",
          "midi": 62,
          "time": 103.4284679999999,
          "velocity": 0.8818897637795275,
          "duration": 0.2857139999999987
        },
        {
          "name": "D4",
          "midi": 62,
          "time": 103.7141819999999,
          "velocity": 0.8818897637795275,
          "duration": 0.2857139999999987
        },
        {
          "name": "D4",
          "midi": 62,
          "time": 103.9998959999999,
          "velocity": 0.8818897637795275,
          "duration": 0.14285700000000645
        },
        {
          "name": "D4",
          "midi": 62,
          "time": 104.1427529999999,
          "velocity": 0.8818897637795275,
          "duration": 0.2857139999999987
        },
        {
          "name": "D4",
          "midi": 62,
          "time": 104.4284669999999,
          "velocity": 0.8818897637795275,
          "duration": 0.14285700000000645
        },
        {
          "name": "E4",
          "midi": 64,
          "time": 104.5713239999999,
          "velocity": 0.8818897637795275,
          "duration": 0.2857139999999987
        },
        {
          "name": "E4",
          "midi": 64,
          "time": 104.8570379999999,
          "velocity": 0.8818897637795275,
          "duration": 0.2857139999999987
        },
        {
          "name": "E4",
          "midi": 64,
          "time": 105.1427519999999,
          "velocity": 0.8818897637795275,
          "duration": 0.2857139999999987
        },
        {
          "name": "E4",
          "midi": 64,
          "time": 105.4284659999999,
          "velocity": 0.8818897637795275,
          "duration": 0.2857139999999987
        },
        {
          "name": "E4",
          "midi": 64,
          "time": 105.7141799999999,
          "velocity": 0.8818897637795275,
          "duration": 0.2857139999999987
        },
        {
          "name": "E4",
          "midi": 64,
          "time": 105.9998939999999,
          "velocity": 0.8818897637795275,
          "duration": 0.2857139999999987
        },
        {
          "name": "E4",
          "midi": 64,
          "time": 106.2856079999999,
          "velocity": 0.8818897637795275,
          "duration": 0.2857139999999987
        },
        {
          "name": "E4",
          "midi": 64,
          "time": 106.5713219999999,
          "velocity": 0.8818897637795275,
          "duration": 0.2857139999999987
        },
        {
          "name": "E4",
          "midi": 64,
          "time": 106.8570359999999,
          "velocity": 0.8818897637795275,
          "duration": 0.2857139999999987
        },
        {
          "name": "E4",
          "midi": 64,
          "time": 107.1427499999999,
          "velocity": 0.8818897637795275,
          "duration": 0.2857139999999987
        },
        {
          "name": "E4",
          "midi": 64,
          "time": 107.42846399999989,
          "velocity": 0.8818897637795275,
          "duration": 0.2857139999999987
        },
        {
          "name": "E4",
          "midi": 64,
          "time": 107.71417799999989,
          "velocity": 0.8818897637795275,
          "duration": 0.2857139999999987
        },
        {
          "name": "E4",
          "midi": 64,
          "time": 107.99989199999989,
          "velocity": 0.8818897637795275,
          "duration": 0.2857139999999987
        },
        {
          "name": "E4",
          "midi": 64,
          "time": 108.28560599999989,
          "velocity": 0.8818897637795275,
          "duration": 0.2857139999999987
        },
        {
          "name": "E4",
          "midi": 64,
          "time": 108.57131999999989,
          "velocity": 0.8818897637795275,
          "duration": 0.2857139999999987
        },
        {
          "name": "E4",
          "midi": 64,
          "time": 108.85703399999989,
          "velocity": 0.8818897637795275,
          "duration": 0.2857139999999987
        },
        {
          "name": "E4",
          "midi": 64,
          "time": 109.14274799999988,
          "velocity": 0.8818897637795275,
          "duration": 0.2857139999999987
        },
        {
          "name": "E4",
          "midi": 64,
          "time": 109.42846199999988,
          "velocity": 0.8818897637795275,
          "duration": 0.2857139999999987
        },
        {
          "name": "E4",
          "midi": 64,
          "time": 109.71417599999988,
          "velocity": 0.8818897637795275,
          "duration": 0.2857139999999987
        },
        {
          "name": "E4",
          "midi": 64,
          "time": 109.99988999999988,
          "velocity": 0.8818897637795275,
          "duration": 0.2857139999999987
        },
        {
          "name": "E4",
          "midi": 64,
          "time": 110.28560399999988,
          "velocity": 0.8818897637795275,
          "duration": 0.2857139999999987
        },
        {
          "name": "E4",
          "midi": 64,
          "time": 110.57131799999988,
          "velocity": 0.8818897637795275,
          "duration": 0.2857139999999987
        },
        {
          "name": "E4",
          "midi": 64,
          "time": 110.85703199999988,
          "velocity": 0.8818897637795275,
          "duration": 0.2857139999999987
        },
        {
          "name": "E4",
          "midi": 64,
          "time": 111.14274599999987,
          "velocity": 0.8818897637795275,
          "duration": 0.2857139999999987
        },
        {
          "name": "E4",
          "midi": 64,
          "time": 111.42845999999987,
          "velocity": 0.8818897637795275,
          "duration": 1.7142840000000064
        },
        {
          "name": "E4",
          "midi": 64,
          "time": 113.14274399999988,
          "velocity": 0.8818897637795275,
          "duration": 1.7142840000000064
        },
        {
          "name": "E4",
          "midi": 64,
          "time": 114.85702799999989,
          "velocity": 0.8818897637795275,
          "duration": 1.7142840000000064
        },
        {
          "name": "E4",
          "midi": 64,
          "time": 116.57131199999989,
          "velocity": 0.8818897637795275,
          "duration": 1.7142840000000064
        },
        {
          "name": "B3",
          "midi": 59,
          "time": 118.2855959999999,
          "velocity": 0.8818897637795275,
          "duration": 0.2857139999999987
        },
        {
          "name": "B3",
          "midi": 59,
          "time": 118.5713099999999,
          "velocity": 0.8818897637795275,
          "duration": 0.2857139999999987
        },
        {
          "name": "B3",
          "midi": 59,
          "time": 118.8570239999999,
          "velocity": 0.8818897637795275,
          "duration": 0.2857139999999987
        },
        {
          "name": "B3",
          "midi": 59,
          "time": 119.1427379999999,
          "velocity": 0.8818897637795275,
          "duration": 0.2857139999999987
        },
        {
          "name": "B3",
          "midi": 59,
          "time": 119.4284519999999,
          "velocity": 0.8818897637795275,
          "duration": 0.2857139999999987
        },
        {
          "name": "B3",
          "midi": 59,
          "time": 119.71416599999989,
          "velocity": 0.8818897637795275,
          "duration": 0.2857139999999987
        },
        {
          "name": "B3",
          "midi": 59,
          "time": 119.99987999999989,
          "velocity": 0.8818897637795275,
          "duration": 0.2857139999999987
        },
        {
          "name": "B3",
          "midi": 59,
          "time": 120.28559399999989,
          "velocity": 0.8818897637795275,
          "duration": 0.2857139999999987
        },
        {
          "name": "B3",
          "midi": 59,
          "time": 120.57130799999989,
          "velocity": 0.8818897637795275,
          "duration": 0.2857139999999987
        },
        {
          "name": "B3",
          "midi": 59,
          "time": 120.85702199999989,
          "velocity": 0.8818897637795275,
          "duration": 0.2857139999999987
        },
        {
          "name": "B3",
          "midi": 59,
          "time": 121.14273599999989,
          "velocity": 0.8818897637795275,
          "duration": 0.14285700000000645
        },
        {
          "name": "B3",
          "midi": 59,
          "time": 121.28559299999989,
          "velocity": 0.8818897637795275,
          "duration": 0.2857139999999987
        },
        {
          "name": "B3",
          "midi": 59,
          "time": 121.57130699999989,
          "velocity": 0.8818897637795275,
          "duration": 0.14285700000000645
        },
        {
          "name": "B3",
          "midi": 59,
          "time": 121.7141639999999,
          "velocity": 0.8818897637795275,
          "duration": 0.2857139999999987
        },
        {
          "name": "B3",
          "midi": 59,
          "time": 121.9998779999999,
          "velocity": 0.8818897637795275,
          "duration": 0.2857139999999987
        },
        {
          "name": "B3",
          "midi": 59,
          "time": 122.2855919999999,
          "velocity": 0.8818897637795275,
          "duration": 0.2857139999999987
        },
        {
          "name": "B3",
          "midi": 59,
          "time": 122.5713059999999,
          "velocity": 0.8818897637795275,
          "duration": 0.2857139999999987
        },
        {
          "name": "B3",
          "midi": 59,
          "time": 122.85701999999989,
          "velocity": 0.8818897637795275,
          "duration": 0.2857139999999987
        },
        {
          "name": "B3",
          "midi": 59,
          "time": 123.14273399999989,
          "velocity": 0.8818897637795275,
          "duration": 0.2857139999999987
        },
        {
          "name": "B3",
          "midi": 59,
          "time": 123.42844799999989,
          "velocity": 0.8818897637795275,
          "duration": 0.2857139999999987
        },
        {
          "name": "B3",
          "midi": 59,
          "time": 123.71416199999989,
          "velocity": 0.8818897637795275,
          "duration": 0.2857139999999987
        },
        {
          "name": "B3",
          "midi": 59,
          "time": 123.99987599999989,
          "velocity": 0.8818897637795275,
          "duration": 0.2857139999999987
        },
        {
          "name": "B3",
          "midi": 59,
          "time": 124.28558999999989,
          "velocity": 0.8818897637795275,
          "duration": 0.2857139999999987
        },
        {
          "name": "B3",
          "midi": 59,
          "time": 124.57130399999988,
          "velocity": 0.8818897637795275,
          "duration": 0.14285700000000645
        },
        {
          "name": "B3",
          "midi": 59,
          "time": 124.71416099999989,
          "velocity": 0.8818897637795275,
          "duration": 0.2857139999999987
        },
        {
          "name": "B3",
          "midi": 59,
          "time": 124.99987499999989,
          "velocity": 0.8818897637795275,
          "duration": 0.14285700000000645
        },
        {
          "name": "B3",
          "midi": 59,
          "time": 152.5712759999999,
          "velocity": 0.8818897637795275,
          "duration": 0.2857140000000129
        },
        {
          "name": "B3",
          "midi": 59,
          "time": 152.8569899999999,
          "velocity": 0.8818897637795275,
          "duration": 0.2857140000000129
        },
        {
          "name": "B3",
          "midi": 59,
          "time": 153.14270399999992,
          "velocity": 0.8818897637795275,
          "duration": 0.2857140000000129
        },
        {
          "name": "B3",
          "midi": 59,
          "time": 153.42841799999994,
          "velocity": 0.8818897637795275,
          "duration": 0.2857140000000129
        },
        {
          "name": "B3",
          "midi": 59,
          "time": 153.71413199999995,
          "velocity": 0.8818897637795275,
          "duration": 0.2857140000000129
        },
        {
          "name": "B3",
          "midi": 59,
          "time": 153.99984599999996,
          "velocity": 0.8818897637795275,
          "duration": 0.2857140000000129
        },
        {
          "name": "B3",
          "midi": 59,
          "time": 154.28555999999998,
          "velocity": 0.8818897637795275,
          "duration": 0.2857140000000129
        },
        {
          "name": "B3",
          "midi": 59,
          "time": 154.571274,
          "velocity": 0.8818897637795275,
          "duration": 0.2857140000000129
        },
        {
          "name": "B3",
          "midi": 59,
          "time": 154.856988,
          "velocity": 0.8818897637795275,
          "duration": 0.2857140000000129
        },
        {
          "name": "B3",
          "midi": 59,
          "time": 155.142702,
          "velocity": 0.8818897637795275,
          "duration": 0.2857140000000129
        },
        {
          "name": "B3",
          "midi": 59,
          "time": 155.42841600000003,
          "velocity": 0.8818897637795275,
          "duration": 0.14285699999999224
        },
        {
          "name": "B3",
          "midi": 59,
          "time": 155.57127300000002,
          "velocity": 0.8818897637795275,
          "duration": 0.2857140000000129
        },
        {
          "name": "B3",
          "midi": 59,
          "time": 155.85698700000003,
          "velocity": 0.8818897637795275,
          "duration": 0.14285699999999224
        },
        {
          "name": "B3",
          "midi": 59,
          "time": 155.99984400000002,
          "velocity": 0.8818897637795275,
          "duration": 0.2857140000000129
        },
        {
          "name": "B3",
          "midi": 59,
          "time": 156.28555800000004,
          "velocity": 0.8818897637795275,
          "duration": 0.2857140000000129
        },
        {
          "name": "B3",
          "midi": 59,
          "time": 156.57127200000005,
          "velocity": 0.8818897637795275,
          "duration": 0.2857140000000129
        },
        {
          "name": "B3",
          "midi": 59,
          "time": 156.85698600000006,
          "velocity": 0.8818897637795275,
          "duration": 0.2857140000000129
        },
        {
          "name": "B3",
          "midi": 59,
          "time": 157.14270000000008,
          "velocity": 0.8818897637795275,
          "duration": 0.2857140000000129
        },
        {
          "name": "B3",
          "midi": 59,
          "time": 157.4284140000001,
          "velocity": 0.8818897637795275,
          "duration": 0.2857140000000129
        },
        {
          "name": "B3",
          "midi": 59,
          "time": 157.7141280000001,
          "velocity": 0.8818897637795275,
          "duration": 0.2857140000000129
        },
        {
          "name": "B3",
          "midi": 59,
          "time": 157.99984200000011,
          "velocity": 0.8818897637795275,
          "duration": 0.2857140000000129
        },
        {
          "name": "B3",
          "midi": 59,
          "time": 158.28555600000013,
          "velocity": 0.8818897637795275,
          "duration": 0.2857140000000129
        },
        {
          "name": "B3",
          "midi": 59,
          "time": 158.57127000000014,
          "velocity": 0.8818897637795275,
          "duration": 0.2857140000000129
        },
        {
          "name": "B3",
          "midi": 59,
          "time": 158.85698400000015,
          "velocity": 0.8818897637795275,
          "duration": 0.14285699999999224
        },
        {
          "name": "B3",
          "midi": 59,
          "time": 158.99984100000015,
          "velocity": 0.8818897637795275,
          "duration": 0.2857140000000129
        },
        {
          "name": "B3",
          "midi": 59,
          "time": 159.28555500000016,
          "velocity": 0.8818897637795275,
          "duration": 0.14285699999999224
        },
        {
          "name": "B3",
          "midi": 59,
          "time": 159.42841200000015,
          "velocity": 0.8818897637795275,
          "duration": 0.2857140000000129
        },
        {
          "name": "B3",
          "midi": 59,
          "time": 159.71412600000016,
          "velocity": 0.8818897637795275,
          "duration": 0.2857140000000129
        },
        {
          "name": "B3",
          "midi": 59,
          "time": 159.99984000000018,
          "velocity": 0.8818897637795275,
          "duration": 0.2857140000000129
        },
        {
          "name": "B3",
          "midi": 59,
          "time": 160.2855540000002,
          "velocity": 0.8818897637795275,
          "duration": 0.2857140000000129
        },
        {
          "name": "B3",
          "midi": 59,
          "time": 160.5712680000002,
          "velocity": 0.8818897637795275,
          "duration": 0.2857140000000129
        },
        {
          "name": "B3",
          "midi": 59,
          "time": 160.85698200000022,
          "velocity": 0.8818897637795275,
          "duration": 0.2857140000000129
        },
        {
          "name": "B3",
          "midi": 59,
          "time": 161.14269600000023,
          "velocity": 0.8818897637795275,
          "duration": 0.2857140000000129
        },
        {
          "name": "B3",
          "midi": 59,
          "time": 161.42841000000024,
          "velocity": 0.8818897637795275,
          "duration": 0.2857140000000129
        },
        {
          "name": "B3",
          "midi": 59,
          "time": 161.71412400000025,
          "velocity": 0.8818897637795275,
          "duration": 0.2857140000000129
        },
        {
          "name": "B3",
          "midi": 59,
          "time": 161.99983800000027,
          "velocity": 0.8818897637795275,
          "duration": 0.2857140000000129
        },
        {
          "name": "B3",
          "midi": 59,
          "time": 162.28555200000028,
          "velocity": 0.8818897637795275,
          "duration": 0.14285699999999224
        },
        {
          "name": "B3",
          "midi": 59,
          "time": 162.42840900000027,
          "velocity": 0.8818897637795275,
          "duration": 0.2857140000000129
        },
        {
          "name": "B3",
          "midi": 59,
          "time": 162.71412300000028,
          "velocity": 0.8818897637795275,
          "duration": 0.14285699999999224
        },
        {
          "name": "B3",
          "midi": 59,
          "time": 162.85698000000028,
          "velocity": 0.8818897637795275,
          "duration": 0.2857140000000129
        },
        {
          "name": "B3",
          "midi": 59,
          "time": 163.1426940000003,
          "velocity": 0.8818897637795275,
          "duration": 0.2857140000000129
        },
        {
          "name": "B3",
          "midi": 59,
          "time": 163.4284080000003,
          "velocity": 0.8818897637795275,
          "duration": 0.2857140000000129
        },
        {
          "name": "B3",
          "midi": 59,
          "time": 163.71412200000032,
          "velocity": 0.8818897637795275,
          "duration": 0.2857140000000129
        },
        {
          "name": "B3",
          "midi": 59,
          "time": 163.99983600000033,
          "velocity": 0.8818897637795275,
          "duration": 0.2857140000000129
        },
        {
          "name": "B3",
          "midi": 59,
          "time": 164.28555000000034,
          "velocity": 0.8818897637795275,
          "duration": 0.2857140000000129
        },
        {
          "name": "B3",
          "midi": 59,
          "time": 164.57126400000035,
          "velocity": 0.8818897637795275,
          "duration": 0.2857140000000129
        },
        {
          "name": "B3",
          "midi": 59,
          "time": 164.85697800000037,
          "velocity": 0.8818897637795275,
          "duration": 0.2857140000000129
        },
        {
          "name": "B3",
          "midi": 59,
          "time": 165.14269200000038,
          "velocity": 0.8818897637795275,
          "duration": 0.2857140000000129
        },
        {
          "name": "B3",
          "midi": 59,
          "time": 165.4284060000004,
          "velocity": 0.8818897637795275,
          "duration": 0.2857140000000129
        },
        {
          "name": "B3",
          "midi": 59,
          "time": 165.7141200000004,
          "velocity": 0.8818897637795275,
          "duration": 0.14285699999999224
        },
        {
          "name": "B3",
          "midi": 59,
          "time": 165.8569770000004,
          "velocity": 0.8818897637795275,
          "duration": 0.2857140000000129
        },
        {
          "name": "B3",
          "midi": 59,
          "time": 166.1426910000004,
          "velocity": 0.8818897637795275,
          "duration": 0.14285699999999224
        },
        {
          "name": "G5",
          "midi": 79,
          "time": 169.71411600000042,
          "velocity": 0.8818897637795275,
          "duration": 0.8571420000000103
        },
        {
          "name": "F#5",
          "midi": 78,
          "time": 170.57125800000043,
          "velocity": 0.8818897637795275,
          "duration": 0.42857100000000514
        },
        {
          "name": "G5",
          "midi": 79,
          "time": 170.99982900000043,
          "velocity": 0.8818897637795275,
          "duration": 0.42857100000000514
        },
        {
          "name": "B4",
          "midi": 71,
          "time": 171.42840000000044,
          "velocity": 0.8818897637795275,
          "duration": 1.7142839999999921
        },
        {
          "name": "A2",
          "midi": 45,
          "time": 173.14268400000043,
          "velocity": 0.8818897637795275,
          "duration": 1.7142839999999921
        },
        {
          "name": "B4",
          "midi": 71,
          "time": 173.14268400000043,
          "velocity": 0.8818897637795275,
          "duration": 1.7142839999999921
        },
        {
          "name": "A2",
          "midi": 45,
          "time": 174.85696800000042,
          "velocity": 0.8818897637795275,
          "duration": 1.7142839999999921
        },
        {
          "name": "A2",
          "midi": 45,
          "time": 176.5712520000004,
          "velocity": 0.8818897637795275,
          "duration": 1.7142839999999921
        },
        {
          "name": "A2",
          "midi": 45,
          "time": 178.2855360000004,
          "velocity": 0.8818897637795275,
          "duration": 1.7142839999999921
        },
        {
          "name": "E2",
          "midi": 40,
          "time": 179.9998200000004,
          "velocity": 0.8818897637795275,
          "duration": 1.7142839999999921
        },
        {
          "name": "E2",
          "midi": 40,
          "time": 181.7141040000004,
          "velocity": 0.8818897637795275,
          "duration": 1.7142839999999921
        },
        {
          "name": "E2",
          "midi": 40,
          "time": 183.42838800000038,
          "velocity": 0.8818897637795275,
          "duration": 1.7142839999999921
        },
        {
          "name": "E2",
          "midi": 40,
          "time": 185.14267200000037,
          "velocity": 0.8818897637795275,
          "duration": 1.7142839999999921
        }
      ],
      "controlChanges": {
        "1": [
          {
            "number": 1,
            "time": 186.91052737500036,
            "value": 0
          }
        ],
        "7": [
          {
            "number": 7,
            "time": 0,
            "value": 0.7874015748031497
          },
          {
            "number": 7,
            "time": 1.8928552500000002,
            "value": 0.007874015748031496
          },
          {
            "number": 7,
            "time": 2.0714265000000003,
            "value": 0.015748031496062992
          },
          {
            "number": 7,
            "time": 2.2142835000000005,
            "value": 0.023622047244094488
          },
          {
            "number": 7,
            "time": 2.3928547500000006,
            "value": 0.031496062992125984
          },
          {
            "number": 7,
            "time": 2.5357117500000004,
            "value": 0.03937007874015748
          },
          {
            "number": 7,
            "time": 2.714283,
            "value": 0.047244094488188976
          },
          {
            "number": 7,
            "time": 2.8571400000000002,
            "value": 0.05511811023622047
          },
          {
            "number": 7,
            "time": 3.03571125,
            "value": 0.06299212598425197
          },
          {
            "number": 7,
            "time": 3.1785682499999997,
            "value": 0.07086614173228346
          },
          {
            "number": 7,
            "time": 3.3571394999999997,
            "value": 0.07874015748031496
          },
          {
            "number": 7,
            "time": 3.4999965,
            "value": 0.08661417322834646
          },
          {
            "number": 7,
            "time": 3.67856775,
            "value": 0.09448818897637795
          },
          {
            "number": 7,
            "time": 3.8214247500000003,
            "value": 0.10236220472440945
          },
          {
            "number": 7,
            "time": 3.9999960000000003,
            "value": 0.11023622047244094
          },
          {
            "number": 7,
            "time": 4.17856725,
            "value": 0.11811023622047244
          },
          {
            "number": 7,
            "time": 4.321424250000001,
            "value": 0.12598425196850394
          },
          {
            "number": 7,
            "time": 4.499995500000001,
            "value": 0.13385826771653545
          },
          {
            "number": 7,
            "time": 4.642852500000001,
            "value": 0.14173228346456693
          },
          {
            "number": 7,
            "time": 4.821423750000001,
            "value": 0.14960629921259844
          },
          {
            "number": 7,
            "time": 4.96428075,
            "value": 0.15748031496062992
          },
          {
            "number": 7,
            "time": 5.142852,
            "value": 0.16535433070866143
          },
          {
            "number": 7,
            "time": 5.285709000000001,
            "value": 0.1732283464566929
          },
          {
            "number": 7,
            "time": 5.464280250000001,
            "value": 0.18110236220472442
          },
          {
            "number": 7,
            "time": 5.607137250000001,
            "value": 0.1889763779527559
          },
          {
            "number": 7,
            "time": 5.785708500000001,
            "value": 0.1968503937007874
          },
          {
            "number": 7,
            "time": 5.928565500000001,
            "value": 0.2047244094488189
          },
          {
            "number": 7,
            "time": 6.107136750000001,
            "value": 0.2125984251968504
          },
          {
            "number": 7,
            "time": 6.249993750000002,
            "value": 0.2204724409448819
          },
          {
            "number": 7,
            "time": 6.428565000000002,
            "value": 0.2283464566929134
          },
          {
            "number": 7,
            "time": 6.607136250000002,
            "value": 0.23622047244094488
          },
          {
            "number": 7,
            "time": 6.749993250000002,
            "value": 0.2440944881889764
          },
          {
            "number": 7,
            "time": 6.928564500000002,
            "value": 0.25196850393700787
          },
          {
            "number": 7,
            "time": 7.071421500000001,
            "value": 0.25984251968503935
          },
          {
            "number": 7,
            "time": 7.249992750000001,
            "value": 0.2677165354330709
          },
          {
            "number": 7,
            "time": 7.392849750000002,
            "value": 0.2755905511811024
          },
          {
            "number": 7,
            "time": 7.571421000000002,
            "value": 0.28346456692913385
          },
          {
            "number": 7,
            "time": 7.714278000000002,
            "value": 0.29133858267716534
          },
          {
            "number": 7,
            "time": 7.892849250000002,
            "value": 0.2992125984251969
          },
          {
            "number": 7,
            "time": 8.035706250000002,
            "value": 0.30708661417322836
          },
          {
            "number": 7,
            "time": 8.214277500000001,
            "value": 0.31496062992125984
          },
          {
            "number": 7,
            "time": 8.3571345,
            "value": 0.3228346456692913
          },
          {
            "number": 7,
            "time": 8.53570575,
            "value": 0.33070866141732286
          },
          {
            "number": 7,
            "time": 8.714277,
            "value": 0.33858267716535434
          },
          {
            "number": 7,
            "time": 8.857133999999999,
            "value": 0.3464566929133858
          },
          {
            "number": 7,
            "time": 9.035705249999998,
            "value": 0.3543307086614173
          },
          {
            "number": 7,
            "time": 9.178562249999997,
            "value": 0.36220472440944884
          },
          {
            "number": 7,
            "time": 9.357133499999996,
            "value": 0.3700787401574803
          },
          {
            "number": 7,
            "time": 9.499990499999996,
            "value": 0.3779527559055118
          },
          {
            "number": 7,
            "time": 9.678561749999995,
            "value": 0.3858267716535433
          },
          {
            "number": 7,
            "time": 9.821418749999994,
            "value": 0.3937007874015748
          },
          {
            "number": 7,
            "time": 9.999989999999993,
            "value": 0.4015748031496063
          },
          {
            "number": 7,
            "time": 10.142846999999993,
            "value": 0.4094488188976378
          },
          {
            "number": 7,
            "time": 10.321418249999992,
            "value": 0.41732283464566927
          },
          {
            "number": 7,
            "time": 10.464275249999991,
            "value": 0.4251968503937008
          },
          {
            "number": 7,
            "time": 10.64284649999999,
            "value": 0.4330708661417323
          },
          {
            "number": 7,
            "time": 10.78570349999999,
            "value": 0.4409448818897638
          },
          {
            "number": 7,
            "time": 10.964274749999989,
            "value": 0.44881889763779526
          },
          {
            "number": 7,
            "time": 11.142845999999988,
            "value": 0.4566929133858268
          },
          {
            "number": 7,
            "time": 11.285702999999987,
            "value": 0.4645669291338583
          },
          {
            "number": 7,
            "time": 11.464274249999987,
            "value": 0.47244094488188976
          },
          {
            "number": 7,
            "time": 11.607131249999986,
            "value": 0.48031496062992124
          },
          {
            "number": 7,
            "time": 11.785702499999985,
            "value": 0.4881889763779528
          },
          {
            "number": 7,
            "time": 11.928559499999984,
            "value": 0.49606299212598426
          },
          {
            "number": 7,
            "time": 12.107130749999984,
            "value": 0.5039370078740157
          },
          {
            "number": 7,
            "time": 12.249987749999983,
            "value": 0.5118110236220472
          },
          {
            "number": 7,
            "time": 12.428558999999982,
            "value": 0.5196850393700787
          },
          {
            "number": 7,
            "time": 12.571415999999981,
            "value": 0.5275590551181102
          },
          {
            "number": 7,
            "time": 12.74998724999998,
            "value": 0.5354330708661418
          },
          {
            "number": 7,
            "time": 12.89284424999998,
            "value": 0.5433070866141733
          },
          {
            "number": 7,
            "time": 13.07141549999998,
            "value": 0.5511811023622047
          },
          {
            "number": 7,
            "time": 13.214272499999979,
            "value": 0.5590551181102362
          },
          {
            "number": 7,
            "time": 13.392843749999978,
            "value": 0.5669291338582677
          },
          {
            "number": 7,
            "time": 13.571414999999977,
            "value": 0.5748031496062992
          },
          {
            "number": 7,
            "time": 13.714271999999976,
            "value": 0.5826771653543307
          },
          {
            "number": 7,
            "time": 13.892843249999975,
            "value": 0.5905511811023622
          },
          {
            "number": 7,
            "time": 14.035700249999975,
            "value": 0.5984251968503937
          },
          {
            "number": 7,
            "time": 14.214271499999974,
            "value": 0.6062992125984252
          },
          {
            "number": 7,
            "time": 14.357128499999973,
            "value": 0.6141732283464567
          },
          {
            "number": 7,
            "time": 14.535699749999972,
            "value": 0.6220472440944882
          },
          {
            "number": 7,
            "time": 14.678556749999972,
            "value": 0.6299212598425197
          },
          {
            "number": 7,
            "time": 14.857127999999971,
            "value": 0.6377952755905512
          },
          {
            "number": 7,
            "time": 14.99998499999997,
            "value": 0.6456692913385826
          },
          {
            "number": 7,
            "time": 15.17855624999997,
            "value": 0.6535433070866141
          },
          {
            "number": 7,
            "time": 15.321413249999969,
            "value": 0.6614173228346457
          },
          {
            "number": 7,
            "time": 15.499984499999968,
            "value": 0.6692913385826772
          },
          {
            "number": 7,
            "time": 15.678555749999967,
            "value": 0.6771653543307087
          },
          {
            "number": 7,
            "time": 15.821412749999967,
            "value": 0.6850393700787402
          },
          {
            "number": 7,
            "time": 15.999983999999966,
            "value": 0.6929133858267716
          },
          {
            "number": 7,
            "time": 16.14284099999997,
            "value": 0.7007874015748031
          },
          {
            "number": 7,
            "time": 16.32141224999997,
            "value": 0.7086614173228346
          },
          {
            "number": 7,
            "time": 16.46426924999997,
            "value": 0.7165354330708661
          },
          {
            "number": 7,
            "time": 16.64284049999997,
            "value": 0.7244094488188977
          },
          {
            "number": 7,
            "time": 16.78569749999997,
            "value": 0.7322834645669292
          },
          {
            "number": 7,
            "time": 16.96426874999997,
            "value": 0.7401574803149606
          },
          {
            "number": 7,
            "time": 17.107125749999973,
            "value": 0.7480314960629921
          },
          {
            "number": 7,
            "time": 17.285696999999978,
            "value": 0.7559055118110236
          },
          {
            "number": 7,
            "time": 17.428553999999977,
            "value": 0.7637795275590551
          },
          {
            "number": 7,
            "time": 17.60712524999998,
            "value": 0.7716535433070866
          },
          {
            "number": 7,
            "time": 17.749982249999984,
            "value": 0.7795275590551181
          },
          {
            "number": 7,
            "time": 17.928553499999985,
            "value": 0.7874015748031497
          },
          {
            "number": 7,
            "time": 18.107124749999986,
            "value": 0.7952755905511811
          },
          {
            "number": 7,
            "time": 18.24998174999999,
            "value": 0.8031496062992126
          },
          {
            "number": 7,
            "time": 18.42855299999999,
            "value": 0.8110236220472441
          },
          {
            "number": 7,
            "time": 18.57140999999999,
            "value": 0.8188976377952756
          },
          {
            "number": 7,
            "time": 18.74998124999999,
            "value": 0.8267716535433071
          },
          {
            "number": 7,
            "time": 18.892838249999993,
            "value": 0.8346456692913385
          },
          {
            "number": 7,
            "time": 19.071409499999994,
            "value": 0.84251968503937
          },
          {
            "number": 7,
            "time": 19.214266499999997,
            "value": 0.8503937007874016
          },
          {
            "number": 7,
            "time": 19.392837749999998,
            "value": 0.8582677165354331
          },
          {
            "number": 7,
            "time": 19.535694749999998,
            "value": 0.8661417322834646
          },
          {
            "number": 7,
            "time": 19.714266,
            "value": 0.8740157480314961
          },
          {
            "number": 7,
            "time": 19.857123,
            "value": 0.8818897637795275
          },
          {
            "number": 7,
            "time": 20.035694250000002,
            "value": 0.889763779527559
          },
          {
            "number": 7,
            "time": 20.214265500000003,
            "value": 0.8976377952755905
          },
          {
            "number": 7,
            "time": 20.357122500000006,
            "value": 0.905511811023622
          },
          {
            "number": 7,
            "time": 20.535693750000007,
            "value": 0.9133858267716536
          },
          {
            "number": 7,
            "time": 20.67855075000001,
            "value": 0.9212598425196851
          },
          {
            "number": 7,
            "time": 20.85712200000001,
            "value": 0.9291338582677166
          },
          {
            "number": 7,
            "time": 20.99997900000001,
            "value": 0.937007874015748
          },
          {
            "number": 7,
            "time": 21.17855025000001,
            "value": 0.9448818897637795
          },
          {
            "number": 7,
            "time": 21.321407250000014,
            "value": 0.952755905511811
          },
          {
            "number": 7,
            "time": 21.499978500000015,
            "value": 0.9606299212598425
          },
          {
            "number": 7,
            "time": 21.642835500000015,
            "value": 0.968503937007874
          },
          {
            "number": 7,
            "time": 21.821406750000016,
            "value": 0.9763779527559056
          },
          {
            "number": 7,
            "time": 21.96426375000002,
            "value": 0.984251968503937
          },
          {
            "number": 7,
            "time": 22.14283500000002,
            "value": 0.9921259842519685
          },
          {
            "number": 7,
            "time": 22.28420390625002,
            "value": 1
          },
          {
            "number": 7,
            "time": 187.05338437500035,
            "value": 0.7874015748031497
          }
        ],
        "10": [
          {
            "number": 10,
            "time": 0,
            "value": 1
          },
          {
            "number": 10,
            "time": 1.8928552500000002,
            "value": 0.007874015748031496
          },
          {
            "number": 10,
            "time": 2.0714265000000003,
            "value": 0.015748031496062992
          },
          {
            "number": 10,
            "time": 2.2499977500000004,
            "value": 0.023622047244094488
          },
          {
            "number": 10,
            "time": 2.4285690000000004,
            "value": 0.031496062992125984
          },
          {
            "number": 10,
            "time": 2.60714025,
            "value": 0.03937007874015748
          },
          {
            "number": 10,
            "time": 2.7857115,
            "value": 0.047244094488188976
          },
          {
            "number": 10,
            "time": 2.96428275,
            "value": 0.05511811023622047
          },
          {
            "number": 10,
            "time": 3.142854,
            "value": 0.06299212598425197
          },
          {
            "number": 10,
            "time": 3.32142525,
            "value": 0.07086614173228346
          },
          {
            "number": 10,
            "time": 3.4999965,
            "value": 0.07874015748031496
          },
          {
            "number": 10,
            "time": 3.67856775,
            "value": 0.08661417322834646
          },
          {
            "number": 10,
            "time": 3.8214247500000003,
            "value": 0.09448818897637795
          },
          {
            "number": 10,
            "time": 3.9999960000000003,
            "value": 0.10236220472440945
          },
          {
            "number": 10,
            "time": 4.17856725,
            "value": 0.11023622047244094
          },
          {
            "number": 10,
            "time": 4.3571385000000005,
            "value": 0.11811023622047244
          },
          {
            "number": 10,
            "time": 4.5357097500000005,
            "value": 0.12598425196850394
          },
          {
            "number": 10,
            "time": 4.714281000000001,
            "value": 0.13385826771653545
          },
          {
            "number": 10,
            "time": 4.892852250000001,
            "value": 0.14173228346456693
          },
          {
            "number": 10,
            "time": 5.071423500000001,
            "value": 0.14960629921259844
          },
          {
            "number": 10,
            "time": 5.249994750000001,
            "value": 0.15748031496062992
          },
          {
            "number": 10,
            "time": 5.428566000000001,
            "value": 0.16535433070866143
          },
          {
            "number": 10,
            "time": 5.607137250000001,
            "value": 0.1732283464566929
          },
          {
            "number": 10,
            "time": 5.785708500000001,
            "value": 0.18110236220472442
          },
          {
            "number": 10,
            "time": 5.928565500000001,
            "value": 0.1889763779527559
          },
          {
            "number": 10,
            "time": 6.107136750000001,
            "value": 0.1968503937007874
          },
          {
            "number": 10,
            "time": 6.285708000000001,
            "value": 0.2047244094488189
          },
          {
            "number": 10,
            "time": 6.4642792500000015,
            "value": 0.2125984251968504
          },
          {
            "number": 10,
            "time": 6.6428505000000015,
            "value": 0.2204724409448819
          },
          {
            "number": 10,
            "time": 6.821421750000002,
            "value": 0.2283464566929134
          },
          {
            "number": 10,
            "time": 6.999993000000002,
            "value": 0.23622047244094488
          },
          {
            "number": 10,
            "time": 7.178564250000002,
            "value": 0.2440944881889764
          },
          {
            "number": 10,
            "time": 7.357135500000002,
            "value": 0.25196850393700787
          },
          {
            "number": 10,
            "time": 7.535706750000002,
            "value": 0.25984251968503935
          },
          {
            "number": 10,
            "time": 7.714278000000002,
            "value": 0.2677165354330709
          },
          {
            "number": 10,
            "time": 7.857135000000002,
            "value": 0.2755905511811024
          },
          {
            "number": 10,
            "time": 8.035706250000002,
            "value": 0.28346456692913385
          },
          {
            "number": 10,
            "time": 8.214277500000001,
            "value": 0.29133858267716534
          },
          {
            "number": 10,
            "time": 8.39284875,
            "value": 0.2992125984251969
          },
          {
            "number": 10,
            "time": 8.57142,
            "value": 0.30708661417322836
          },
          {
            "number": 10,
            "time": 8.749991249999999,
            "value": 0.31496062992125984
          },
          {
            "number": 10,
            "time": 8.928562499999998,
            "value": 0.3228346456692913
          },
          {
            "number": 10,
            "time": 9.107133749999997,
            "value": 0.33070866141732286
          },
          {
            "number": 10,
            "time": 9.285704999999997,
            "value": 0.33858267716535434
          },
          {
            "number": 10,
            "time": 9.464276249999996,
            "value": 0.3464566929133858
          },
          {
            "number": 10,
            "time": 9.642847499999995,
            "value": 0.3543307086614173
          },
          {
            "number": 10,
            "time": 9.821418749999994,
            "value": 0.36220472440944884
          },
          {
            "number": 10,
            "time": 9.964275749999993,
            "value": 0.3700787401574803
          },
          {
            "number": 10,
            "time": 10.142846999999993,
            "value": 0.3779527559055118
          },
          {
            "number": 10,
            "time": 10.321418249999992,
            "value": 0.3858267716535433
          },
          {
            "number": 10,
            "time": 10.499989499999991,
            "value": 0.3937007874015748
          },
          {
            "number": 10,
            "time": 10.67856074999999,
            "value": 0.4015748031496063
          },
          {
            "number": 10,
            "time": 10.85713199999999,
            "value": 0.4094488188976378
          },
          {
            "number": 10,
            "time": 11.035703249999989,
            "value": 0.41732283464566927
          },
          {
            "number": 10,
            "time": 11.214274499999988,
            "value": 0.4251968503937008
          },
          {
            "number": 10,
            "time": 11.392845749999987,
            "value": 0.4330708661417323
          },
          {
            "number": 10,
            "time": 11.571416999999986,
            "value": 0.4409448818897638
          },
          {
            "number": 10,
            "time": 11.749988249999985,
            "value": 0.44881889763779526
          },
          {
            "number": 10,
            "time": 11.892845249999985,
            "value": 0.4566929133858268
          },
          {
            "number": 10,
            "time": 12.071416499999984,
            "value": 0.4645669291338583
          },
          {
            "number": 10,
            "time": 12.249987749999983,
            "value": 0.47244094488188976
          },
          {
            "number": 10,
            "time": 12.428558999999982,
            "value": 0.48031496062992124
          },
          {
            "number": 10,
            "time": 12.607130249999981,
            "value": 0.4881889763779528
          },
          {
            "number": 10,
            "time": 12.78570149999998,
            "value": 0.49606299212598426
          },
          {
            "number": 10,
            "time": 12.96427274999998,
            "value": 0.5039370078740157
          },
          {
            "number": 10,
            "time": 13.142843999999979,
            "value": 0.5118110236220472
          },
          {
            "number": 10,
            "time": 13.321415249999978,
            "value": 0.5196850393700787
          },
          {
            "number": 10,
            "time": 13.499986499999977,
            "value": 0.5275590551181102
          },
          {
            "number": 10,
            "time": 13.678557749999976,
            "value": 0.5354330708661418
          },
          {
            "number": 10,
            "time": 13.857128999999976,
            "value": 0.5433070866141733
          },
          {
            "number": 10,
            "time": 13.999985999999975,
            "value": 0.5511811023622047
          },
          {
            "number": 10,
            "time": 14.178557249999974,
            "value": 0.5590551181102362
          },
          {
            "number": 10,
            "time": 14.357128499999973,
            "value": 0.5669291338582677
          },
          {
            "number": 10,
            "time": 14.535699749999972,
            "value": 0.5748031496062992
          },
          {
            "number": 10,
            "time": 14.714270999999972,
            "value": 0.5826771653543307
          },
          {
            "number": 10,
            "time": 14.89284224999997,
            "value": 0.5905511811023622
          },
          {
            "number": 10,
            "time": 15.07141349999997,
            "value": 0.5984251968503937
          },
          {
            "number": 10,
            "time": 15.24998474999997,
            "value": 0.6062992125984252
          },
          {
            "number": 10,
            "time": 15.428555999999968,
            "value": 0.6141732283464567
          },
          {
            "number": 10,
            "time": 15.607127249999968,
            "value": 0.6220472440944882
          },
          {
            "number": 10,
            "time": 15.785698499999967,
            "value": 0.6299212598425197
          },
          {
            "number": 10,
            "time": 15.928555499999966,
            "value": 0.6377952755905512
          },
          {
            "number": 10,
            "time": 16.107126749999967,
            "value": 0.6456692913385826
          },
          {
            "number": 10,
            "time": 16.285697999999968,
            "value": 0.6535433070866141
          },
          {
            "number": 10,
            "time": 16.46426924999997,
            "value": 0.6614173228346457
          },
          {
            "number": 10,
            "time": 16.64284049999997,
            "value": 0.6692913385826772
          },
          {
            "number": 10,
            "time": 16.82141174999997,
            "value": 0.6771653543307087
          },
          {
            "number": 10,
            "time": 16.999982999999972,
            "value": 0.6850393700787402
          },
          {
            "number": 10,
            "time": 17.178554249999976,
            "value": 0.6929133858267716
          },
          {
            "number": 10,
            "time": 17.357125499999977,
            "value": 0.7007874015748031
          },
          {
            "number": 10,
            "time": 17.53569674999998,
            "value": 0.7086614173228346
          },
          {
            "number": 10,
            "time": 17.714267999999983,
            "value": 0.7165354330708661
          },
          {
            "number": 10,
            "time": 17.892839249999984,
            "value": 0.7244094488188977
          },
          {
            "number": 10,
            "time": 18.035696249999987,
            "value": 0.7322834645669292
          },
          {
            "number": 10,
            "time": 18.214267499999988,
            "value": 0.7401574803149606
          },
          {
            "number": 10,
            "time": 18.39283874999999,
            "value": 0.7480314960629921
          },
          {
            "number": 10,
            "time": 18.57140999999999,
            "value": 0.7559055118110236
          },
          {
            "number": 10,
            "time": 18.74998124999999,
            "value": 0.7637795275590551
          },
          {
            "number": 10,
            "time": 18.928552499999995,
            "value": 0.7716535433070866
          },
          {
            "number": 10,
            "time": 19.107123749999996,
            "value": 0.7795275590551181
          },
          {
            "number": 10,
            "time": 19.285694999999997,
            "value": 0.7874015748031497
          },
          {
            "number": 10,
            "time": 19.464266249999998,
            "value": 0.7952755905511811
          },
          {
            "number": 10,
            "time": 19.6428375,
            "value": 0.8031496062992126
          },
          {
            "number": 10,
            "time": 19.82140875,
            "value": 0.8110236220472441
          },
          {
            "number": 10,
            "time": 19.964265750000003,
            "value": 0.8188976377952756
          },
          {
            "number": 10,
            "time": 20.142837000000004,
            "value": 0.8267716535433071
          },
          {
            "number": 10,
            "time": 20.321408250000005,
            "value": 0.8346456692913385
          },
          {
            "number": 10,
            "time": 20.499979500000006,
            "value": 0.84251968503937
          },
          {
            "number": 10,
            "time": 20.67855075000001,
            "value": 0.8503937007874016
          },
          {
            "number": 10,
            "time": 20.85712200000001,
            "value": 0.8582677165354331
          },
          {
            "number": 10,
            "time": 21.035693250000012,
            "value": 0.8661417322834646
          },
          {
            "number": 10,
            "time": 21.214264500000013,
            "value": 0.8740157480314961
          },
          {
            "number": 10,
            "time": 21.392835750000014,
            "value": 0.8818897637795275
          },
          {
            "number": 10,
            "time": 21.571407000000015,
            "value": 0.889763779527559
          },
          {
            "number": 10,
            "time": 21.749978250000016,
            "value": 0.8976377952755905
          },
          {
            "number": 10,
            "time": 21.928549500000017,
            "value": 0.905511811023622
          },
          {
            "number": 10,
            "time": 22.07140650000002,
            "value": 0.9133858267716536
          },
          {
            "number": 10,
            "time": 22.24997775000002,
            "value": 0.9212598425196851
          },
          {
            "number": 10,
            "time": 22.42854900000002,
            "value": 0.9291338582677166
          },
          {
            "number": 10,
            "time": 22.607120250000023,
            "value": 0.937007874015748
          },
          {
            "number": 10,
            "time": 22.785691500000024,
            "value": 0.9448818897637795
          },
          {
            "number": 10,
            "time": 22.964262750000024,
            "value": 0.952755905511811
          },
          {
            "number": 10,
            "time": 23.142834000000025,
            "value": 0.9606299212598425
          },
          {
            "number": 10,
            "time": 23.321405250000026,
            "value": 0.968503937007874
          },
          {
            "number": 10,
            "time": 23.499976500000027,
            "value": 0.9763779527559056
          },
          {
            "number": 10,
            "time": 23.67854775000003,
            "value": 0.984251968503937
          },
          {
            "number": 10,
            "time": 23.85711900000003,
            "value": 0.9921259842519685
          },
          {
            "number": 10,
            "time": 23.99848790625003,
            "value": 1
          },
          {
            "number": 10,
            "time": 23.999976000000032,
            "value": 0.9921259842519685
          },
          {
            "number": 10,
            "time": 24.249975750000033,
            "value": 0.984251968503937
          },
          {
            "number": 10,
            "time": 24.464261250000035,
            "value": 0.9763779527559056
          },
          {
            "number": 10,
            "time": 24.678546750000034,
            "value": 0.968503937007874
          },
          {
            "number": 10,
            "time": 24.892832250000037,
            "value": 0.9606299212598425
          },
          {
            "number": 10,
            "time": 25.107117750000036,
            "value": 0.952755905511811
          },
          {
            "number": 10,
            "time": 25.32140325000004,
            "value": 0.9448818897637795
          },
          {
            "number": 10,
            "time": 25.535688750000038,
            "value": 0.937007874015748
          },
          {
            "number": 10,
            "time": 25.74997425000004,
            "value": 0.9291338582677166
          },
          {
            "number": 10,
            "time": 25.96425975000004,
            "value": 0.9212598425196851
          },
          {
            "number": 10,
            "time": 26.17854525000004,
            "value": 0.9133858267716536
          },
          {
            "number": 10,
            "time": 26.428545000000042,
            "value": 0.905511811023622
          },
          {
            "number": 10,
            "time": 26.64283050000004,
            "value": 0.8976377952755905
          },
          {
            "number": 10,
            "time": 26.85711600000004,
            "value": 0.889763779527559
          },
          {
            "number": 10,
            "time": 27.07140150000004,
            "value": 0.8818897637795275
          },
          {
            "number": 10,
            "time": 27.28568700000004,
            "value": 0.8740157480314961
          },
          {
            "number": 10,
            "time": 27.499972500000037,
            "value": 0.8661417322834646
          },
          {
            "number": 10,
            "time": 27.714258000000036,
            "value": 0.8582677165354331
          },
          {
            "number": 10,
            "time": 27.928543500000035,
            "value": 0.8503937007874016
          },
          {
            "number": 10,
            "time": 28.142829000000035,
            "value": 0.84251968503937
          },
          {
            "number": 10,
            "time": 28.357114500000034,
            "value": 0.8346456692913385
          },
          {
            "number": 10,
            "time": 28.571400000000033,
            "value": 0.8267716535433071
          },
          {
            "number": 10,
            "time": 28.821399750000033,
            "value": 0.8188976377952756
          },
          {
            "number": 10,
            "time": 29.035685250000032,
            "value": 0.8110236220472441
          },
          {
            "number": 10,
            "time": 29.249970750000035,
            "value": 0.8031496062992126
          },
          {
            "number": 10,
            "time": 29.464256250000034,
            "value": 0.7952755905511811
          },
          {
            "number": 10,
            "time": 29.678541750000036,
            "value": 0.7874015748031497
          },
          {
            "number": 10,
            "time": 29.892827250000035,
            "value": 0.7795275590551181
          },
          {
            "number": 10,
            "time": 30.107112750000038,
            "value": 0.7716535433070866
          },
          {
            "number": 10,
            "time": 30.321398250000037,
            "value": 0.7637795275590551
          },
          {
            "number": 10,
            "time": 30.53568375000004,
            "value": 0.7559055118110236
          },
          {
            "number": 10,
            "time": 30.74996925000004,
            "value": 0.7480314960629921
          },
          {
            "number": 10,
            "time": 30.99996900000004,
            "value": 0.7401574803149606
          },
          {
            "number": 10,
            "time": 31.214254500000038,
            "value": 0.7322834645669292
          },
          {
            "number": 10,
            "time": 31.428540000000037,
            "value": 0.7244094488188977
          },
          {
            "number": 10,
            "time": 31.642825500000036,
            "value": 0.7165354330708661
          },
          {
            "number": 10,
            "time": 31.857111000000035,
            "value": 0.7086614173228346
          },
          {
            "number": 10,
            "time": 32.071396500000034,
            "value": 0.7007874015748031
          },
          {
            "number": 10,
            "time": 32.28568200000004,
            "value": 0.6929133858267716
          },
          {
            "number": 10,
            "time": 32.49996750000004,
            "value": 0.6850393700787402
          },
          {
            "number": 10,
            "time": 32.71425300000004,
            "value": 0.6771653543307087
          },
          {
            "number": 10,
            "time": 32.928538500000045,
            "value": 0.6692913385826772
          },
          {
            "number": 10,
            "time": 33.14282400000005,
            "value": 0.6614173228346457
          },
          {
            "number": 10,
            "time": 33.39282375000005,
            "value": 0.6535433070866141
          },
          {
            "number": 10,
            "time": 33.60710925000004,
            "value": 0.6456692913385826
          },
          {
            "number": 10,
            "time": 33.821394750000046,
            "value": 0.6377952755905512
          },
          {
            "number": 10,
            "time": 34.03568025000004,
            "value": 0.6299212598425197
          },
          {
            "number": 10,
            "time": 34.249965750000044,
            "value": 0.6220472440944882
          },
          {
            "number": 10,
            "time": 34.46425125000004,
            "value": 0.6141732283464567
          },
          {
            "number": 10,
            "time": 34.67853675000004,
            "value": 0.6062992125984252
          },
          {
            "number": 10,
            "time": 34.89282225000004,
            "value": 0.5984251968503937
          },
          {
            "number": 10,
            "time": 35.10710775000004,
            "value": 0.5905511811023622
          },
          {
            "number": 10,
            "time": 35.321393250000035,
            "value": 0.5826771653543307
          },
          {
            "number": 10,
            "time": 35.571393000000036,
            "value": 0.5748031496062992
          },
          {
            "number": 10,
            "time": 35.78567850000004,
            "value": 0.5669291338582677
          },
          {
            "number": 10,
            "time": 35.99996400000004,
            "value": 0.5590551181102362
          },
          {
            "number": 10,
            "time": 36.214249500000044,
            "value": 0.5511811023622047
          },
          {
            "number": 10,
            "time": 36.428535000000046,
            "value": 0.5433070866141733
          },
          {
            "number": 10,
            "time": 36.64282050000005,
            "value": 0.5354330708661418
          },
          {
            "number": 10,
            "time": 36.85710600000005,
            "value": 0.5275590551181102
          },
          {
            "number": 10,
            "time": 37.071391500000054,
            "value": 0.5196850393700787
          },
          {
            "number": 10,
            "time": 37.28567700000006,
            "value": 0.5118110236220472
          },
          {
            "number": 10,
            "time": 37.49996250000006,
            "value": 0.5039370078740157
          },
          {
            "number": 10,
            "time": 187.14267000000035,
            "value": 0.5039370078740157
          }
        ],
        "91": [
          {
            "number": 91,
            "time": 0.21428550000000002,
            "value": 0.9133858267716536
          },
          {
            "number": 91,
            "time": 187.23195562500035,
            "value": 0.31496062992125984
          }
        ],
        "93": [
          {
            "number": 93,
            "time": 0.42857100000000004,
            "value": 0.5039370078740157
          },
          {
            "number": 93,
            "time": 187.37481262500035,
            "value": 0
          }
        ]
      },
      "id": 8,
      "instrumentNumber": 14,
      "instrument": "tubular bells",
      "instrumentFamily": "chromatic percussion",
      "channelNumber": 3,
      "isPercussion": false
    },
    {
      "startTime": 42.8571,
      "duration": 186.85695600000074,
      "length": 825,
      "notes": [
        {
          "name": "E3",
          "midi": 52,
          "time": 42.8571,
          "velocity": 1,
          "duration": 0.2857139999999987
        },
        {
          "name": "E2",
          "midi": 40,
          "time": 42.8571,
          "velocity": 1,
          "duration": 0.42857099999999804
        },
        {
          "name": "E3",
          "midi": 52,
          "time": 43.142814,
          "velocity": 1,
          "duration": 0.2857139999999987
        },
        {
          "name": "E2",
          "midi": 40,
          "time": 43.285671,
          "velocity": 1,
          "duration": 0.2857139999999987
        },
        {
          "name": "E3",
          "midi": 52,
          "time": 43.428528,
          "velocity": 1,
          "duration": 0.2857139999999987
        },
        {
          "name": "E2",
          "midi": 40,
          "time": 43.571385,
          "velocity": 1,
          "duration": 0.14285699999999935
        },
        {
          "name": "E3",
          "midi": 52,
          "time": 43.714242,
          "velocity": 1,
          "duration": 0.2857139999999987
        },
        {
          "name": "E2",
          "midi": 40,
          "time": 43.714242,
          "velocity": 1,
          "duration": 0.42857099999999804
        },
        {
          "name": "E3",
          "midi": 52,
          "time": 43.999956,
          "velocity": 1,
          "duration": 0.2857139999999987
        },
        {
          "name": "E2",
          "midi": 40,
          "time": 44.142813,
          "velocity": 1,
          "duration": 0.2857139999999987
        },
        {
          "name": "E3",
          "midi": 52,
          "time": 44.285669999999996,
          "velocity": 1,
          "duration": 0.2857139999999987
        },
        {
          "name": "E2",
          "midi": 40,
          "time": 44.428526999999995,
          "velocity": 1,
          "duration": 0.14285699999999935
        },
        {
          "name": "E3",
          "midi": 52,
          "time": 44.571383999999995,
          "velocity": 1,
          "duration": 0.2857139999999987
        },
        {
          "name": "E2",
          "midi": 40,
          "time": 44.571383999999995,
          "velocity": 1,
          "duration": 0.42857099999999804
        },
        {
          "name": "E3",
          "midi": 52,
          "time": 44.85709799999999,
          "velocity": 1,
          "duration": 0.2857139999999987
        },
        {
          "name": "E2",
          "midi": 40,
          "time": 44.99995499999999,
          "velocity": 1,
          "duration": 0.2857139999999987
        },
        {
          "name": "E3",
          "midi": 52,
          "time": 45.14281199999999,
          "velocity": 1,
          "duration": 0.2857139999999987
        },
        {
          "name": "E2",
          "midi": 40,
          "time": 45.28566899999999,
          "velocity": 1,
          "duration": 0.14285699999999935
        },
        {
          "name": "E3",
          "midi": 52,
          "time": 45.42852599999999,
          "velocity": 1,
          "duration": 0.2857139999999987
        },
        {
          "name": "C#2",
          "midi": 37,
          "time": 45.42852599999999,
          "velocity": 1,
          "duration": 0.42857099999999804
        },
        {
          "name": "E3",
          "midi": 52,
          "time": 45.71423999999999,
          "velocity": 1,
          "duration": 0.14285699999999935
        },
        {
          "name": "E3",
          "midi": 52,
          "time": 45.85709699999999,
          "velocity": 1,
          "duration": 0.2857139999999987
        },
        {
          "name": "D2",
          "midi": 38,
          "time": 45.85709699999999,
          "velocity": 1,
          "duration": 0.42857099999999804
        },
        {
          "name": "E3",
          "midi": 52,
          "time": 46.14281099999999,
          "velocity": 1,
          "duration": 0.14285699999999935
        },
        {
          "name": "E3",
          "midi": 52,
          "time": 46.28566799999999,
          "velocity": 1,
          "duration": 0.2857139999999987
        },
        {
          "name": "E2",
          "midi": 40,
          "time": 46.28566799999999,
          "velocity": 1,
          "duration": 0.42857099999999804
        },
        {
          "name": "E3",
          "midi": 52,
          "time": 46.571381999999986,
          "velocity": 1,
          "duration": 0.2857139999999987
        },
        {
          "name": "E2",
          "midi": 40,
          "time": 46.714238999999985,
          "velocity": 1,
          "duration": 0.2857139999999987
        },
        {
          "name": "E3",
          "midi": 52,
          "time": 46.857095999999984,
          "velocity": 1,
          "duration": 0.2857139999999987
        },
        {
          "name": "E2",
          "midi": 40,
          "time": 46.999952999999984,
          "velocity": 1,
          "duration": 0.14285699999999935
        },
        {
          "name": "E3",
          "midi": 52,
          "time": 47.14280999999998,
          "velocity": 1,
          "duration": 0.2857139999999987
        },
        {
          "name": "E2",
          "midi": 40,
          "time": 47.14280999999998,
          "velocity": 1,
          "duration": 0.42857099999999804
        },
        {
          "name": "E3",
          "midi": 52,
          "time": 47.42852399999998,
          "velocity": 1,
          "duration": 0.2857139999999987
        },
        {
          "name": "E2",
          "midi": 40,
          "time": 47.57138099999998,
          "velocity": 1,
          "duration": 0.2857139999999987
        },
        {
          "name": "E3",
          "midi": 52,
          "time": 47.71423799999998,
          "velocity": 1,
          "duration": 0.2857139999999987
        },
        {
          "name": "E2",
          "midi": 40,
          "time": 47.85709499999998,
          "velocity": 1,
          "duration": 0.14285699999999935
        },
        {
          "name": "E3",
          "midi": 52,
          "time": 47.99995199999998,
          "velocity": 1,
          "duration": 0.2857139999999987
        },
        {
          "name": "E2",
          "midi": 40,
          "time": 47.99995199999998,
          "velocity": 1,
          "duration": 0.42857099999999804
        },
        {
          "name": "E3",
          "midi": 52,
          "time": 48.28566599999998,
          "velocity": 1,
          "duration": 0.2857139999999987
        },
        {
          "name": "E2",
          "midi": 40,
          "time": 48.42852299999998,
          "velocity": 1,
          "duration": 0.2857139999999987
        },
        {
          "name": "E3",
          "midi": 52,
          "time": 48.57137999999998,
          "velocity": 1,
          "duration": 0.2857139999999987
        },
        {
          "name": "E2",
          "midi": 40,
          "time": 48.714236999999976,
          "velocity": 1,
          "duration": 0.14285699999999935
        },
        {
          "name": "E3",
          "midi": 52,
          "time": 48.857093999999975,
          "velocity": 1,
          "duration": 0.2857139999999987
        },
        {
          "name": "C#2",
          "midi": 37,
          "time": 48.857093999999975,
          "velocity": 1,
          "duration": 0.42857099999999804
        },
        {
          "name": "E3",
          "midi": 52,
          "time": 49.142807999999974,
          "velocity": 1,
          "duration": 0.14285699999999935
        },
        {
          "name": "E3",
          "midi": 52,
          "time": 49.28566499999997,
          "velocity": 1,
          "duration": 0.2857139999999987
        },
        {
          "name": "D2",
          "midi": 38,
          "time": 49.28566499999997,
          "velocity": 1,
          "duration": 0.42857099999999804
        },
        {
          "name": "E3",
          "midi": 52,
          "time": 49.57137899999997,
          "velocity": 1,
          "duration": 0.14285699999999935
        },
        {
          "name": "E3",
          "midi": 52,
          "time": 49.71423599999997,
          "velocity": 1,
          "duration": 0.2857139999999987
        },
        {
          "name": "E2",
          "midi": 40,
          "time": 49.71423599999997,
          "velocity": 1,
          "duration": 0.42857099999999804
        },
        {
          "name": "E3",
          "midi": 52,
          "time": 49.99994999999997,
          "velocity": 1,
          "duration": 0.2857139999999987
        },
        {
          "name": "E2",
          "midi": 40,
          "time": 50.14280699999997,
          "velocity": 1,
          "duration": 0.2857139999999987
        },
        {
          "name": "E3",
          "midi": 52,
          "time": 50.28566399999997,
          "velocity": 1,
          "duration": 0.2857139999999987
        },
        {
          "name": "E2",
          "midi": 40,
          "time": 50.42852099999997,
          "velocity": 1,
          "duration": 0.14285699999999935
        },
        {
          "name": "E3",
          "midi": 52,
          "time": 50.57137799999997,
          "velocity": 1,
          "duration": 0.2857139999999987
        },
        {
          "name": "E2",
          "midi": 40,
          "time": 50.57137799999997,
          "velocity": 1,
          "duration": 0.42857099999999804
        },
        {
          "name": "E3",
          "midi": 52,
          "time": 50.857091999999966,
          "velocity": 1,
          "duration": 0.2857139999999987
        },
        {
          "name": "E2",
          "midi": 40,
          "time": 50.999948999999965,
          "velocity": 1,
          "duration": 0.2857139999999987
        },
        {
          "name": "E3",
          "midi": 52,
          "time": 51.142805999999965,
          "velocity": 1,
          "duration": 0.2857139999999987
        },
        {
          "name": "E2",
          "midi": 40,
          "time": 51.285662999999964,
          "velocity": 1,
          "duration": 0.14285699999999935
        },
        {
          "name": "E3",
          "midi": 52,
          "time": 51.42851999999996,
          "velocity": 1,
          "duration": 0.2857139999999987
        },
        {
          "name": "E2",
          "midi": 40,
          "time": 51.42851999999996,
          "velocity": 1,
          "duration": 0.42857099999999804
        },
        {
          "name": "E3",
          "midi": 52,
          "time": 51.71423399999996,
          "velocity": 1,
          "duration": 0.2857139999999987
        },
        {
          "name": "E2",
          "midi": 40,
          "time": 51.85709099999996,
          "velocity": 1,
          "duration": 0.2857139999999987
        },
        {
          "name": "E3",
          "midi": 52,
          "time": 51.99994799999996,
          "velocity": 1,
          "duration": 0.2857139999999987
        },
        {
          "name": "E2",
          "midi": 40,
          "time": 52.14280499999996,
          "velocity": 1,
          "duration": 0.14285699999999935
        },
        {
          "name": "E3",
          "midi": 52,
          "time": 52.28566199999996,
          "velocity": 1,
          "duration": 0.2857139999999987
        },
        {
          "name": "C#2",
          "midi": 37,
          "time": 52.28566199999996,
          "velocity": 1,
          "duration": 0.42857099999999804
        },
        {
          "name": "E3",
          "midi": 52,
          "time": 52.57137599999996,
          "velocity": 1,
          "duration": 0.14285699999999935
        },
        {
          "name": "E3",
          "midi": 52,
          "time": 52.71423299999996,
          "velocity": 1,
          "duration": 0.2857139999999987
        },
        {
          "name": "D2",
          "midi": 38,
          "time": 52.71423299999996,
          "velocity": 1,
          "duration": 0.42857099999999804
        },
        {
          "name": "E3",
          "midi": 52,
          "time": 52.999946999999956,
          "velocity": 1,
          "duration": 0.14285699999999935
        },
        {
          "name": "E3",
          "midi": 52,
          "time": 53.142803999999956,
          "velocity": 1,
          "duration": 0.2857139999999987
        },
        {
          "name": "E2",
          "midi": 40,
          "time": 53.142803999999956,
          "velocity": 1,
          "duration": 0.42857099999999804
        },
        {
          "name": "E3",
          "midi": 52,
          "time": 53.428517999999954,
          "velocity": 1,
          "duration": 0.2857139999999987
        },
        {
          "name": "E2",
          "midi": 40,
          "time": 53.571374999999954,
          "velocity": 1,
          "duration": 0.2857139999999987
        },
        {
          "name": "E3",
          "midi": 52,
          "time": 53.71423199999995,
          "velocity": 1,
          "duration": 0.2857139999999987
        },
        {
          "name": "E2",
          "midi": 40,
          "time": 53.85708899999995,
          "velocity": 1,
          "duration": 0.14285699999999935
        },
        {
          "name": "E3",
          "midi": 52,
          "time": 53.99994599999995,
          "velocity": 1,
          "duration": 0.2857139999999987
        },
        {
          "name": "E2",
          "midi": 40,
          "time": 53.99994599999995,
          "velocity": 1,
          "duration": 0.42857099999999804
        },
        {
          "name": "E3",
          "midi": 52,
          "time": 54.28565999999995,
          "velocity": 1,
          "duration": 0.2857139999999987
        },
        {
          "name": "E2",
          "midi": 40,
          "time": 54.42851699999995,
          "velocity": 1,
          "duration": 0.2857139999999987
        },
        {
          "name": "E3",
          "midi": 52,
          "time": 54.57137399999995,
          "velocity": 1,
          "duration": 0.2857139999999987
        },
        {
          "name": "E2",
          "midi": 40,
          "time": 54.71423099999995,
          "velocity": 1,
          "duration": 0.14285699999999935
        },
        {
          "name": "E3",
          "midi": 52,
          "time": 54.85708799999995,
          "velocity": 1,
          "duration": 0.2857139999999987
        },
        {
          "name": "E2",
          "midi": 40,
          "time": 54.85708799999995,
          "velocity": 1,
          "duration": 0.42857099999999804
        },
        {
          "name": "E3",
          "midi": 52,
          "time": 55.142801999999946,
          "velocity": 1,
          "duration": 0.2857139999999987
        },
        {
          "name": "E2",
          "midi": 40,
          "time": 55.285658999999946,
          "velocity": 1,
          "duration": 0.2857139999999987
        },
        {
          "name": "E3",
          "midi": 52,
          "time": 55.428515999999945,
          "velocity": 1,
          "duration": 0.2857139999999987
        },
        {
          "name": "E2",
          "midi": 40,
          "time": 55.571372999999944,
          "velocity": 1,
          "duration": 0.14285699999999935
        },
        {
          "name": "E3",
          "midi": 52,
          "time": 55.714229999999944,
          "velocity": 1,
          "duration": 0.2857139999999987
        },
        {
          "name": "E2",
          "midi": 40,
          "time": 55.714229999999944,
          "velocity": 1,
          "duration": 0.5714279999999974
        },
        {
          "name": "E3",
          "midi": 52,
          "time": 55.99994399999994,
          "velocity": 1,
          "duration": 0.2857139999999987
        },
        {
          "name": "E3",
          "midi": 52,
          "time": 56.28565799999994,
          "velocity": 1,
          "duration": 0.2857139999999987
        },
        {
          "name": "F2",
          "midi": 41,
          "time": 56.28565799999994,
          "velocity": 1,
          "duration": 0.2857139999999987
        },
        {
          "name": "G3",
          "midi": 55,
          "time": 56.57137199999994,
          "velocity": 1,
          "duration": 0.2857139999999987
        },
        {
          "name": "G2",
          "midi": 43,
          "time": 56.57137199999994,
          "velocity": 1,
          "duration": 0.42857099999999804
        },
        {
          "name": "G3",
          "midi": 55,
          "time": 56.85708599999994,
          "velocity": 1,
          "duration": 0.2857139999999987
        },
        {
          "name": "G2",
          "midi": 43,
          "time": 56.99994299999994,
          "velocity": 1,
          "duration": 0.2857139999999987
        },
        {
          "name": "G3",
          "midi": 55,
          "time": 57.14279999999994,
          "velocity": 1,
          "duration": 0.2857139999999987
        },
        {
          "name": "G2",
          "midi": 43,
          "time": 57.28565699999994,
          "velocity": 1,
          "duration": 0.14285699999999935
        },
        {
          "name": "G3",
          "midi": 55,
          "time": 57.428513999999936,
          "velocity": 1,
          "duration": 0.2857139999999987
        },
        {
          "name": "G2",
          "midi": 43,
          "time": 57.428513999999936,
          "velocity": 1,
          "duration": 0.42857099999999804
        },
        {
          "name": "G3",
          "midi": 55,
          "time": 57.714227999999935,
          "velocity": 1,
          "duration": 0.2857139999999987
        },
        {
          "name": "G2",
          "midi": 43,
          "time": 57.857084999999934,
          "velocity": 1,
          "duration": 0.2857139999999987
        },
        {
          "name": "G3",
          "midi": 55,
          "time": 57.99994199999993,
          "velocity": 1,
          "duration": 0.2857139999999987
        },
        {
          "name": "G2",
          "midi": 43,
          "time": 58.14279899999993,
          "velocity": 1,
          "duration": 0.14285699999999935
        },
        {
          "name": "G3",
          "midi": 55,
          "time": 58.28565599999993,
          "velocity": 1,
          "duration": 0.2857139999999987
        },
        {
          "name": "G2",
          "midi": 43,
          "time": 58.28565599999993,
          "velocity": 1,
          "duration": 0.42857099999999804
        },
        {
          "name": "G3",
          "midi": 55,
          "time": 58.57136999999993,
          "velocity": 1,
          "duration": 0.2857139999999987
        },
        {
          "name": "G2",
          "midi": 43,
          "time": 58.71422699999993,
          "velocity": 1,
          "duration": 0.2857139999999987
        },
        {
          "name": "G3",
          "midi": 55,
          "time": 58.85708399999993,
          "velocity": 1,
          "duration": 0.2857139999999987
        },
        {
          "name": "G2",
          "midi": 43,
          "time": 58.99994099999993,
          "velocity": 1,
          "duration": 0.14285699999999935
        },
        {
          "name": "G3",
          "midi": 55,
          "time": 59.14279799999993,
          "velocity": 1,
          "duration": 0.2857139999999987
        },
        {
          "name": "E2",
          "midi": 40,
          "time": 59.14279799999993,
          "velocity": 1,
          "duration": 0.42857099999999804
        },
        {
          "name": "G3",
          "midi": 55,
          "time": 59.42851199999993,
          "velocity": 1,
          "duration": 0.14285699999999935
        },
        {
          "name": "G3",
          "midi": 55,
          "time": 59.571368999999926,
          "velocity": 1,
          "duration": 0.2857139999999987
        },
        {
          "name": "F2",
          "midi": 41,
          "time": 59.571368999999926,
          "velocity": 1,
          "duration": 0.42857099999999804
        },
        {
          "name": "G3",
          "midi": 55,
          "time": 59.857082999999925,
          "velocity": 1,
          "duration": 0.14285699999999935
        },
        {
          "name": "G3",
          "midi": 55,
          "time": 59.999939999999924,
          "velocity": 1,
          "duration": 0.2857139999999987
        },
        {
          "name": "G2",
          "midi": 43,
          "time": 59.999939999999924,
          "velocity": 1,
          "duration": 0.42857099999999804
        },
        {
          "name": "G3",
          "midi": 55,
          "time": 60.28565399999992,
          "velocity": 1,
          "duration": 0.2857139999999987
        },
        {
          "name": "G2",
          "midi": 43,
          "time": 60.42851099999992,
          "velocity": 1,
          "duration": 0.2857139999999987
        },
        {
          "name": "G3",
          "midi": 55,
          "time": 60.57136799999992,
          "velocity": 1,
          "duration": 0.2857139999999987
        },
        {
          "name": "G2",
          "midi": 43,
          "time": 60.71422499999992,
          "velocity": 1,
          "duration": 0.14285699999999935
        },
        {
          "name": "G3",
          "midi": 55,
          "time": 60.85708199999992,
          "velocity": 1,
          "duration": 0.2857139999999987
        },
        {
          "name": "G2",
          "midi": 43,
          "time": 60.85708199999992,
          "velocity": 1,
          "duration": 0.42857099999999804
        },
        {
          "name": "G3",
          "midi": 55,
          "time": 61.14279599999992,
          "velocity": 1,
          "duration": 0.2857139999999987
        },
        {
          "name": "G2",
          "midi": 43,
          "time": 61.28565299999992,
          "velocity": 1,
          "duration": 0.2857139999999987
        },
        {
          "name": "G3",
          "midi": 55,
          "time": 61.42850999999992,
          "velocity": 1,
          "duration": 0.2857139999999987
        },
        {
          "name": "G2",
          "midi": 43,
          "time": 61.57136699999992,
          "velocity": 1,
          "duration": 0.14285699999999935
        },
        {
          "name": "G3",
          "midi": 55,
          "time": 61.714223999999916,
          "velocity": 1,
          "duration": 0.2857139999999987
        },
        {
          "name": "G2",
          "midi": 43,
          "time": 61.714223999999916,
          "velocity": 1,
          "duration": 0.42857099999999804
        },
        {
          "name": "G3",
          "midi": 55,
          "time": 61.999937999999915,
          "velocity": 1,
          "duration": 0.2857139999999987
        },
        {
          "name": "G2",
          "midi": 43,
          "time": 62.142794999999914,
          "velocity": 1,
          "duration": 0.2857139999999987
        },
        {
          "name": "G3",
          "midi": 55,
          "time": 62.285651999999914,
          "velocity": 1,
          "duration": 0.2857139999999987
        },
        {
          "name": "G2",
          "midi": 43,
          "time": 62.42850899999991,
          "velocity": 1,
          "duration": 0.14285699999999935
        },
        {
          "name": "G3",
          "midi": 55,
          "time": 62.57136599999991,
          "velocity": 1,
          "duration": 0.2857139999999987
        },
        {
          "name": "G2",
          "midi": 43,
          "time": 62.57136599999991,
          "velocity": 1,
          "duration": 0.8571419999999961
        },
        {
          "name": "G3",
          "midi": 55,
          "time": 62.85707999999991,
          "velocity": 1,
          "duration": 0.14285699999999935
        },
        {
          "name": "G3",
          "midi": 55,
          "time": 62.99993699999991,
          "velocity": 1,
          "duration": 0.2857139999999987
        },
        {
          "name": "G3",
          "midi": 55,
          "time": 63.28565099999991,
          "velocity": 1,
          "duration": 0.14285699999999935
        },
        {
          "name": "D3",
          "midi": 50,
          "time": 63.42850799999991,
          "velocity": 1,
          "duration": 0.2857139999999987
        },
        {
          "name": "D2",
          "midi": 38,
          "time": 63.42850799999991,
          "velocity": 1,
          "duration": 0.42857099999999804
        },
        {
          "name": "D3",
          "midi": 50,
          "time": 63.71422199999991,
          "velocity": 1,
          "duration": 0.2857139999999987
        },
        {
          "name": "D2",
          "midi": 38,
          "time": 63.857078999999906,
          "velocity": 1,
          "duration": 0.2857140000000058
        },
        {
          "name": "D3",
          "midi": 50,
          "time": 63.999935999999906,
          "velocity": 1,
          "duration": 0.2857140000000129
        },
        {
          "name": "D2",
          "midi": 38,
          "time": 64.14279299999991,
          "velocity": 1,
          "duration": 0.14285700000000645
        },
        {
          "name": "D3",
          "midi": 50,
          "time": 64.28564999999992,
          "velocity": 1,
          "duration": 0.2857139999999987
        },
        {
          "name": "D2",
          "midi": 38,
          "time": 64.28564999999992,
          "velocity": 1,
          "duration": 0.42857100000000514
        },
        {
          "name": "D3",
          "midi": 50,
          "time": 64.57136399999992,
          "velocity": 1,
          "duration": 0.2857140000000129
        },
        {
          "name": "D2",
          "midi": 38,
          "time": 64.71422099999992,
          "velocity": 1,
          "duration": 0.2857140000000129
        },
        {
          "name": "D3",
          "midi": 50,
          "time": 64.85707799999993,
          "velocity": 1,
          "duration": 0.2857140000000129
        },
        {
          "name": "D2",
          "midi": 38,
          "time": 64.99993499999994,
          "velocity": 1,
          "duration": 0.14285700000000645
        },
        {
          "name": "D3",
          "midi": 50,
          "time": 65.14279199999994,
          "velocity": 1,
          "duration": 0.2857139999999987
        },
        {
          "name": "D2",
          "midi": 38,
          "time": 65.14279199999994,
          "velocity": 1,
          "duration": 0.42857100000000514
        },
        {
          "name": "D3",
          "midi": 50,
          "time": 65.42850599999994,
          "velocity": 1,
          "duration": 0.2857140000000129
        },
        {
          "name": "D2",
          "midi": 38,
          "time": 65.57136299999995,
          "velocity": 1,
          "duration": 0.2857140000000129
        },
        {
          "name": "D3",
          "midi": 50,
          "time": 65.71421999999995,
          "velocity": 1,
          "duration": 0.2857140000000129
        },
        {
          "name": "D2",
          "midi": 38,
          "time": 65.85707699999996,
          "velocity": 1,
          "duration": 0.14285700000000645
        },
        {
          "name": "D3",
          "midi": 50,
          "time": 65.99993399999997,
          "velocity": 1,
          "duration": 0.2857139999999987
        },
        {
          "name": "B1",
          "midi": 35,
          "time": 65.99993399999997,
          "velocity": 1,
          "duration": 0.42857100000000514
        },
        {
          "name": "D3",
          "midi": 50,
          "time": 66.28564799999997,
          "velocity": 1,
          "duration": 0.14285700000000645
        },
        {
          "name": "D3",
          "midi": 50,
          "time": 66.42850499999997,
          "velocity": 1,
          "duration": 0.2857139999999987
        },
        {
          "name": "C2",
          "midi": 36,
          "time": 66.42850499999997,
          "velocity": 1,
          "duration": 0.42857100000000514
        },
        {
          "name": "D3",
          "midi": 50,
          "time": 66.71421899999997,
          "velocity": 1,
          "duration": 0.14285700000000645
        },
        {
          "name": "D3",
          "midi": 50,
          "time": 66.85707599999998,
          "velocity": 1,
          "duration": 0.2857139999999987
        },
        {
          "name": "D2",
          "midi": 38,
          "time": 66.85707599999998,
          "velocity": 1,
          "duration": 0.42857100000000514
        },
        {
          "name": "D3",
          "midi": 50,
          "time": 67.14278999999998,
          "velocity": 1,
          "duration": 0.2857140000000129
        },
        {
          "name": "D2",
          "midi": 38,
          "time": 67.28564699999998,
          "velocity": 1,
          "duration": 0.2857140000000129
        },
        {
          "name": "D3",
          "midi": 50,
          "time": 67.42850399999999,
          "velocity": 1,
          "duration": 0.2857140000000129
        },
        {
          "name": "D2",
          "midi": 38,
          "time": 67.571361,
          "velocity": 1,
          "duration": 0.14285700000000645
        },
        {
          "name": "D3",
          "midi": 50,
          "time": 67.714218,
          "velocity": 1,
          "duration": 0.2857139999999987
        },
        {
          "name": "D2",
          "midi": 38,
          "time": 67.714218,
          "velocity": 1,
          "duration": 0.42857100000000514
        },
        {
          "name": "D3",
          "midi": 50,
          "time": 67.999932,
          "velocity": 1,
          "duration": 0.2857140000000129
        },
        {
          "name": "D2",
          "midi": 38,
          "time": 68.14278900000001,
          "velocity": 1,
          "duration": 0.2857140000000129
        },
        {
          "name": "D3",
          "midi": 50,
          "time": 68.28564600000001,
          "velocity": 1,
          "duration": 0.2857140000000129
        },
        {
          "name": "D2",
          "midi": 38,
          "time": 68.42850300000002,
          "velocity": 1,
          "duration": 0.14285700000000645
        },
        {
          "name": "D3",
          "midi": 50,
          "time": 68.57136000000003,
          "velocity": 1,
          "duration": 0.2857139999999987
        },
        {
          "name": "D2",
          "midi": 38,
          "time": 68.57136000000003,
          "velocity": 1,
          "duration": 0.42857100000000514
        },
        {
          "name": "D3",
          "midi": 50,
          "time": 68.85707400000003,
          "velocity": 1,
          "duration": 0.2857140000000129
        },
        {
          "name": "D2",
          "midi": 38,
          "time": 68.99993100000003,
          "velocity": 1,
          "duration": 0.2857140000000129
        },
        {
          "name": "D3",
          "midi": 50,
          "time": 69.14278800000004,
          "velocity": 1,
          "duration": 0.2857140000000129
        },
        {
          "name": "D2",
          "midi": 38,
          "time": 69.28564500000005,
          "velocity": 1,
          "duration": 0.14285700000000645
        },
        {
          "name": "D3",
          "midi": 50,
          "time": 69.42850200000005,
          "velocity": 1,
          "duration": 0.2857139999999987
        },
        {
          "name": "D2",
          "midi": 38,
          "time": 69.42850200000005,
          "velocity": 1,
          "duration": 0.8571420000000103
        },
        {
          "name": "D3",
          "midi": 50,
          "time": 69.71421600000005,
          "velocity": 1,
          "duration": 0.14285700000000645
        },
        {
          "name": "D3",
          "midi": 50,
          "time": 69.85707300000006,
          "velocity": 1,
          "duration": 0.2857139999999987
        },
        {
          "name": "D3",
          "midi": 50,
          "time": 70.14278700000006,
          "velocity": 1,
          "duration": 0.14285700000000645
        },
        {
          "name": "E3",
          "midi": 52,
          "time": 70.28564400000006,
          "velocity": 1,
          "duration": 0.2857139999999987
        },
        {
          "name": "E2",
          "midi": 40,
          "time": 70.28564400000006,
          "velocity": 1,
          "duration": 0.42857100000000514
        },
        {
          "name": "E3",
          "midi": 52,
          "time": 70.57135800000006,
          "velocity": 1,
          "duration": 0.2857140000000129
        },
        {
          "name": "E2",
          "midi": 40,
          "time": 70.71421500000007,
          "velocity": 1,
          "duration": 0.2857140000000129
        },
        {
          "name": "E3",
          "midi": 52,
          "time": 70.85707200000007,
          "velocity": 1,
          "duration": 0.2857140000000129
        },
        {
          "name": "E2",
          "midi": 40,
          "time": 70.99992900000008,
          "velocity": 1,
          "duration": 0.14285700000000645
        },
        {
          "name": "E3",
          "midi": 52,
          "time": 71.14278600000009,
          "velocity": 1,
          "duration": 0.2857139999999987
        },
        {
          "name": "E2",
          "midi": 40,
          "time": 71.14278600000009,
          "velocity": 1,
          "duration": 0.42857100000000514
        },
        {
          "name": "E3",
          "midi": 52,
          "time": 71.42850000000008,
          "velocity": 1,
          "duration": 0.2857140000000129
        },
        {
          "name": "E2",
          "midi": 40,
          "time": 71.57135700000009,
          "velocity": 1,
          "duration": 0.2857140000000129
        },
        {
          "name": "E3",
          "midi": 52,
          "time": 71.7142140000001,
          "velocity": 1,
          "duration": 0.2857140000000129
        },
        {
          "name": "E2",
          "midi": 40,
          "time": 71.8570710000001,
          "velocity": 1,
          "duration": 0.14285700000000645
        },
        {
          "name": "E3",
          "midi": 52,
          "time": 71.99992800000011,
          "velocity": 1,
          "duration": 0.2857139999999987
        },
        {
          "name": "E2",
          "midi": 40,
          "time": 71.99992800000011,
          "velocity": 1,
          "duration": 0.42857100000000514
        },
        {
          "name": "E3",
          "midi": 52,
          "time": 72.28564200000011,
          "velocity": 1,
          "duration": 0.2857140000000129
        },
        {
          "name": "E2",
          "midi": 40,
          "time": 72.42849900000012,
          "velocity": 1,
          "duration": 0.2857140000000129
        },
        {
          "name": "E3",
          "midi": 52,
          "time": 72.57135600000012,
          "velocity": 1,
          "duration": 0.2857140000000129
        },
        {
          "name": "E2",
          "midi": 40,
          "time": 72.71421300000013,
          "velocity": 1,
          "duration": 0.14285700000000645
        },
        {
          "name": "E3",
          "midi": 52,
          "time": 72.85707000000014,
          "velocity": 1,
          "duration": 0.2857139999999987
        },
        {
          "name": "C#2",
          "midi": 37,
          "time": 72.85707000000014,
          "velocity": 1,
          "duration": 0.5714279999999974
        },
        {
          "name": "E3",
          "midi": 52,
          "time": 73.14278400000013,
          "velocity": 1,
          "duration": 0.2857139999999987
        },
        {
          "name": "E3",
          "midi": 52,
          "time": 73.42849800000013,
          "velocity": 1,
          "duration": 0.2857139999999987
        },
        {
          "name": "D2",
          "midi": 38,
          "time": 73.42849800000013,
          "velocity": 1,
          "duration": 0.2857139999999987
        },
        {
          "name": "E3",
          "midi": 52,
          "time": 73.71421200000013,
          "velocity": 1,
          "duration": 0.2857139999999987
        },
        {
          "name": "E2",
          "midi": 40,
          "time": 73.71421200000013,
          "velocity": 1,
          "duration": 0.42857100000000514
        },
        {
          "name": "E3",
          "midi": 52,
          "time": 73.99992600000013,
          "velocity": 1,
          "duration": 0.2857140000000129
        },
        {
          "name": "E2",
          "midi": 40,
          "time": 74.14278300000014,
          "velocity": 1,
          "duration": 0.2857140000000129
        },
        {
          "name": "E3",
          "midi": 52,
          "time": 74.28564000000014,
          "velocity": 1,
          "duration": 0.2857140000000129
        },
        {
          "name": "E2",
          "midi": 40,
          "time": 74.42849700000015,
          "velocity": 1,
          "duration": 0.14285700000000645
        },
        {
          "name": "E3",
          "midi": 52,
          "time": 74.57135400000016,
          "velocity": 1,
          "duration": 0.2857139999999987
        },
        {
          "name": "E2",
          "midi": 40,
          "time": 74.57135400000016,
          "velocity": 1,
          "duration": 0.42857100000000514
        },
        {
          "name": "E3",
          "midi": 52,
          "time": 74.85706800000015,
          "velocity": 1,
          "duration": 0.2857140000000129
        },
        {
          "name": "E2",
          "midi": 40,
          "time": 74.99992500000016,
          "velocity": 1,
          "duration": 0.2857140000000129
        },
        {
          "name": "E3",
          "midi": 52,
          "time": 75.14278200000017,
          "velocity": 1,
          "duration": 0.2857140000000129
        },
        {
          "name": "E2",
          "midi": 40,
          "time": 75.28563900000017,
          "velocity": 1,
          "duration": 0.14285700000000645
        },
        {
          "name": "E3",
          "midi": 52,
          "time": 75.42849600000018,
          "velocity": 1,
          "duration": 0.2857139999999987
        },
        {
          "name": "E2",
          "midi": 40,
          "time": 75.42849600000018,
          "velocity": 1,
          "duration": 0.42857100000000514
        },
        {
          "name": "E3",
          "midi": 52,
          "time": 75.71421000000018,
          "velocity": 1,
          "duration": 0.2857140000000129
        },
        {
          "name": "E2",
          "midi": 40,
          "time": 75.85706700000019,
          "velocity": 1,
          "duration": 0.2857140000000129
        },
        {
          "name": "E3",
          "midi": 52,
          "time": 75.99992400000019,
          "velocity": 1,
          "duration": 0.2857140000000129
        },
        {
          "name": "E2",
          "midi": 40,
          "time": 76.1427810000002,
          "velocity": 1,
          "duration": 0.14285700000000645
        },
        {
          "name": "E3",
          "midi": 52,
          "time": 76.2856380000002,
          "velocity": 1,
          "duration": 0.2857139999999987
        },
        {
          "name": "E2",
          "midi": 40,
          "time": 76.2856380000002,
          "velocity": 1,
          "duration": 0.5714279999999974
        },
        {
          "name": "E3",
          "midi": 52,
          "time": 76.5713520000002,
          "velocity": 1,
          "duration": 0.2857139999999987
        },
        {
          "name": "E3",
          "midi": 52,
          "time": 76.8570660000002,
          "velocity": 1,
          "duration": 0.2857139999999987
        },
        {
          "name": "C#2",
          "midi": 37,
          "time": 76.8570660000002,
          "velocity": 1,
          "duration": 0.2857139999999987
        },
        {
          "name": "A3",
          "midi": 57,
          "time": 77.1427800000002,
          "velocity": 1,
          "duration": 0.2857139999999987
        },
        {
          "name": "A2",
          "midi": 45,
          "time": 77.1427800000002,
          "velocity": 1,
          "duration": 0.42857100000000514
        },
        {
          "name": "A3",
          "midi": 57,
          "time": 77.4284940000002,
          "velocity": 1,
          "duration": 0.2857140000000129
        },
        {
          "name": "A2",
          "midi": 45,
          "time": 77.5713510000002,
          "velocity": 1,
          "duration": 0.2857140000000129
        },
        {
          "name": "A3",
          "midi": 57,
          "time": 77.71420800000021,
          "velocity": 1,
          "duration": 0.2857140000000129
        },
        {
          "name": "A2",
          "midi": 45,
          "time": 77.85706500000022,
          "velocity": 1,
          "duration": 0.14285700000000645
        },
        {
          "name": "A3",
          "midi": 57,
          "time": 77.99992200000023,
          "velocity": 1,
          "duration": 0.2857139999999987
        },
        {
          "name": "A2",
          "midi": 45,
          "time": 77.99992200000023,
          "velocity": 1,
          "duration": 0.42857100000000514
        },
        {
          "name": "A3",
          "midi": 57,
          "time": 78.28563600000022,
          "velocity": 1,
          "duration": 0.2857140000000129
        },
        {
          "name": "A2",
          "midi": 45,
          "time": 78.42849300000023,
          "velocity": 1,
          "duration": 0.2857140000000129
        },
        {
          "name": "A3",
          "midi": 57,
          "time": 78.57135000000024,
          "velocity": 1,
          "duration": 0.2857140000000129
        },
        {
          "name": "A2",
          "midi": 45,
          "time": 78.71420700000024,
          "velocity": 1,
          "duration": 0.14285700000000645
        },
        {
          "name": "A3",
          "midi": 57,
          "time": 78.85706400000025,
          "velocity": 1,
          "duration": 0.2857139999999987
        },
        {
          "name": "A2",
          "midi": 45,
          "time": 78.85706400000025,
          "velocity": 1,
          "duration": 0.42857100000000514
        },
        {
          "name": "A3",
          "midi": 57,
          "time": 79.14277800000025,
          "velocity": 1,
          "duration": 0.2857140000000129
        },
        {
          "name": "A2",
          "midi": 45,
          "time": 79.28563500000025,
          "velocity": 1,
          "duration": 0.2857140000000129
        },
        {
          "name": "A3",
          "midi": 57,
          "time": 79.42849200000026,
          "velocity": 1,
          "duration": 0.2857140000000129
        },
        {
          "name": "A2",
          "midi": 45,
          "time": 79.57134900000027,
          "velocity": 1,
          "duration": 0.14285700000000645
        },
        {
          "name": "A3",
          "midi": 57,
          "time": 79.71420600000027,
          "velocity": 1,
          "duration": 0.2857139999999987
        },
        {
          "name": "F#2",
          "midi": 42,
          "time": 79.71420600000027,
          "velocity": 1,
          "duration": 0.42857100000000514
        },
        {
          "name": "A3",
          "midi": 57,
          "time": 79.99992000000027,
          "velocity": 1,
          "duration": 0.14285700000000645
        },
        {
          "name": "A3",
          "midi": 57,
          "time": 80.14277700000028,
          "velocity": 1,
          "duration": 0.2857139999999987
        },
        {
          "name": "G2",
          "midi": 43,
          "time": 80.14277700000028,
          "velocity": 1,
          "duration": 0.42857100000000514
        },
        {
          "name": "A3",
          "midi": 57,
          "time": 80.42849100000028,
          "velocity": 1,
          "duration": 0.14285700000000645
        },
        {
          "name": "A3",
          "midi": 57,
          "time": 80.57134800000028,
          "velocity": 1,
          "duration": 0.2857139999999987
        },
        {
          "name": "A2",
          "midi": 45,
          "time": 80.57134800000028,
          "velocity": 1,
          "duration": 0.42857100000000514
        },
        {
          "name": "A3",
          "midi": 57,
          "time": 80.85706200000028,
          "velocity": 1,
          "duration": 0.2857140000000129
        },
        {
          "name": "A2",
          "midi": 45,
          "time": 80.99991900000029,
          "velocity": 1,
          "duration": 0.2857140000000129
        },
        {
          "name": "A3",
          "midi": 57,
          "time": 81.1427760000003,
          "velocity": 1,
          "duration": 0.2857140000000129
        },
        {
          "name": "A2",
          "midi": 45,
          "time": 81.2856330000003,
          "velocity": 1,
          "duration": 0.14285700000000645
        },
        {
          "name": "A3",
          "midi": 57,
          "time": 81.42849000000031,
          "velocity": 1,
          "duration": 0.2857139999999987
        },
        {
          "name": "A2",
          "midi": 45,
          "time": 81.42849000000031,
          "velocity": 1,
          "duration": 0.42857100000000514
        },
        {
          "name": "A3",
          "midi": 57,
          "time": 81.71420400000031,
          "velocity": 1,
          "duration": 0.2857140000000129
        },
        {
          "name": "A2",
          "midi": 45,
          "time": 81.85706100000031,
          "velocity": 1,
          "duration": 0.2857140000000129
        },
        {
          "name": "A3",
          "midi": 57,
          "time": 81.99991800000032,
          "velocity": 1,
          "duration": 0.2857140000000129
        },
        {
          "name": "A2",
          "midi": 45,
          "time": 82.14277500000033,
          "velocity": 1,
          "duration": 0.14285700000000645
        },
        {
          "name": "A3",
          "midi": 57,
          "time": 82.28563200000033,
          "velocity": 1,
          "duration": 0.2857139999999987
        },
        {
          "name": "A2",
          "midi": 45,
          "time": 82.28563200000033,
          "velocity": 1,
          "duration": 0.42857100000000514
        },
        {
          "name": "A3",
          "midi": 57,
          "time": 82.57134600000033,
          "velocity": 1,
          "duration": 0.2857140000000129
        },
        {
          "name": "A2",
          "midi": 45,
          "time": 82.71420300000034,
          "velocity": 1,
          "duration": 0.2857140000000129
        },
        {
          "name": "A3",
          "midi": 57,
          "time": 82.85706000000035,
          "velocity": 1,
          "duration": 0.2857140000000129
        },
        {
          "name": "A2",
          "midi": 45,
          "time": 82.99991700000035,
          "velocity": 1,
          "duration": 0.14285700000000645
        },
        {
          "name": "A3",
          "midi": 57,
          "time": 83.14277400000036,
          "velocity": 1,
          "duration": 0.2857139999999987
        },
        {
          "name": "F#2",
          "midi": 42,
          "time": 83.14277400000036,
          "velocity": 1,
          "duration": 0.42857100000000514
        },
        {
          "name": "A3",
          "midi": 57,
          "time": 83.42848800000036,
          "velocity": 1,
          "duration": 0.14285700000000645
        },
        {
          "name": "A3",
          "midi": 57,
          "time": 83.57134500000036,
          "velocity": 1,
          "duration": 0.2857139999999987
        },
        {
          "name": "G2",
          "midi": 43,
          "time": 83.57134500000036,
          "velocity": 1,
          "duration": 0.42857100000000514
        },
        {
          "name": "A3",
          "midi": 57,
          "time": 83.85705900000036,
          "velocity": 1,
          "duration": 0.14285700000000645
        },
        {
          "name": "A3",
          "midi": 57,
          "time": 83.99991600000037,
          "velocity": 1,
          "duration": 0.2857139999999987
        },
        {
          "name": "A2",
          "midi": 45,
          "time": 83.99991600000037,
          "velocity": 1,
          "duration": 0.42857100000000514
        },
        {
          "name": "A3",
          "midi": 57,
          "time": 84.28563000000037,
          "velocity": 1,
          "duration": 0.2857140000000129
        },
        {
          "name": "A2",
          "midi": 45,
          "time": 84.42848700000037,
          "velocity": 1,
          "duration": 0.2857140000000129
        },
        {
          "name": "A3",
          "midi": 57,
          "time": 84.57134400000038,
          "velocity": 1,
          "duration": 0.2857140000000129
        },
        {
          "name": "A2",
          "midi": 45,
          "time": 84.71420100000039,
          "velocity": 1,
          "duration": 0.14285700000000645
        },
        {
          "name": "A3",
          "midi": 57,
          "time": 84.85705800000039,
          "velocity": 1,
          "duration": 0.2857139999999987
        },
        {
          "name": "A2",
          "midi": 45,
          "time": 84.85705800000039,
          "velocity": 1,
          "duration": 0.42857100000000514
        },
        {
          "name": "A3",
          "midi": 57,
          "time": 85.14277200000039,
          "velocity": 1,
          "duration": 0.2857140000000129
        },
        {
          "name": "A2",
          "midi": 45,
          "time": 85.2856290000004,
          "velocity": 1,
          "duration": 0.2857140000000129
        },
        {
          "name": "A3",
          "midi": 57,
          "time": 85.4284860000004,
          "velocity": 1,
          "duration": 0.2857140000000129
        },
        {
          "name": "A2",
          "midi": 45,
          "time": 85.57134300000041,
          "velocity": 1,
          "duration": 0.14285700000000645
        },
        {
          "name": "A3",
          "midi": 57,
          "time": 85.71420000000042,
          "velocity": 1,
          "duration": 0.2857139999999987
        },
        {
          "name": "A2",
          "midi": 45,
          "time": 85.71420000000042,
          "velocity": 1,
          "duration": 0.42857100000000514
        },
        {
          "name": "A3",
          "midi": 57,
          "time": 85.99991400000042,
          "velocity": 1,
          "duration": 0.2857140000000129
        },
        {
          "name": "A2",
          "midi": 45,
          "time": 86.14277100000042,
          "velocity": 1,
          "duration": 0.2857140000000129
        },
        {
          "name": "A3",
          "midi": 57,
          "time": 86.28562800000043,
          "velocity": 1,
          "duration": 0.2857140000000129
        },
        {
          "name": "A2",
          "midi": 45,
          "time": 86.42848500000044,
          "velocity": 1,
          "duration": 0.14285700000000645
        },
        {
          "name": "A3",
          "midi": 57,
          "time": 86.57134200000044,
          "velocity": 1,
          "duration": 0.2857139999999987
        },
        {
          "name": "F#2",
          "midi": 42,
          "time": 86.57134200000044,
          "velocity": 1,
          "duration": 0.42857100000000514
        },
        {
          "name": "A3",
          "midi": 57,
          "time": 86.85705600000044,
          "velocity": 1,
          "duration": 0.14285700000000645
        },
        {
          "name": "A3",
          "midi": 57,
          "time": 86.99991300000045,
          "velocity": 1,
          "duration": 0.2857139999999987
        },
        {
          "name": "G2",
          "midi": 43,
          "time": 86.99991300000045,
          "velocity": 1,
          "duration": 0.42857100000000514
        },
        {
          "name": "A3",
          "midi": 57,
          "time": 87.28562700000045,
          "velocity": 1,
          "duration": 0.14285700000000645
        },
        {
          "name": "A3",
          "midi": 57,
          "time": 87.42848400000045,
          "velocity": 1,
          "duration": 0.2857139999999987
        },
        {
          "name": "A2",
          "midi": 45,
          "time": 87.42848400000045,
          "velocity": 1,
          "duration": 0.42857100000000514
        },
        {
          "name": "A3",
          "midi": 57,
          "time": 87.71419800000045,
          "velocity": 1,
          "duration": 0.2857140000000129
        },
        {
          "name": "A2",
          "midi": 45,
          "time": 87.85705500000046,
          "velocity": 1,
          "duration": 0.2857140000000129
        },
        {
          "name": "A3",
          "midi": 57,
          "time": 87.99991200000046,
          "velocity": 1,
          "duration": 0.2857140000000129
        },
        {
          "name": "A2",
          "midi": 45,
          "time": 88.14276900000047,
          "velocity": 1,
          "duration": 0.14285700000000645
        },
        {
          "name": "A3",
          "midi": 57,
          "time": 88.28562600000048,
          "velocity": 1,
          "duration": 0.2857139999999987
        },
        {
          "name": "A2",
          "midi": 45,
          "time": 88.28562600000048,
          "velocity": 1,
          "duration": 0.42857100000000514
        },
        {
          "name": "A3",
          "midi": 57,
          "time": 88.57134000000048,
          "velocity": 1,
          "duration": 0.2857140000000129
        },
        {
          "name": "A2",
          "midi": 45,
          "time": 88.71419700000048,
          "velocity": 1,
          "duration": 0.2857140000000129
        },
        {
          "name": "A3",
          "midi": 57,
          "time": 88.85705400000049,
          "velocity": 1,
          "duration": 0.2857140000000129
        },
        {
          "name": "A2",
          "midi": 45,
          "time": 88.9999110000005,
          "velocity": 1,
          "duration": 0.14285700000000645
        },
        {
          "name": "A3",
          "midi": 57,
          "time": 89.1427680000005,
          "velocity": 1,
          "duration": 0.2857139999999987
        },
        {
          "name": "A2",
          "midi": 45,
          "time": 89.1427680000005,
          "velocity": 1,
          "duration": 0.42857100000000514
        },
        {
          "name": "A3",
          "midi": 57,
          "time": 89.4284820000005,
          "velocity": 1,
          "duration": 0.2857140000000129
        },
        {
          "name": "A2",
          "midi": 45,
          "time": 89.5713390000005,
          "velocity": 1,
          "duration": 0.2857140000000129
        },
        {
          "name": "A3",
          "midi": 57,
          "time": 89.71419600000051,
          "velocity": 1,
          "duration": 0.2857140000000129
        },
        {
          "name": "A2",
          "midi": 45,
          "time": 89.85705300000052,
          "velocity": 1,
          "duration": 0.14285700000000645
        },
        {
          "name": "A3",
          "midi": 57,
          "time": 89.99991000000053,
          "velocity": 1,
          "duration": 0.2857139999999987
        },
        {
          "name": "A2",
          "midi": 45,
          "time": 89.99991000000053,
          "velocity": 1,
          "duration": 0.42857100000000514
        },
        {
          "name": "A3",
          "midi": 57,
          "time": 90.28562400000052,
          "velocity": 1,
          "duration": 0.14285700000000645
        },
        {
          "name": "A3",
          "midi": 57,
          "time": 90.42848100000053,
          "velocity": 1,
          "duration": 0.2857139999999987
        },
        {
          "name": "A#2",
          "midi": 46,
          "time": 90.42848100000053,
          "velocity": 1,
          "duration": 0.42857100000000514
        },
        {
          "name": "A3",
          "midi": 57,
          "time": 90.71419500000053,
          "velocity": 1,
          "duration": 0.14285700000000645
        },
        {
          "name": "C4",
          "midi": 60,
          "time": 90.85705200000054,
          "velocity": 1,
          "duration": 0.2857139999999987
        },
        {
          "name": "C3",
          "midi": 48,
          "time": 90.85705200000054,
          "velocity": 1,
          "duration": 0.42857100000000514
        },
        {
          "name": "C4",
          "midi": 60,
          "time": 91.14276600000053,
          "velocity": 1,
          "duration": 0.2857140000000129
        },
        {
          "name": "C3",
          "midi": 48,
          "time": 91.28562300000054,
          "velocity": 1,
          "duration": 0.2857140000000129
        },
        {
          "name": "C4",
          "midi": 60,
          "time": 91.42848000000055,
          "velocity": 1,
          "duration": 0.2857140000000129
        },
        {
          "name": "C3",
          "midi": 48,
          "time": 91.57133700000055,
          "velocity": 1,
          "duration": 0.14285700000000645
        },
        {
          "name": "C4",
          "midi": 60,
          "time": 91.71419400000056,
          "velocity": 1,
          "duration": 0.2857139999999987
        },
        {
          "name": "C3",
          "midi": 48,
          "time": 91.71419400000056,
          "velocity": 1,
          "duration": 0.42857100000000514
        },
        {
          "name": "C4",
          "midi": 60,
          "time": 91.99990800000056,
          "velocity": 1,
          "duration": 0.2857140000000129
        },
        {
          "name": "C3",
          "midi": 48,
          "time": 92.14276500000057,
          "velocity": 1,
          "duration": 0.2857140000000129
        },
        {
          "name": "C4",
          "midi": 60,
          "time": 92.28562200000057,
          "velocity": 1,
          "duration": 0.2857140000000129
        },
        {
          "name": "C3",
          "midi": 48,
          "time": 92.42847900000058,
          "velocity": 1,
          "duration": 0.14285700000000645
        },
        {
          "name": "C4",
          "midi": 60,
          "time": 92.57133600000058,
          "velocity": 1,
          "duration": 0.2857139999999987
        },
        {
          "name": "C3",
          "midi": 48,
          "time": 92.57133600000058,
          "velocity": 1,
          "duration": 0.42857100000000514
        },
        {
          "name": "C4",
          "midi": 60,
          "time": 92.85705000000058,
          "velocity": 1,
          "duration": 0.2857140000000129
        },
        {
          "name": "C3",
          "midi": 48,
          "time": 92.99990700000059,
          "velocity": 1,
          "duration": 0.2857140000000129
        },
        {
          "name": "C4",
          "midi": 60,
          "time": 93.1427640000006,
          "velocity": 1,
          "duration": 0.2857140000000129
        },
        {
          "name": "C3",
          "midi": 48,
          "time": 93.2856210000006,
          "velocity": 1,
          "duration": 0.14285700000000645
        },
        {
          "name": "C4",
          "midi": 60,
          "time": 93.42847800000061,
          "velocity": 1,
          "duration": 0.2857139999999987
        },
        {
          "name": "A2",
          "midi": 45,
          "time": 93.42847800000061,
          "velocity": 1,
          "duration": 0.42857100000000514
        },
        {
          "name": "C4",
          "midi": 60,
          "time": 93.71419200000061,
          "velocity": 1,
          "duration": 0.14285700000000645
        },
        {
          "name": "C4",
          "midi": 60,
          "time": 93.85704900000061,
          "velocity": 1,
          "duration": 0.2857139999999987
        },
        {
          "name": "A#2",
          "midi": 46,
          "time": 93.85704900000061,
          "velocity": 1,
          "duration": 0.42857100000000514
        },
        {
          "name": "C4",
          "midi": 60,
          "time": 94.14276300000061,
          "velocity": 1,
          "duration": 0.14285700000000645
        },
        {
          "name": "C4",
          "midi": 60,
          "time": 94.28562000000062,
          "velocity": 1,
          "duration": 0.2857139999999987
        },
        {
          "name": "C3",
          "midi": 48,
          "time": 94.28562000000062,
          "velocity": 1,
          "duration": 0.42857100000000514
        },
        {
          "name": "C4",
          "midi": 60,
          "time": 94.57133400000062,
          "velocity": 1,
          "duration": 0.2857140000000129
        },
        {
          "name": "C3",
          "midi": 48,
          "time": 94.71419100000062,
          "velocity": 1,
          "duration": 0.2857140000000129
        },
        {
          "name": "C4",
          "midi": 60,
          "time": 94.85704800000063,
          "velocity": 1,
          "duration": 0.2857140000000129
        },
        {
          "name": "C3",
          "midi": 48,
          "time": 94.99990500000064,
          "velocity": 1,
          "duration": 0.14285700000000645
        },
        {
          "name": "C4",
          "midi": 60,
          "time": 95.14276200000064,
          "velocity": 1,
          "duration": 0.2857139999999987
        },
        {
          "name": "C3",
          "midi": 48,
          "time": 95.14276200000064,
          "velocity": 1,
          "duration": 0.42857100000000514
        },
        {
          "name": "C4",
          "midi": 60,
          "time": 95.42847600000064,
          "velocity": 1,
          "duration": 0.2857140000000129
        },
        {
          "name": "C3",
          "midi": 48,
          "time": 95.57133300000065,
          "velocity": 1,
          "duration": 0.2857140000000129
        },
        {
          "name": "C4",
          "midi": 60,
          "time": 95.71419000000066,
          "velocity": 1,
          "duration": 0.2857140000000129
        },
        {
          "name": "C3",
          "midi": 48,
          "time": 95.85704700000066,
          "velocity": 1,
          "duration": 0.14285700000000645
        },
        {
          "name": "C4",
          "midi": 60,
          "time": 95.99990400000067,
          "velocity": 1,
          "duration": 0.2857139999999987
        },
        {
          "name": "C3",
          "midi": 48,
          "time": 95.99990400000067,
          "velocity": 1,
          "duration": 0.42857100000000514
        },
        {
          "name": "C4",
          "midi": 60,
          "time": 96.28561800000067,
          "velocity": 1,
          "duration": 0.2857140000000129
        },
        {
          "name": "C3",
          "midi": 48,
          "time": 96.42847500000067,
          "velocity": 1,
          "duration": 0.2857140000000129
        },
        {
          "name": "C4",
          "midi": 60,
          "time": 96.57133200000068,
          "velocity": 1,
          "duration": 0.2857140000000129
        },
        {
          "name": "C3",
          "midi": 48,
          "time": 96.71418900000069,
          "velocity": 1,
          "duration": 0.14285700000000645
        },
        {
          "name": "C4",
          "midi": 60,
          "time": 96.8570460000007,
          "velocity": 1,
          "duration": 0.2857139999999987
        },
        {
          "name": "A2",
          "midi": 45,
          "time": 96.8570460000007,
          "velocity": 1,
          "duration": 0.42857100000000514
        },
        {
          "name": "C4",
          "midi": 60,
          "time": 97.14276000000069,
          "velocity": 1,
          "duration": 0.14285700000000645
        },
        {
          "name": "C4",
          "midi": 60,
          "time": 97.2856170000007,
          "velocity": 1,
          "duration": 0.2857139999999987
        },
        {
          "name": "A#2",
          "midi": 46,
          "time": 97.2856170000007,
          "velocity": 1,
          "duration": 0.42857100000000514
        },
        {
          "name": "C4",
          "midi": 60,
          "time": 97.5713310000007,
          "velocity": 1,
          "duration": 0.14285700000000645
        },
        {
          "name": "G3",
          "midi": 55,
          "time": 97.7141880000007,
          "velocity": 1,
          "duration": 0.2857139999999987
        },
        {
          "name": "G2",
          "midi": 43,
          "time": 97.7141880000007,
          "velocity": 1,
          "duration": 0.42857100000000514
        },
        {
          "name": "G3",
          "midi": 55,
          "time": 97.9999020000007,
          "velocity": 1,
          "duration": 0.2857140000000129
        },
        {
          "name": "G2",
          "midi": 43,
          "time": 98.14275900000071,
          "velocity": 1,
          "duration": 0.2857140000000129
        },
        {
          "name": "G3",
          "midi": 55,
          "time": 98.28561600000072,
          "velocity": 1,
          "duration": 0.2857140000000129
        },
        {
          "name": "G2",
          "midi": 43,
          "time": 98.42847300000072,
          "velocity": 1,
          "duration": 0.14285700000000645
        },
        {
          "name": "G3",
          "midi": 55,
          "time": 98.57133000000073,
          "velocity": 1,
          "duration": 0.2857139999999987
        },
        {
          "name": "G2",
          "midi": 43,
          "time": 98.57133000000073,
          "velocity": 1,
          "duration": 0.42857100000000514
        },
        {
          "name": "G3",
          "midi": 55,
          "time": 98.85704400000073,
          "velocity": 1,
          "duration": 0.2857140000000129
        },
        {
          "name": "G2",
          "midi": 43,
          "time": 98.99990100000073,
          "velocity": 1,
          "duration": 0.2857140000000129
        },
        {
          "name": "G3",
          "midi": 55,
          "time": 99.14275800000074,
          "velocity": 1,
          "duration": 0.2857140000000129
        },
        {
          "name": "G2",
          "midi": 43,
          "time": 99.28561500000075,
          "velocity": 1,
          "duration": 0.14285700000000645
        },
        {
          "name": "G3",
          "midi": 55,
          "time": 99.42847200000075,
          "velocity": 1,
          "duration": 0.2857139999999987
        },
        {
          "name": "G2",
          "midi": 43,
          "time": 99.42847200000075,
          "velocity": 1,
          "duration": 0.42857100000000514
        },
        {
          "name": "G3",
          "midi": 55,
          "time": 99.71418600000075,
          "velocity": 1,
          "duration": 0.2857140000000129
        },
        {
          "name": "G2",
          "midi": 43,
          "time": 99.85704300000076,
          "velocity": 1,
          "duration": 0.2857140000000129
        },
        {
          "name": "G3",
          "midi": 55,
          "time": 99.99990000000076,
          "velocity": 1,
          "duration": 0.2857140000000129
        },
        {
          "name": "G2",
          "midi": 43,
          "time": 100.14275700000077,
          "velocity": 1,
          "duration": 0.14285700000000645
        },
        {
          "name": "G3",
          "midi": 55,
          "time": 100.28561400000078,
          "velocity": 1,
          "duration": 0.2857139999999987
        },
        {
          "name": "E2",
          "midi": 40,
          "time": 100.28561400000078,
          "velocity": 1,
          "duration": 0.42857100000000514
        },
        {
          "name": "G3",
          "midi": 55,
          "time": 100.57132800000078,
          "velocity": 1,
          "duration": 0.14285700000000645
        },
        {
          "name": "G3",
          "midi": 55,
          "time": 100.71418500000078,
          "velocity": 1,
          "duration": 0.2857139999999987
        },
        {
          "name": "F2",
          "midi": 41,
          "time": 100.71418500000078,
          "velocity": 1,
          "duration": 0.42857100000000514
        },
        {
          "name": "G3",
          "midi": 55,
          "time": 100.99989900000078,
          "velocity": 1,
          "duration": 0.14285700000000645
        },
        {
          "name": "G3",
          "midi": 55,
          "time": 101.14275600000079,
          "velocity": 1,
          "duration": 0.2857139999999987
        },
        {
          "name": "G2",
          "midi": 43,
          "time": 101.14275600000079,
          "velocity": 1,
          "duration": 0.42857100000000514
        },
        {
          "name": "G3",
          "midi": 55,
          "time": 101.42847000000079,
          "velocity": 1,
          "duration": 0.2857140000000129
        },
        {
          "name": "G2",
          "midi": 43,
          "time": 101.57132700000079,
          "velocity": 1,
          "duration": 0.2857140000000129
        },
        {
          "name": "G3",
          "midi": 55,
          "time": 101.7141840000008,
          "velocity": 1,
          "duration": 0.2857140000000129
        },
        {
          "name": "G2",
          "midi": 43,
          "time": 101.8570410000008,
          "velocity": 1,
          "duration": 0.14285700000000645
        },
        {
          "name": "G3",
          "midi": 55,
          "time": 101.99989800000081,
          "velocity": 1,
          "duration": 0.2857139999999987
        },
        {
          "name": "G2",
          "midi": 43,
          "time": 101.99989800000081,
          "velocity": 1,
          "duration": 0.42857100000000514
        },
        {
          "name": "G3",
          "midi": 55,
          "time": 102.28561200000081,
          "velocity": 1,
          "duration": 0.2857140000000129
        },
        {
          "name": "G2",
          "midi": 43,
          "time": 102.42846900000082,
          "velocity": 1,
          "duration": 0.2857140000000129
        },
        {
          "name": "G3",
          "midi": 55,
          "time": 102.57132600000082,
          "velocity": 1,
          "duration": 0.2857140000000129
        },
        {
          "name": "G2",
          "midi": 43,
          "time": 102.71418300000083,
          "velocity": 1,
          "duration": 0.14285700000000645
        },
        {
          "name": "G3",
          "midi": 55,
          "time": 102.85704000000084,
          "velocity": 1,
          "duration": 0.2857139999999987
        },
        {
          "name": "G2",
          "midi": 43,
          "time": 102.85704000000084,
          "velocity": 1,
          "duration": 0.42857100000000514
        },
        {
          "name": "G3",
          "midi": 55,
          "time": 103.14275400000083,
          "velocity": 1,
          "duration": 0.2857140000000129
        },
        {
          "name": "G2",
          "midi": 43,
          "time": 103.28561100000084,
          "velocity": 1,
          "duration": 0.2857140000000129
        },
        {
          "name": "G3",
          "midi": 55,
          "time": 103.42846800000085,
          "velocity": 1,
          "duration": 0.2857140000000129
        },
        {
          "name": "G2",
          "midi": 43,
          "time": 103.57132500000085,
          "velocity": 1,
          "duration": 0.14285700000000645
        },
        {
          "name": "G3",
          "midi": 55,
          "time": 103.71418200000086,
          "velocity": 1,
          "duration": 0.2857139999999987
        },
        {
          "name": "G2",
          "midi": 43,
          "time": 103.71418200000086,
          "velocity": 1,
          "duration": 0.42857100000000514
        },
        {
          "name": "G3",
          "midi": 55,
          "time": 103.99989600000086,
          "velocity": 1,
          "duration": 0.14285700000000645
        },
        {
          "name": "G3",
          "midi": 55,
          "time": 104.14275300000087,
          "velocity": 1,
          "duration": 0.2857139999999987
        },
        {
          "name": "G2",
          "midi": 43,
          "time": 104.14275300000087,
          "velocity": 1,
          "duration": 0.42857100000000514
        },
        {
          "name": "G3",
          "midi": 55,
          "time": 104.42846700000086,
          "velocity": 1,
          "duration": 0.14285700000000645
        },
        {
          "name": "A3",
          "midi": 57,
          "time": 104.57132400000087,
          "velocity": 1,
          "duration": 0.2857139999999987
        },
        {
          "name": "A2",
          "midi": 45,
          "time": 104.57132400000087,
          "velocity": 1,
          "duration": 0.42857100000000514
        },
        {
          "name": "A3",
          "midi": 57,
          "time": 104.85703800000087,
          "velocity": 1,
          "duration": 0.2857140000000129
        },
        {
          "name": "A2",
          "midi": 45,
          "time": 104.99989500000088,
          "velocity": 1,
          "duration": 0.2857140000000129
        },
        {
          "name": "A3",
          "midi": 57,
          "time": 105.14275200000088,
          "velocity": 1,
          "duration": 0.2857140000000129
        },
        {
          "name": "A2",
          "midi": 45,
          "time": 105.28560900000089,
          "velocity": 1,
          "duration": 0.14285700000000645
        },
        {
          "name": "A3",
          "midi": 57,
          "time": 105.4284660000009,
          "velocity": 1,
          "duration": 0.2857139999999987
        },
        {
          "name": "A2",
          "midi": 45,
          "time": 105.4284660000009,
          "velocity": 1,
          "duration": 0.42857100000000514
        },
        {
          "name": "A3",
          "midi": 57,
          "time": 105.7141800000009,
          "velocity": 1,
          "duration": 0.2857140000000129
        },
        {
          "name": "A2",
          "midi": 45,
          "time": 105.8570370000009,
          "velocity": 1,
          "duration": 0.2857140000000129
        },
        {
          "name": "A3",
          "midi": 57,
          "time": 105.99989400000091,
          "velocity": 1,
          "duration": 0.2857140000000129
        },
        {
          "name": "A2",
          "midi": 45,
          "time": 106.14275100000091,
          "velocity": 1,
          "duration": 0.14285700000000645
        },
        {
          "name": "A3",
          "midi": 57,
          "time": 106.28560800000092,
          "velocity": 1,
          "duration": 0.2857139999999987
        },
        {
          "name": "A2",
          "midi": 45,
          "time": 106.28560800000092,
          "velocity": 1,
          "duration": 0.42857100000000514
        },
        {
          "name": "A3",
          "midi": 57,
          "time": 106.57132200000092,
          "velocity": 1,
          "duration": 0.2857140000000129
        },
        {
          "name": "A2",
          "midi": 45,
          "time": 106.71417900000093,
          "velocity": 1,
          "duration": 0.2857140000000129
        },
        {
          "name": "A3",
          "midi": 57,
          "time": 106.85703600000093,
          "velocity": 1,
          "duration": 0.2857140000000129
        },
        {
          "name": "A2",
          "midi": 45,
          "time": 106.99989300000094,
          "velocity": 1,
          "duration": 0.14285700000000645
        },
        {
          "name": "A3",
          "midi": 57,
          "time": 107.14275000000094,
          "velocity": 1,
          "duration": 0.2857139999999987
        },
        {
          "name": "A2",
          "midi": 45,
          "time": 107.14275000000094,
          "velocity": 1,
          "duration": 0.5714279999999974
        },
        {
          "name": "A3",
          "midi": 57,
          "time": 107.42846400000094,
          "velocity": 1,
          "duration": 0.2857139999999987
        },
        {
          "name": "A3",
          "midi": 57,
          "time": 107.71417800000094,
          "velocity": 1,
          "duration": 0.2857139999999987
        },
        {
          "name": "F#2",
          "midi": 42,
          "time": 107.71417800000094,
          "velocity": 1,
          "duration": 0.2857139999999987
        },
        {
          "name": "A3",
          "midi": 57,
          "time": 107.99989200000094,
          "velocity": 1,
          "duration": 0.2857139999999987
        },
        {
          "name": "A2",
          "midi": 45,
          "time": 107.99989200000094,
          "velocity": 1,
          "duration": 0.42857100000000514
        },
        {
          "name": "A3",
          "midi": 57,
          "time": 108.28560600000094,
          "velocity": 1,
          "duration": 0.2857140000000129
        },
        {
          "name": "A2",
          "midi": 45,
          "time": 108.42846300000095,
          "velocity": 1,
          "duration": 0.2857140000000129
        },
        {
          "name": "A3",
          "midi": 57,
          "time": 108.57132000000095,
          "velocity": 1,
          "duration": 0.2857140000000129
        },
        {
          "name": "A2",
          "midi": 45,
          "time": 108.71417700000096,
          "velocity": 1,
          "duration": 0.14285700000000645
        },
        {
          "name": "A3",
          "midi": 57,
          "time": 108.85703400000097,
          "velocity": 1,
          "duration": 0.2857139999999987
        },
        {
          "name": "A2",
          "midi": 45,
          "time": 108.85703400000097,
          "velocity": 1,
          "duration": 0.42857100000000514
        },
        {
          "name": "A3",
          "midi": 57,
          "time": 109.14274800000096,
          "velocity": 1,
          "duration": 0.2857140000000129
        },
        {
          "name": "A2",
          "midi": 45,
          "time": 109.28560500000097,
          "velocity": 1,
          "duration": 0.2857140000000129
        },
        {
          "name": "A3",
          "midi": 57,
          "time": 109.42846200000098,
          "velocity": 1,
          "duration": 0.2857140000000129
        },
        {
          "name": "A2",
          "midi": 45,
          "time": 109.57131900000098,
          "velocity": 1,
          "duration": 0.14285700000000645
        },
        {
          "name": "A3",
          "midi": 57,
          "time": 109.71417600000099,
          "velocity": 1,
          "duration": 0.2857139999999987
        },
        {
          "name": "A2",
          "midi": 45,
          "time": 109.71417600000099,
          "velocity": 1,
          "duration": 0.42857100000000514
        },
        {
          "name": "A3",
          "midi": 57,
          "time": 109.99989000000099,
          "velocity": 1,
          "duration": 0.2857140000000129
        },
        {
          "name": "A2",
          "midi": 45,
          "time": 110.142747000001,
          "velocity": 1,
          "duration": 0.2857140000000129
        },
        {
          "name": "A3",
          "midi": 57,
          "time": 110.285604000001,
          "velocity": 1,
          "duration": 0.2857140000000129
        },
        {
          "name": "A2",
          "midi": 45,
          "time": 110.42846100000101,
          "velocity": 1,
          "duration": 0.14285700000000645
        },
        {
          "name": "A3",
          "midi": 57,
          "time": 110.57131800000101,
          "velocity": 1,
          "duration": 0.2857139999999987
        },
        {
          "name": "A2",
          "midi": 45,
          "time": 110.57131800000101,
          "velocity": 1,
          "duration": 0.5714279999999974
        },
        {
          "name": "A3",
          "midi": 57,
          "time": 110.85703200000101,
          "velocity": 1,
          "duration": 0.2857139999999987
        },
        {
          "name": "A3",
          "midi": 57,
          "time": 111.14274600000101,
          "velocity": 1,
          "duration": 0.2857139999999987
        },
        {
          "name": "F#2",
          "midi": 42,
          "time": 111.14274600000101,
          "velocity": 1,
          "duration": 0.2857139999999987
        },
        {
          "name": "A3",
          "midi": 57,
          "time": 111.42846000000101,
          "velocity": 1,
          "duration": 1.7142840000000064
        },
        {
          "name": "A1",
          "midi": 33,
          "time": 111.42846000000101,
          "velocity": 1,
          "duration": 1.7142840000000064
        },
        {
          "name": "A3",
          "midi": 57,
          "time": 113.14274400000102,
          "velocity": 1,
          "duration": 1.7142840000000064
        },
        {
          "name": "A1",
          "midi": 33,
          "time": 113.14274400000102,
          "velocity": 1,
          "duration": 1.7142840000000064
        },
        {
          "name": "A3",
          "midi": 57,
          "time": 114.85702800000102,
          "velocity": 1,
          "duration": 1.7142840000000064
        },
        {
          "name": "A1",
          "midi": 33,
          "time": 114.85702800000102,
          "velocity": 1,
          "duration": 1.7142840000000064
        },
        {
          "name": "A3",
          "midi": 57,
          "time": 116.57131200000103,
          "velocity": 1,
          "duration": 1.7142840000000064
        },
        {
          "name": "A1",
          "midi": 33,
          "time": 116.57131200000103,
          "velocity": 1,
          "duration": 1.7142840000000064
        },
        {
          "name": "E3",
          "midi": 52,
          "time": 118.28559600000104,
          "velocity": 1,
          "duration": 0.2857139999999987
        },
        {
          "name": "E2",
          "midi": 40,
          "time": 118.28559600000104,
          "velocity": 1,
          "duration": 0.42857100000000514
        },
        {
          "name": "E3",
          "midi": 52,
          "time": 118.57131000000103,
          "velocity": 1,
          "duration": 0.2857140000000129
        },
        {
          "name": "E2",
          "midi": 40,
          "time": 118.71416700000104,
          "velocity": 1,
          "duration": 0.2857140000000129
        },
        {
          "name": "E3",
          "midi": 52,
          "time": 118.85702400000105,
          "velocity": 1,
          "duration": 0.2857140000000129
        },
        {
          "name": "E2",
          "midi": 40,
          "time": 118.99988100000105,
          "velocity": 1,
          "duration": 0.14285700000000645
        },
        {
          "name": "E3",
          "midi": 52,
          "time": 119.14273800000106,
          "velocity": 1,
          "duration": 0.2857139999999987
        },
        {
          "name": "E2",
          "midi": 40,
          "time": 119.14273800000106,
          "velocity": 1,
          "duration": 0.42857100000000514
        },
        {
          "name": "E3",
          "midi": 52,
          "time": 119.42845200000106,
          "velocity": 1,
          "duration": 0.2857140000000129
        },
        {
          "name": "E2",
          "midi": 40,
          "time": 119.57130900000107,
          "velocity": 1,
          "duration": 0.2857140000000129
        },
        {
          "name": "E3",
          "midi": 52,
          "time": 119.71416600000107,
          "velocity": 1,
          "duration": 0.2857140000000129
        },
        {
          "name": "E2",
          "midi": 40,
          "time": 119.85702300000108,
          "velocity": 1,
          "duration": 0.14285700000000645
        },
        {
          "name": "E3",
          "midi": 52,
          "time": 119.99988000000108,
          "velocity": 1,
          "duration": 0.2857139999999987
        },
        {
          "name": "E2",
          "midi": 40,
          "time": 119.99988000000108,
          "velocity": 1,
          "duration": 0.42857100000000514
        },
        {
          "name": "E3",
          "midi": 52,
          "time": 120.28559400000108,
          "velocity": 1,
          "duration": 0.2857140000000129
        },
        {
          "name": "E2",
          "midi": 40,
          "time": 120.42845100000109,
          "velocity": 1,
          "duration": 0.2857140000000129
        },
        {
          "name": "E3",
          "midi": 52,
          "time": 120.5713080000011,
          "velocity": 1,
          "duration": 0.2857140000000129
        },
        {
          "name": "E2",
          "midi": 40,
          "time": 120.7141650000011,
          "velocity": 1,
          "duration": 0.14285700000000645
        },
        {
          "name": "E3",
          "midi": 52,
          "time": 120.85702200000111,
          "velocity": 1,
          "duration": 0.2857139999999987
        },
        {
          "name": "C#2",
          "midi": 37,
          "time": 120.85702200000111,
          "velocity": 1,
          "duration": 0.42857100000000514
        },
        {
          "name": "E3",
          "midi": 52,
          "time": 121.14273600000111,
          "velocity": 1,
          "duration": 0.14285700000000645
        },
        {
          "name": "E3",
          "midi": 52,
          "time": 121.28559300000111,
          "velocity": 1,
          "duration": 0.2857139999999987
        },
        {
          "name": "D2",
          "midi": 38,
          "time": 121.28559300000111,
          "velocity": 1,
          "duration": 0.42857100000000514
        },
        {
          "name": "E3",
          "midi": 52,
          "time": 121.57130700000111,
          "velocity": 1,
          "duration": 0.14285700000000645
        },
        {
          "name": "E3",
          "midi": 52,
          "time": 121.71416400000112,
          "velocity": 1,
          "duration": 0.2857139999999987
        },
        {
          "name": "E2",
          "midi": 40,
          "time": 121.71416400000112,
          "velocity": 1,
          "duration": 0.42857100000000514
        },
        {
          "name": "E3",
          "midi": 52,
          "time": 121.99987800000112,
          "velocity": 1,
          "duration": 0.2857140000000129
        },
        {
          "name": "E2",
          "midi": 40,
          "time": 122.14273500000112,
          "velocity": 1,
          "duration": 0.2857140000000129
        },
        {
          "name": "E3",
          "midi": 52,
          "time": 122.28559200000113,
          "velocity": 1,
          "duration": 0.2857140000000129
        },
        {
          "name": "E2",
          "midi": 40,
          "time": 122.42844900000114,
          "velocity": 1,
          "duration": 0.14285700000000645
        },
        {
          "name": "E3",
          "midi": 52,
          "time": 122.57130600000114,
          "velocity": 1,
          "duration": 0.2857139999999987
        },
        {
          "name": "E2",
          "midi": 40,
          "time": 122.57130600000114,
          "velocity": 1,
          "duration": 0.42857100000000514
        },
        {
          "name": "E3",
          "midi": 52,
          "time": 122.85702000000114,
          "velocity": 1,
          "duration": 0.2857140000000129
        },
        {
          "name": "E2",
          "midi": 40,
          "time": 122.99987700000115,
          "velocity": 1,
          "duration": 0.2857140000000129
        },
        {
          "name": "E3",
          "midi": 52,
          "time": 123.14273400000116,
          "velocity": 1,
          "duration": 0.2857140000000129
        },
        {
          "name": "E2",
          "midi": 40,
          "time": 123.28559100000116,
          "velocity": 1,
          "duration": 0.14285700000000645
        },
        {
          "name": "E3",
          "midi": 52,
          "time": 123.42844800000117,
          "velocity": 1,
          "duration": 0.2857139999999987
        },
        {
          "name": "E2",
          "midi": 40,
          "time": 123.42844800000117,
          "velocity": 1,
          "duration": 0.42857100000000514
        },
        {
          "name": "E3",
          "midi": 52,
          "time": 123.71416200000117,
          "velocity": 1,
          "duration": 0.2857140000000129
        },
        {
          "name": "E2",
          "midi": 40,
          "time": 123.85701900000117,
          "velocity": 1,
          "duration": 0.2857140000000129
        },
        {
          "name": "E3",
          "midi": 52,
          "time": 123.99987600000118,
          "velocity": 1,
          "duration": 0.2857140000000129
        },
        {
          "name": "E2",
          "midi": 40,
          "time": 124.14273300000119,
          "velocity": 1,
          "duration": 0.14285700000000645
        },
        {
          "name": "E3",
          "midi": 52,
          "time": 124.28559000000119,
          "velocity": 1,
          "duration": 0.2857139999999987
        },
        {
          "name": "C#2",
          "midi": 37,
          "time": 124.28559000000119,
          "velocity": 1,
          "duration": 0.42857100000000514
        },
        {
          "name": "E3",
          "midi": 52,
          "time": 124.57130400000119,
          "velocity": 1,
          "duration": 0.14285700000000645
        },
        {
          "name": "E3",
          "midi": 52,
          "time": 124.7141610000012,
          "velocity": 1,
          "duration": 0.2857139999999987
        },
        {
          "name": "D2",
          "midi": 38,
          "time": 124.7141610000012,
          "velocity": 1,
          "duration": 0.42857100000000514
        },
        {
          "name": "E3",
          "midi": 52,
          "time": 124.9998750000012,
          "velocity": 1,
          "duration": 0.14285700000000645
        },
        {
          "name": "E3",
          "midi": 52,
          "time": 125.1427320000012,
          "velocity": 1,
          "duration": 0.2857139999999987
        },
        {
          "name": "E2",
          "midi": 40,
          "time": 125.1427320000012,
          "velocity": 1,
          "duration": 0.42857100000000514
        },
        {
          "name": "E3",
          "midi": 52,
          "time": 125.4284460000012,
          "velocity": 1,
          "duration": 0.2857140000000129
        },
        {
          "name": "E2",
          "midi": 40,
          "time": 125.57130300000121,
          "velocity": 1,
          "duration": 0.2857140000000129
        },
        {
          "name": "E3",
          "midi": 52,
          "time": 125.71416000000121,
          "velocity": 1,
          "duration": 0.2857140000000129
        },
        {
          "name": "E2",
          "midi": 40,
          "time": 125.85701700000122,
          "velocity": 1,
          "duration": 0.14285700000000645
        },
        {
          "name": "E3",
          "midi": 52,
          "time": 125.99987400000123,
          "velocity": 1,
          "duration": 0.2857139999999987
        },
        {
          "name": "E2",
          "midi": 40,
          "time": 125.99987400000123,
          "velocity": 1,
          "duration": 0.42857100000000514
        },
        {
          "name": "E3",
          "midi": 52,
          "time": 126.28558800000123,
          "velocity": 1,
          "duration": 0.2857140000000129
        },
        {
          "name": "E2",
          "midi": 40,
          "time": 126.42844500000123,
          "velocity": 1,
          "duration": 0.2857140000000129
        },
        {
          "name": "E3",
          "midi": 52,
          "time": 126.57130200000124,
          "velocity": 1,
          "duration": 0.2857140000000129
        },
        {
          "name": "E2",
          "midi": 40,
          "time": 126.71415900000125,
          "velocity": 1,
          "duration": 0.14285700000000645
        },
        {
          "name": "E3",
          "midi": 52,
          "time": 126.85701600000125,
          "velocity": 1,
          "duration": 0.2857139999999987
        },
        {
          "name": "E2",
          "midi": 40,
          "time": 126.85701600000125,
          "velocity": 1,
          "duration": 0.42857100000000514
        },
        {
          "name": "E3",
          "midi": 52,
          "time": 127.14273000000125,
          "velocity": 1,
          "duration": 0.2857140000000129
        },
        {
          "name": "E2",
          "midi": 40,
          "time": 127.28558700000126,
          "velocity": 1,
          "duration": 0.2857140000000129
        },
        {
          "name": "E3",
          "midi": 52,
          "time": 127.42844400000126,
          "velocity": 1,
          "duration": 0.2857140000000129
        },
        {
          "name": "E2",
          "midi": 40,
          "time": 127.57130100000127,
          "velocity": 1,
          "duration": 0.14285700000000645
        },
        {
          "name": "E3",
          "midi": 52,
          "time": 127.71415800000128,
          "velocity": 1,
          "duration": 0.2857139999999987
        },
        {
          "name": "C#2",
          "midi": 37,
          "time": 127.71415800000128,
          "velocity": 1,
          "duration": 0.42857100000000514
        },
        {
          "name": "E3",
          "midi": 52,
          "time": 127.99987200000128,
          "velocity": 1,
          "duration": 0.14285700000000645
        },
        {
          "name": "E3",
          "midi": 52,
          "time": 128.14272900000128,
          "velocity": 1,
          "duration": 0.2857140000000129
        },
        {
          "name": "D2",
          "midi": 38,
          "time": 128.14272900000128,
          "velocity": 1,
          "duration": 0.42857100000000514
        },
        {
          "name": "E3",
          "midi": 52,
          "time": 128.4284430000013,
          "velocity": 1,
          "duration": 0.14285699999999224
        },
        {
          "name": "E3",
          "midi": 52,
          "time": 128.5713000000013,
          "velocity": 1,
          "duration": 0.2857140000000129
        },
        {
          "name": "E2",
          "midi": 40,
          "time": 128.5713000000013,
          "velocity": 1,
          "duration": 0.42857100000000514
        },
        {
          "name": "E3",
          "midi": 52,
          "time": 128.8570140000013,
          "velocity": 1,
          "duration": 0.2857139999999845
        },
        {
          "name": "E2",
          "midi": 40,
          "time": 128.9998710000013,
          "velocity": 1,
          "duration": 0.2857139999999845
        },
        {
          "name": "E3",
          "midi": 52,
          "time": 129.14272800000128,
          "velocity": 1,
          "duration": 0.2857139999999845
        },
        {
          "name": "E2",
          "midi": 40,
          "time": 129.28558500000128,
          "velocity": 1,
          "duration": 0.14285699999999224
        },
        {
          "name": "E3",
          "midi": 52,
          "time": 129.42844200000127,
          "velocity": 1,
          "duration": 0.2857140000000129
        },
        {
          "name": "E2",
          "midi": 40,
          "time": 129.42844200000127,
          "velocity": 1,
          "duration": 0.42857100000000514
        },
        {
          "name": "E3",
          "midi": 52,
          "time": 129.71415600000128,
          "velocity": 1,
          "duration": 0.2857139999999845
        },
        {
          "name": "E2",
          "midi": 40,
          "time": 129.85701300000127,
          "velocity": 1,
          "duration": 0.2857139999999845
        },
        {
          "name": "E3",
          "midi": 52,
          "time": 129.99987000000127,
          "velocity": 1,
          "duration": 0.2857139999999845
        },
        {
          "name": "E2",
          "midi": 40,
          "time": 130.14272700000126,
          "velocity": 1,
          "duration": 0.14285699999999224
        },
        {
          "name": "E3",
          "midi": 52,
          "time": 130.28558400000125,
          "velocity": 1,
          "duration": 0.2857140000000129
        },
        {
          "name": "E2",
          "midi": 40,
          "time": 130.28558400000125,
          "velocity": 1,
          "duration": 0.42857100000000514
        },
        {
          "name": "E3",
          "midi": 52,
          "time": 130.57129800000126,
          "velocity": 1,
          "duration": 0.2857139999999845
        },
        {
          "name": "E2",
          "midi": 40,
          "time": 130.71415500000126,
          "velocity": 1,
          "duration": 0.2857139999999845
        },
        {
          "name": "E3",
          "midi": 52,
          "time": 130.85701200000125,
          "velocity": 1,
          "duration": 0.2857139999999845
        },
        {
          "name": "E2",
          "midi": 40,
          "time": 130.99986900000124,
          "velocity": 1,
          "duration": 0.14285699999999224
        },
        {
          "name": "E3",
          "midi": 52,
          "time": 131.14272600000123,
          "velocity": 1,
          "duration": 0.2857140000000129
        },
        {
          "name": "E2",
          "midi": 40,
          "time": 131.14272600000123,
          "velocity": 1,
          "duration": 0.5714280000000258
        },
        {
          "name": "E3",
          "midi": 52,
          "time": 131.42844000000125,
          "velocity": 1,
          "duration": 0.2857140000000129
        },
        {
          "name": "E3",
          "midi": 52,
          "time": 131.71415400000126,
          "velocity": 1,
          "duration": 0.2857140000000129
        },
        {
          "name": "F2",
          "midi": 41,
          "time": 131.71415400000126,
          "velocity": 1,
          "duration": 0.2857140000000129
        },
        {
          "name": "G3",
          "midi": 55,
          "time": 131.99986800000127,
          "velocity": 1,
          "duration": 0.2857140000000129
        },
        {
          "name": "G2",
          "midi": 43,
          "time": 131.99986800000127,
          "velocity": 1,
          "duration": 0.42857100000000514
        },
        {
          "name": "G3",
          "midi": 55,
          "time": 132.28558200000128,
          "velocity": 1,
          "duration": 0.2857139999999845
        },
        {
          "name": "G2",
          "midi": 43,
          "time": 132.42843900000128,
          "velocity": 1,
          "duration": 0.2857139999999845
        },
        {
          "name": "G3",
          "midi": 55,
          "time": 132.57129600000127,
          "velocity": 1,
          "duration": 0.2857139999999845
        },
        {
          "name": "G2",
          "midi": 43,
          "time": 132.71415300000126,
          "velocity": 1,
          "duration": 0.14285699999999224
        },
        {
          "name": "G3",
          "midi": 55,
          "time": 132.85701000000125,
          "velocity": 1,
          "duration": 0.2857140000000129
        },
        {
          "name": "G2",
          "midi": 43,
          "time": 132.85701000000125,
          "velocity": 1,
          "duration": 0.42857100000000514
        },
        {
          "name": "G3",
          "midi": 55,
          "time": 133.14272400000127,
          "velocity": 1,
          "duration": 0.2857139999999845
        },
        {
          "name": "G2",
          "midi": 43,
          "time": 133.28558100000126,
          "velocity": 1,
          "duration": 0.2857139999999845
        },
        {
          "name": "G3",
          "midi": 55,
          "time": 133.42843800000125,
          "velocity": 1,
          "duration": 0.2857139999999845
        },
        {
          "name": "G2",
          "midi": 43,
          "time": 133.57129500000124,
          "velocity": 1,
          "duration": 0.14285699999999224
        },
        {
          "name": "G3",
          "midi": 55,
          "time": 133.71415200000123,
          "velocity": 1,
          "duration": 0.2857140000000129
        },
        {
          "name": "G2",
          "midi": 43,
          "time": 133.71415200000123,
          "velocity": 1,
          "duration": 0.42857100000000514
        },
        {
          "name": "G3",
          "midi": 55,
          "time": 133.99986600000125,
          "velocity": 1,
          "duration": 0.2857139999999845
        },
        {
          "name": "G2",
          "midi": 43,
          "time": 134.14272300000124,
          "velocity": 1,
          "duration": 0.2857139999999845
        },
        {
          "name": "G3",
          "midi": 55,
          "time": 134.28558000000123,
          "velocity": 1,
          "duration": 0.2857139999999845
        },
        {
          "name": "G2",
          "midi": 43,
          "time": 134.42843700000122,
          "velocity": 1,
          "duration": 0.14285699999999224
        },
        {
          "name": "G3",
          "midi": 55,
          "time": 134.57129400000122,
          "velocity": 1,
          "duration": 0.2857140000000129
        },
        {
          "name": "E2",
          "midi": 40,
          "time": 134.57129400000122,
          "velocity": 1,
          "duration": 0.42857100000000514
        },
        {
          "name": "G3",
          "midi": 55,
          "time": 134.85700800000123,
          "velocity": 1,
          "duration": 0.14285699999999224
        },
        {
          "name": "G3",
          "midi": 55,
          "time": 134.99986500000122,
          "velocity": 1,
          "duration": 0.2857140000000129
        },
        {
          "name": "F2",
          "midi": 41,
          "time": 134.99986500000122,
          "velocity": 1,
          "duration": 0.42857100000000514
        },
        {
          "name": "G3",
          "midi": 55,
          "time": 135.28557900000123,
          "velocity": 1,
          "duration": 0.14285699999999224
        },
        {
          "name": "G3",
          "midi": 55,
          "time": 135.42843600000123,
          "velocity": 1,
          "duration": 0.2857140000000129
        },
        {
          "name": "G2",
          "midi": 43,
          "time": 135.42843600000123,
          "velocity": 1,
          "duration": 0.42857100000000514
        },
        {
          "name": "G3",
          "midi": 55,
          "time": 135.71415000000124,
          "velocity": 1,
          "duration": 0.2857139999999845
        },
        {
          "name": "G2",
          "midi": 43,
          "time": 135.85700700000123,
          "velocity": 1,
          "duration": 0.2857139999999845
        },
        {
          "name": "G3",
          "midi": 55,
          "time": 135.99986400000122,
          "velocity": 1,
          "duration": 0.2857139999999845
        },
        {
          "name": "G2",
          "midi": 43,
          "time": 136.14272100000122,
          "velocity": 1,
          "duration": 0.14285699999999224
        },
        {
          "name": "G3",
          "midi": 55,
          "time": 136.2855780000012,
          "velocity": 1,
          "duration": 0.2857140000000129
        },
        {
          "name": "G2",
          "midi": 43,
          "time": 136.2855780000012,
          "velocity": 1,
          "duration": 0.42857100000000514
        },
        {
          "name": "G3",
          "midi": 55,
          "time": 136.57129200000122,
          "velocity": 1,
          "duration": 0.2857139999999845
        },
        {
          "name": "G2",
          "midi": 43,
          "time": 136.7141490000012,
          "velocity": 1,
          "duration": 0.2857139999999845
        },
        {
          "name": "G3",
          "midi": 55,
          "time": 136.8570060000012,
          "velocity": 1,
          "duration": 0.2857139999999845
        },
        {
          "name": "G2",
          "midi": 43,
          "time": 136.9998630000012,
          "velocity": 1,
          "duration": 0.14285699999999224
        },
        {
          "name": "G3",
          "midi": 55,
          "time": 137.1427200000012,
          "velocity": 1,
          "duration": 0.2857140000000129
        },
        {
          "name": "G2",
          "midi": 43,
          "time": 137.1427200000012,
          "velocity": 1,
          "duration": 0.42857100000000514
        },
        {
          "name": "G3",
          "midi": 55,
          "time": 137.4284340000012,
          "velocity": 1,
          "duration": 0.2857139999999845
        },
        {
          "name": "G2",
          "midi": 43,
          "time": 137.5712910000012,
          "velocity": 1,
          "duration": 0.2857139999999845
        },
        {
          "name": "G3",
          "midi": 55,
          "time": 137.7141480000012,
          "velocity": 1,
          "duration": 0.2857139999999845
        },
        {
          "name": "G2",
          "midi": 43,
          "time": 137.85700500000118,
          "velocity": 1,
          "duration": 0.14285699999999224
        },
        {
          "name": "G3",
          "midi": 55,
          "time": 137.99986200000117,
          "velocity": 1,
          "duration": 0.2857140000000129
        },
        {
          "name": "G2",
          "midi": 43,
          "time": 137.99986200000117,
          "velocity": 1,
          "duration": 0.8571420000000103
        },
        {
          "name": "G3",
          "midi": 55,
          "time": 138.28557600000119,
          "velocity": 1,
          "duration": 0.14285699999999224
        },
        {
          "name": "G3",
          "midi": 55,
          "time": 138.42843300000118,
          "velocity": 1,
          "duration": 0.2857140000000129
        },
        {
          "name": "G3",
          "midi": 55,
          "time": 138.7141470000012,
          "velocity": 1,
          "duration": 0.14285699999999224
        },
        {
          "name": "D3",
          "midi": 50,
          "time": 138.85700400000118,
          "velocity": 1,
          "duration": 0.2857140000000129
        },
        {
          "name": "D2",
          "midi": 38,
          "time": 138.85700400000118,
          "velocity": 1,
          "duration": 0.42857100000000514
        },
        {
          "name": "D3",
          "midi": 50,
          "time": 139.1427180000012,
          "velocity": 1,
          "duration": 0.2857139999999845
        },
        {
          "name": "D2",
          "midi": 38,
          "time": 139.2855750000012,
          "velocity": 1,
          "duration": 0.2857139999999845
        },
        {
          "name": "D3",
          "midi": 50,
          "time": 139.42843200000118,
          "velocity": 1,
          "duration": 0.2857139999999845
        },
        {
          "name": "D2",
          "midi": 38,
          "time": 139.57128900000117,
          "velocity": 1,
          "duration": 0.14285699999999224
        },
        {
          "name": "D3",
          "midi": 50,
          "time": 139.71414600000116,
          "velocity": 1,
          "duration": 0.2857140000000129
        },
        {
          "name": "D2",
          "midi": 38,
          "time": 139.71414600000116,
          "velocity": 1,
          "duration": 0.42857100000000514
        },
        {
          "name": "D3",
          "midi": 50,
          "time": 139.99986000000118,
          "velocity": 1,
          "duration": 0.2857139999999845
        },
        {
          "name": "D2",
          "midi": 38,
          "time": 140.14271700000117,
          "velocity": 1,
          "duration": 0.2857139999999845
        },
        {
          "name": "D3",
          "midi": 50,
          "time": 140.28557400000116,
          "velocity": 1,
          "duration": 0.2857139999999845
        },
        {
          "name": "D2",
          "midi": 38,
          "time": 140.42843100000115,
          "velocity": 1,
          "duration": 0.14285699999999224
        },
        {
          "name": "D3",
          "midi": 50,
          "time": 140.57128800000115,
          "velocity": 1,
          "duration": 0.2857140000000129
        },
        {
          "name": "D2",
          "midi": 38,
          "time": 140.57128800000115,
          "velocity": 1,
          "duration": 0.42857100000000514
        },
        {
          "name": "D3",
          "midi": 50,
          "time": 140.85700200000116,
          "velocity": 1,
          "duration": 0.2857139999999845
        },
        {
          "name": "D2",
          "midi": 38,
          "time": 140.99985900000115,
          "velocity": 1,
          "duration": 0.2857139999999845
        },
        {
          "name": "D3",
          "midi": 50,
          "time": 141.14271600000114,
          "velocity": 1,
          "duration": 0.2857139999999845
        },
        {
          "name": "D2",
          "midi": 38,
          "time": 141.28557300000114,
          "velocity": 1,
          "duration": 0.14285699999999224
        },
        {
          "name": "D3",
          "midi": 50,
          "time": 141.42843000000113,
          "velocity": 1,
          "duration": 0.2857140000000129
        },
        {
          "name": "B1",
          "midi": 35,
          "time": 141.42843000000113,
          "velocity": 1,
          "duration": 0.42857100000000514
        },
        {
          "name": "D3",
          "midi": 50,
          "time": 141.71414400000114,
          "velocity": 1,
          "duration": 0.14285699999999224
        },
        {
          "name": "D3",
          "midi": 50,
          "time": 141.85700100000113,
          "velocity": 1,
          "duration": 0.2857140000000129
        },
        {
          "name": "C2",
          "midi": 36,
          "time": 141.85700100000113,
          "velocity": 1,
          "duration": 0.42857100000000514
        },
        {
          "name": "D3",
          "midi": 50,
          "time": 142.14271500000115,
          "velocity": 1,
          "duration": 0.14285699999999224
        },
        {
          "name": "D3",
          "midi": 50,
          "time": 142.28557200000114,
          "velocity": 1,
          "duration": 0.2857140000000129
        },
        {
          "name": "D2",
          "midi": 38,
          "time": 142.28557200000114,
          "velocity": 1,
          "duration": 0.42857100000000514
        },
        {
          "name": "D3",
          "midi": 50,
          "time": 142.57128600000115,
          "velocity": 1,
          "duration": 0.2857139999999845
        },
        {
          "name": "D2",
          "midi": 38,
          "time": 142.71414300000114,
          "velocity": 1,
          "duration": 0.2857139999999845
        },
        {
          "name": "D3",
          "midi": 50,
          "time": 142.85700000000114,
          "velocity": 1,
          "duration": 0.2857139999999845
        },
        {
          "name": "D2",
          "midi": 38,
          "time": 142.99985700000113,
          "velocity": 1,
          "duration": 0.14285699999999224
        },
        {
          "name": "D3",
          "midi": 50,
          "time": 143.14271400000112,
          "velocity": 1,
          "duration": 0.2857140000000129
        },
        {
          "name": "D2",
          "midi": 38,
          "time": 143.14271400000112,
          "velocity": 1,
          "duration": 0.42857100000000514
        },
        {
          "name": "D3",
          "midi": 50,
          "time": 143.42842800000113,
          "velocity": 1,
          "duration": 0.2857139999999845
        },
        {
          "name": "D2",
          "midi": 38,
          "time": 143.57128500000113,
          "velocity": 1,
          "duration": 0.2857139999999845
        },
        {
          "name": "D3",
          "midi": 50,
          "time": 143.71414200000112,
          "velocity": 1,
          "duration": 0.2857139999999845
        },
        {
          "name": "D2",
          "midi": 38,
          "time": 143.8569990000011,
          "velocity": 1,
          "duration": 0.14285699999999224
        },
        {
          "name": "D3",
          "midi": 50,
          "time": 143.9998560000011,
          "velocity": 1,
          "duration": 0.2857140000000129
        },
        {
          "name": "D2",
          "midi": 38,
          "time": 143.9998560000011,
          "velocity": 1,
          "duration": 0.42857100000000514
        },
        {
          "name": "D3",
          "midi": 50,
          "time": 144.28557000000112,
          "velocity": 1,
          "duration": 0.2857139999999845
        },
        {
          "name": "D2",
          "midi": 38,
          "time": 144.4284270000011,
          "velocity": 1,
          "duration": 0.2857139999999845
        },
        {
          "name": "D3",
          "midi": 50,
          "time": 144.5712840000011,
          "velocity": 1,
          "duration": 0.2857139999999845
        },
        {
          "name": "D2",
          "midi": 38,
          "time": 144.7141410000011,
          "velocity": 1,
          "duration": 0.14285699999999224
        },
        {
          "name": "D3",
          "midi": 50,
          "time": 144.85699800000108,
          "velocity": 1,
          "duration": 0.2857140000000129
        },
        {
          "name": "D2",
          "midi": 38,
          "time": 144.85699800000108,
          "velocity": 1,
          "duration": 0.8571420000000103
        },
        {
          "name": "D3",
          "midi": 50,
          "time": 145.1427120000011,
          "velocity": 1,
          "duration": 0.14285699999999224
        },
        {
          "name": "D3",
          "midi": 50,
          "time": 145.2855690000011,
          "velocity": 1,
          "duration": 0.2857140000000129
        },
        {
          "name": "D3",
          "midi": 50,
          "time": 145.5712830000011,
          "velocity": 1,
          "duration": 0.14285699999999224
        },
        {
          "name": "E3",
          "midi": 52,
          "time": 145.7141400000011,
          "velocity": 1,
          "duration": 0.2857140000000129
        },
        {
          "name": "E2",
          "midi": 40,
          "time": 145.7141400000011,
          "velocity": 1,
          "duration": 0.42857100000000514
        },
        {
          "name": "E3",
          "midi": 52,
          "time": 145.9998540000011,
          "velocity": 1,
          "duration": 0.2857139999999845
        },
        {
          "name": "E2",
          "midi": 40,
          "time": 146.1427110000011,
          "velocity": 1,
          "duration": 0.2857139999999845
        },
        {
          "name": "E3",
          "midi": 52,
          "time": 146.2855680000011,
          "velocity": 1,
          "duration": 0.2857139999999845
        },
        {
          "name": "E2",
          "midi": 40,
          "time": 146.42842500000108,
          "velocity": 1,
          "duration": 0.14285699999999224
        },
        {
          "name": "E3",
          "midi": 52,
          "time": 146.57128200000108,
          "velocity": 1,
          "duration": 0.2857140000000129
        },
        {
          "name": "E2",
          "midi": 40,
          "time": 146.57128200000108,
          "velocity": 1,
          "duration": 0.42857100000000514
        },
        {
          "name": "E3",
          "midi": 52,
          "time": 146.8569960000011,
          "velocity": 1,
          "duration": 0.2857139999999845
        },
        {
          "name": "E2",
          "midi": 40,
          "time": 146.99985300000108,
          "velocity": 1,
          "duration": 0.2857139999999845
        },
        {
          "name": "E3",
          "midi": 52,
          "time": 147.14271000000107,
          "velocity": 1,
          "duration": 0.2857139999999845
        },
        {
          "name": "E2",
          "midi": 40,
          "time": 147.28556700000107,
          "velocity": 1,
          "duration": 0.14285699999999224
        },
        {
          "name": "E3",
          "midi": 52,
          "time": 147.42842400000106,
          "velocity": 1,
          "duration": 0.2857140000000129
        },
        {
          "name": "E2",
          "midi": 40,
          "time": 147.42842400000106,
          "velocity": 1,
          "duration": 0.42857100000000514
        },
        {
          "name": "E3",
          "midi": 52,
          "time": 147.71413800000107,
          "velocity": 1,
          "duration": 0.2857139999999845
        },
        {
          "name": "E2",
          "midi": 40,
          "time": 147.85699500000106,
          "velocity": 1,
          "duration": 0.2857139999999845
        },
        {
          "name": "E3",
          "midi": 52,
          "time": 147.99985200000106,
          "velocity": 1,
          "duration": 0.2857139999999845
        },
        {
          "name": "E2",
          "midi": 40,
          "time": 148.14270900000105,
          "velocity": 1,
          "duration": 0.14285699999999224
        },
        {
          "name": "E3",
          "midi": 52,
          "time": 148.28556600000104,
          "velocity": 1,
          "duration": 0.2857140000000129
        },
        {
          "name": "E2",
          "midi": 40,
          "time": 148.28556600000104,
          "velocity": 1,
          "duration": 0.5714279999999974
        },
        {
          "name": "E3",
          "midi": 52,
          "time": 148.57128000000105,
          "velocity": 1,
          "duration": 0.14285699999999224
        },
        {
          "name": "E3",
          "midi": 52,
          "time": 148.71413700000105,
          "velocity": 1,
          "duration": 0.2857139999999845
        },
        {
          "name": "C#2",
          "midi": 37,
          "time": 148.85699400000104,
          "velocity": 1,
          "duration": 0.2857139999999845
        },
        {
          "name": "E3",
          "midi": 52,
          "time": 148.99985100000103,
          "velocity": 1,
          "duration": 0.14285699999999224
        },
        {
          "name": "E3",
          "midi": 52,
          "time": 149.14270800000102,
          "velocity": 1,
          "duration": 0.2857140000000129
        },
        {
          "name": "E2",
          "midi": 40,
          "time": 149.14270800000102,
          "velocity": 1,
          "duration": 0.42857100000000514
        },
        {
          "name": "E3",
          "midi": 52,
          "time": 149.42842200000104,
          "velocity": 1,
          "duration": 0.2857139999999845
        },
        {
          "name": "E2",
          "midi": 40,
          "time": 149.57127900000103,
          "velocity": 1,
          "duration": 0.2857139999999845
        },
        {
          "name": "E3",
          "midi": 52,
          "time": 149.71413600000102,
          "velocity": 1,
          "duration": 0.2857139999999845
        },
        {
          "name": "E2",
          "midi": 40,
          "time": 149.856993000001,
          "velocity": 1,
          "duration": 0.14285699999999224
        },
        {
          "name": "E3",
          "midi": 52,
          "time": 149.999850000001,
          "velocity": 1,
          "duration": 0.2857140000000129
        },
        {
          "name": "E2",
          "midi": 40,
          "time": 149.999850000001,
          "velocity": 1,
          "duration": 0.42857100000000514
        },
        {
          "name": "E3",
          "midi": 52,
          "time": 150.28556400000102,
          "velocity": 1,
          "duration": 0.2857139999999845
        },
        {
          "name": "E2",
          "midi": 40,
          "time": 150.428421000001,
          "velocity": 1,
          "duration": 0.2857139999999845
        },
        {
          "name": "E3",
          "midi": 52,
          "time": 150.571278000001,
          "velocity": 1,
          "duration": 0.2857139999999845
        },
        {
          "name": "E2",
          "midi": 40,
          "time": 150.714135000001,
          "velocity": 1,
          "duration": 0.14285699999999224
        },
        {
          "name": "E3",
          "midi": 52,
          "time": 150.856992000001,
          "velocity": 1,
          "duration": 0.2857140000000129
        },
        {
          "name": "E2",
          "midi": 40,
          "time": 150.856992000001,
          "velocity": 1,
          "duration": 0.42857100000000514
        },
        {
          "name": "E3",
          "midi": 52,
          "time": 151.142706000001,
          "velocity": 1,
          "duration": 0.2857139999999845
        },
        {
          "name": "E2",
          "midi": 40,
          "time": 151.285563000001,
          "velocity": 1,
          "duration": 0.2857139999999845
        },
        {
          "name": "E3",
          "midi": 52,
          "time": 151.42842000000098,
          "velocity": 1,
          "duration": 0.2857139999999845
        },
        {
          "name": "E2",
          "midi": 40,
          "time": 151.57127700000098,
          "velocity": 1,
          "duration": 0.14285699999999224
        },
        {
          "name": "E3",
          "midi": 52,
          "time": 151.71413400000097,
          "velocity": 1,
          "duration": 0.2857140000000129
        },
        {
          "name": "E2",
          "midi": 40,
          "time": 151.71413400000097,
          "velocity": 1,
          "duration": 0.5714280000000258
        },
        {
          "name": "E3",
          "midi": 52,
          "time": 151.99984800000098,
          "velocity": 1,
          "duration": 0.2857140000000129
        },
        {
          "name": "E3",
          "midi": 52,
          "time": 152.285562000001,
          "velocity": 1,
          "duration": 0.2857140000000129
        },
        {
          "name": "C#2",
          "midi": 37,
          "time": 152.285562000001,
          "velocity": 1,
          "duration": 0.2857140000000129
        },
        {
          "name": "E3",
          "midi": 52,
          "time": 152.571276000001,
          "velocity": 1,
          "duration": 0.2857140000000129
        },
        {
          "name": "E2",
          "midi": 40,
          "time": 152.571276000001,
          "velocity": 1,
          "duration": 0.42857100000000514
        },
        {
          "name": "E3",
          "midi": 52,
          "time": 152.85699000000102,
          "velocity": 1,
          "duration": 0.2857139999999845
        },
        {
          "name": "E2",
          "midi": 40,
          "time": 152.999847000001,
          "velocity": 1,
          "duration": 0.2857139999999845
        },
        {
          "name": "E3",
          "midi": 52,
          "time": 153.142704000001,
          "velocity": 1,
          "duration": 0.2857139999999845
        },
        {
          "name": "E2",
          "midi": 40,
          "time": 153.285561000001,
          "velocity": 1,
          "duration": 0.14285699999999224
        },
        {
          "name": "E3",
          "midi": 52,
          "time": 153.428418000001,
          "velocity": 1,
          "duration": 0.2857140000000129
        },
        {
          "name": "E2",
          "midi": 40,
          "time": 153.428418000001,
          "velocity": 1,
          "duration": 0.42857100000000514
        },
        {
          "name": "E3",
          "midi": 52,
          "time": 153.714132000001,
          "velocity": 1,
          "duration": 0.2857139999999845
        },
        {
          "name": "E2",
          "midi": 40,
          "time": 153.856989000001,
          "velocity": 1,
          "duration": 0.2857139999999845
        },
        {
          "name": "E3",
          "midi": 52,
          "time": 153.99984600000099,
          "velocity": 1,
          "duration": 0.2857139999999845
        },
        {
          "name": "E2",
          "midi": 40,
          "time": 154.14270300000098,
          "velocity": 1,
          "duration": 0.14285699999999224
        },
        {
          "name": "E3",
          "midi": 52,
          "time": 154.28556000000097,
          "velocity": 1,
          "duration": 0.2857140000000129
        },
        {
          "name": "E2",
          "midi": 40,
          "time": 154.28556000000097,
          "velocity": 1,
          "duration": 0.42857100000000514
        },
        {
          "name": "E3",
          "midi": 52,
          "time": 154.57127400000098,
          "velocity": 1,
          "duration": 0.2857139999999845
        },
        {
          "name": "E2",
          "midi": 40,
          "time": 154.71413100000098,
          "velocity": 1,
          "duration": 0.2857139999999845
        },
        {
          "name": "E3",
          "midi": 52,
          "time": 154.85698800000097,
          "velocity": 1,
          "duration": 0.2857139999999845
        },
        {
          "name": "E2",
          "midi": 40,
          "time": 154.99984500000096,
          "velocity": 1,
          "duration": 0.14285699999999224
        },
        {
          "name": "E3",
          "midi": 52,
          "time": 155.14270200000095,
          "velocity": 1,
          "duration": 0.2857140000000129
        },
        {
          "name": "C#2",
          "midi": 37,
          "time": 155.14270200000095,
          "velocity": 1,
          "duration": 0.42857100000000514
        },
        {
          "name": "E3",
          "midi": 52,
          "time": 155.42841600000096,
          "velocity": 1,
          "duration": 0.14285699999999224
        },
        {
          "name": "E3",
          "midi": 52,
          "time": 155.57127300000096,
          "velocity": 1,
          "duration": 0.2857140000000129
        },
        {
          "name": "D2",
          "midi": 38,
          "time": 155.57127300000096,
          "velocity": 1,
          "duration": 0.42857100000000514
        },
        {
          "name": "E3",
          "midi": 52,
          "time": 155.85698700000097,
          "velocity": 1,
          "duration": 0.14285699999999224
        },
        {
          "name": "E3",
          "midi": 52,
          "time": 155.99984400000096,
          "velocity": 1,
          "duration": 0.2857140000000129
        },
        {
          "name": "E2",
          "midi": 40,
          "time": 155.99984400000096,
          "velocity": 1,
          "duration": 0.42857100000000514
        },
        {
          "name": "E3",
          "midi": 52,
          "time": 156.28555800000098,
          "velocity": 1,
          "duration": 0.2857139999999845
        },
        {
          "name": "E2",
          "midi": 40,
          "time": 156.42841500000097,
          "velocity": 1,
          "duration": 0.2857139999999845
        },
        {
          "name": "E3",
          "midi": 52,
          "time": 156.57127200000096,
          "velocity": 1,
          "duration": 0.2857139999999845
        },
        {
          "name": "E2",
          "midi": 40,
          "time": 156.71412900000095,
          "velocity": 1,
          "duration": 0.14285699999999224
        },
        {
          "name": "E3",
          "midi": 52,
          "time": 156.85698600000094,
          "velocity": 1,
          "duration": 0.2857140000000129
        },
        {
          "name": "E2",
          "midi": 40,
          "time": 156.85698600000094,
          "velocity": 1,
          "duration": 0.42857100000000514
        },
        {
          "name": "E3",
          "midi": 52,
          "time": 157.14270000000096,
          "velocity": 1,
          "duration": 0.2857139999999845
        },
        {
          "name": "E2",
          "midi": 40,
          "time": 157.28555700000095,
          "velocity": 1,
          "duration": 0.2857139999999845
        },
        {
          "name": "E3",
          "midi": 52,
          "time": 157.42841400000094,
          "velocity": 1,
          "duration": 0.2857139999999845
        },
        {
          "name": "E2",
          "midi": 40,
          "time": 157.57127100000093,
          "velocity": 1,
          "duration": 0.14285699999999224
        },
        {
          "name": "E3",
          "midi": 52,
          "time": 157.71412800000093,
          "velocity": 1,
          "duration": 0.2857140000000129
        },
        {
          "name": "E2",
          "midi": 40,
          "time": 157.71412800000093,
          "velocity": 1,
          "duration": 0.42857100000000514
        },
        {
          "name": "E3",
          "midi": 52,
          "time": 157.99984200000094,
          "velocity": 1,
          "duration": 0.2857139999999845
        },
        {
          "name": "E2",
          "midi": 40,
          "time": 158.14269900000093,
          "velocity": 1,
          "duration": 0.2857139999999845
        },
        {
          "name": "E3",
          "midi": 52,
          "time": 158.28555600000092,
          "velocity": 1,
          "duration": 0.2857139999999845
        },
        {
          "name": "E2",
          "midi": 40,
          "time": 158.42841300000092,
          "velocity": 1,
          "duration": 0.14285699999999224
        },
        {
          "name": "E3",
          "midi": 52,
          "time": 158.5712700000009,
          "velocity": 1,
          "duration": 0.2857140000000129
        },
        {
          "name": "C#2",
          "midi": 37,
          "time": 158.5712700000009,
          "velocity": 1,
          "duration": 0.42857100000000514
        },
        {
          "name": "E3",
          "midi": 52,
          "time": 158.85698400000092,
          "velocity": 1,
          "duration": 0.14285699999999224
        },
        {
          "name": "E3",
          "midi": 52,
          "time": 158.9998410000009,
          "velocity": 1,
          "duration": 0.2857140000000129
        },
        {
          "name": "D2",
          "midi": 38,
          "time": 158.9998410000009,
          "velocity": 1,
          "duration": 0.42857100000000514
        },
        {
          "name": "E3",
          "midi": 52,
          "time": 159.28555500000093,
          "velocity": 1,
          "duration": 0.14285699999999224
        },
        {
          "name": "E3",
          "midi": 52,
          "time": 159.42841200000092,
          "velocity": 1,
          "duration": 0.2857140000000129
        },
        {
          "name": "E2",
          "midi": 40,
          "time": 159.42841200000092,
          "velocity": 1,
          "duration": 0.42857100000000514
        },
        {
          "name": "E3",
          "midi": 52,
          "time": 159.71412600000093,
          "velocity": 1,
          "duration": 0.2857139999999845
        },
        {
          "name": "E2",
          "midi": 40,
          "time": 159.85698300000092,
          "velocity": 1,
          "duration": 0.2857139999999845
        },
        {
          "name": "E3",
          "midi": 52,
          "time": 159.99984000000092,
          "velocity": 1,
          "duration": 0.2857139999999845
        },
        {
          "name": "E2",
          "midi": 40,
          "time": 160.1426970000009,
          "velocity": 1,
          "duration": 0.14285699999999224
        },
        {
          "name": "E3",
          "midi": 52,
          "time": 160.2855540000009,
          "velocity": 1,
          "duration": 0.2857140000000129
        },
        {
          "name": "E2",
          "midi": 40,
          "time": 160.2855540000009,
          "velocity": 1,
          "duration": 0.42857100000000514
        },
        {
          "name": "E3",
          "midi": 52,
          "time": 160.5712680000009,
          "velocity": 1,
          "duration": 0.2857139999999845
        },
        {
          "name": "E2",
          "midi": 40,
          "time": 160.7141250000009,
          "velocity": 1,
          "duration": 0.2857139999999845
        },
        {
          "name": "E3",
          "midi": 52,
          "time": 160.8569820000009,
          "velocity": 1,
          "duration": 0.2857139999999845
        },
        {
          "name": "E2",
          "midi": 40,
          "time": 160.9998390000009,
          "velocity": 1,
          "duration": 0.14285699999999224
        },
        {
          "name": "E3",
          "midi": 52,
          "time": 161.14269600000088,
          "velocity": 1,
          "duration": 0.2857140000000129
        },
        {
          "name": "E2",
          "midi": 40,
          "time": 161.14269600000088,
          "velocity": 1,
          "duration": 0.42857100000000514
        },
        {
          "name": "E3",
          "midi": 52,
          "time": 161.4284100000009,
          "velocity": 1,
          "duration": 0.2857139999999845
        },
        {
          "name": "E2",
          "midi": 40,
          "time": 161.5712670000009,
          "velocity": 1,
          "duration": 0.2857139999999845
        },
        {
          "name": "E3",
          "midi": 52,
          "time": 161.71412400000088,
          "velocity": 1,
          "duration": 0.2857139999999845
        },
        {
          "name": "E2",
          "midi": 40,
          "time": 161.85698100000087,
          "velocity": 1,
          "duration": 0.14285699999999224
        },
        {
          "name": "E3",
          "midi": 52,
          "time": 161.99983800000086,
          "velocity": 1,
          "duration": 0.2857140000000129
        },
        {
          "name": "C#2",
          "midi": 37,
          "time": 161.99983800000086,
          "velocity": 1,
          "duration": 0.42857100000000514
        },
        {
          "name": "E3",
          "midi": 52,
          "time": 162.28555200000088,
          "velocity": 1,
          "duration": 0.14285699999999224
        },
        {
          "name": "E3",
          "midi": 52,
          "time": 162.42840900000087,
          "velocity": 1,
          "duration": 0.2857140000000129
        },
        {
          "name": "D2",
          "midi": 38,
          "time": 162.42840900000087,
          "velocity": 1,
          "duration": 0.42857100000000514
        },
        {
          "name": "E3",
          "midi": 52,
          "time": 162.71412300000088,
          "velocity": 1,
          "duration": 0.14285699999999224
        },
        {
          "name": "E3",
          "midi": 52,
          "time": 162.85698000000087,
          "velocity": 1,
          "duration": 0.2857140000000129
        },
        {
          "name": "E2",
          "midi": 40,
          "time": 162.85698000000087,
          "velocity": 1,
          "duration": 0.42857100000000514
        },
        {
          "name": "E3",
          "midi": 52,
          "time": 163.1426940000009,
          "velocity": 1,
          "duration": 0.2857139999999845
        },
        {
          "name": "E2",
          "midi": 40,
          "time": 163.28555100000088,
          "velocity": 1,
          "duration": 0.2857139999999845
        },
        {
          "name": "E3",
          "midi": 52,
          "time": 163.42840800000087,
          "velocity": 1,
          "duration": 0.2857139999999845
        },
        {
          "name": "E2",
          "midi": 40,
          "time": 163.57126500000086,
          "velocity": 1,
          "duration": 0.14285699999999224
        },
        {
          "name": "E3",
          "midi": 52,
          "time": 163.71412200000086,
          "velocity": 1,
          "duration": 0.2857140000000129
        },
        {
          "name": "E2",
          "midi": 40,
          "time": 163.71412200000086,
          "velocity": 1,
          "duration": 0.42857100000000514
        },
        {
          "name": "E3",
          "midi": 52,
          "time": 163.99983600000087,
          "velocity": 1,
          "duration": 0.2857139999999845
        },
        {
          "name": "E2",
          "midi": 40,
          "time": 164.14269300000086,
          "velocity": 1,
          "duration": 0.2857139999999845
        },
        {
          "name": "E3",
          "midi": 52,
          "time": 164.28555000000085,
          "velocity": 1,
          "duration": 0.2857139999999845
        },
        {
          "name": "E2",
          "midi": 40,
          "time": 164.42840700000085,
          "velocity": 1,
          "duration": 0.14285699999999224
        },
        {
          "name": "E3",
          "midi": 52,
          "time": 164.57126400000084,
          "velocity": 1,
          "duration": 0.2857140000000129
        },
        {
          "name": "E2",
          "midi": 40,
          "time": 164.57126400000084,
          "velocity": 1,
          "duration": 0.42857100000000514
        },
        {
          "name": "E3",
          "midi": 52,
          "time": 164.85697800000085,
          "velocity": 1,
          "duration": 0.2857139999999845
        },
        {
          "name": "E2",
          "midi": 40,
          "time": 164.99983500000084,
          "velocity": 1,
          "duration": 0.2857139999999845
        },
        {
          "name": "E3",
          "midi": 52,
          "time": 165.14269200000084,
          "velocity": 1,
          "duration": 0.2857139999999845
        },
        {
          "name": "E2",
          "midi": 40,
          "time": 165.28554900000083,
          "velocity": 1,
          "duration": 0.14285699999999224
        },
        {
          "name": "E3",
          "midi": 52,
          "time": 165.42840600000082,
          "velocity": 1,
          "duration": 0.2857140000000129
        },
        {
          "name": "C#2",
          "midi": 37,
          "time": 165.42840600000082,
          "velocity": 1,
          "duration": 0.42857100000000514
        },
        {
          "name": "E3",
          "midi": 52,
          "time": 165.71412000000083,
          "velocity": 1,
          "duration": 0.14285699999999224
        },
        {
          "name": "E3",
          "midi": 52,
          "time": 165.85697700000082,
          "velocity": 1,
          "duration": 0.2857140000000129
        },
        {
          "name": "D2",
          "midi": 38,
          "time": 165.85697700000082,
          "velocity": 1,
          "duration": 0.42857100000000514
        },
        {
          "name": "E3",
          "midi": 52,
          "time": 166.14269100000084,
          "velocity": 1,
          "duration": 0.14285699999999224
        },
        {
          "name": "D2",
          "midi": 38,
          "time": 166.28554800000083,
          "velocity": 1,
          "duration": 1.7142839999999921
        },
        {
          "name": "D2",
          "midi": 38,
          "time": 167.99983200000082,
          "velocity": 1,
          "duration": 1.7142839999999921
        },
        {
          "name": "D2",
          "midi": 38,
          "time": 169.7141160000008,
          "velocity": 1,
          "duration": 1.7142839999999921
        },
        {
          "name": "D2",
          "midi": 38,
          "time": 171.4284000000008,
          "velocity": 1,
          "duration": 1.7142839999999921
        },
        {
          "name": "A0",
          "midi": 21,
          "time": 173.1426840000008,
          "velocity": 1,
          "duration": 1.7142839999999921
        },
        {
          "name": "A0",
          "midi": 21,
          "time": 174.8569680000008,
          "velocity": 1,
          "duration": 1.7142839999999921
        },
        {
          "name": "A0",
          "midi": 21,
          "time": 176.57125200000078,
          "velocity": 1,
          "duration": 1.7142839999999921
        },
        {
          "name": "A0",
          "midi": 21,
          "time": 178.28553600000077,
          "velocity": 1,
          "duration": 1.7142839999999921
        },
        {
          "name": "E1",
          "midi": 28,
          "time": 179.99982000000077,
          "velocity": 1,
          "duration": 1.7142839999999921
        },
        {
          "name": "E1",
          "midi": 28,
          "time": 181.71410400000076,
          "velocity": 1,
          "duration": 1.7142839999999921
        },
        {
          "name": "E1",
          "midi": 28,
          "time": 183.42838800000075,
          "velocity": 1,
          "duration": 1.7142839999999921
        },
        {
          "name": "E1",
          "midi": 28,
          "time": 185.14267200000074,
          "velocity": 1,
          "duration": 1.7142839999999921
        }
      ],
      "controlChanges": {
        "1": [
          {
            "number": 1,
            "time": 186.91052737500073,
            "value": 0
          }
        ],
        "7": [
          {
            "number": 7,
            "time": 0,
            "value": 0.7086614173228346
          },
          {
            "number": 7,
            "time": 187.05338437500072,
            "value": 0.7874015748031497
          }
        ],
        "10": [
          {
            "number": 10,
            "time": 0,
            "value": 0.5039370078740157
          },
          {
            "number": 10,
            "time": 187.14267000000072,
            "value": 0.5039370078740157
          }
        ],
        "91": [
          {
            "number": 91,
            "time": 41.357101500000006,
            "value": 0.25196850393700787
          },
          {
            "number": 91,
            "time": 187.23195562500072,
            "value": 0.31496062992125984
          }
        ],
        "93": [
          {
            "number": 93,
            "time": 41.142816,
            "value": 0.5039370078740157
          },
          {
            "number": 93,
            "time": 187.37481262500071,
            "value": 0
          }
        ]
      },
      "id": 9,
      "instrumentNumber": 35,
      "instrument": "fretless bass",
      "instrumentFamily": "bass",
      "channelNumber": 4,
      "isPercussion": false
    },
    {
      "startTime": 153.428418,
      "duration": 166.28554800000006,
      "length": 13,
      "notes": [
        {
          "name": "E4",
          "midi": 64,
          "time": 153.428418,
          "velocity": 1,
          "duration": 0.8571420000000103
        },
        {
          "name": "E4",
          "midi": 64,
          "time": 154.28556,
          "velocity": 1,
          "duration": 0.5714279999999974
        },
        {
          "name": "C#4",
          "midi": 61,
          "time": 154.856988,
          "velocity": 1,
          "duration": 0.2857140000000129
        },
        {
          "name": "D4",
          "midi": 62,
          "time": 155.142702,
          "velocity": 1,
          "duration": 0.42857100000000514
        },
        {
          "name": "C#4",
          "midi": 61,
          "time": 155.57127300000002,
          "velocity": 1,
          "duration": 0.14285699999999224
        },
        {
          "name": "D4",
          "midi": 62,
          "time": 155.71413,
          "velocity": 1,
          "duration": 0.2857140000000129
        },
        {
          "name": "E4",
          "midi": 64,
          "time": 155.99984400000002,
          "velocity": 1,
          "duration": 1.7142839999999921
        },
        {
          "name": "E4",
          "midi": 64,
          "time": 160.28555400000002,
          "velocity": 1,
          "duration": 1.4285700000000077
        },
        {
          "name": "C#4",
          "midi": 61,
          "time": 161.71412400000003,
          "velocity": 1,
          "duration": 0.2857140000000129
        },
        {
          "name": "D4",
          "midi": 62,
          "time": 161.99983800000004,
          "velocity": 1,
          "duration": 0.42857100000000514
        },
        {
          "name": "C#4",
          "midi": 61,
          "time": 162.42840900000004,
          "velocity": 1,
          "duration": 0.14285699999999224
        },
        {
          "name": "D4",
          "midi": 62,
          "time": 162.57126600000004,
          "velocity": 1,
          "duration": 0.2857140000000129
        },
        {
          "name": "E4",
          "midi": 64,
          "time": 162.85698000000005,
          "velocity": 1,
          "duration": 3.4285680000000127
        }
      ],
      "controlChanges": {
        "1": [
          {
            "number": 1,
            "time": 166.33911937500005,
            "value": 0
          }
        ],
        "7": [
          {
            "number": 7,
            "time": 0,
            "value": 0.7874015748031497
          },
          {
            "number": 7,
            "time": 166.48197637500004,
            "value": 0.7874015748031497
          }
        ],
        "10": [
          {
            "number": 10,
            "time": 0,
            "value": 0.5039370078740157
          },
          {
            "number": 10,
            "time": 166.57126200000005,
            "value": 0.5039370078740157
          }
        ],
        "91": [
          {
            "number": 91,
            "time": 151.714134,
            "value": 0.7559055118110236
          },
          {
            "number": 91,
            "time": 166.66054762500005,
            "value": 0.31496062992125984
          }
        ],
        "93": [
          {
            "number": 93,
            "time": 151.714134,
            "value": 0.7559055118110236
          },
          {
            "number": 93,
            "time": 166.80340462500004,
            "value": 0
          }
        ]
      },
      "id": 10,
      "instrumentNumber": 60,
      "instrument": "french horn",
      "instrumentFamily": "brass",
      "channelNumber": 5,
      "isPercussion": false
    },
    {
      "startTime": 35.999964,
      "duration": 42.8571,
      "length": 1,
      "notes": [
        {
          "name": "E2",
          "midi": 40,
          "time": 35.999964,
          "velocity": 1,
          "duration": 6.857136000000004
        }
      ],
      "controlChanges": {
        "1": [
          {
            "number": 1,
            "time": 42.910671375,
            "value": 0
          }
        ],
        "7": [
          {
            "number": 7,
            "time": 0,
            "value": 0.7874015748031497
          },
          {
            "number": 7,
            "time": 43.053528375,
            "value": 0.7874015748031497
          }
        ],
        "10": [
          {
            "number": 10,
            "time": 0,
            "value": 1
          },
          {
            "number": 10,
            "time": 43.142814,
            "value": 0.5039370078740157
          }
        ],
        "91": [
          {
            "number": 91,
            "time": 34.28568,
            "value": 0.7559055118110236
          },
          {
            "number": 91,
            "time": 43.232099625000004,
            "value": 0.31496062992125984
          }
        ],
        "93": [
          {
            "number": 93,
            "time": 34.28568,
            "value": 0.7559055118110236
          },
          {
            "number": 93,
            "time": 43.374956625,
            "value": 0
          }
        ]
      },
      "id": 11,
      "instrumentNumber": 58,
      "instrument": "tuba",
      "instrumentFamily": "brass",
      "channelNumber": 6,
      "isPercussion": false
    },
    {
      "startTime": 166.28554800000003,
      "duration": 179.99981999999997,
      "length": 8,
      "notes": [
        {
          "name": "D2",
          "midi": 38,
          "time": 166.28554800000003,
          "velocity": 1,
          "duration": 1.7142839999999921
        },
        {
          "name": "D2",
          "midi": 38,
          "time": 167.99983200000003,
          "velocity": 1,
          "duration": 1.7142839999999921
        },
        {
          "name": "D2",
          "midi": 38,
          "time": 169.71411600000002,
          "velocity": 1,
          "duration": 1.7142839999999921
        },
        {
          "name": "D2",
          "midi": 38,
          "time": 171.4284,
          "velocity": 1,
          "duration": 1.7142839999999921
        },
        {
          "name": "A2",
          "midi": 45,
          "time": 173.142684,
          "velocity": 1,
          "duration": 1.7142839999999921
        },
        {
          "name": "A2",
          "midi": 45,
          "time": 174.856968,
          "velocity": 1,
          "duration": 1.7142839999999921
        },
        {
          "name": "A2",
          "midi": 45,
          "time": 176.571252,
          "velocity": 1,
          "duration": 1.7142839999999921
        },
        {
          "name": "A2",
          "midi": 45,
          "time": 178.28553599999998,
          "velocity": 1,
          "duration": 1.7142839999999921
        }
      ],
      "controlChanges": {
        "1": [
          {
            "number": 1,
            "time": 180.05339137499996,
            "value": 0
          }
        ],
        "7": [
          {
            "number": 7,
            "time": 0,
            "value": 0.8661417322834646
          },
          {
            "number": 7,
            "time": 180.19624837499995,
            "value": 0.7874015748031497
          }
        ],
        "10": [
          {
            "number": 10,
            "time": 0,
            "value": 0.25196850393700787
          },
          {
            "number": 10,
            "time": 180.28553399999996,
            "value": 0.5039370078740157
          }
        ],
        "91": [
          {
            "number": 91,
            "time": 165.42840600000002,
            "value": 0.7559055118110236
          },
          {
            "number": 91,
            "time": 180.37481962499996,
            "value": 0.31496062992125984
          }
        ],
        "93": [
          {
            "number": 93,
            "time": 165.42840600000002,
            "value": 0.7559055118110236
          },
          {
            "number": 93,
            "time": 180.51767662499995,
            "value": 0
          }
        ]
      },
      "id": 12,
      "instrumentNumber": 61,
      "instrument": "brass section",
      "instrumentFamily": "brass",
      "channelNumber": 7,
      "isPercussion": false
    },
    {
      "startTime": 90.857052,
      "duration": 186.8569560000001,
      "length": 58,
      "notes": [
        {
          "name": "C5",
          "midi": 72,
          "time": 90.857052,
          "velocity": 1,
          "duration": 0.14285700000000645
        },
        {
          "name": "D5",
          "midi": 74,
          "time": 90.999909,
          "velocity": 1,
          "duration": 0.14285700000000645
        },
        {
          "name": "E5",
          "midi": 76,
          "time": 91.14276600000001,
          "velocity": 1,
          "duration": 0.2857139999999987
        },
        {
          "name": "C5",
          "midi": 72,
          "time": 91.42848000000001,
          "velocity": 1,
          "duration": 0.14285700000000645
        },
        {
          "name": "D5",
          "midi": 74,
          "time": 91.57133700000001,
          "velocity": 1,
          "duration": 0.14285700000000645
        },
        {
          "name": "E5",
          "midi": 76,
          "time": 91.71419400000002,
          "velocity": 1,
          "duration": 0.2857139999999987
        },
        {
          "name": "E5",
          "midi": 76,
          "time": 91.99990800000002,
          "velocity": 1,
          "duration": 0.2857139999999987
        },
        {
          "name": "C5",
          "midi": 72,
          "time": 92.28562200000002,
          "velocity": 1,
          "duration": 0.14285700000000645
        },
        {
          "name": "D5",
          "midi": 74,
          "time": 92.42847900000002,
          "velocity": 1,
          "duration": 0.14285700000000645
        },
        {
          "name": "E5",
          "midi": 76,
          "time": 92.57133600000003,
          "velocity": 1,
          "duration": 0.2857139999999987
        },
        {
          "name": "G5",
          "midi": 79,
          "time": 92.85705000000003,
          "velocity": 1,
          "duration": 0.2857139999999987
        },
        {
          "name": "G5",
          "midi": 79,
          "time": 93.14276400000003,
          "velocity": 1,
          "duration": 0.2857139999999987
        },
        {
          "name": "G5",
          "midi": 79,
          "time": 93.42847800000003,
          "velocity": 1,
          "duration": 0.2857139999999987
        },
        {
          "name": "C6",
          "midi": 84,
          "time": 93.71419200000003,
          "velocity": 1,
          "duration": 0.42857100000000514
        },
        {
          "name": "B5",
          "midi": 83,
          "time": 94.14276300000003,
          "velocity": 1,
          "duration": 0.14285700000000645
        },
        {
          "name": "C6",
          "midi": 84,
          "time": 94.28562000000004,
          "velocity": 1,
          "duration": 0.42857100000000514
        },
        {
          "name": "G5",
          "midi": 79,
          "time": 94.71419100000004,
          "velocity": 1,
          "duration": 0.14285700000000645
        },
        {
          "name": "E5",
          "midi": 76,
          "time": 94.85704800000005,
          "velocity": 1,
          "duration": 0.2857139999999987
        },
        {
          "name": "E5",
          "midi": 76,
          "time": 95.14276200000005,
          "velocity": 1,
          "duration": 1.8571409999999986
        },
        {
          "name": "F5",
          "midi": 77,
          "time": 96.99990300000005,
          "velocity": 1,
          "duration": 0.14285700000000645
        },
        {
          "name": "E5",
          "midi": 76,
          "time": 97.14276000000005,
          "velocity": 1,
          "duration": 0.14285700000000645
        },
        {
          "name": "D5",
          "midi": 74,
          "time": 97.28561700000006,
          "velocity": 1,
          "duration": 0.14285700000000645
        },
        {
          "name": "C5",
          "midi": 72,
          "time": 97.42847400000007,
          "velocity": 1,
          "duration": 1.1428559999999948
        },
        {
          "name": "G5",
          "midi": 79,
          "time": 98.57133000000006,
          "velocity": 1,
          "duration": 1.7142840000000064
        },
        {
          "name": "G5",
          "midi": 79,
          "time": 100.28561400000007,
          "velocity": 1,
          "duration": 0.8571419999999961
        },
        {
          "name": "G5",
          "midi": 79,
          "time": 101.14275600000006,
          "velocity": 1,
          "duration": 0.42857100000000514
        },
        {
          "name": "D5",
          "midi": 74,
          "time": 101.57132700000007,
          "velocity": 1,
          "duration": 0.14285700000000645
        },
        {
          "name": "D5",
          "midi": 74,
          "time": 101.71418400000007,
          "velocity": 1,
          "duration": 0.2857139999999987
        },
        {
          "name": "D5",
          "midi": 74,
          "time": 101.99989800000007,
          "velocity": 1,
          "duration": 2.5714260000000024
        },
        {
          "name": "B4",
          "midi": 71,
          "time": 155.99984400000005,
          "velocity": 1,
          "duration": 1.7142839999999637
        },
        {
          "name": "E5",
          "midi": 76,
          "time": 155.99984400000005,
          "velocity": 1,
          "duration": 0.14285699999999224
        },
        {
          "name": "F#5",
          "midi": 78,
          "time": 156.14270100000005,
          "velocity": 1,
          "duration": 0.14285699999999224
        },
        {
          "name": "E5",
          "midi": 76,
          "time": 156.28555800000004,
          "velocity": 1,
          "duration": 0.14285699999999224
        },
        {
          "name": "F#5",
          "midi": 78,
          "time": 156.42841500000003,
          "velocity": 1,
          "duration": 0.14285699999999224
        },
        {
          "name": "E5",
          "midi": 76,
          "time": 156.57127200000002,
          "velocity": 1,
          "duration": 0.14285699999999224
        },
        {
          "name": "F#5",
          "midi": 78,
          "time": 156.714129,
          "velocity": 1,
          "duration": 0.14285699999999224
        },
        {
          "name": "G#5",
          "midi": 80,
          "time": 156.856986,
          "velocity": 1,
          "duration": 0.42857100000000514
        },
        {
          "name": "A5",
          "midi": 81,
          "time": 157.285557,
          "velocity": 1,
          "duration": 0.14285699999999224
        },
        {
          "name": "G#5",
          "midi": 80,
          "time": 157.428414,
          "velocity": 1,
          "duration": 0.2857140000000129
        },
        {
          "name": "G#5",
          "midi": 80,
          "time": 157.71412800000002,
          "velocity": 1,
          "duration": 0.2857140000000129
        },
        {
          "name": "F#5",
          "midi": 78,
          "time": 157.99984200000003,
          "velocity": 1,
          "duration": 0.2857140000000129
        },
        {
          "name": "E5",
          "midi": 76,
          "time": 158.28555600000004,
          "velocity": 1,
          "duration": 0.2857140000000129
        },
        {
          "name": "E5",
          "midi": 76,
          "time": 158.57127000000006,
          "velocity": 1,
          "duration": 0.2857140000000129
        },
        {
          "name": "C#5",
          "midi": 73,
          "time": 158.85698400000007,
          "velocity": 1,
          "duration": 0.2857140000000129
        },
        {
          "name": "D5",
          "midi": 74,
          "time": 159.14269800000008,
          "velocity": 1,
          "duration": 0.2857140000000129
        },
        {
          "name": "E5",
          "midi": 76,
          "time": 159.4284120000001,
          "velocity": 1,
          "duration": 3.428568000000041
        },
        {
          "name": "E4",
          "midi": 64,
          "time": 159.9998400000001,
          "velocity": 1,
          "duration": 0.2857140000000129
        },
        {
          "name": "B4",
          "midi": 71,
          "time": 160.2855540000001,
          "velocity": 1,
          "duration": 0.8571420000000103
        },
        {
          "name": "B4",
          "midi": 71,
          "time": 161.14269600000011,
          "velocity": 1,
          "duration": 0.5714279999999974
        },
        {
          "name": "G#4",
          "midi": 68,
          "time": 161.7141240000001,
          "velocity": 1,
          "duration": 0.2857140000000129
        },
        {
          "name": "A4",
          "midi": 69,
          "time": 161.99983800000012,
          "velocity": 1,
          "duration": 0.42857100000000514
        },
        {
          "name": "G#4",
          "midi": 68,
          "time": 162.42840900000013,
          "velocity": 1,
          "duration": 0.14285699999999224
        },
        {
          "name": "A4",
          "midi": 69,
          "time": 162.57126600000012,
          "velocity": 1,
          "duration": 0.2857140000000129
        },
        {
          "name": "B4",
          "midi": 71,
          "time": 162.85698000000014,
          "velocity": 1,
          "duration": 3.4285680000000127
        },
        {
          "name": "E2",
          "midi": 40,
          "time": 179.99982000000014,
          "velocity": 0.7874015748031497,
          "duration": 1.7142839999999921
        },
        {
          "name": "E2",
          "midi": 40,
          "time": 181.71410400000013,
          "velocity": 0.7874015748031497,
          "duration": 1.7142839999999921
        },
        {
          "name": "E2",
          "midi": 40,
          "time": 183.42838800000013,
          "velocity": 0.7874015748031497,
          "duration": 1.7142839999999921
        },
        {
          "name": "E2",
          "midi": 40,
          "time": 185.14267200000012,
          "velocity": 0.7874015748031497,
          "duration": 1.7142839999999921
        }
      ],
      "controlChanges": {
        "1": [
          {
            "number": 1,
            "time": 186.9105273750001,
            "value": 0
          }
        ],
        "7": [
          {
            "number": 7,
            "time": 0,
            "value": 0.7874015748031497
          },
          {
            "number": 7,
            "time": 154.30341712500007,
            "value": 1
          },
          {
            "number": 7,
            "time": 187.0533843750001,
            "value": 0.7874015748031497
          }
        ],
        "10": [
          {
            "number": 10,
            "time": 0,
            "value": 1
          },
          {
            "number": 10,
            "time": 187.1426700000001,
            "value": 0.5039370078740157
          }
        ],
        "91": [
          {
            "number": 91,
            "time": 89.714196,
            "value": 0.7559055118110236
          },
          {
            "number": 91,
            "time": 187.2319556250001,
            "value": 0.31496062992125984
          }
        ],
        "93": [
          {
            "number": 93,
            "time": 89.714196,
            "value": 0.7559055118110236
          },
          {
            "number": 93,
            "time": 187.3748126250001,
            "value": 0
          }
        ]
      },
      "id": 13,
      "instrumentNumber": 56,
      "instrument": "trumpet",
      "instrumentFamily": "brass",
      "channelNumber": 8,
      "isPercussion": false
    },
    {
      "startTime": 22.285692,
      "duration": 155.99984400000028,
      "length": 117,
      "notes": [
        {
          "name": "E4",
          "midi": 64,
          "time": 22.285692,
          "velocity": 1,
          "duration": 1.7142840000000028
        },
        {
          "name": "D4",
          "midi": 62,
          "time": 23.999976000000004,
          "velocity": 1,
          "duration": 1.571427
        },
        {
          "name": "E4",
          "midi": 64,
          "time": 25.571403000000004,
          "velocity": 1,
          "duration": 0.1428570000000029
        },
        {
          "name": "C4",
          "midi": 60,
          "time": 25.714260000000007,
          "velocity": 1,
          "duration": 1.4285700000000006
        },
        {
          "name": "C4",
          "midi": 60,
          "time": 27.142830000000007,
          "velocity": 1,
          "duration": 0.14285699999999935
        },
        {
          "name": "D4",
          "midi": 62,
          "time": 27.285687000000006,
          "velocity": 1,
          "duration": 0.14285699999999935
        },
        {
          "name": "B3",
          "midi": 59,
          "time": 27.428544000000006,
          "velocity": 1,
          "duration": 1.7142840000000028
        },
        {
          "name": "A3",
          "midi": 57,
          "time": 29.14282800000001,
          "velocity": 1,
          "duration": 1.7142840000000028
        },
        {
          "name": "G3",
          "midi": 55,
          "time": 30.85711200000001,
          "velocity": 1,
          "duration": 1.7142840000000028
        },
        {
          "name": "F#3",
          "midi": 54,
          "time": 32.571396000000014,
          "velocity": 1,
          "duration": 1.4285700000000077
        },
        {
          "name": "D3",
          "midi": 50,
          "time": 33.99996600000002,
          "velocity": 1,
          "duration": 0.14285699999999935
        },
        {
          "name": "D#3",
          "midi": 51,
          "time": 34.14282300000002,
          "velocity": 1,
          "duration": 0.14285699999999935
        },
        {
          "name": "E3",
          "midi": 52,
          "time": 34.28568000000002,
          "velocity": 1,
          "duration": 1.7142840000000135
        },
        {
          "name": "E2",
          "midi": 40,
          "time": 35.999964000000034,
          "velocity": 1,
          "duration": 6.857136000000004
        },
        {
          "name": "G4",
          "midi": 67,
          "time": 42.85710000000004,
          "velocity": 1,
          "duration": 1.7142839999999993
        },
        {
          "name": "G4",
          "midi": 67,
          "time": 44.57138400000004,
          "velocity": 1,
          "duration": 1.7142839999999993
        },
        {
          "name": "G4",
          "midi": 67,
          "time": 46.28566800000004,
          "velocity": 1,
          "duration": 1.7142839999999993
        },
        {
          "name": "G4",
          "midi": 67,
          "time": 47.999952000000036,
          "velocity": 1,
          "duration": 1.7142839999999993
        },
        {
          "name": "A3",
          "midi": 57,
          "time": 77.71420800000004,
          "velocity": 1,
          "duration": 0.2857139999999987
        },
        {
          "name": "E4",
          "midi": 64,
          "time": 77.99992200000004,
          "velocity": 1,
          "duration": 1.4285699999999935
        },
        {
          "name": "C#4",
          "midi": 61,
          "time": 79.42849200000003,
          "velocity": 1,
          "duration": 0.2857139999999987
        },
        {
          "name": "D4",
          "midi": 62,
          "time": 79.71420600000003,
          "velocity": 1,
          "duration": 0.42857100000000514
        },
        {
          "name": "C#4",
          "midi": 61,
          "time": 80.14277700000004,
          "velocity": 1,
          "duration": 0.14285700000000645
        },
        {
          "name": "D4",
          "midi": 62,
          "time": 80.28563400000004,
          "velocity": 1,
          "duration": 0.2857139999999987
        },
        {
          "name": "D4",
          "midi": 62,
          "time": 80.57134800000004,
          "velocity": 1,
          "duration": 0.42857100000000514
        },
        {
          "name": "C#4",
          "midi": 61,
          "time": 80.99991900000005,
          "velocity": 1,
          "duration": 0.14285700000000645
        },
        {
          "name": "B3",
          "midi": 59,
          "time": 81.14277600000005,
          "velocity": 1,
          "duration": 0.2857139999999987
        },
        {
          "name": "A3",
          "midi": 57,
          "time": 81.42849000000005,
          "velocity": 1,
          "duration": 0.8571419999999961
        },
        {
          "name": "A3",
          "midi": 57,
          "time": 82.28563200000005,
          "velocity": 1,
          "duration": 0.5714279999999974
        },
        {
          "name": "E3",
          "midi": 52,
          "time": 82.85706000000005,
          "velocity": 1,
          "duration": 0.2857139999999987
        },
        {
          "name": "E3",
          "midi": 52,
          "time": 83.14277400000005,
          "velocity": 1,
          "duration": 0.8571419999999961
        },
        {
          "name": "A3",
          "midi": 57,
          "time": 84.57134400000004,
          "velocity": 1,
          "duration": 0.2857139999999987
        },
        {
          "name": "E4",
          "midi": 64,
          "time": 84.85705800000004,
          "velocity": 1,
          "duration": 1.4285699999999935
        },
        {
          "name": "C#4",
          "midi": 61,
          "time": 86.28562800000003,
          "velocity": 1,
          "duration": 0.2857139999999987
        },
        {
          "name": "D4",
          "midi": 62,
          "time": 86.57134200000003,
          "velocity": 1,
          "duration": 0.42857100000000514
        },
        {
          "name": "C#4",
          "midi": 61,
          "time": 86.99991300000003,
          "velocity": 1,
          "duration": 0.14285700000000645
        },
        {
          "name": "D4",
          "midi": 62,
          "time": 87.14277000000004,
          "velocity": 1,
          "duration": 0.2857139999999987
        },
        {
          "name": "C#4",
          "midi": 61,
          "time": 87.42848400000004,
          "velocity": 1,
          "duration": 0.42857100000000514
        },
        {
          "name": "E4",
          "midi": 64,
          "time": 87.85705500000005,
          "velocity": 1,
          "duration": 0.14285700000000645
        },
        {
          "name": "A4",
          "midi": 69,
          "time": 87.99991200000005,
          "velocity": 1,
          "duration": 0.2857139999999987
        },
        {
          "name": "A4",
          "midi": 69,
          "time": 88.28562600000005,
          "velocity": 1,
          "duration": 0.8571419999999961
        },
        {
          "name": "A4",
          "midi": 69,
          "time": 89.14276800000005,
          "velocity": 1,
          "duration": 1.7142840000000064
        },
        {
          "name": "C5",
          "midi": 72,
          "time": 90.85705200000005,
          "velocity": 1,
          "duration": 0.14285700000000645
        },
        {
          "name": "D5",
          "midi": 74,
          "time": 90.99990900000006,
          "velocity": 1,
          "duration": 0.14285700000000645
        },
        {
          "name": "E5",
          "midi": 76,
          "time": 91.14276600000007,
          "velocity": 1,
          "duration": 0.2857139999999987
        },
        {
          "name": "C5",
          "midi": 72,
          "time": 91.42848000000006,
          "velocity": 1,
          "duration": 0.14285700000000645
        },
        {
          "name": "D5",
          "midi": 74,
          "time": 91.57133700000007,
          "velocity": 1,
          "duration": 0.14285700000000645
        },
        {
          "name": "E5",
          "midi": 76,
          "time": 91.71419400000008,
          "velocity": 1,
          "duration": 0.2857139999999987
        },
        {
          "name": "E5",
          "midi": 76,
          "time": 91.99990800000008,
          "velocity": 1,
          "duration": 0.2857139999999987
        },
        {
          "name": "C5",
          "midi": 72,
          "time": 92.28562200000007,
          "velocity": 1,
          "duration": 0.14285700000000645
        },
        {
          "name": "D5",
          "midi": 74,
          "time": 92.42847900000008,
          "velocity": 1,
          "duration": 0.14285700000000645
        },
        {
          "name": "E5",
          "midi": 76,
          "time": 92.57133600000009,
          "velocity": 1,
          "duration": 0.2857139999999987
        },
        {
          "name": "G5",
          "midi": 79,
          "time": 92.85705000000009,
          "velocity": 1,
          "duration": 0.2857139999999987
        },
        {
          "name": "G5",
          "midi": 79,
          "time": 93.14276400000008,
          "velocity": 1,
          "duration": 0.2857139999999987
        },
        {
          "name": "G5",
          "midi": 79,
          "time": 93.42847800000008,
          "velocity": 1,
          "duration": 0.2857139999999987
        },
        {
          "name": "C6",
          "midi": 84,
          "time": 93.71419200000008,
          "velocity": 1,
          "duration": 0.42857100000000514
        },
        {
          "name": "B5",
          "midi": 83,
          "time": 94.14276300000009,
          "velocity": 1,
          "duration": 0.14285700000000645
        },
        {
          "name": "C6",
          "midi": 84,
          "time": 94.2856200000001,
          "velocity": 1,
          "duration": 0.42857100000000514
        },
        {
          "name": "G5",
          "midi": 79,
          "time": 94.7141910000001,
          "velocity": 1,
          "duration": 0.14285700000000645
        },
        {
          "name": "E5",
          "midi": 76,
          "time": 94.8570480000001,
          "velocity": 1,
          "duration": 0.2857139999999987
        },
        {
          "name": "E5",
          "midi": 76,
          "time": 95.1427620000001,
          "velocity": 1,
          "duration": 1.8571409999999986
        },
        {
          "name": "F5",
          "midi": 77,
          "time": 96.9999030000001,
          "velocity": 1,
          "duration": 0.14285700000000645
        },
        {
          "name": "E5",
          "midi": 76,
          "time": 97.14276000000011,
          "velocity": 1,
          "duration": 0.14285700000000645
        },
        {
          "name": "D5",
          "midi": 74,
          "time": 97.28561700000012,
          "velocity": 1,
          "duration": 0.14285700000000645
        },
        {
          "name": "C5",
          "midi": 72,
          "time": 97.42847400000012,
          "velocity": 1,
          "duration": 1.1428559999999948
        },
        {
          "name": "G4",
          "midi": 67,
          "time": 98.28561600000012,
          "velocity": 1,
          "duration": 0.2857139999999987
        },
        {
          "name": "D5",
          "midi": 74,
          "time": 98.57133000000012,
          "velocity": 1,
          "duration": 1.4285699999999935
        },
        {
          "name": "G5",
          "midi": 79,
          "time": 98.57133000000012,
          "velocity": 1,
          "duration": 1.7142839999999921
        },
        {
          "name": "B4",
          "midi": 71,
          "time": 99.99990000000011,
          "velocity": 1,
          "duration": 0.2857139999999987
        },
        {
          "name": "C5",
          "midi": 72,
          "time": 100.28561400000011,
          "velocity": 1,
          "duration": 0.42857100000000514
        },
        {
          "name": "G5",
          "midi": 79,
          "time": 100.28561400000011,
          "velocity": 1,
          "duration": 0.8571420000000103
        },
        {
          "name": "B4",
          "midi": 71,
          "time": 100.71418500000011,
          "velocity": 1,
          "duration": 0.14285700000000645
        },
        {
          "name": "C5",
          "midi": 72,
          "time": 100.85704200000012,
          "velocity": 1,
          "duration": 0.2857139999999987
        },
        {
          "name": "C5",
          "midi": 72,
          "time": 101.14275600000012,
          "velocity": 1,
          "duration": 0.42857100000000514
        },
        {
          "name": "G5",
          "midi": 79,
          "time": 101.14275600000012,
          "velocity": 1,
          "duration": 0.42857100000000514
        },
        {
          "name": "B4",
          "midi": 71,
          "time": 101.57132700000012,
          "velocity": 1,
          "duration": 0.14285700000000645
        },
        {
          "name": "D5",
          "midi": 74,
          "time": 101.57132700000012,
          "velocity": 1,
          "duration": 0.14285700000000645
        },
        {
          "name": "A4",
          "midi": 69,
          "time": 101.71418400000013,
          "velocity": 1,
          "duration": 0.2857139999999987
        },
        {
          "name": "D5",
          "midi": 74,
          "time": 101.71418400000013,
          "velocity": 1,
          "duration": 0.2857139999999987
        },
        {
          "name": "G4",
          "midi": 67,
          "time": 101.99989800000013,
          "velocity": 1,
          "duration": 0.8571419999999961
        },
        {
          "name": "D5",
          "midi": 74,
          "time": 101.99989800000013,
          "velocity": 1,
          "duration": 2.5714260000000024
        },
        {
          "name": "G4",
          "midi": 67,
          "time": 102.85704000000013,
          "velocity": 1,
          "duration": 1.7142840000000064
        },
        {
          "name": "E5",
          "midi": 76,
          "time": 105.42846600000013,
          "velocity": 1,
          "duration": 0.8571419999999961
        },
        {
          "name": "E5",
          "midi": 76,
          "time": 106.28560800000012,
          "velocity": 1,
          "duration": 1.7142840000000064
        },
        {
          "name": "A3",
          "midi": 57,
          "time": 107.99989200000013,
          "velocity": 1,
          "duration": 1.7142840000000064
        },
        {
          "name": "A3",
          "midi": 57,
          "time": 109.71417600000014,
          "velocity": 1,
          "duration": 1.7142840000000064
        },
        {
          "name": "E4",
          "midi": 64,
          "time": 111.42846000000014,
          "velocity": 1,
          "duration": 0.42857100000000514
        },
        {
          "name": "E4",
          "midi": 64,
          "time": 111.85703100000015,
          "velocity": 1,
          "duration": 0.2857139999999987
        },
        {
          "name": "E4",
          "midi": 64,
          "time": 112.14274500000015,
          "velocity": 1,
          "duration": 0.14285700000000645
        },
        {
          "name": "E4",
          "midi": 64,
          "time": 112.28560200000015,
          "velocity": 1,
          "duration": 0.42857100000000514
        },
        {
          "name": "E4",
          "midi": 64,
          "time": 112.71417300000016,
          "velocity": 1,
          "duration": 0.2857139999999987
        },
        {
          "name": "E4",
          "midi": 64,
          "time": 112.99988700000016,
          "velocity": 1,
          "duration": 0.14285700000000645
        },
        {
          "name": "E4",
          "midi": 64,
          "time": 113.14274400000016,
          "velocity": 1,
          "duration": 0.42857100000000514
        },
        {
          "name": "E4",
          "midi": 64,
          "time": 113.57131500000017,
          "velocity": 1,
          "duration": 0.2857139999999987
        },
        {
          "name": "E4",
          "midi": 64,
          "time": 113.85702900000017,
          "velocity": 1,
          "duration": 0.14285700000000645
        },
        {
          "name": "C#4",
          "midi": 61,
          "time": 113.99988600000017,
          "velocity": 1,
          "duration": 0.42857100000000514
        },
        {
          "name": "D4",
          "midi": 62,
          "time": 114.42845700000018,
          "velocity": 1,
          "duration": 0.42857100000000514
        },
        {
          "name": "E4",
          "midi": 64,
          "time": 114.85702800000018,
          "velocity": 1,
          "duration": 0.42857100000000514
        },
        {
          "name": "E4",
          "midi": 64,
          "time": 115.28559900000019,
          "velocity": 1,
          "duration": 0.2857139999999987
        },
        {
          "name": "E4",
          "midi": 64,
          "time": 115.57131300000019,
          "velocity": 1,
          "duration": 0.14285700000000645
        },
        {
          "name": "E4",
          "midi": 64,
          "time": 115.7141700000002,
          "velocity": 1,
          "duration": 0.42857100000000514
        },
        {
          "name": "E4",
          "midi": 64,
          "time": 116.1427410000002,
          "velocity": 1,
          "duration": 0.2857139999999987
        },
        {
          "name": "E4",
          "midi": 64,
          "time": 116.4284550000002,
          "velocity": 1,
          "duration": 0.14285700000000645
        },
        {
          "name": "E4",
          "midi": 64,
          "time": 116.5713120000002,
          "velocity": 1,
          "duration": 0.42857100000000514
        },
        {
          "name": "E4",
          "midi": 64,
          "time": 116.99988300000021,
          "velocity": 1,
          "duration": 0.2857139999999987
        },
        {
          "name": "E4",
          "midi": 64,
          "time": 117.28559700000021,
          "velocity": 1,
          "duration": 0.14285700000000645
        },
        {
          "name": "E4",
          "midi": 64,
          "time": 117.42845400000022,
          "velocity": 1,
          "duration": 0.8571419999999961
        },
        {
          "name": "B4",
          "midi": 71,
          "time": 118.28559600000021,
          "velocity": 1,
          "duration": 1.7142840000000064
        },
        {
          "name": "B4",
          "midi": 71,
          "time": 119.99988000000022,
          "velocity": 1,
          "duration": 1.7142840000000064
        },
        {
          "name": "E3",
          "midi": 52,
          "time": 121.71416400000022,
          "velocity": 1,
          "duration": 1.7142840000000064
        },
        {
          "name": "E3",
          "midi": 52,
          "time": 123.42844800000023,
          "velocity": 1,
          "duration": 1.7142840000000064
        },
        {
          "name": "E4",
          "midi": 64,
          "time": 153.14270400000024,
          "velocity": 1,
          "duration": 0.2857140000000129
        },
        {
          "name": "B4",
          "midi": 71,
          "time": 153.42841800000025,
          "velocity": 1,
          "duration": 1.4285700000000077
        },
        {
          "name": "G#4",
          "midi": 68,
          "time": 154.85698800000026,
          "velocity": 1,
          "duration": 0.2857140000000129
        },
        {
          "name": "A4",
          "midi": 69,
          "time": 155.14270200000027,
          "velocity": 1,
          "duration": 0.42857100000000514
        },
        {
          "name": "G#4",
          "midi": 68,
          "time": 155.57127300000028,
          "velocity": 1,
          "duration": 0.14285699999999224
        },
        {
          "name": "A4",
          "midi": 69,
          "time": 155.71413000000027,
          "velocity": 1,
          "duration": 0.2857140000000129
        }
      ],
      "controlChanges": {
        "1": [
          {
            "number": 1,
            "time": 156.05341537500027,
            "value": 0
          }
        ],
        "7": [
          {
            "number": 7,
            "time": 0,
            "value": 0.7874015748031497
          },
          {
            "number": 7,
            "time": 156.19627237500026,
            "value": 0.7874015748031497
          }
        ],
        "10": [
          {
            "number": 10,
            "time": 0,
            "value": 0
          },
          {
            "number": 10,
            "time": 22.285692,
            "value": 0
          },
          {
            "number": 10,
            "time": 22.53569175,
            "value": 0.007874015748031496
          },
          {
            "number": 10,
            "time": 22.785691500000002,
            "value": 0.015748031496062992
          },
          {
            "number": 10,
            "time": 23.035691250000003,
            "value": 0.023622047244094488
          },
          {
            "number": 10,
            "time": 23.249976750000002,
            "value": 0.031496062992125984
          },
          {
            "number": 10,
            "time": 23.499976500000002,
            "value": 0.03937007874015748
          },
          {
            "number": 10,
            "time": 23.749976250000003,
            "value": 0.047244094488188976
          },
          {
            "number": 10,
            "time": 23.999976000000004,
            "value": 0.05511811023622047
          },
          {
            "number": 10,
            "time": 24.214261500000003,
            "value": 0.06299212598425197
          },
          {
            "number": 10,
            "time": 24.464261250000003,
            "value": 0.07086614173228346
          },
          {
            "number": 10,
            "time": 24.714261000000004,
            "value": 0.07874015748031496
          },
          {
            "number": 10,
            "time": 24.964260750000005,
            "value": 0.08661417322834646
          },
          {
            "number": 10,
            "time": 25.178546250000004,
            "value": 0.09448818897637795
          },
          {
            "number": 10,
            "time": 25.428546000000004,
            "value": 0.10236220472440945
          },
          {
            "number": 10,
            "time": 25.678545750000005,
            "value": 0.11023622047244094
          },
          {
            "number": 10,
            "time": 25.928545500000006,
            "value": 0.11811023622047244
          },
          {
            "number": 10,
            "time": 26.142831000000005,
            "value": 0.12598425196850394
          },
          {
            "number": 10,
            "time": 26.392830750000005,
            "value": 0.13385826771653545
          },
          {
            "number": 10,
            "time": 26.642830500000006,
            "value": 0.14173228346456693
          },
          {
            "number": 10,
            "time": 26.892830250000006,
            "value": 0.14960629921259844
          },
          {
            "number": 10,
            "time": 27.107115750000006,
            "value": 0.15748031496062992
          },
          {
            "number": 10,
            "time": 27.357115500000006,
            "value": 0.16535433070866143
          },
          {
            "number": 10,
            "time": 27.607115250000007,
            "value": 0.1732283464566929
          },
          {
            "number": 10,
            "time": 27.857115000000007,
            "value": 0.18110236220472442
          },
          {
            "number": 10,
            "time": 28.071400500000006,
            "value": 0.1889763779527559
          },
          {
            "number": 10,
            "time": 28.321400250000007,
            "value": 0.1968503937007874
          },
          {
            "number": 10,
            "time": 28.571400000000008,
            "value": 0.2047244094488189
          },
          {
            "number": 10,
            "time": 28.82139975000001,
            "value": 0.2125984251968504
          },
          {
            "number": 10,
            "time": 29.035685250000007,
            "value": 0.2204724409448819
          },
          {
            "number": 10,
            "time": 29.285685000000008,
            "value": 0.2283464566929134
          },
          {
            "number": 10,
            "time": 29.53568475000001,
            "value": 0.23622047244094488
          },
          {
            "number": 10,
            "time": 29.78568450000001,
            "value": 0.2440944881889764
          },
          {
            "number": 10,
            "time": 29.99997000000001,
            "value": 0.25196850393700787
          },
          {
            "number": 10,
            "time": 30.24996975000001,
            "value": 0.25984251968503935
          },
          {
            "number": 10,
            "time": 30.49996950000001,
            "value": 0.2677165354330709
          },
          {
            "number": 10,
            "time": 30.74996925000001,
            "value": 0.2755905511811024
          },
          {
            "number": 10,
            "time": 30.964254750000013,
            "value": 0.28346456692913385
          },
          {
            "number": 10,
            "time": 31.214254500000013,
            "value": 0.29133858267716534
          },
          {
            "number": 10,
            "time": 31.464254250000014,
            "value": 0.2992125984251969
          },
          {
            "number": 10,
            "time": 31.714254000000015,
            "value": 0.30708661417322836
          },
          {
            "number": 10,
            "time": 31.928539500000014,
            "value": 0.31496062992125984
          },
          {
            "number": 10,
            "time": 32.178539250000014,
            "value": 0.3228346456692913
          },
          {
            "number": 10,
            "time": 32.428539000000015,
            "value": 0.33070866141732286
          },
          {
            "number": 10,
            "time": 32.678538750000016,
            "value": 0.33858267716535434
          },
          {
            "number": 10,
            "time": 32.89282425000002,
            "value": 0.3464566929133858
          },
          {
            "number": 10,
            "time": 33.14282400000002,
            "value": 0.3543307086614173
          },
          {
            "number": 10,
            "time": 33.39282375000002,
            "value": 0.36220472440944884
          },
          {
            "number": 10,
            "time": 33.64282350000002,
            "value": 0.3700787401574803
          },
          {
            "number": 10,
            "time": 33.85710900000002,
            "value": 0.3779527559055118
          },
          {
            "number": 10,
            "time": 34.10710875000002,
            "value": 0.3858267716535433
          },
          {
            "number": 10,
            "time": 34.357108500000024,
            "value": 0.3937007874015748
          },
          {
            "number": 10,
            "time": 34.607108250000024,
            "value": 0.4015748031496063
          },
          {
            "number": 10,
            "time": 34.82139375000003,
            "value": 0.4094488188976378
          },
          {
            "number": 10,
            "time": 35.07139350000003,
            "value": 0.41732283464566927
          },
          {
            "number": 10,
            "time": 35.32139325000003,
            "value": 0.4251968503937008
          },
          {
            "number": 10,
            "time": 35.57139300000003,
            "value": 0.4330708661417323
          },
          {
            "number": 10,
            "time": 35.78567850000003,
            "value": 0.4409448818897638
          },
          {
            "number": 10,
            "time": 36.03567825000003,
            "value": 0.44881889763779526
          },
          {
            "number": 10,
            "time": 36.28567800000003,
            "value": 0.4566929133858268
          },
          {
            "number": 10,
            "time": 36.53567775000003,
            "value": 0.4645669291338583
          },
          {
            "number": 10,
            "time": 36.749963250000036,
            "value": 0.47244094488188976
          },
          {
            "number": 10,
            "time": 36.99996300000004,
            "value": 0.48031496062992124
          },
          {
            "number": 10,
            "time": 37.24996275000004,
            "value": 0.4881889763779528
          },
          {
            "number": 10,
            "time": 37.49996250000004,
            "value": 0.49606299212598426
          },
          {
            "number": 10,
            "time": 37.712759906250035,
            "value": 0.5039370078740157
          },
          {
            "number": 10,
            "time": 156.28555800000026,
            "value": 0.5039370078740157
          }
        ],
        "91": [
          {
            "number": 91,
            "time": 20.571408,
            "value": 1
          },
          {
            "number": 91,
            "time": 75.99992400000004,
            "value": 0.7559055118110236
          },
          {
            "number": 91,
            "time": 156.37484362500027,
            "value": 0.31496062992125984
          }
        ],
        "93": [
          {
            "number": 93,
            "time": 20.571408,
            "value": 1
          },
          {
            "number": 93,
            "time": 75.99992400000004,
            "value": 0.7559055118110236
          },
          {
            "number": 93,
            "time": 156.51770062500026,
            "value": 0
          }
        ]
      },
      "id": 14,
      "instrumentNumber": 62,
      "instrument": "synthbrass 1",
      "instrumentFamily": "brass",
      "channelNumber": 1,
      "isPercussion": false
    }
  ]
}
